solid OpenSCAD_Model
  facet normal -1 1.22465e-16 0
    outer loop
      vertex -27.1029 8.16269 0
      vertex -27.1029 8.16269 5
      vertex -27.1029 9.83731 0
    endloop
  endfacet
  facet normal 0 0 -1
    outer loop
      vertex -27.1029 8.16269 0
      vertex -27.1029 9.83731 0
      vertex 74.99 0 0
    endloop
  endfacet
  facet normal -1 1.22465e-16 0
    outer loop
      vertex -27.1029 8.16269 5
      vertex -27.1029 9.83731 5
      vertex -27.1029 9.83731 0
    endloop
  endfacet
  facet normal 0 0 1
    outer loop
      vertex -27.1029 8.16269 5
      vertex 63.49 0 5
      vertex 63.49 5 5
    endloop
  endfacet
  facet normal 0 0 1
    outer loop
      vertex -27.1029 8.16269 5
      vertex 63.49 5 5
      vertex -27.1029 9.83731 5
    endloop
  endfacet
  facet normal 0 0 1
    outer loop
      vertex -27.1029 9.83731 5
      vertex 51.0012 9 5
      vertex 51.402 10.626 5
    endloop
  endfacet
  facet normal 0 0 1
    outer loop
      vertex -27.1029 9.83731 5
      vertex 51.402 10.626 5
      vertex 52.5125 11.8794 5
    endloop
  endfacet
  facet normal 0 0 1
    outer loop
      vertex -27.1029 9.83731 5
      vertex 51.402 7.37404 5
      vertex 51.0012 9 5
    endloop
  endfacet
  facet normal 0 0 1
    outer loop
      vertex -27.1029 9.83731 5
      vertex 52.5125 11.8794 5
      vertex 54.0783 12.4733 5
    endloop
  endfacet
  facet normal 0 0 1
    outer loop
      vertex -27.1029 9.83731 5
      vertex 52.5125 6.12057 5
      vertex 51.402 7.37404 5
    endloop
  endfacet
  facet normal 0 0 1
    outer loop
      vertex -27.1029 9.83731 5
      vertex 54.0783 12.4733 5
      vertex 62.6568 12.8036 5
    endloop
  endfacet
  facet normal 0 0 1
    outer loop
      vertex -27.1029 9.83731 5
      vertex 54.0783 5.52675 5
      vertex 52.5125 6.12057 5
    endloop
  endfacet
  facet normal 0 0 1
    outer loop
      vertex -27.1029 9.83731 5
      vertex 60.864 15.364 5
      vertex 60.2851 15.8944 5
    endloop
  endfacet
  facet normal 0 0 1
    outer loop
      vertex -27.1029 9.83731 5
      vertex 61.3944 14.7851 5
      vertex 60.864 15.364 5
    endloop
  endfacet
  facet normal 0 0 1
    outer loop
      vertex -27.1029 9.83731 5
      vertex 61.8724 14.1622 5
      vertex 61.3944 14.7851 5
    endloop
  endfacet
  facet normal 0 0 1
    outer loop
      vertex -27.1029 9.83731 5
      vertex 62.2942 13.5 5
      vertex 61.8724 14.1622 5
    endloop
  endfacet
  facet normal 0 0 1
    outer loop
      vertex -27.1029 9.83731 5
      vertex 62.6568 12.8036 5
      vertex 62.2942 13.5 5
    endloop
  endfacet
  facet normal 0 0 1
    outer loop
      vertex -27.1029 9.83731 5
      vertex 63.49 5 5
      vertex 63.5 5 5
    endloop
  endfacet
  facet normal 0 0 1
    outer loop
      vertex -27.1029 9.83731 5
      vertex 63.5 5 5
      vertex 54.0783 5.52675 5
    endloop
  endfacet
  facet normal -0.885456 -0.464723 0
    outer loop
      vertex -27.8811 11.3201 0
      vertex -27.1029 9.83731 0
      vertex -27.8811 11.3201 5
    endloop
  endfacet
  facet normal 0 0 -1
    outer loop
      vertex -27.8811 11.3201 0
      vertex 74.99 0 0
      vertex -27.1029 9.83731 0
    endloop
  endfacet
  facet normal -0.885456 -0.464723 0
    outer loop
      vertex -27.8811 11.3201 5
      vertex -27.1029 9.83731 0
      vertex -27.1029 9.83731 5
    endloop
  endfacet
  facet normal 0 0 1
    outer loop
      vertex -27.8811 11.3201 5
      vertex -27.1029 9.83731 5
      vertex 60.2851 15.8944 5
    endloop
  endfacet
  facet normal 0 0 1
    outer loop
      vertex -27.8811 11.3201 5
      vertex 55.2844 17.9658 5
      vertex 54.5 18 5
    endloop
  endfacet
  facet normal 0 0 1
    outer loop
      vertex -27.8811 11.3201 5
      vertex 56.0628 17.8633 5
      vertex 55.2844 17.9658 5
    endloop
  endfacet
  facet normal 0 0 1
    outer loop
      vertex -27.8811 11.3201 5
      vertex 56.8294 17.6933 5
      vertex 56.0628 17.8633 5
    endloop
  endfacet
  facet normal 0 0 1
    outer loop
      vertex -27.8811 11.3201 5
      vertex 57.5782 17.4572 5
      vertex 56.8294 17.6933 5
    endloop
  endfacet
  facet normal 0 0 1
    outer loop
      vertex -27.8811 11.3201 5
      vertex 58.3036 17.1568 5
      vertex 57.5782 17.4572 5
    endloop
  endfacet
  facet normal 0 0 1
    outer loop
      vertex -27.8811 11.3201 5
      vertex 59 16.7942 5
      vertex 58.3036 17.1568 5
    endloop
  endfacet
  facet normal 0 0 1
    outer loop
      vertex -27.8811 11.3201 5
      vertex 59.6622 16.3724 5
      vertex 59 16.7942 5
    endloop
  endfacet
  facet normal 0 0 1
    outer loop
      vertex -27.8811 11.3201 5
      vertex 60.2851 15.8944 5
      vertex 59.6622 16.3724 5
    endloop
  endfacet
  facet normal 0 0 -1
    outer loop
      vertex -27.8811 6.67989 0
      vertex -27.1029 8.16269 0
      vertex 74.99 0 0
    endloop
  endfacet
  facet normal -0.885456 0.464723 0
    outer loop
      vertex -27.8811 6.67989 0
      vertex -27.8811 6.67989 5
      vertex -27.1029 8.16269 0
    endloop
  endfacet
  facet normal -0.885456 0.464723 0
    outer loop
      vertex -27.8811 6.67989 5
      vertex -27.1029 8.16269 5
      vertex -27.1029 8.16269 0
    endloop
  endfacet
  facet normal 0 0 1
    outer loop
      vertex -27.8811 6.67989 5
      vertex 63.49 0 5
      vertex -27.1029 8.16269 5
    endloop
  endfacet
  facet normal -0.568065 -0.822984 0
    outer loop
      vertex -29.2593 12.2714 0
      vertex -27.8811 11.3201 0
      vertex -29.2593 12.2714 5
    endloop
  endfacet
  facet normal 0 0 -1
    outer loop
      vertex -29.2593 12.2714 0
      vertex 74.99 0 0
      vertex -27.8811 11.3201 0
    endloop
  endfacet
  facet normal -0.568065 -0.822984 0
    outer loop
      vertex -29.2593 12.2714 5
      vertex -27.8811 11.3201 0
      vertex -27.8811 11.3201 5
    endloop
  endfacet
  facet normal 0 0 1
    outer loop
      vertex -29.2593 12.2714 5
      vertex -27.8811 11.3201 5
      vertex 54.5 18 5
    endloop
  endfacet
  facet normal 0 0 -1
    outer loop
      vertex -29.2593 5.7286 0
      vertex -27.8811 6.67989 0
      vertex 74.99 0 0
    endloop
  endfacet
  facet normal -0.568065 0.822984 0
    outer loop
      vertex -29.2593 5.7286 0
      vertex -29.2593 5.7286 5
      vertex -27.8811 6.67989 0
    endloop
  endfacet
  facet normal -0.568065 0.822984 0
    outer loop
      vertex -29.2593 5.7286 5
      vertex -27.8811 6.67989 5
      vertex -27.8811 6.67989 0
    endloop
  endfacet
  facet normal 0 0 1
    outer loop
      vertex -29.2593 5.7286 5
      vertex 63.49 0 5
      vertex -27.8811 6.67989 5
    endloop
  endfacet
  facet normal 0 1 0
    outer loop
      vertex -30.5 18 0
      vertex -30.5 18 5
      vertex 54.5 18 0
    endloop
  endfacet
  facet normal 0 0 -1
    outer loop
      vertex -30.5 18 0
      vertex 51.0012 9 0
      vertex 51.402 7.37404 0
    endloop
  endfacet
  facet normal 0 0 -1
    outer loop
      vertex -30.5 18 0
      vertex 51.402 10.626 0
      vertex 51.0012 9 0
    endloop
  endfacet
  facet normal 0 0 -1
    outer loop
      vertex -30.5 18 0
      vertex 51.402 7.37404 0
      vertex 52.5125 6.12057 0
    endloop
  endfacet
  facet normal 0 0 -1
    outer loop
      vertex -30.5 18 0
      vertex 52.5125 11.8794 0
      vertex 51.402 10.626 0
    endloop
  endfacet
  facet normal 0 0 -1
    outer loop
      vertex -30.5 18 0
      vertex 52.5125 6.12057 0
      vertex 54.0783 5.52675 0
    endloop
  endfacet
  facet normal 0 0 -1
    outer loop
      vertex -30.5 18 0
      vertex 54.0783 12.4733 0
      vertex 52.5125 11.8794 0
    endloop
  endfacet
  facet normal 0 0 -1
    outer loop
      vertex -30.5 18 0
      vertex 54.0783 5.52675 0
      vertex 74.99 0 0
    endloop
  endfacet
  facet normal 0 0 -1
    outer loop
      vertex -30.5 18 0
      vertex 54.5 18 0
      vertex 54.0783 12.4733 0
    endloop
  endfacet
  facet normal 0 1 0
    outer loop
      vertex -30.5 18 5
      vertex 54.5 18 5
      vertex 54.5 18 0
    endloop
  endfacet
  facet normal -0.120537 -0.992709 0
    outer loop
      vertex -30.9217 12.4733 0
      vertex -29.2593 12.2714 0
      vertex -30.9217 12.4733 5
    endloop
  endfacet
  facet normal -0.120537 -0.992709 0
    outer loop
      vertex -30.9217 12.4733 5
      vertex -29.2593 12.2714 0
      vertex -29.2593 12.2714 5
    endloop
  endfacet
  facet normal 0 0 1
    outer loop
      vertex -30.9217 12.4733 5
      vertex -29.2593 12.2714 5
      vertex 54.5 18 5
    endloop
  endfacet
  facet normal 0 0 1
    outer loop
      vertex -30.9217 12.4733 5
      vertex 54.5 18 5
      vertex -30.5 18 5
    endloop
  endfacet
  facet normal 0 0 -1
    outer loop
      vertex -30.9217 5.52675 0
      vertex -29.2593 5.7286 0
      vertex 74.99 0 0
    endloop
  endfacet
  facet normal -0.120537 0.992709 0
    outer loop
      vertex -30.9217 5.52675 0
      vertex -30.9217 5.52675 5
      vertex -29.2593 5.7286 0
    endloop
  endfacet
  facet normal -0.120537 0.992709 0
    outer loop
      vertex -30.9217 5.52675 5
      vertex -29.2593 5.7286 5
      vertex -29.2593 5.7286 0
    endloop
  endfacet
  facet normal 0 0 1
    outer loop
      vertex -30.9217 5.52675 5
      vertex 63.49 0 5
      vertex -29.2593 5.7286 5
    endloop
  endfacet
  facet normal 0 0 -1
    outer loop
      vertex -31.2844 17.9658 0
      vertex -30.5 18 0
      vertex 74.99 0 0
    endloop
  endfacet
  facet normal -0.0436197 0.999048 0
    outer loop
      vertex -31.2844 17.9658 0
      vertex -31.2844 17.9658 5
      vertex -30.5 18 0
    endloop
  endfacet
  facet normal -0.0436197 0.999048 0
    outer loop
      vertex -31.2844 17.9658 5
      vertex -30.5 18 5
      vertex -30.5 18 0
    endloop
  endfacet
  facet normal 0 0 -1
    outer loop
      vertex -32.0628 17.8633 0
      vertex -31.2844 17.9658 0
      vertex 74.99 0 0
    endloop
  endfacet
  facet normal -0.130526 0.991445 0
    outer loop
      vertex -32.0628 17.8633 0
      vertex -32.0628 17.8633 5
      vertex -31.2844 17.9658 0
    endloop
  endfacet
  facet normal -0.130526 0.991445 0
    outer loop
      vertex -32.0628 17.8633 5
      vertex -31.2844 17.9658 5
      vertex -31.2844 17.9658 0
    endloop
  endfacet
  facet normal 0.354605 -0.935016 0
    outer loop
      vertex -32.4875 11.8794 0
      vertex -30.9217 12.4733 0
      vertex -32.4875 11.8794 5
    endloop
  endfacet
  facet normal 0.354605 -0.935016 0
    outer loop
      vertex -32.4875 11.8794 5
      vertex -30.9217 12.4733 0
      vertex -30.9217 12.4733 5
    endloop
  endfacet
  facet normal 0 0 1
    outer loop
      vertex -32.4875 11.8794 5
      vertex -30.9217 12.4733 5
      vertex -30.5 18 5
    endloop
  endfacet
  facet normal 0.354605 0.935016 0
    outer loop
      vertex -32.4875 6.12058 0
      vertex -32.4875 6.12058 5
      vertex -30.9217 5.52675 0
    endloop
  endfacet
  facet normal 0.354605 0.935016 0
    outer loop
      vertex -32.4875 6.12058 5
      vertex -30.9217 5.52675 5
      vertex -30.9217 5.52675 0
    endloop
  endfacet
  facet normal 0 0 -1
    outer loop
      vertex -32.8294 17.6933 0
      vertex -32.0628 17.8633 0
      vertex 74.99 0 0
    endloop
  endfacet
  facet normal -0.216441 0.976296 0
    outer loop
      vertex -32.8294 17.6933 0
      vertex -32.8294 17.6933 5
      vertex -32.0628 17.8633 0
    endloop
  endfacet
  facet normal -0.216441 0.976296 0
    outer loop
      vertex -32.8294 17.6933 5
      vertex -32.0628 17.8633 5
      vertex -32.0628 17.8633 0
    endloop
  endfacet
  facet normal 0 0 -1
    outer loop
      vertex -33.5782 17.4572 0
      vertex -32.8294 17.6933 0
      vertex 74.99 0 0
    endloop
  endfacet
  facet normal -0.300705 0.953717 0
    outer loop
      vertex -33.5782 17.4572 0
      vertex -33.5782 17.4572 5
      vertex -32.8294 17.6933 0
    endloop
  endfacet
  facet normal -0.300705 0.953717 0
    outer loop
      vertex -33.5782 17.4572 5
      vertex -32.8294 17.6933 5
      vertex -32.8294 17.6933 0
    endloop
  endfacet
  facet normal 0.748511 -0.663123 0
    outer loop
      vertex -33.598 10.626 0
      vertex -32.4875 11.8794 0
      vertex -33.598 10.626 5
    endloop
  endfacet
  facet normal 0.748511 -0.663123 0
    outer loop
      vertex -33.598 10.626 5
      vertex -32.4875 11.8794 0
      vertex -32.4875 11.8794 5
    endloop
  endfacet
  facet normal 0 0 1
    outer loop
      vertex -33.598 10.626 5
      vertex -32.4875 11.8794 5
      vertex -30.5 18 5
    endloop
  endfacet
  facet normal 0.748511 0.663123 0
    outer loop
      vertex -33.598 7.37404 0
      vertex -33.598 7.37404 5
      vertex -32.4875 6.12058 0
    endloop
  endfacet
  facet normal 0.748511 0.663123 0
    outer loop
      vertex -33.598 7.37404 5
      vertex -32.4875 6.12058 5
      vertex -32.4875 6.12058 0
    endloop
  endfacet
  facet normal 0.970942 -0.239316 0
    outer loop
      vertex -33.9988 9 0
      vertex -33.598 10.626 0
      vertex -33.9988 9 5
    endloop
  endfacet
  facet normal 0.970942 0.239316 0
    outer loop
      vertex -33.9988 9 0
      vertex -33.9988 9 5
      vertex -33.598 7.37404 0
    endloop
  endfacet
  facet normal 0.970942 -0.239316 0
    outer loop
      vertex -33.9988 9 5
      vertex -33.598 10.626 0
      vertex -33.598 10.626 5
    endloop
  endfacet
  facet normal 0.970942 0.239316 0
    outer loop
      vertex -33.9988 9 5
      vertex -33.598 7.37404 5
      vertex -33.598 7.37404 0
    endloop
  endfacet
  facet normal 0 0 -1
    outer loop
      vertex -34.3036 17.1568 0
      vertex -33.5782 17.4572 0
      vertex 74.99 0 0
    endloop
  endfacet
  facet normal -0.382684 0.923879 0
    outer loop
      vertex -34.3036 17.1568 0
      vertex -34.3036 17.1568 5
      vertex -33.5782 17.4572 0
    endloop
  endfacet
  facet normal -0.382684 0.923879 0
    outer loop
      vertex -34.3036 17.1568 5
      vertex -33.5782 17.4572 5
      vertex -33.5782 17.4572 0
    endloop
  endfacet
  facet normal 0 0 -1
    outer loop
      vertex -35 16.7942 0
      vertex -34.3036 17.1568 0
      vertex 74.99 0 0
    endloop
  endfacet
  facet normal -0.461748 0.887011 0
    outer loop
      vertex -35 16.7942 0
      vertex -35 16.7942 5
      vertex -34.3036 17.1568 0
    endloop
  endfacet
  facet normal -0.461748 0.887011 0
    outer loop
      vertex -35 16.7942 5
      vertex -34.3036 17.1568 5
      vertex -34.3036 17.1568 0
    endloop
  endfacet
  facet normal 0 0 -1
    outer loop
      vertex -35.6622 16.3724 0
      vertex -35 16.7942 0
      vertex 74.99 0 0
    endloop
  endfacet
  facet normal -0.5373 0.843391 0
    outer loop
      vertex -35.6622 16.3724 0
      vertex -35.6622 16.3724 5
      vertex -35 16.7942 0
    endloop
  endfacet
  facet normal -0.5373 0.843391 0
    outer loop
      vertex -35.6622 16.3724 5
      vertex -35 16.7942 5
      vertex -35 16.7942 0
    endloop
  endfacet
  facet normal 0 0 -1
    outer loop
      vertex -36.2851 15.8944 0
      vertex -35.6622 16.3724 0
      vertex 74.99 0 0
    endloop
  endfacet
  facet normal -0.608761 0.793353 0
    outer loop
      vertex -36.2851 15.8944 0
      vertex -36.2851 15.8944 5
      vertex -35.6622 16.3724 0
    endloop
  endfacet
  facet normal -0.608761 0.793353 0
    outer loop
      vertex -36.2851 15.8944 5
      vertex -35.6622 16.3724 5
      vertex -35.6622 16.3724 0
    endloop
  endfacet
  facet normal 0 0 -1
    outer loop
      vertex -36.864 15.364 0
      vertex -36.2851 15.8944 0
      vertex 74.99 0 0
    endloop
  endfacet
  facet normal -0.67559 0.737278 0
    outer loop
      vertex -36.864 15.364 0
      vertex -36.864 15.364 5
      vertex -36.2851 15.8944 0
    endloop
  endfacet
  facet normal -0.67559 0.737278 0
    outer loop
      vertex -36.864 15.364 5
      vertex -36.2851 15.8944 5
      vertex -36.2851 15.8944 0
    endloop
  endfacet
  facet normal 0 0 -1
    outer loop
      vertex -37.3944 14.7851 0
      vertex -36.864 15.364 0
      vertex 74.99 0 0
    endloop
  endfacet
  facet normal -0.737278 0.67559 0
    outer loop
      vertex -37.3944 14.7851 0
      vertex -37.3944 14.7851 5
      vertex -36.864 15.364 0
    endloop
  endfacet
  facet normal -0.737278 0.67559 0
    outer loop
      vertex -37.3944 14.7851 5
      vertex -36.864 15.364 5
      vertex -36.864 15.364 0
    endloop
  endfacet
  facet normal 0 0 -1
    outer loop
      vertex -37.8724 14.1622 0
      vertex -37.3944 14.7851 0
      vertex 74.99 0 0
    endloop
  endfacet
  facet normal -0.793353 0.608761 0
    outer loop
      vertex -37.8724 14.1622 0
      vertex -37.8724 14.1622 5
      vertex -37.3944 14.7851 0
    endloop
  endfacet
  facet normal -0.793353 0.608761 0
    outer loop
      vertex -37.8724 14.1622 5
      vertex -37.3944 14.7851 5
      vertex -37.3944 14.7851 0
    endloop
  endfacet
  facet normal 0 0 -1
    outer loop
      vertex -38.2942 13.5 0
      vertex -29.2593 12.2714 0
      vertex -30.9217 12.4733 0
    endloop
  endfacet
  facet normal 0 0 -1
    outer loop
      vertex -38.2942 13.5 0
      vertex -37.8724 14.1622 0
      vertex 74.99 0 0
    endloop
  endfacet
  facet normal -0.843391 0.5373 0
    outer loop
      vertex -38.2942 13.5 0
      vertex -38.2942 13.5 5
      vertex -37.8724 14.1622 0
    endloop
  endfacet
  facet normal 0 0 -1
    outer loop
      vertex -38.2942 13.5 0
      vertex 74.99 0 0
      vertex -29.2593 12.2714 0
    endloop
  endfacet
  facet normal -0.843391 0.5373 0
    outer loop
      vertex -38.2942 13.5 5
      vertex -37.8724 14.1622 5
      vertex -37.8724 14.1622 0
    endloop
  endfacet
  facet normal 0 0 -1
    outer loop
      vertex -38.6568 12.8036 0
      vertex -30.9217 12.4733 0
      vertex -32.4875 11.8794 0
    endloop
  endfacet
  facet normal 0 0 -1
    outer loop
      vertex -38.6568 12.8036 0
      vertex -38.2942 13.5 0
      vertex -30.9217 12.4733 0
    endloop
  endfacet
  facet normal -0.887011 0.461748 0
    outer loop
      vertex -38.6568 12.8036 0
      vertex -38.6568 12.8036 5
      vertex -38.2942 13.5 0
    endloop
  endfacet
  facet normal -0.887011 0.461748 0
    outer loop
      vertex -38.6568 12.8036 5
      vertex -38.2942 13.5 5
      vertex -38.2942 13.5 0
    endloop
  endfacet
  facet normal 0 0 -1
    outer loop
      vertex -38.9572 12.0782 0
      vertex -32.4875 11.8794 0
      vertex -33.598 10.626 0
    endloop
  endfacet
  facet normal 0 0 -1
    outer loop
      vertex -38.9572 12.0782 0
      vertex -38.6568 12.8036 0
      vertex -32.4875 11.8794 0
    endloop
  endfacet
  facet normal -0.923879 0.382684 0
    outer loop
      vertex -38.9572 12.0782 0
      vertex -38.9572 12.0782 5
      vertex -38.6568 12.8036 0
    endloop
  endfacet
  facet normal -0.923879 0.382684 0
    outer loop
      vertex -38.9572 12.0782 5
      vertex -38.6568 12.8036 5
      vertex -38.6568 12.8036 0
    endloop
  endfacet
  facet normal 0 0 -1
    outer loop
      vertex -39.1933 11.3294 0
      vertex -38.9572 12.0782 0
      vertex -33.598 10.626 0
    endloop
  endfacet
  facet normal -0.953717 0.300705 0
    outer loop
      vertex -39.1933 11.3294 0
      vertex -39.1933 11.3294 5
      vertex -38.9572 12.0782 0
    endloop
  endfacet
  facet normal -0.953717 0.300705 0
    outer loop
      vertex -39.1933 11.3294 5
      vertex -38.9572 12.0782 5
      vertex -38.9572 12.0782 0
    endloop
  endfacet
  facet normal 0 0 -1
    outer loop
      vertex -39.3633 10.5628 0
      vertex -33.598 10.626 0
      vertex -33.9988 9 0
    endloop
  endfacet
  facet normal 0 0 -1
    outer loop
      vertex -39.3633 10.5628 0
      vertex -39.1933 11.3294 0
      vertex -33.598 10.626 0
    endloop
  endfacet
  facet normal -0.976296 0.216441 0
    outer loop
      vertex -39.3633 10.5628 0
      vertex -39.3633 10.5628 5
      vertex -39.1933 11.3294 0
    endloop
  endfacet
  facet normal -0.976296 0.216441 0
    outer loop
      vertex -39.3633 10.5628 5
      vertex -39.1933 11.3294 5
      vertex -39.1933 11.3294 0
    endloop
  endfacet
  facet normal 0 0 -1
    outer loop
      vertex -39.4658 9.7844 0
      vertex -39.3633 10.5628 0
      vertex -33.9988 9 0
    endloop
  endfacet
  facet normal -0.991445 0.130526 0
    outer loop
      vertex -39.4658 9.7844 0
      vertex -39.4658 9.7844 5
      vertex -39.3633 10.5628 0
    endloop
  endfacet
  facet normal -0.991445 0.130526 0
    outer loop
      vertex -39.4658 9.7844 5
      vertex -39.3633 10.5628 5
      vertex -39.3633 10.5628 0
    endloop
  endfacet
  facet normal 1 0 0
    outer loop
      vertex -39.49 0 12
      vertex -39.49 5 5
      vertex -39.49 5 12
    endloop
  endfacet
  facet normal 1 0 0
    outer loop
      vertex -39.49 0 5
      vertex -39.49 5 5
      vertex -39.49 0 12
    endloop
  endfacet
  facet normal 0 0 1
    outer loop
      vertex -39.49 0 5
      vertex 63.49 0 5
      vertex -39.49 5 5
    endloop
  endfacet
  facet normal 0 -1 0
    outer loop
      vertex -39.49 0 5
      vertex 74.99 0 0
      vertex 63.49 0 5
    endloop
  endfacet
  facet normal 0 0 1
    outer loop
      vertex -39.49 5 5
      vertex -30.9217 5.52675 5
      vertex -32.4875 6.12058 5
    endloop
  endfacet
  facet normal 0 0 1
    outer loop
      vertex -39.49 5 5
      vertex -32.4875 6.12058 5
      vertex -33.598 7.37404 5
    endloop
  endfacet
  facet normal 0 0 1
    outer loop
      vertex -39.49 5 5
      vertex 63.49 0 5
      vertex -30.9217 5.52675 5
    endloop
  endfacet
  facet normal 0 0 -1
    outer loop
      vertex -39.5 5 0
      vertex -30.9217 5.52675 0
      vertex 74.99 0 0
    endloop
  endfacet
  facet normal 0 0 -1
    outer loop
      vertex -39.5 5 0
      vertex -32.4875 6.12058 0
      vertex -30.9217 5.52675 0
    endloop
  endfacet
  facet normal 0 0 -1
    outer loop
      vertex -39.5 5 0
      vertex -33.598 7.37404 0
      vertex -32.4875 6.12058 0
    endloop
  endfacet
  facet normal -1 0 0
    outer loop
      vertex -39.5 5 0
      vertex -39.5 5 5
      vertex -39.5 9 0
    endloop
  endfacet
  facet normal 0 0 -1
    outer loop
      vertex -39.5 5 0
      vertex -39.5 9 0
      vertex -33.598 7.37404 0
    endloop
  endfacet
  facet normal 0 1 0
    outer loop
      vertex -39.5 5 5
      vertex -39.49 5 12
      vertex -39.49 5 5
    endloop
  endfacet
  facet normal 0 0 1
    outer loop
      vertex -39.5 5 5
      vertex -39.49 5 5
      vertex -39.5 9 5
    endloop
  endfacet
  facet normal -1 0 0
    outer loop
      vertex -39.5 5 5
      vertex -39.5 9 5
      vertex -39.5 9 0
    endloop
  endfacet
  facet normal 0 0 -1
    outer loop
      vertex -39.5 9 0
      vertex -33.9988 9 0
      vertex -33.598 7.37404 0
    endloop
  endfacet
  facet normal 0 0 -1
    outer loop
      vertex -39.5 9 0
      vertex -39.4658 9.7844 0
      vertex -33.9988 9 0
    endloop
  endfacet
  facet normal -0.999048 0.0436197 0
    outer loop
      vertex -39.5 9 0
      vertex -39.5 9 5
      vertex -39.4658 9.7844 0
    endloop
  endfacet
  facet normal 0 0 1
    outer loop
      vertex -39.5 9 5
      vertex -30.5 18 5
      vertex -31.2844 17.9658 5
    endloop
  endfacet
  facet normal 0 0 1
    outer loop
      vertex -39.5 9 5
      vertex -31.2844 17.9658 5
      vertex -32.0628 17.8633 5
    endloop
  endfacet
  facet normal 0 0 1
    outer loop
      vertex -39.5 9 5
      vertex -32.0628 17.8633 5
      vertex -32.8294 17.6933 5
    endloop
  endfacet
  facet normal 0 0 1
    outer loop
      vertex -39.5 9 5
      vertex -32.8294 17.6933 5
      vertex -33.5782 17.4572 5
    endloop
  endfacet
  facet normal 0 0 1
    outer loop
      vertex -39.5 9 5
      vertex -33.5782 17.4572 5
      vertex -34.3036 17.1568 5
    endloop
  endfacet
  facet normal 0 0 1
    outer loop
      vertex -39.5 9 5
      vertex -33.598 10.626 5
      vertex -30.5 18 5
    endloop
  endfacet
  facet normal 0 0 1
    outer loop
      vertex -39.5 9 5
      vertex -33.598 7.37404 5
      vertex -33.9988 9 5
    endloop
  endfacet
  facet normal 0 0 1
    outer loop
      vertex -39.5 9 5
      vertex -33.9988 9 5
      vertex -33.598 10.626 5
    endloop
  endfacet
  facet normal 0 0 1
    outer loop
      vertex -39.5 9 5
      vertex -34.3036 17.1568 5
      vertex -35 16.7942 5
    endloop
  endfacet
  facet normal 0 0 1
    outer loop
      vertex -39.5 9 5
      vertex -35 16.7942 5
      vertex -35.6622 16.3724 5
    endloop
  endfacet
  facet normal 0 0 1
    outer loop
      vertex -39.5 9 5
      vertex -35.6622 16.3724 5
      vertex -36.2851 15.8944 5
    endloop
  endfacet
  facet normal 0 0 1
    outer loop
      vertex -39.5 9 5
      vertex -36.2851 15.8944 5
      vertex -36.864 15.364 5
    endloop
  endfacet
  facet normal 0 0 1
    outer loop
      vertex -39.5 9 5
      vertex -36.864 15.364 5
      vertex -37.3944 14.7851 5
    endloop
  endfacet
  facet normal 0 0 1
    outer loop
      vertex -39.5 9 5
      vertex -37.3944 14.7851 5
      vertex -37.8724 14.1622 5
    endloop
  endfacet
  facet normal 0 0 1
    outer loop
      vertex -39.5 9 5
      vertex -37.8724 14.1622 5
      vertex -38.2942 13.5 5
    endloop
  endfacet
  facet normal 0 0 1
    outer loop
      vertex -39.5 9 5
      vertex -38.2942 13.5 5
      vertex -38.6568 12.8036 5
    endloop
  endfacet
  facet normal 0 0 1
    outer loop
      vertex -39.5 9 5
      vertex -38.6568 12.8036 5
      vertex -38.9572 12.0782 5
    endloop
  endfacet
  facet normal 0 0 1
    outer loop
      vertex -39.5 9 5
      vertex -38.9572 12.0782 5
      vertex -39.1933 11.3294 5
    endloop
  endfacet
  facet normal 0 0 1
    outer loop
      vertex -39.5 9 5
      vertex -39.1933 11.3294 5
      vertex -39.3633 10.5628 5
    endloop
  endfacet
  facet normal 0 0 1
    outer loop
      vertex -39.5 9 5
      vertex -39.3633 10.5628 5
      vertex -39.4658 9.7844 5
    endloop
  endfacet
  facet normal -0.999048 0.0436197 0
    outer loop
      vertex -39.5 9 5
      vertex -39.4658 9.7844 5
      vertex -39.4658 9.7844 0
    endloop
  endfacet
  facet normal 0 0 1
    outer loop
      vertex -39.5 9 5
      vertex -39.49 5 5
      vertex -33.598 7.37404 5
    endloop
  endfacet
  facet normal 0 -1 0
    outer loop
      vertex -42.957 0 5.516
      vertex -39.49 0 5
      vertex -42.9 0 6
    endloop
  endfacet
  facet normal -0.993137 2.59704e-17 0.11696
    outer loop
      vertex -42.957 0 5.516
      vertex -42.9 0 6
      vertex -42.957 5 5.516
    endloop
  endfacet
  facet normal 0 -1 0
    outer loop
      vertex -42.957 0 6.484
      vertex -42.9 0 6
      vertex -39.49 0 5
    endloop
  endfacet
  facet normal -0.993137 -2.59704e-17 -0.11696
    outer loop
      vertex -42.957 0 6.484
      vertex -42.957 5 6.484
      vertex -42.9 0 6
    endloop
  endfacet
  facet normal -0.993137 2.59704e-17 0.11696
    outer loop
      vertex -42.957 5 5.516
      vertex -42.9 0 6
      vertex -42.9 5 6
    endloop
  endfacet
  facet normal 0 1 0
    outer loop
      vertex -42.957 5 5.516
      vertex -42.9 5 6
      vertex -39.5 5 5
    endloop
  endfacet
  facet normal 0 1 0
    outer loop
      vertex -42.957 5 6.484
      vertex -39.5 5 5
      vertex -42.9 5 6
    endloop
  endfacet
  facet normal -0.993137 -2.59704e-17 -0.11696
    outer loop
      vertex -42.957 5 6.484
      vertex -42.9 5 6
      vertex -42.9 0 6
    endloop
  endfacet
  facet normal 0 -1 0
    outer loop
      vertex -43.123 0 5.058
      vertex -39.49 0 5
      vertex -42.957 0 5.516
    endloop
  endfacet
  facet normal -0.940153 7.56626e-17 0.340754
    outer loop
      vertex -43.123 0 5.058
      vertex -42.957 0 5.516
      vertex -43.123 5 5.058
    endloop
  endfacet
  facet normal 0 -1 0
    outer loop
      vertex -43.123 0 6.942
      vertex -42.957 0 6.484
      vertex -39.49 0 5
    endloop
  endfacet
  facet normal -0.940153 -7.56626e-17 -0.340754
    outer loop
      vertex -43.123 0 6.942
      vertex -43.123 5 6.942
      vertex -42.957 0 6.484
    endloop
  endfacet
  facet normal -0.940153 7.56626e-17 0.340754
    outer loop
      vertex -43.123 5 5.058
      vertex -42.957 0 5.516
      vertex -42.957 5 5.516
    endloop
  endfacet
  facet normal 0 1 0
    outer loop
      vertex -43.123 5 5.058
      vertex -42.957 5 5.516
      vertex -39.5 5 5
    endloop
  endfacet
  facet normal 0 1 0
    outer loop
      vertex -43.123 5 6.942
      vertex -39.5 5 5
      vertex -42.957 5 6.484
    endloop
  endfacet
  facet normal -0.940153 -7.56626e-17 -0.340754
    outer loop
      vertex -43.123 5 6.942
      vertex -42.957 5 6.484
      vertex -42.957 0 6.484
    endloop
  endfacet
  facet normal 0 -1 0
    outer loop
      vertex -43.391 0 4.65
      vertex -39.49 0 5
      vertex -43.123 0 5.058
    endloop
  endfacet
  facet normal -0.835813 1.21906e-16 0.549014
    outer loop
      vertex -43.391 0 4.65
      vertex -43.123 0 5.058
      vertex -43.391 5 4.65
    endloop
  endfacet
  facet normal 0 -1 0
    outer loop
      vertex -43.391 0 7.35
      vertex -43.123 0 6.942
      vertex -39.49 0 5
    endloop
  endfacet
  facet normal -0.835813 -1.21906e-16 -0.549014
    outer loop
      vertex -43.391 0 7.35
      vertex -43.391 5 7.35
      vertex -43.123 0 6.942
    endloop
  endfacet
  facet normal 0 1 0
    outer loop
      vertex -43.391 5 4.65
      vertex -39.5 5 5
      vertex -39.5 5 0
    endloop
  endfacet
  facet normal -0.835813 1.21906e-16 0.549014
    outer loop
      vertex -43.391 5 4.65
      vertex -43.123 0 5.058
      vertex -43.123 5 5.058
    endloop
  endfacet
  facet normal 0 1 0
    outer loop
      vertex -43.391 5 4.65
      vertex -43.123 5 5.058
      vertex -39.5 5 5
    endloop
  endfacet
  facet normal 0 1 0
    outer loop
      vertex -43.391 5 7.35
      vertex -39.5 5 5
      vertex -43.123 5 6.942
    endloop
  endfacet
  facet normal -0.835813 -1.21906e-16 -0.549014
    outer loop
      vertex -43.391 5 7.35
      vertex -43.123 5 6.942
      vertex -43.123 0 6.942
    endloop
  endfacet
  facet normal 0 1 0
    outer loop
      vertex -43.515 5 7.485
      vertex -39.49 5 12
      vertex -39.5 5 5
    endloop
  endfacet
  facet normal 0 -1 0
    outer loop
      vertex -43.524 0 7.476
      vertex -39.49 0 5
      vertex -43.515 0 7.485
    endloop
  endfacet
  facet normal 0 -1 0
    outer loop
      vertex -43.524 0 7.476
      vertex -43.391 0 7.35
      vertex -39.49 0 5
    endloop
  endfacet
  facet normal -0.707107 1.57009e-16 0.707107
    outer loop
      vertex -43.524 0 7.476
      vertex -43.515 0 7.485
      vertex -43.524 5 7.476
    endloop
  endfacet
  facet normal -0.687745 -1.61194e-16 -0.725953
    outer loop
      vertex -43.524 0 7.476
      vertex -43.524 5 7.476
      vertex -43.391 0 7.35
    endloop
  endfacet
  facet normal 0 1 0
    outer loop
      vertex -43.524 5 7.476
      vertex -39.5 5 5
      vertex -43.391 5 7.35
    endloop
  endfacet
  facet normal -0.687745 -1.61194e-16 -0.725953
    outer loop
      vertex -43.524 5 7.476
      vertex -43.391 5 7.35
      vertex -43.391 0 7.35
    endloop
  endfacet
  facet normal -0.707107 1.57009e-16 0.707107
    outer loop
      vertex -43.524 5 7.476
      vertex -43.515 0 7.485
      vertex -43.515 5 7.485
    endloop
  endfacet
  facet normal 0 1 0
    outer loop
      vertex -43.524 5 7.476
      vertex -43.515 5 7.485
      vertex -39.5 5 5
    endloop
  endfacet
  facet normal 0 -1 0
    outer loop
      vertex -43.746 0 4.316
      vertex -39.49 0 5
      vertex -43.391 0 4.65
    endloop
  endfacet
  facet normal -0.685237 1.6172e-16 0.72832
    outer loop
      vertex -43.746 0 4.316
      vertex -43.391 0 4.65
      vertex -43.746 5 4.316
    endloop
  endfacet
  facet normal -0.685237 1.6172e-16 0.72832
    outer loop
      vertex -43.746 5 4.316
      vertex -43.391 0 4.65
      vertex -43.391 5 4.65
    endloop
  endfacet
  facet normal 0 1 0
    outer loop
      vertex -43.746 5 4.316
      vertex -43.391 5 4.65
      vertex -39.5 5 0
    endloop
  endfacet
  facet normal 0 -1 0
    outer loop
      vertex -44.13 0 8.1
      vertex -39.49 0 5
      vertex -39.49 0 12
    endloop
  endfacet
  facet normal 0 -1 0
    outer loop
      vertex -44.13 0 8.1
      vertex -43.515 0 7.485
      vertex -39.49 0 5
    endloop
  endfacet
  facet normal -0.707107 -1.57009e-16 -0.707107
    outer loop
      vertex -44.13 0 8.1
      vertex -44.13 5 8.1
      vertex -43.515 0 7.485
    endloop
  endfacet
  facet normal 0 1 0
    outer loop
      vertex -44.13 5 8.1
      vertex -39.49 5 12
      vertex -43.515 5 7.485
    endloop
  endfacet
  facet normal -0.707107 -1.57009e-16 -0.707107
    outer loop
      vertex -44.13 5 8.1
      vertex -43.515 5 7.485
      vertex -43.515 0 7.485
    endloop
  endfacet
  facet normal -0.500551 1.92226e-16 0.865707
    outer loop
      vertex -44.168 0 4.072
      vertex -43.746 0 4.316
      vertex -44.168 5 4.072
    endloop
  endfacet
  facet normal -0.500551 1.92226e-16 0.865707
    outer loop
      vertex -44.168 5 4.072
      vertex -43.746 0 4.316
      vertex -43.746 5 4.316
    endloop
  endfacet
  facet normal 0 1 0
    outer loop
      vertex -44.168 5 4.072
      vertex -43.746 5 4.316
      vertex -39.5 5 0
    endloop
  endfacet
  facet normal -0.28716 2.12693e-16 0.957883
    outer loop
      vertex -44.635 0 3.932
      vertex -44.168 0 4.072
      vertex -44.635 5 3.932
    endloop
  endfacet
  facet normal -0.28716 2.12693e-16 0.957883
    outer loop
      vertex -44.635 5 3.932
      vertex -44.168 0 4.072
      vertex -44.168 5 4.072
    endloop
  endfacet
  facet normal 0 1 0
    outer loop
      vertex -44.635 5 3.932
      vertex -44.168 5 4.072
      vertex -39.5 5 0
    endloop
  endfacet
  facet normal -0.0574001 2.21679e-16 0.998351
    outer loop
      vertex -45.122 0 3.904
      vertex -44.635 0 3.932
      vertex -45.122 5 3.904
    endloop
  endfacet
  facet normal -0.0574001 2.21679e-16 0.998351
    outer loop
      vertex -45.122 5 3.904
      vertex -44.635 0 3.932
      vertex -44.635 5 3.932
    endloop
  endfacet
  facet normal 0 1 0
    outer loop
      vertex -45.122 5 3.904
      vertex -44.635 5 3.932
      vertex -39.5 5 0
    endloop
  endfacet
  facet normal 0.17238 2.18721e-16 0.98503
    outer loop
      vertex -45.602 0 3.988
      vertex -45.122 0 3.904
      vertex -45.602 5 3.988
    endloop
  endfacet
  facet normal 0.17238 2.18721e-16 0.98503
    outer loop
      vertex -45.602 5 3.988
      vertex -45.122 0 3.904
      vertex -45.122 5 3.904
    endloop
  endfacet
  facet normal 0 1 0
    outer loop
      vertex -45.602 5 3.988
      vertex -45.122 5 3.904
      vertex -39.5 5 0
    endloop
  endfacet
  facet normal 0 -2.22045e-16 -1
    outer loop
      vertex -45.87 0 8.1
      vertex -45.87 5 8.1
      vertex -44.13 0 8.1
    endloop
  endfacet
  facet normal 0 -2.22045e-16 -1
    outer loop
      vertex -45.87 5 8.1
      vertex -44.13 5 8.1
      vertex -44.13 0 8.1
    endloop
  endfacet
  facet normal 0.39565 2.03926e-16 0.918401
    outer loop
      vertex -46.05 0 4.181
      vertex -45.602 0 3.988
      vertex -46.05 5 4.181
    endloop
  endfacet
  facet normal 0.39565 2.03926e-16 0.918401
    outer loop
      vertex -46.05 5 4.181
      vertex -45.602 0 3.988
      vertex -45.602 5 3.988
    endloop
  endfacet
  facet normal 0 1 0
    outer loop
      vertex -46.05 5 4.181
      vertex -45.602 5 3.988
      vertex -39.5 5 0
    endloop
  endfacet
  facet normal 0.598359 1.77908e-16 0.801228
    outer loop
      vertex -46.441 0 4.473
      vertex -46.05 0 4.181
      vertex -46.441 5 4.473
    endloop
  endfacet
  facet normal 0.598359 1.77908e-16 0.801228
    outer loop
      vertex -46.441 5 4.473
      vertex -46.05 0 4.181
      vertex -46.05 5 4.181
    endloop
  endfacet
  facet normal 0.707107 1.57009e-16 0.707107
    outer loop
      vertex -46.485 0 7.485
      vertex -46.48 0 7.48
      vertex -46.485 5 7.485
    endloop
  endfacet
  facet normal 0.707107 -1.57009e-16 -0.707107
    outer loop
      vertex -46.485 0 7.485
      vertex -46.485 5 7.485
      vertex -45.87 0 8.1
    endloop
  endfacet
  facet normal 0.707107 -1.57009e-16 -0.707107
    outer loop
      vertex -46.485 5 7.485
      vertex -45.87 5 8.1
      vertex -45.87 0 8.1
    endloop
  endfacet
  facet normal 0.707107 1.57009e-16 0.707107
    outer loop
      vertex -46.485 5 7.485
      vertex -46.48 0 7.48
      vertex -46.48 5 7.48
    endloop
  endfacet
  facet normal 0.765018 1.42999e-16 0.644009
    outer loop
      vertex -46.755 0 4.846
      vertex -46.441 0 4.473
      vertex -46.755 5 4.846
    endloop
  endfacet
  facet normal 0 -1 0
    outer loop
      vertex -46.755 0 7.154
      vertex -46.48 0 7.48
      vertex -46.485 0 7.485
    endloop
  endfacet
  facet normal 0.764364 -1.43171e-16 -0.644785
    outer loop
      vertex -46.755 0 7.154
      vertex -46.755 5 7.154
      vertex -46.48 0 7.48
    endloop
  endfacet
  facet normal 0.765018 1.42999e-16 0.644009
    outer loop
      vertex -46.755 5 4.846
      vertex -46.441 0 4.473
      vertex -46.441 5 4.473
    endloop
  endfacet
  facet normal 0.764364 -1.43171e-16 -0.644785
    outer loop
      vertex -46.755 5 7.154
      vertex -46.48 5 7.48
      vertex -46.48 0 7.48
    endloop
  endfacet
  facet normal 0 1 0
    outer loop
      vertex -46.755 5 7.154
      vertex -46.485 5 7.485
      vertex -46.48 5 7.48
    endloop
  endfacet
  facet normal 0.894427 9.93014e-17 0.447214
    outer loop
      vertex -46.973 0 5.282
      vertex -46.755 0 4.846
      vertex -46.973 5 5.282
    endloop
  endfacet
  facet normal 0.894427 -9.93014e-17 -0.447214
    outer loop
      vertex -46.973 0 6.718
      vertex -46.973 5 6.718
      vertex -46.755 0 7.154
    endloop
  endfacet
  facet normal 0.894427 9.93014e-17 0.447214
    outer loop
      vertex -46.973 5 5.282
      vertex -46.755 0 4.846
      vertex -46.755 5 4.846
    endloop
  endfacet
  facet normal 0.894427 -9.93014e-17 -0.447214
    outer loop
      vertex -46.973 5 6.718
      vertex -46.755 5 7.154
      vertex -46.755 0 7.154
    endloop
  endfacet
  facet normal 0.97274 5.14917e-17 0.231898
    outer loop
      vertex -47.086 0 5.756
      vertex -46.973 0 5.282
      vertex -47.086 5 5.756
    endloop
  endfacet
  facet normal 1 0 0
    outer loop
      vertex -47.086 0 5.756
      vertex -47.086 5 5.756
      vertex -47.086 0 6.244
    endloop
  endfacet
  facet normal 1 0 0
    outer loop
      vertex -47.086 0 6.244
      vertex -47.086 5 5.756
      vertex -47.086 5 6.244
    endloop
  endfacet
  facet normal 0.97274 -5.14917e-17 -0.231898
    outer loop
      vertex -47.086 0 6.244
      vertex -47.086 5 6.244
      vertex -46.973 0 6.718
    endloop
  endfacet
  facet normal 0.97274 5.14917e-17 0.231898
    outer loop
      vertex -47.086 5 5.756
      vertex -46.973 0 5.282
      vertex -46.973 5 5.282
    endloop
  endfacet
  facet normal 0.97274 -5.14917e-17 -0.231898
    outer loop
      vertex -47.086 5 6.244
      vertex -46.973 5 6.718
      vertex -46.973 0 6.718
    endloop
  endfacet
  facet normal 0 -1 0
    outer loop
      vertex -50.99 0 0
      vertex -39.49 0 5
      vertex -43.746 0 4.316
    endloop
  endfacet
  facet normal 0 -1 0
    outer loop
      vertex -50.99 0 0
      vertex -43.746 0 4.316
      vertex -44.168 0 4.072
    endloop
  endfacet
  facet normal 0 -1 0
    outer loop
      vertex -50.99 0 0
      vertex -44.168 0 4.072
      vertex -44.635 0 3.932
    endloop
  endfacet
  facet normal 0 -1 0
    outer loop
      vertex -50.99 0 0
      vertex -44.635 0 3.932
      vertex -45.122 0 3.904
    endloop
  endfacet
  facet normal 0 -1 0
    outer loop
      vertex -50.99 0 0
      vertex -45.122 0 3.904
      vertex -45.602 0 3.988
    endloop
  endfacet
  facet normal 0 -1 0
    outer loop
      vertex -50.99 0 0
      vertex -45.602 0 3.988
      vertex -46.05 0 4.181
    endloop
  endfacet
  facet normal 0 -1 0
    outer loop
      vertex -50.99 0 0
      vertex -46.05 0 4.181
      vertex -46.441 0 4.473
    endloop
  endfacet
  facet normal 0 -1 0
    outer loop
      vertex -50.99 0 0
      vertex -46.441 0 4.473
      vertex -46.755 0 4.846
    endloop
  endfacet
  facet normal 0 -1 0
    outer loop
      vertex -50.99 0 0
      vertex -46.755 0 4.846
      vertex -46.973 0 5.282
    endloop
  endfacet
  facet normal 0 -1 0
    outer loop
      vertex -50.99 0 0
      vertex -46.973 0 5.282
      vertex -47.086 0 5.756
    endloop
  endfacet
  facet normal 0 -1 0
    outer loop
      vertex -50.99 0 0
      vertex -47.086 0 5.756
      vertex -50.99 0 12
    endloop
  endfacet
  facet normal -1 0 0
    outer loop
      vertex -50.99 0 0
      vertex -50.99 0 12
      vertex -50.99 5 0
    endloop
  endfacet
  facet normal 0 0 -1
    outer loop
      vertex -50.99 0 0
      vertex -50.99 5 0
      vertex 74.99 0 0
    endloop
  endfacet
  facet normal 0 -1 0
    outer loop
      vertex -50.99 0 0
      vertex 74.99 0 0
      vertex -39.49 0 5
    endloop
  endfacet
  facet normal 0 0 1
    outer loop
      vertex -50.99 0 12
      vertex -39.49 0 12
      vertex -50.99 5 12
    endloop
  endfacet
  facet normal 0 -1 0
    outer loop
      vertex -50.99 0 12
      vertex -44.13 0 8.1
      vertex -39.49 0 12
    endloop
  endfacet
  facet normal 0 -1 0
    outer loop
      vertex -50.99 0 12
      vertex -45.87 0 8.1
      vertex -44.13 0 8.1
    endloop
  endfacet
  facet normal 0 -1 0
    outer loop
      vertex -50.99 0 12
      vertex -46.485 0 7.485
      vertex -45.87 0 8.1
    endloop
  endfacet
  facet normal 0 -1 0
    outer loop
      vertex -50.99 0 12
      vertex -46.755 0 7.154
      vertex -46.485 0 7.485
    endloop
  endfacet
  facet normal 0 -1 0
    outer loop
      vertex -50.99 0 12
      vertex -46.973 0 6.718
      vertex -46.755 0 7.154
    endloop
  endfacet
  facet normal 0 -1 0
    outer loop
      vertex -50.99 0 12
      vertex -47.086 0 5.756
      vertex -47.086 0 6.244
    endloop
  endfacet
  facet normal 0 -1 0
    outer loop
      vertex -50.99 0 12
      vertex -47.086 0 6.244
      vertex -46.973 0 6.718
    endloop
  endfacet
  facet normal -1 0 0
    outer loop
      vertex -50.99 0 12
      vertex -50.99 5 12
      vertex -50.99 5 0
    endloop
  endfacet
  facet normal 0 0 -1
    outer loop
      vertex -50.99 5 0
      vertex -39.5 5 0
      vertex 74.99 0 0
    endloop
  endfacet
  facet normal 0 1 0
    outer loop
      vertex -50.99 5 0
      vertex -46.05 5 4.181
      vertex -39.5 5 0
    endloop
  endfacet
  facet normal 0 1 0
    outer loop
      vertex -50.99 5 0
      vertex -46.441 5 4.473
      vertex -46.05 5 4.181
    endloop
  endfacet
  facet normal 0 1 0
    outer loop
      vertex -50.99 5 0
      vertex -46.755 5 4.846
      vertex -46.441 5 4.473
    endloop
  endfacet
  facet normal 0 1 0
    outer loop
      vertex -50.99 5 0
      vertex -46.973 5 5.282
      vertex -46.755 5 4.846
    endloop
  endfacet
  facet normal 0 1 0
    outer loop
      vertex -50.99 5 0
      vertex -47.086 5 5.756
      vertex -46.973 5 5.282
    endloop
  endfacet
  facet normal 0 1 0
    outer loop
      vertex -50.99 5 0
      vertex -47.086 5 6.244
      vertex -47.086 5 5.756
    endloop
  endfacet
  facet normal 0 1 0
    outer loop
      vertex -50.99 5 0
      vertex -50.99 5 12
      vertex -47.086 5 6.244
    endloop
  endfacet
  facet normal 0 0 1
    outer loop
      vertex -50.99 5 12
      vertex -39.49 0 12
      vertex -39.49 5 12
    endloop
  endfacet
  facet normal 0 1 0
    outer loop
      vertex -50.99 5 12
      vertex -39.49 5 12
      vertex -44.13 5 8.1
    endloop
  endfacet
  facet normal 0 1 0
    outer loop
      vertex -50.99 5 12
      vertex -44.13 5 8.1
      vertex -45.87 5 8.1
    endloop
  endfacet
  facet normal 0 1 0
    outer loop
      vertex -50.99 5 12
      vertex -45.87 5 8.1
      vertex -46.485 5 7.485
    endloop
  endfacet
  facet normal 0 1 0
    outer loop
      vertex -50.99 5 12
      vertex -46.485 5 7.485
      vertex -46.755 5 7.154
    endloop
  endfacet
  facet normal 0 1 0
    outer loop
      vertex -50.99 5 12
      vertex -46.755 5 7.154
      vertex -46.973 5 6.718
    endloop
  endfacet
  facet normal 0 1 0
    outer loop
      vertex -50.99 5 12
      vertex -46.973 5 6.718
      vertex -47.086 5 6.244
    endloop
  endfacet
  facet normal 0.970942 0.239316 0
    outer loop
      vertex 51.0012 9 0
      vertex 51.0012 9 5
      vertex 51.402 7.37404 0
    endloop
  endfacet
  facet normal 0.970942 -0.239316 0
    outer loop
      vertex 51.0012 9 0
      vertex 51.402 10.626 0
      vertex 51.0012 9 5
    endloop
  endfacet
  facet normal 0.970942 -0.239316 0
    outer loop
      vertex 51.0012 9 5
      vertex 51.402 10.626 0
      vertex 51.402 10.626 5
    endloop
  endfacet
  facet normal 0.970942 0.239316 0
    outer loop
      vertex 51.0012 9 5
      vertex 51.402 7.37404 5
      vertex 51.402 7.37404 0
    endloop
  endfacet
  facet normal 0.748511 -0.663123 0
    outer loop
      vertex 51.402 10.626 0
      vertex 52.5125 11.8794 0
      vertex 51.402 10.626 5
    endloop
  endfacet
  facet normal 0.748511 -0.663123 0
    outer loop
      vertex 51.402 10.626 5
      vertex 52.5125 11.8794 0
      vertex 52.5125 11.8794 5
    endloop
  endfacet
  facet normal 0.748511 0.663123 0
    outer loop
      vertex 51.402 7.37404 0
      vertex 51.402 7.37404 5
      vertex 52.5125 6.12057 0
    endloop
  endfacet
  facet normal 0.748511 0.663123 0
    outer loop
      vertex 51.402 7.37404 5
      vertex 52.5125 6.12057 5
      vertex 52.5125 6.12057 0
    endloop
  endfacet
  facet normal 0.354605 -0.935016 0
    outer loop
      vertex 52.5125 11.8794 0
      vertex 54.0783 12.4733 0
      vertex 52.5125 11.8794 5
    endloop
  endfacet
  facet normal 0.354605 -0.935016 0
    outer loop
      vertex 52.5125 11.8794 5
      vertex 54.0783 12.4733 0
      vertex 54.0783 12.4733 5
    endloop
  endfacet
  facet normal 0.354605 0.935016 0
    outer loop
      vertex 52.5125 6.12057 0
      vertex 52.5125 6.12057 5
      vertex 54.0783 5.52675 0
    endloop
  endfacet
  facet normal 0.354605 0.935016 0
    outer loop
      vertex 52.5125 6.12057 5
      vertex 54.0783 5.52675 5
      vertex 54.0783 5.52675 0
    endloop
  endfacet
  facet normal 0 0 -1
    outer loop
      vertex 54.0783 12.4733 0
      vertex 54.5 18 0
      vertex 55.7407 12.2714 0
    endloop
  endfacet
  facet normal -0.120537 -0.992709 0
    outer loop
      vertex 54.0783 12.4733 0
      vertex 55.7407 12.2714 0
      vertex 54.0783 12.4733 5
    endloop
  endfacet
  facet normal -0.120537 -0.992709 0
    outer loop
      vertex 54.0783 12.4733 5
      vertex 55.7407 12.2714 0
      vertex 55.7407 12.2714 5
    endloop
  endfacet
  facet normal 0 0 1
    outer loop
      vertex 54.0783 12.4733 5
      vertex 55.7407 12.2714 5
      vertex 62.6568 12.8036 5
    endloop
  endfacet
  facet normal -0.120537 0.992709 0
    outer loop
      vertex 54.0783 5.52675 0
      vertex 54.0783 5.52675 5
      vertex 55.7407 5.7286 0
    endloop
  endfacet
  facet normal 0 0 -1
    outer loop
      vertex 54.0783 5.52675 0
      vertex 55.7407 5.7286 0
      vertex 74.99 0 0
    endloop
  endfacet
  facet normal -0.120537 0.992709 0
    outer loop
      vertex 54.0783 5.52675 5
      vertex 55.7407 5.7286 5
      vertex 55.7407 5.7286 0
    endloop
  endfacet
  facet normal 0 0 1
    outer loop
      vertex 54.0783 5.52675 5
      vertex 63.5 5 5
      vertex 55.7407 5.7286 5
    endloop
  endfacet
  facet normal 0.0436197 0.999048 0
    outer loop
      vertex 54.5 18 0
      vertex 54.5 18 5
      vertex 55.2844 17.9658 0
    endloop
  endfacet
  facet normal 0 0 -1
    outer loop
      vertex 54.5 18 0
      vertex 55.2844 17.9658 0
      vertex 63.3633 10.5628 0
    endloop
  endfacet
  facet normal 0 0 -1
    outer loop
      vertex 54.5 18 0
      vertex 57.1189 11.3201 0
      vertex 55.7407 12.2714 0
    endloop
  endfacet
  facet normal 0 0 -1
    outer loop
      vertex 54.5 18 0
      vertex 63.3633 10.5628 0
      vertex 63.4658 9.7844 0
    endloop
  endfacet
  facet normal 0 0 -1
    outer loop
      vertex 54.5 18 0
      vertex 63.4658 9.7844 0
      vertex 57.1189 11.3201 0
    endloop
  endfacet
  facet normal 0.0436197 0.999048 0
    outer loop
      vertex 54.5 18 5
      vertex 55.2844 17.9658 5
      vertex 55.2844 17.9658 0
    endloop
  endfacet
  facet normal 0.130526 0.991445 0
    outer loop
      vertex 55.2844 17.9658 0
      vertex 55.2844 17.9658 5
      vertex 56.0628 17.8633 0
    endloop
  endfacet
  facet normal 0 0 -1
    outer loop
      vertex 55.2844 17.9658 0
      vertex 56.0628 17.8633 0
      vertex 63.3633 10.5628 0
    endloop
  endfacet
  facet normal 0.130526 0.991445 0
    outer loop
      vertex 55.2844 17.9658 5
      vertex 56.0628 17.8633 5
      vertex 56.0628 17.8633 0
    endloop
  endfacet
  facet normal -0.568065 -0.822984 0
    outer loop
      vertex 55.7407 12.2714 0
      vertex 57.1189 11.3201 0
      vertex 55.7407 12.2714 5
    endloop
  endfacet
  facet normal -0.568065 -0.822984 0
    outer loop
      vertex 55.7407 12.2714 5
      vertex 57.1189 11.3201 0
      vertex 57.1189 11.3201 5
    endloop
  endfacet
  facet normal 0 0 1
    outer loop
      vertex 55.7407 12.2714 5
      vertex 57.1189 11.3201 5
      vertex 62.9572 12.0782 5
    endloop
  endfacet
  facet normal 0 0 1
    outer loop
      vertex 55.7407 12.2714 5
      vertex 62.9572 12.0782 5
      vertex 62.6568 12.8036 5
    endloop
  endfacet
  facet normal -0.568065 0.822984 0
    outer loop
      vertex 55.7407 5.7286 0
      vertex 55.7407 5.7286 5
      vertex 57.1189 6.67989 0
    endloop
  endfacet
  facet normal 0 0 -1
    outer loop
      vertex 55.7407 5.7286 0
      vertex 57.1189 6.67989 0
      vertex 63.5 5 0
    endloop
  endfacet
  facet normal 0 0 -1
    outer loop
      vertex 55.7407 5.7286 0
      vertex 63.5 5 0
      vertex 74.99 0 0
    endloop
  endfacet
  facet normal -0.568065 0.822984 0
    outer loop
      vertex 55.7407 5.7286 5
      vertex 57.1189 6.67989 5
      vertex 57.1189 6.67989 0
    endloop
  endfacet
  facet normal 0 0 1
    outer loop
      vertex 55.7407 5.7286 5
      vertex 63.5 5 5
      vertex 57.1189 6.67989 5
    endloop
  endfacet
  facet normal 0.216441 0.976296 0
    outer loop
      vertex 56.0628 17.8633 0
      vertex 56.0628 17.8633 5
      vertex 56.8294 17.6933 0
    endloop
  endfacet
  facet normal 0 0 -1
    outer loop
      vertex 56.0628 17.8633 0
      vertex 56.8294 17.6933 0
      vertex 63.1933 11.3294 0
    endloop
  endfacet
  facet normal 0 0 -1
    outer loop
      vertex 56.0628 17.8633 0
      vertex 63.1933 11.3294 0
      vertex 63.3633 10.5628 0
    endloop
  endfacet
  facet normal 0.216441 0.976296 0
    outer loop
      vertex 56.0628 17.8633 5
      vertex 56.8294 17.6933 5
      vertex 56.8294 17.6933 0
    endloop
  endfacet
  facet normal 0.300705 0.953717 0
    outer loop
      vertex 56.8294 17.6933 0
      vertex 56.8294 17.6933 5
      vertex 57.5782 17.4572 0
    endloop
  endfacet
  facet normal 0 0 -1
    outer loop
      vertex 56.8294 17.6933 0
      vertex 57.5782 17.4572 0
      vertex 63.1933 11.3294 0
    endloop
  endfacet
  facet normal 0.300705 0.953717 0
    outer loop
      vertex 56.8294 17.6933 5
      vertex 57.5782 17.4572 5
      vertex 57.5782 17.4572 0
    endloop
  endfacet
  facet normal -0.885456 -0.464723 0
    outer loop
      vertex 57.1189 11.3201 0
      vertex 57.8971 9.83731 0
      vertex 57.1189 11.3201 5
    endloop
  endfacet
  facet normal 0 0 -1
    outer loop
      vertex 57.1189 11.3201 0
      vertex 63.4658 9.7844 0
      vertex 57.8971 9.83731 0
    endloop
  endfacet
  facet normal -0.885456 -0.464723 0
    outer loop
      vertex 57.1189 11.3201 5
      vertex 57.8971 9.83731 0
      vertex 57.8971 9.83731 5
    endloop
  endfacet
  facet normal 0 0 1
    outer loop
      vertex 57.1189 11.3201 5
      vertex 57.8971 9.83731 5
      vertex 63.3633 10.5628 5
    endloop
  endfacet
  facet normal 0 0 1
    outer loop
      vertex 57.1189 11.3201 5
      vertex 63.1933 11.3294 5
      vertex 62.9572 12.0782 5
    endloop
  endfacet
  facet normal 0 0 1
    outer loop
      vertex 57.1189 11.3201 5
      vertex 63.3633 10.5628 5
      vertex 63.1933 11.3294 5
    endloop
  endfacet
  facet normal -0.885456 0.464723 0
    outer loop
      vertex 57.1189 6.67989 0
      vertex 57.1189 6.67989 5
      vertex 57.8971 8.16269 0
    endloop
  endfacet
  facet normal 0 0 -1
    outer loop
      vertex 57.1189 6.67989 0
      vertex 57.8971 8.16269 0
      vertex 63.5 5 0
    endloop
  endfacet
  facet normal -0.885456 0.464723 0
    outer loop
      vertex 57.1189 6.67989 5
      vertex 57.8971 8.16269 5
      vertex 57.8971 8.16269 0
    endloop
  endfacet
  facet normal 0 0 1
    outer loop
      vertex 57.1189 6.67989 5
      vertex 63.5 5 5
      vertex 57.8971 8.16269 5
    endloop
  endfacet
  facet normal 0.382684 0.923879 0
    outer loop
      vertex 57.5782 17.4572 0
      vertex 57.5782 17.4572 5
      vertex 58.3036 17.1568 0
    endloop
  endfacet
  facet normal 0 0 -1
    outer loop
      vertex 57.5782 17.4572 0
      vertex 58.3036 17.1568 0
      vertex 62.9572 12.0782 0
    endloop
  endfacet
  facet normal 0 0 -1
    outer loop
      vertex 57.5782 17.4572 0
      vertex 62.9572 12.0782 0
      vertex 63.1933 11.3294 0
    endloop
  endfacet
  facet normal 0.382684 0.923879 0
    outer loop
      vertex 57.5782 17.4572 5
      vertex 58.3036 17.1568 5
      vertex 58.3036 17.1568 0
    endloop
  endfacet
  facet normal -1 1.22465e-16 0
    outer loop
      vertex 57.8971 8.16269 0
      vertex 57.8971 8.16269 5
      vertex 57.8971 9.83731 0
    endloop
  endfacet
  facet normal 0 0 -1
    outer loop
      vertex 57.8971 8.16269 0
      vertex 57.8971 9.83731 0
      vertex 63.5 9 0
    endloop
  endfacet
  facet normal 0 0 -1
    outer loop
      vertex 57.8971 8.16269 0
      vertex 63.5 9 0
      vertex 63.5 5 0
    endloop
  endfacet
  facet normal -1 1.22465e-16 0
    outer loop
      vertex 57.8971 8.16269 5
      vertex 57.8971 9.83731 5
      vertex 57.8971 9.83731 0
    endloop
  endfacet
  facet normal 0 0 1
    outer loop
      vertex 57.8971 8.16269 5
      vertex 63.5 5 5
      vertex 63.5 9 5
    endloop
  endfacet
  facet normal 0 0 1
    outer loop
      vertex 57.8971 8.16269 5
      vertex 63.5 9 5
      vertex 57.8971 9.83731 5
    endloop
  endfacet
  facet normal 0 0 -1
    outer loop
      vertex 57.8971 9.83731 0
      vertex 63.4658 9.7844 0
      vertex 63.5 9 0
    endloop
  endfacet
  facet normal 0 0 1
    outer loop
      vertex 57.8971 9.83731 5
      vertex 63.4658 9.7844 5
      vertex 63.3633 10.5628 5
    endloop
  endfacet
  facet normal 0 0 1
    outer loop
      vertex 57.8971 9.83731 5
      vertex 63.5 9 5
      vertex 63.4658 9.7844 5
    endloop
  endfacet
  facet normal 0.461748 0.887011 0
    outer loop
      vertex 58.3036 17.1568 0
      vertex 58.3036 17.1568 5
      vertex 59 16.7942 0
    endloop
  endfacet
  facet normal 0 0 -1
    outer loop
      vertex 58.3036 17.1568 0
      vertex 59 16.7942 0
      vertex 62.6568 12.8036 0
    endloop
  endfacet
  facet normal 0 0 -1
    outer loop
      vertex 58.3036 17.1568 0
      vertex 62.6568 12.8036 0
      vertex 62.9572 12.0782 0
    endloop
  endfacet
  facet normal 0.461748 0.887011 0
    outer loop
      vertex 58.3036 17.1568 5
      vertex 59 16.7942 5
      vertex 59 16.7942 0
    endloop
  endfacet
  facet normal 0.5373 0.843391 0
    outer loop
      vertex 59 16.7942 0
      vertex 59 16.7942 5
      vertex 59.6622 16.3724 0
    endloop
  endfacet
  facet normal 0 0 -1
    outer loop
      vertex 59 16.7942 0
      vertex 59.6622 16.3724 0
      vertex 62.2942 13.5 0
    endloop
  endfacet
  facet normal 0 0 -1
    outer loop
      vertex 59 16.7942 0
      vertex 62.2942 13.5 0
      vertex 62.6568 12.8036 0
    endloop
  endfacet
  facet normal 0.5373 0.843391 0
    outer loop
      vertex 59 16.7942 5
      vertex 59.6622 16.3724 5
      vertex 59.6622 16.3724 0
    endloop
  endfacet
  facet normal 0.608761 0.793353 0
    outer loop
      vertex 59.6622 16.3724 0
      vertex 59.6622 16.3724 5
      vertex 60.2851 15.8944 0
    endloop
  endfacet
  facet normal 0 0 -1
    outer loop
      vertex 59.6622 16.3724 0
      vertex 60.2851 15.8944 0
      vertex 61.8724 14.1622 0
    endloop
  endfacet
  facet normal 0 0 -1
    outer loop
      vertex 59.6622 16.3724 0
      vertex 61.8724 14.1622 0
      vertex 62.2942 13.5 0
    endloop
  endfacet
  facet normal 0.608761 0.793353 0
    outer loop
      vertex 59.6622 16.3724 5
      vertex 60.2851 15.8944 5
      vertex 60.2851 15.8944 0
    endloop
  endfacet
  facet normal 0.67559 0.737278 0
    outer loop
      vertex 60.2851 15.8944 0
      vertex 60.2851 15.8944 5
      vertex 60.864 15.364 0
    endloop
  endfacet
  facet normal 0 0 -1
    outer loop
      vertex 60.2851 15.8944 0
      vertex 60.864 15.364 0
      vertex 61.3944 14.7851 0
    endloop
  endfacet
  facet normal 0 0 -1
    outer loop
      vertex 60.2851 15.8944 0
      vertex 61.3944 14.7851 0
      vertex 61.8724 14.1622 0
    endloop
  endfacet
  facet normal 0.67559 0.737278 0
    outer loop
      vertex 60.2851 15.8944 5
      vertex 60.864 15.364 5
      vertex 60.864 15.364 0
    endloop
  endfacet
  facet normal 0.737278 0.67559 0
    outer loop
      vertex 60.864 15.364 0
      vertex 60.864 15.364 5
      vertex 61.3944 14.7851 0
    endloop
  endfacet
  facet normal 0.737278 0.67559 0
    outer loop
      vertex 60.864 15.364 5
      vertex 61.3944 14.7851 5
      vertex 61.3944 14.7851 0
    endloop
  endfacet
  facet normal 0.793353 0.608761 0
    outer loop
      vertex 61.3944 14.7851 0
      vertex 61.3944 14.7851 5
      vertex 61.8724 14.1622 0
    endloop
  endfacet
  facet normal 0.793353 0.608761 0
    outer loop
      vertex 61.3944 14.7851 5
      vertex 61.8724 14.1622 5
      vertex 61.8724 14.1622 0
    endloop
  endfacet
  facet normal 0.843391 0.5373 0
    outer loop
      vertex 61.8724 14.1622 0
      vertex 61.8724 14.1622 5
      vertex 62.2942 13.5 0
    endloop
  endfacet
  facet normal 0.843391 0.5373 0
    outer loop
      vertex 61.8724 14.1622 5
      vertex 62.2942 13.5 5
      vertex 62.2942 13.5 0
    endloop
  endfacet
  facet normal 0.887011 0.461748 0
    outer loop
      vertex 62.2942 13.5 0
      vertex 62.2942 13.5 5
      vertex 62.6568 12.8036 0
    endloop
  endfacet
  facet normal 0.887011 0.461748 0
    outer loop
      vertex 62.2942 13.5 5
      vertex 62.6568 12.8036 5
      vertex 62.6568 12.8036 0
    endloop
  endfacet
  facet normal 0.923879 0.382684 0
    outer loop
      vertex 62.6568 12.8036 0
      vertex 62.6568 12.8036 5
      vertex 62.9572 12.0782 0
    endloop
  endfacet
  facet normal 0.923879 0.382684 0
    outer loop
      vertex 62.6568 12.8036 5
      vertex 62.9572 12.0782 5
      vertex 62.9572 12.0782 0
    endloop
  endfacet
  facet normal 0.953717 0.300705 0
    outer loop
      vertex 62.9572 12.0782 0
      vertex 62.9572 12.0782 5
      vertex 63.1933 11.3294 0
    endloop
  endfacet
  facet normal 0.953717 0.300705 0
    outer loop
      vertex 62.9572 12.0782 5
      vertex 63.1933 11.3294 5
      vertex 63.1933 11.3294 0
    endloop
  endfacet
  facet normal 0.976296 0.216441 0
    outer loop
      vertex 63.1933 11.3294 0
      vertex 63.1933 11.3294 5
      vertex 63.3633 10.5628 0
    endloop
  endfacet
  facet normal 0.976296 0.216441 0
    outer loop
      vertex 63.1933 11.3294 5
      vertex 63.3633 10.5628 5
      vertex 63.3633 10.5628 0
    endloop
  endfacet
  facet normal 0.991445 0.130526 0
    outer loop
      vertex 63.3633 10.5628 0
      vertex 63.3633 10.5628 5
      vertex 63.4658 9.7844 0
    endloop
  endfacet
  facet normal 0.991445 0.130526 0
    outer loop
      vertex 63.3633 10.5628 5
      vertex 63.4658 9.7844 5
      vertex 63.4658 9.7844 0
    endloop
  endfacet
  facet normal 0.999048 0.0436197 0
    outer loop
      vertex 63.4658 9.7844 0
      vertex 63.4658 9.7844 5
      vertex 63.5 9 0
    endloop
  endfacet
  facet normal 0.999048 0.0436197 0
    outer loop
      vertex 63.4658 9.7844 5
      vertex 63.5 9 5
      vertex 63.5 9 0
    endloop
  endfacet
  facet normal -1 0 0
    outer loop
      vertex 63.49 0 22
      vertex 63.49 5 22
      vertex 63.49 5 5
    endloop
  endfacet
  facet normal 0 -1 0
    outer loop
      vertex 63.49 0 22
      vertex 66.914 0 15.756
      vertex 66.914 0 16.244
    endloop
  endfacet
  facet normal 0 -1 0
    outer loop
      vertex 63.49 0 22
      vertex 66.914 0 16.244
      vertex 67.027 0 16.718
    endloop
  endfacet
  facet normal 0 -1 0
    outer loop
      vertex 63.49 0 22
      vertex 67.027 0 16.718
      vertex 67.245 0 17.154
    endloop
  endfacet
  facet normal 0 -1 0
    outer loop
      vertex 63.49 0 22
      vertex 67.245 0 17.154
      vertex 67.515 0 17.485
    endloop
  endfacet
  facet normal 0 -1 0
    outer loop
      vertex 63.49 0 22
      vertex 67.515 0 17.485
      vertex 68.13 0 18.1
    endloop
  endfacet
  facet normal 0 -1 0
    outer loop
      vertex 63.49 0 22
      vertex 68.13 0 18.1
      vertex 74.99 0 22
    endloop
  endfacet
  facet normal 0 0 1
    outer loop
      vertex 63.49 0 22
      vertex 74.99 0 22
      vertex 63.49 5 22
    endloop
  endfacet
  facet normal -1 0 0
    outer loop
      vertex 63.49 0 5
      vertex 63.49 0 22
      vertex 63.49 5 5
    endloop
  endfacet
  facet normal 0 -1 0
    outer loop
      vertex 63.49 0 5
      vertex 66.914 0 15.756
      vertex 63.49 0 22
    endloop
  endfacet
  facet normal 0 -1 0
    outer loop
      vertex 63.49 0 5
      vertex 67.027 0 15.282
      vertex 66.914 0 15.756
    endloop
  endfacet
  facet normal 0 -1 0
    outer loop
      vertex 63.49 0 5
      vertex 67.245 0 14.846
      vertex 67.027 0 15.282
    endloop
  endfacet
  facet normal 0 -1 0
    outer loop
      vertex 63.49 0 5
      vertex 67.559 0 14.473
      vertex 67.245 0 14.846
    endloop
  endfacet
  facet normal 0 -1 0
    outer loop
      vertex 63.49 0 5
      vertex 67.95 0 14.181
      vertex 67.559 0 14.473
    endloop
  endfacet
  facet normal 0 -1 0
    outer loop
      vertex 63.49 0 5
      vertex 68.398 0 13.988
      vertex 67.95 0 14.181
    endloop
  endfacet
  facet normal 0 -1 0
    outer loop
      vertex 63.49 0 5
      vertex 68.878 0 13.904
      vertex 68.398 0 13.988
    endloop
  endfacet
  facet normal 0 -1 0
    outer loop
      vertex 63.49 0 5
      vertex 69.365 0 13.932
      vertex 68.878 0 13.904
    endloop
  endfacet
  facet normal 0 -1 0
    outer loop
      vertex 63.49 0 5
      vertex 69.832 0 14.072
      vertex 69.365 0 13.932
    endloop
  endfacet
  facet normal 0 -1 0
    outer loop
      vertex 63.49 0 5
      vertex 70.254 0 14.316
      vertex 69.832 0 14.072
    endloop
  endfacet
  facet normal 0 -1 0
    outer loop
      vertex 63.49 0 5
      vertex 70.609 0 14.65
      vertex 70.254 0 14.316
    endloop
  endfacet
  facet normal 0 -1 0
    outer loop
      vertex 63.49 0 5
      vertex 74.99 0 0
      vertex 70.609 0 14.65
    endloop
  endfacet
  facet normal 0 1 0
    outer loop
      vertex 63.49 5 22
      vertex 66.914 5 16.244
      vertex 63.5 5 5
    endloop
  endfacet
  facet normal 0 1 0
    outer loop
      vertex 63.49 5 22
      vertex 67.027 5 16.718
      vertex 66.914 5 16.244
    endloop
  endfacet
  facet normal 0 1 0
    outer loop
      vertex 63.49 5 22
      vertex 67.245 5 17.154
      vertex 67.027 5 16.718
    endloop
  endfacet
  facet normal 0 1 0
    outer loop
      vertex 63.49 5 22
      vertex 67.515 5 17.485
      vertex 67.245 5 17.154
    endloop
  endfacet
  facet normal 0 1 0
    outer loop
      vertex 63.49 5 22
      vertex 68.13 5 18.1
      vertex 67.515 5 17.485
    endloop
  endfacet
  facet normal 0 0 1
    outer loop
      vertex 63.49 5 22
      vertex 74.99 0 22
      vertex 74.99 5 22
    endloop
  endfacet
  facet normal 0 1 0
    outer loop
      vertex 63.49 5 22
      vertex 74.99 5 22
      vertex 68.13 5 18.1
    endloop
  endfacet
  facet normal 0 1 0
    outer loop
      vertex 63.49 5 5
      vertex 63.49 5 22
      vertex 63.5 5 5
    endloop
  endfacet
  facet normal 0 1 0
    outer loop
      vertex 63.5 5 0
      vertex 63.5 5 5
      vertex 74.99 5 0
    endloop
  endfacet
  facet normal 1 0 0
    outer loop
      vertex 63.5 5 0
      vertex 63.5 9 0
      vertex 63.5 5 5
    endloop
  endfacet
  facet normal 0 0 -1
    outer loop
      vertex 63.5 5 0
      vertex 74.99 5 0
      vertex 74.99 0 0
    endloop
  endfacet
  facet normal 1 0 0
    outer loop
      vertex 63.5 5 5
      vertex 63.5 9 0
      vertex 63.5 9 5
    endloop
  endfacet
  facet normal 0 1 0
    outer loop
      vertex 63.5 5 5
      vertex 66.914 5 15.756
      vertex 67.027 5 15.282
    endloop
  endfacet
  facet normal 0 1 0
    outer loop
      vertex 63.5 5 5
      vertex 66.914 5 16.244
      vertex 66.914 5 15.756
    endloop
  endfacet
  facet normal 0 1 0
    outer loop
      vertex 63.5 5 5
      vertex 67.027 5 15.282
      vertex 67.245 5 14.846
    endloop
  endfacet
  facet normal 0 1 0
    outer loop
      vertex 63.5 5 5
      vertex 67.245 5 14.846
      vertex 67.559 5 14.473
    endloop
  endfacet
  facet normal 0 1 0
    outer loop
      vertex 63.5 5 5
      vertex 67.559 5 14.473
      vertex 67.95 5 14.181
    endloop
  endfacet
  facet normal 0 1 0
    outer loop
      vertex 63.5 5 5
      vertex 67.95 5 14.181
      vertex 68.398 5 13.988
    endloop
  endfacet
  facet normal 0 1 0
    outer loop
      vertex 63.5 5 5
      vertex 68.398 5 13.988
      vertex 68.878 5 13.904
    endloop
  endfacet
  facet normal 0 1 0
    outer loop
      vertex 63.5 5 5
      vertex 68.878 5 13.904
      vertex 69.365 5 13.932
    endloop
  endfacet
  facet normal 0 1 0
    outer loop
      vertex 63.5 5 5
      vertex 69.365 5 13.932
      vertex 69.832 5 14.072
    endloop
  endfacet
  facet normal 0 1 0
    outer loop
      vertex 63.5 5 5
      vertex 69.832 5 14.072
      vertex 74.99 5 0
    endloop
  endfacet
  facet normal 1 0 0
    outer loop
      vertex 66.914 0 15.756
      vertex 66.914 5 15.756
      vertex 66.914 0 16.244
    endloop
  endfacet
  facet normal 0.97274 5.14917e-17 0.231898
    outer loop
      vertex 66.914 0 15.756
      vertex 67.027 0 15.282
      vertex 66.914 5 15.756
    endloop
  endfacet
  facet normal 1 0 0
    outer loop
      vertex 66.914 0 16.244
      vertex 66.914 5 15.756
      vertex 66.914 5 16.244
    endloop
  endfacet
  facet normal 0.97274 -5.14917e-17 -0.231898
    outer loop
      vertex 66.914 0 16.244
      vertex 66.914 5 16.244
      vertex 67.027 0 16.718
    endloop
  endfacet
  facet normal 0.97274 5.14917e-17 0.231898
    outer loop
      vertex 66.914 5 15.756
      vertex 67.027 0 15.282
      vertex 67.027 5 15.282
    endloop
  endfacet
  facet normal 0.97274 -5.14917e-17 -0.231898
    outer loop
      vertex 66.914 5 16.244
      vertex 67.027 5 16.718
      vertex 67.027 0 16.718
    endloop
  endfacet
  facet normal 0.894427 9.93014e-17 0.447214
    outer loop
      vertex 67.027 0 15.282
      vertex 67.245 0 14.846
      vertex 67.027 5 15.282
    endloop
  endfacet
  facet normal 0.894427 -9.93014e-17 -0.447214
    outer loop
      vertex 67.027 0 16.718
      vertex 67.027 5 16.718
      vertex 67.245 0 17.154
    endloop
  endfacet
  facet normal 0.894427 9.93014e-17 0.447214
    outer loop
      vertex 67.027 5 15.282
      vertex 67.245 0 14.846
      vertex 67.245 5 14.846
    endloop
  endfacet
  facet normal 0.894427 -9.93014e-17 -0.447214
    outer loop
      vertex 67.027 5 16.718
      vertex 67.245 5 17.154
      vertex 67.245 0 17.154
    endloop
  endfacet
  facet normal 0.765018 1.42999e-16 0.644009
    outer loop
      vertex 67.245 0 14.846
      vertex 67.559 0 14.473
      vertex 67.245 5 14.846
    endloop
  endfacet
  facet normal 0.764364 -1.43171e-16 -0.644785
    outer loop
      vertex 67.245 0 17.154
      vertex 67.245 5 17.154
      vertex 67.52 0 17.48
    endloop
  endfacet
  facet normal 0 -1 0
    outer loop
      vertex 67.245 0 17.154
      vertex 67.52 0 17.48
      vertex 67.515 0 17.485
    endloop
  endfacet
  facet normal 0.765018 1.42999e-16 0.644009
    outer loop
      vertex 67.245 5 14.846
      vertex 67.559 0 14.473
      vertex 67.559 5 14.473
    endloop
  endfacet
  facet normal 0 1 0
    outer loop
      vertex 67.245 5 17.154
      vertex 67.515 5 17.485
      vertex 67.52 5 17.48
    endloop
  endfacet
  facet normal 0.764364 -1.43171e-16 -0.644785
    outer loop
      vertex 67.245 5 17.154
      vertex 67.52 5 17.48
      vertex 67.52 0 17.48
    endloop
  endfacet
  facet normal 0.707107 -1.57009e-16 -0.707107
    outer loop
      vertex 67.515 0 17.485
      vertex 67.515 5 17.485
      vertex 68.13 0 18.1
    endloop
  endfacet
  facet normal 0.707107 1.57009e-16 0.707107
    outer loop
      vertex 67.515 0 17.485
      vertex 67.52 0 17.48
      vertex 67.515 5 17.485
    endloop
  endfacet
  facet normal 0.707107 1.57009e-16 0.707107
    outer loop
      vertex 67.515 5 17.485
      vertex 67.52 0 17.48
      vertex 67.52 5 17.48
    endloop
  endfacet
  facet normal 0.707107 -1.57009e-16 -0.707107
    outer loop
      vertex 67.515 5 17.485
      vertex 68.13 5 18.1
      vertex 68.13 0 18.1
    endloop
  endfacet
  facet normal 0.598359 1.77908e-16 0.801228
    outer loop
      vertex 67.559 0 14.473
      vertex 67.95 0 14.181
      vertex 67.559 5 14.473
    endloop
  endfacet
  facet normal 0.598359 1.77908e-16 0.801228
    outer loop
      vertex 67.559 5 14.473
      vertex 67.95 0 14.181
      vertex 67.95 5 14.181
    endloop
  endfacet
  facet normal 0.39565 2.03926e-16 0.918401
    outer loop
      vertex 67.95 0 14.181
      vertex 68.398 0 13.988
      vertex 67.95 5 14.181
    endloop
  endfacet
  facet normal 0.39565 2.03926e-16 0.918401
    outer loop
      vertex 67.95 5 14.181
      vertex 68.398 0 13.988
      vertex 68.398 5 13.988
    endloop
  endfacet
  facet normal 0 -2.22045e-16 -1
    outer loop
      vertex 68.13 0 18.1
      vertex 68.13 5 18.1
      vertex 69.87 0 18.1
    endloop
  endfacet
  facet normal 0 -1 0
    outer loop
      vertex 68.13 0 18.1
      vertex 69.87 0 18.1
      vertex 74.99 0 22
    endloop
  endfacet
  facet normal 0 -2.22045e-16 -1
    outer loop
      vertex 68.13 5 18.1
      vertex 69.87 5 18.1
      vertex 69.87 0 18.1
    endloop
  endfacet
  facet normal 0 1 0
    outer loop
      vertex 68.13 5 18.1
      vertex 74.99 5 22
      vertex 69.87 5 18.1
    endloop
  endfacet
  facet normal 0.17238 2.18721e-16 0.98503
    outer loop
      vertex 68.398 0 13.988
      vertex 68.878 0 13.904
      vertex 68.398 5 13.988
    endloop
  endfacet
  facet normal 0.17238 2.18721e-16 0.98503
    outer loop
      vertex 68.398 5 13.988
      vertex 68.878 0 13.904
      vertex 68.878 5 13.904
    endloop
  endfacet
  facet normal -0.0574001 2.21679e-16 0.998351
    outer loop
      vertex 68.878 0 13.904
      vertex 69.365 0 13.932
      vertex 68.878 5 13.904
    endloop
  endfacet
  facet normal -0.0574001 2.21679e-16 0.998351
    outer loop
      vertex 68.878 5 13.904
      vertex 69.365 0 13.932
      vertex 69.365 5 13.932
    endloop
  endfacet
  facet normal -0.28716 2.12693e-16 0.957883
    outer loop
      vertex 69.365 0 13.932
      vertex 69.832 0 14.072
      vertex 69.365 5 13.932
    endloop
  endfacet
  facet normal -0.28716 2.12693e-16 0.957883
    outer loop
      vertex 69.365 5 13.932
      vertex 69.832 0 14.072
      vertex 69.832 5 14.072
    endloop
  endfacet
  facet normal -0.500551 1.92226e-16 0.865707
    outer loop
      vertex 69.832 0 14.072
      vertex 70.254 0 14.316
      vertex 69.832 5 14.072
    endloop
  endfacet
  facet normal -0.500551 1.92226e-16 0.865707
    outer loop
      vertex 69.832 5 14.072
      vertex 70.254 0 14.316
      vertex 70.254 5 14.316
    endloop
  endfacet
  facet normal 0 1 0
    outer loop
      vertex 69.832 5 14.072
      vertex 70.254 5 14.316
      vertex 74.99 5 0
    endloop
  endfacet
  facet normal -0.707107 -1.57009e-16 -0.707107
    outer loop
      vertex 69.87 0 18.1
      vertex 69.87 5 18.1
      vertex 70.485 0 17.485
    endloop
  endfacet
  facet normal 0 -1 0
    outer loop
      vertex 69.87 0 18.1
      vertex 70.485 0 17.485
      vertex 74.99 0 22
    endloop
  endfacet
  facet normal -0.707107 -1.57009e-16 -0.707107
    outer loop
      vertex 69.87 5 18.1
      vertex 70.485 5 17.485
      vertex 70.485 0 17.485
    endloop
  endfacet
  facet normal 0 1 0
    outer loop
      vertex 69.87 5 18.1
      vertex 74.99 5 22
      vertex 70.485 5 17.485
    endloop
  endfacet
  facet normal -0.685237 1.6172e-16 0.72832
    outer loop
      vertex 70.254 0 14.316
      vertex 70.609 0 14.65
      vertex 70.254 5 14.316
    endloop
  endfacet
  facet normal -0.685237 1.6172e-16 0.72832
    outer loop
      vertex 70.254 5 14.316
      vertex 70.609 0 14.65
      vertex 70.609 5 14.65
    endloop
  endfacet
  facet normal 0 1 0
    outer loop
      vertex 70.254 5 14.316
      vertex 70.609 5 14.65
      vertex 74.99 5 0
    endloop
  endfacet
  facet normal -0.687745 -1.61194e-16 -0.725953
    outer loop
      vertex 70.476 0 17.476
      vertex 70.476 5 17.476
      vertex 70.609 0 17.35
    endloop
  endfacet
  facet normal -0.707107 1.57009e-16 0.707107
    outer loop
      vertex 70.476 0 17.476
      vertex 70.485 0 17.485
      vertex 70.476 5 17.476
    endloop
  endfacet
  facet normal 0 -1 0
    outer loop
      vertex 70.476 0 17.476
      vertex 70.609 0 17.35
      vertex 70.485 0 17.485
    endloop
  endfacet
  facet normal -0.707107 1.57009e-16 0.707107
    outer loop
      vertex 70.476 5 17.476
      vertex 70.485 0 17.485
      vertex 70.485 5 17.485
    endloop
  endfacet
  facet normal 0 1 0
    outer loop
      vertex 70.476 5 17.476
      vertex 70.485 5 17.485
      vertex 70.609 5 17.35
    endloop
  endfacet
  facet normal -0.687745 -1.61194e-16 -0.725953
    outer loop
      vertex 70.476 5 17.476
      vertex 70.609 5 17.35
      vertex 70.609 0 17.35
    endloop
  endfacet
  facet normal 0 -1 0
    outer loop
      vertex 70.485 0 17.485
      vertex 70.609 0 17.35
      vertex 74.99 0 22
    endloop
  endfacet
  facet normal 0 1 0
    outer loop
      vertex 70.485 5 17.485
      vertex 74.99 5 22
      vertex 70.609 5 17.35
    endloop
  endfacet
  facet normal -0.835813 1.21906e-16 0.549014
    outer loop
      vertex 70.609 0 14.65
      vertex 70.877 0 15.058
      vertex 70.609 5 14.65
    endloop
  endfacet
  facet normal 0 -1 0
    outer loop
      vertex 70.609 0 14.65
      vertex 74.99 0 0
      vertex 70.877 0 15.058
    endloop
  endfacet
  facet normal -0.835813 -1.21906e-16 -0.549014
    outer loop
      vertex 70.609 0 17.35
      vertex 70.609 5 17.35
      vertex 70.877 0 16.942
    endloop
  endfacet
  facet normal 0 -1 0
    outer loop
      vertex 70.609 0 17.35
      vertex 70.877 0 16.942
      vertex 74.99 0 22
    endloop
  endfacet
  facet normal -0.835813 1.21906e-16 0.549014
    outer loop
      vertex 70.609 5 14.65
      vertex 70.877 0 15.058
      vertex 70.877 5 15.058
    endloop
  endfacet
  facet normal 0 1 0
    outer loop
      vertex 70.609 5 14.65
      vertex 70.877 5 15.058
      vertex 74.99 5 0
    endloop
  endfacet
  facet normal -0.835813 -1.21906e-16 -0.549014
    outer loop
      vertex 70.609 5 17.35
      vertex 70.877 5 16.942
      vertex 70.877 0 16.942
    endloop
  endfacet
  facet normal 0 1 0
    outer loop
      vertex 70.609 5 17.35
      vertex 74.99 5 22
      vertex 70.877 5 16.942
    endloop
  endfacet
  facet normal -0.940153 7.56626e-17 0.340754
    outer loop
      vertex 70.877 0 15.058
      vertex 71.043 0 15.516
      vertex 70.877 5 15.058
    endloop
  endfacet
  facet normal 0 -1 0
    outer loop
      vertex 70.877 0 15.058
      vertex 74.99 0 0
      vertex 71.043 0 15.516
    endloop
  endfacet
  facet normal -0.940153 -7.56626e-17 -0.340754
    outer loop
      vertex 70.877 0 16.942
      vertex 70.877 5 16.942
      vertex 71.043 0 16.484
    endloop
  endfacet
  facet normal 0 -1 0
    outer loop
      vertex 70.877 0 16.942
      vertex 71.043 0 16.484
      vertex 74.99 0 22
    endloop
  endfacet
  facet normal -0.940153 7.56626e-17 0.340754
    outer loop
      vertex 70.877 5 15.058
      vertex 71.043 0 15.516
      vertex 71.043 5 15.516
    endloop
  endfacet
  facet normal 0 1 0
    outer loop
      vertex 70.877 5 15.058
      vertex 71.043 5 15.516
      vertex 74.99 5 22
    endloop
  endfacet
  facet normal 0 1 0
    outer loop
      vertex 70.877 5 15.058
      vertex 74.99 5 22
      vertex 74.99 5 0
    endloop
  endfacet
  facet normal -0.940153 -7.56626e-17 -0.340754
    outer loop
      vertex 70.877 5 16.942
      vertex 71.043 5 16.484
      vertex 71.043 0 16.484
    endloop
  endfacet
  facet normal 0 1 0
    outer loop
      vertex 70.877 5 16.942
      vertex 74.99 5 22
      vertex 71.043 5 16.484
    endloop
  endfacet
  facet normal -0.993137 2.59704e-17 0.11696
    outer loop
      vertex 71.043 0 15.516
      vertex 71.1 0 16
      vertex 71.043 5 15.516
    endloop
  endfacet
  facet normal 0 -1 0
    outer loop
      vertex 71.043 0 15.516
      vertex 74.99 0 0
      vertex 71.1 0 16
    endloop
  endfacet
  facet normal -0.993137 -2.59704e-17 -0.11696
    outer loop
      vertex 71.043 0 16.484
      vertex 71.043 5 16.484
      vertex 71.1 0 16
    endloop
  endfacet
  facet normal 0 -1 0
    outer loop
      vertex 71.043 0 16.484
      vertex 71.1 0 16
      vertex 74.99 0 22
    endloop
  endfacet
  facet normal -0.993137 2.59704e-17 0.11696
    outer loop
      vertex 71.043 5 15.516
      vertex 71.1 0 16
      vertex 71.1 5 16
    endloop
  endfacet
  facet normal 0 1 0
    outer loop
      vertex 71.043 5 15.516
      vertex 71.1 5 16
      vertex 74.99 5 22
    endloop
  endfacet
  facet normal -0.993137 -2.59704e-17 -0.11696
    outer loop
      vertex 71.043 5 16.484
      vertex 71.1 5 16
      vertex 71.1 0 16
    endloop
  endfacet
  facet normal 0 1 0
    outer loop
      vertex 71.043 5 16.484
      vertex 74.99 5 22
      vertex 71.1 5 16
    endloop
  endfacet
  facet normal 0 -1 0
    outer loop
      vertex 71.1 0 16
      vertex 74.99 0 0
      vertex 74.99 0 22
    endloop
  endfacet
  facet normal 1 0 0
    outer loop
      vertex 74.99 0 0
      vertex 74.99 5 0
      vertex 74.99 0 22
    endloop
  endfacet
  facet normal 1 0 0
    outer loop
      vertex 74.99 0 22
      vertex 74.99 5 0
      vertex 74.99 5 22
    endloop
  endfacet
endsolid OpenSCAD_Model
