solid OpenSCAD_Model
  facet normal 0 0 -1
    outer loop
      vertex -2.71864 0 0
      vertex 4.22023 1.88294 0
      vertex 2.9099 0.837986 0
    endloop
  endfacet
  facet normal 0 0 -1
    outer loop
      vertex -2.71864 0 0
      vertex 8.532 4.207 0
      vertex 8.867 3.843 0
    endloop
  endfacet
  facet normal 0 0 -1
    outer loop
      vertex -2.71864 0 0
      vertex 8.867 3.843 0
      vertex 4.22023 1.88294 0
    endloop
  endfacet
  facet normal -0.900969 0.433884 0
    outer loop
      vertex -3 -0.584254 3.99
      vertex -2.71864 0 3.99
      vertex -2.71864 0 0
    endloop
  endfacet
  facet normal -1 0 0
    outer loop
      vertex -3 -0.584254 3.99
      vertex -3 -0.584254 4
      vertex -3 0.584254 3.99
    endloop
  endfacet
  facet normal 0 0 -1
    outer loop
      vertex -3 -0.584254 3.99
      vertex -3 0.584254 3.99
      vertex -2.71864 0 3.99
    endloop
  endfacet
  facet normal -1 0 0
    outer loop
      vertex -3 -0.584254 4
      vertex -3 0.584254 4
      vertex -3 0.584254 3.99
    endloop
  endfacet
  facet normal -1 0 0
    outer loop
      vertex -3 -0.584254 4
      vertex -3 1.25 5.115
      vertex -3 0.584254 4
    endloop
  endfacet
  facet normal -1 0 0
    outer loop
      vertex -3 -1.25 4
      vertex -3 -1.25 5.115
      vertex -3 -0.584254 4
    endloop
  endfacet
  facet normal 0 -1 0
    outer loop
      vertex -3 -1.25 4
      vertex 3 -1.25 4
      vertex -3 -1.25 5.115
    endloop
  endfacet
  facet normal 0 0 1
    outer loop
      vertex -3 -1.25 4
      vertex 6.5 -5 4
      vertex 3 -1.25 4
    endloop
  endfacet
  facet normal -1 0 0
    outer loop
      vertex -3 -1.25 5.115
      vertex -3 1.25 5.115
      vertex -3 -0.584254 4
    endloop
  endfacet
  facet normal 0 -1 0
    outer loop
      vertex -3 -1.25 5.115
      vertex 3 -1.25 4
      vertex 3 -1.25 5.115
    endloop
  endfacet
  facet normal 0 0 1
    outer loop
      vertex -3 -1.25 5.115
      vertex 3 -1.25 5.115
      vertex -3 1.25 5.115
    endloop
  endfacet
  facet normal -0.900969 -0.433884 0
    outer loop
      vertex -3 0.584254 3.99
      vertex -2.71864 0 0
      vertex -2.71864 0 3.99
    endloop
  endfacet
  facet normal -1 0 0
    outer loop
      vertex -3 0.584254 4
      vertex -3 1.25 5.115
      vertex -3 1.25 4
    endloop
  endfacet
  facet normal 0 1 0
    outer loop
      vertex -3 1.25 4
      vertex -3 1.25 5.115
      vertex 3 1.25 4
    endloop
  endfacet
  facet normal 0 0 1
    outer loop
      vertex -3 1.25 5.115
      vertex 3 -1.25 5.115
      vertex 3 1.25 5.115
    endloop
  endfacet
  facet normal 0 1 0
    outer loop
      vertex -3 1.25 5.115
      vertex 3 1.25 5.115
      vertex 3 1.25 4
    endloop
  endfacet
  facet normal 0 0 -1
    outer loop
      vertex -3.44582 -1.51 0
      vertex -2.71864 0 0
      vertex 2.9099 0.837986 0
    endloop
  endfacet
  facet normal -0.900969 0.433884 0
    outer loop
      vertex -3.44582 -1.51 0
      vertex -3.44582 -1.51 4
      vertex -2.71864 0 0
    endloop
  endfacet
  facet normal 0 0 -1
    outer loop
      vertex -3.44582 -1.51 0
      vertex 2.9099 -0.837986 0
      vertex 4.22023 -1.88294 0
    endloop
  endfacet
  facet normal 0 0 -1
    outer loop
      vertex -3.44582 -1.51 0
      vertex 2.9099 0.837986 0
      vertex 2.9099 -0.837986 0
    endloop
  endfacet
  facet normal -0.900969 0.433884 0
    outer loop
      vertex -3.44582 -1.51 4
      vertex -3 -0.584254 3.99
      vertex -2.71864 0 0
    endloop
  endfacet
  facet normal -0.900969 0.433884 0
    outer loop
      vertex -3.44582 -1.51 4
      vertex -3 -0.584254 4
      vertex -3 -0.584254 3.99
    endloop
  endfacet
  facet normal 0 0 1
    outer loop
      vertex -3.44582 -1.51 4
      vertex -3 -1.25 4
      vertex -3 -0.584254 4
    endloop
  endfacet
  facet normal 0 0 1
    outer loop
      vertex -3.44582 -1.51 4
      vertex 6.5 -5 4
      vertex -3 -1.25 4
    endloop
  endfacet
  facet normal -0.900969 -0.433884 0
    outer loop
      vertex -3.44582 1.51 0
      vertex -2.71864 0 0
      vertex -3.44582 1.51 4
    endloop
  endfacet
  facet normal 0 0 -1
    outer loop
      vertex -3.44582 1.51 0
      vertex 6.5 4.99 0
      vertex 6.748 4.99 0
    endloop
  endfacet
  facet normal 0 0 -1
    outer loop
      vertex -3.44582 1.51 0
      vertex 6.5 5 0
      vertex 6.5 4.99 0
    endloop
  endfacet
  facet normal 0 0 -1
    outer loop
      vertex -3.44582 1.51 0
      vertex 6.748 4.99 0
      vertex 7.236 4.908 0
    endloop
  endfacet
  facet normal 0 0 -1
    outer loop
      vertex -3.44582 1.51 0
      vertex 7.236 4.908 0
      vertex 7.705 4.747 0
    endloop
  endfacet
  facet normal 0 0 -1
    outer loop
      vertex -3.44582 1.51 0
      vertex 7.705 4.747 0
      vertex 8.141 4.511 0
    endloop
  endfacet
  facet normal 0 0 -1
    outer loop
      vertex -3.44582 1.51 0
      vertex 8.141 4.511 0
      vertex 8.532 4.207 0
    endloop
  endfacet
  facet normal 0 0 -1
    outer loop
      vertex -3.44582 1.51 0
      vertex 8.532 4.207 0
      vertex -2.71864 0 0
    endloop
  endfacet
  facet normal -0.900969 -0.433884 0
    outer loop
      vertex -3.44582 1.51 4
      vertex -2.71864 0 0
      vertex -3 0.584254 3.99
    endloop
  endfacet
  facet normal -0.900969 -0.433884 0
    outer loop
      vertex -3.44582 1.51 4
      vertex -3 0.584254 3.99
      vertex -3 0.584254 4
    endloop
  endfacet
  facet normal 0 0 1
    outer loop
      vertex -3.44582 1.51 4
      vertex -3 0.584254 4
      vertex -3 1.25 4
    endloop
  endfacet
  facet normal 0 0 1
    outer loop
      vertex -3.44582 1.51 4
      vertex -3 1.25 4
      vertex 3 1.25 4
    endloop
  endfacet
  facet normal 0 0 1
    outer loop
      vertex -3.44582 1.51 4
      vertex 3 1.25 4
      vertex 4.22023 1.88294 4
    endloop
  endfacet
  facet normal 0 0 -1
    outer loop
      vertex -5.07977 -1.88294 0
      vertex -3.44582 -1.51 0
      vertex 4.22023 -1.88294 0
    endloop
  endfacet
  facet normal -0.222522 0.974928 0
    outer loop
      vertex -5.07977 -1.88294 0
      vertex -5.07977 -1.88294 4
      vertex -3.44582 -1.51 0
    endloop
  endfacet
  facet normal 0 0 -1
    outer loop
      vertex -5.07977 -1.88294 0
      vertex 4.22023 -1.88294 0
      vertex 9.5 -2 0
    endloop
  endfacet
  facet normal -0.222522 0.974928 0
    outer loop
      vertex -5.07977 -1.88294 4
      vertex -3.44582 -1.51 4
      vertex -3.44582 -1.51 0
    endloop
  endfacet
  facet normal 0 0 1
    outer loop
      vertex -5.07977 -1.88294 4
      vertex 6.5 -5 4
      vertex -3.44582 -1.51 4
    endloop
  endfacet
  facet normal -0.222522 -0.974928 0
    outer loop
      vertex -5.07977 1.88294 0
      vertex -3.44582 1.51 0
      vertex -5.07977 1.88294 4
    endloop
  endfacet
  facet normal 0 0 -1
    outer loop
      vertex -5.07977 1.88294 0
      vertex 6.5 5 0
      vertex -3.44582 1.51 0
    endloop
  endfacet
  facet normal -0.222522 -0.974928 0
    outer loop
      vertex -5.07977 1.88294 4
      vertex -3.44582 1.51 0
      vertex -3.44582 1.51 4
    endloop
  endfacet
  facet normal 0 0 1
    outer loop
      vertex -5.07977 1.88294 4
      vertex -3.44582 1.51 4
      vertex 4.22023 1.88294 4
    endloop
  endfacet
  facet normal 0 0 1
    outer loop
      vertex -5.07977 1.88294 4
      vertex 4.22023 1.88294 4
      vertex 9.5 2 4
    endloop
  endfacet
  facet normal 0.62349 0.781831 0
    outer loop
      vertex -6.3901 -0.837986 0
      vertex -6.3901 -0.837986 4
      vertex -5.07977 -1.88294 0
    endloop
  endfacet
  facet normal 1 0 0
    outer loop
      vertex -6.3901 -0.837986 0
      vertex -6.3901 0.837986 0
      vertex -6.3901 -0.837986 4
    endloop
  endfacet
  facet normal 0.62349 0.781831 0
    outer loop
      vertex -6.3901 -0.837986 4
      vertex -5.07977 -1.88294 4
      vertex -5.07977 -1.88294 0
    endloop
  endfacet
  facet normal 1 0 0
    outer loop
      vertex -6.3901 -0.837986 4
      vertex -6.3901 0.837986 0
      vertex -6.3901 0.837986 4
    endloop
  endfacet
  facet normal 0.62349 -0.781831 0
    outer loop
      vertex -6.3901 0.837986 0
      vertex -5.07977 1.88294 0
      vertex -6.3901 0.837986 4
    endloop
  endfacet
  facet normal 0.62349 -0.781831 0
    outer loop
      vertex -6.3901 0.837986 4
      vertex -5.07977 1.88294 0
      vertex -5.07977 1.88294 4
    endloop
  endfacet
  facet normal 0 0 1
    outer loop
      vertex -6.5 -4.99 4
      vertex -5.07977 -1.88294 4
      vertex -6.3901 -0.837986 4
    endloop
  endfacet
  facet normal 0 0 1
    outer loop
      vertex -6.5 -4.99 4
      vertex 6.5 -5 4
      vertex -5.07977 -1.88294 4
    endloop
  endfacet
  facet normal 0 0 -1
    outer loop
      vertex -6.5 -5 0
      vertex -6.5 -4.99 0
      vertex 6.5 -5 0
    endloop
  endfacet
  facet normal -1 0 0
    outer loop
      vertex -6.5 -5 0
      vertex -6.5 -5 4
      vertex -6.5 -4.99 0
    endloop
  endfacet
  facet normal 0 -1 0
    outer loop
      vertex -6.5 -5 0
      vertex 6.5 -5 0
      vertex -6.5 -5 4
    endloop
  endfacet
  facet normal -1 0 0
    outer loop
      vertex -6.5 -5 4
      vertex -6.5 -4.99 4
      vertex -6.5 -4.99 0
    endloop
  endfacet
  facet normal 0 -1 0
    outer loop
      vertex -6.5 -5 4
      vertex 6.5 -5 0
      vertex 6.5 -5 4
    endloop
  endfacet
  facet normal 0 0 1
    outer loop
      vertex -6.5 -5 4
      vertex 6.5 -5 4
      vertex -6.5 -4.99 4
    endloop
  endfacet
  facet normal 0 0 -1
    outer loop
      vertex -6.5 4.99 0
      vertex -5.07977 1.88294 0
      vertex -6.3901 0.837986 0
    endloop
  endfacet
  facet normal -1 0 0
    outer loop
      vertex -6.5 4.99 0
      vertex -6.5 4.99 4
      vertex -6.5 5 0
    endloop
  endfacet
  facet normal 0 0 -1
    outer loop
      vertex -6.5 4.99 0
      vertex -6.5 5 0
      vertex 6.5 5 0
    endloop
  endfacet
  facet normal 0 0 -1
    outer loop
      vertex -6.5 4.99 0
      vertex 6.5 5 0
      vertex -5.07977 1.88294 0
    endloop
  endfacet
  facet normal -1 0 0
    outer loop
      vertex -6.5 4.99 4
      vertex -6.5 5 4
      vertex -6.5 5 0
    endloop
  endfacet
  facet normal 0 0 1
    outer loop
      vertex -6.5 4.99 4
      vertex 6.5 5 4
      vertex -6.5 5 4
    endloop
  endfacet
  facet normal 0 1 0
    outer loop
      vertex -6.5 5 0
      vertex -6.5 5 4
      vertex 6.5 5 0
    endloop
  endfacet
  facet normal 0 1 0
    outer loop
      vertex -6.5 5 4
      vertex 6.5 5 4
      vertex 6.5 5 0
    endloop
  endfacet
  facet normal 0 -1 0
    outer loop
      vertex -6.748 -4.99 0
      vertex -6.5 -4.99 0
      vertex -6.748 -4.99 4
    endloop
  endfacet
  facet normal 0 -1 0
    outer loop
      vertex -6.748 -4.99 4
      vertex -6.5 -4.99 0
      vertex -6.5 -4.99 4
    endloop
  endfacet
  facet normal 0 1 0
    outer loop
      vertex -6.748 4.99 0
      vertex -6.748 4.99 4
      vertex -6.5 4.99 0
    endloop
  endfacet
  facet normal 0 1 0
    outer loop
      vertex -6.748 4.99 4
      vertex -6.5 4.99 4
      vertex -6.5 4.99 0
    endloop
  endfacet
  facet normal -0.16571 -0.986175 0
    outer loop
      vertex -7.236 -4.908 0
      vertex -6.748 -4.99 0
      vertex -7.236 -4.908 4
    endloop
  endfacet
  facet normal -0.16571 -0.986175 0
    outer loop
      vertex -7.236 -4.908 4
      vertex -6.748 -4.99 0
      vertex -6.748 -4.99 4
    endloop
  endfacet
  facet normal -0.16571 0.986175 0
    outer loop
      vertex -7.236 4.908 0
      vertex -7.236 4.908 4
      vertex -6.748 4.99 0
    endloop
  endfacet
  facet normal -0.16571 0.986175 0
    outer loop
      vertex -7.236 4.908 4
      vertex -6.748 4.99 4
      vertex -6.748 4.99 0
    endloop
  endfacet
  facet normal -0.324685 -0.945822 0
    outer loop
      vertex -7.705 -4.747 0
      vertex -7.236 -4.908 0
      vertex -7.705 -4.747 4
    endloop
  endfacet
  facet normal -0.324685 -0.945822 0
    outer loop
      vertex -7.705 -4.747 4
      vertex -7.236 -4.908 0
      vertex -7.236 -4.908 4
    endloop
  endfacet
  facet normal -0.324685 0.945822 0
    outer loop
      vertex -7.705 4.747 0
      vertex -7.705 4.747 4
      vertex -7.236 4.908 0
    endloop
  endfacet
  facet normal -0.324685 0.945822 0
    outer loop
      vertex -7.705 4.747 4
      vertex -7.236 4.908 4
      vertex -7.236 4.908 0
    endloop
  endfacet
  facet normal -0.476023 -0.879433 0
    outer loop
      vertex -8.141 -4.511 0
      vertex -7.705 -4.747 0
      vertex -8.141 -4.511 4
    endloop
  endfacet
  facet normal -0.476023 -0.879433 0
    outer loop
      vertex -8.141 -4.511 4
      vertex -7.705 -4.747 0
      vertex -7.705 -4.747 4
    endloop
  endfacet
  facet normal -0.476023 0.879433 0
    outer loop
      vertex -8.141 4.511 0
      vertex -8.141 4.511 4
      vertex -7.705 4.747 0
    endloop
  endfacet
  facet normal -0.476023 0.879433 0
    outer loop
      vertex -8.141 4.511 4
      vertex -7.705 4.747 4
      vertex -7.705 4.747 0
    endloop
  endfacet
  facet normal -0.613801 -0.789461 0
    outer loop
      vertex -8.532 -4.207 0
      vertex -8.141 -4.511 0
      vertex -8.532 -4.207 4
    endloop
  endfacet
  facet normal -0.613801 -0.789461 0
    outer loop
      vertex -8.532 -4.207 4
      vertex -8.141 -4.511 0
      vertex -8.141 -4.511 4
    endloop
  endfacet
  facet normal -0.613801 0.789461 0
    outer loop
      vertex -8.532 4.207 0
      vertex -8.532 4.207 4
      vertex -8.141 4.511 0
    endloop
  endfacet
  facet normal -0.613801 0.789461 0
    outer loop
      vertex -8.532 4.207 4
      vertex -8.141 4.511 4
      vertex -8.141 4.511 0
    endloop
  endfacet
  facet normal -0.73581 -0.677188 0
    outer loop
      vertex -8.867 -3.843 0
      vertex -8.532 -4.207 0
      vertex -8.867 -3.843 4
    endloop
  endfacet
  facet normal -0.73581 -0.677188 0
    outer loop
      vertex -8.867 -3.843 4
      vertex -8.532 -4.207 0
      vertex -8.532 -4.207 4
    endloop
  endfacet
  facet normal -0.73581 0.677188 0
    outer loop
      vertex -8.867 3.843 0
      vertex -8.867 3.843 4
      vertex -8.532 4.207 0
    endloop
  endfacet
  facet normal -0.73581 0.677188 0
    outer loop
      vertex -8.867 3.843 4
      vertex -8.532 4.207 4
      vertex -8.532 4.207 0
    endloop
  endfacet
  facet normal -0.837289 -0.54676 0
    outer loop
      vertex -9.138 -3.428 0
      vertex -8.867 -3.843 0
      vertex -9.138 -3.428 4
    endloop
  endfacet
  facet normal -0.837289 -0.54676 0
    outer loop
      vertex -9.138 -3.428 4
      vertex -8.867 -3.843 0
      vertex -8.867 -3.843 4
    endloop
  endfacet
  facet normal -0.837289 0.54676 0
    outer loop
      vertex -9.138 3.428 0
      vertex -9.138 3.428 4
      vertex -8.867 3.843 0
    endloop
  endfacet
  facet normal -0.837289 0.54676 0
    outer loop
      vertex -9.138 3.428 4
      vertex -8.867 3.843 4
      vertex -8.867 3.843 0
    endloop
  endfacet
  facet normal -0.915879 -0.401454 0
    outer loop
      vertex -9.337 -2.974 0
      vertex -9.138 -3.428 0
      vertex -9.337 -2.974 4
    endloop
  endfacet
  facet normal -0.915879 -0.401454 0
    outer loop
      vertex -9.337 -2.974 4
      vertex -9.138 -3.428 0
      vertex -9.138 -3.428 4
    endloop
  endfacet
  facet normal -0.915879 0.401454 0
    outer loop
      vertex -9.337 2.974 0
      vertex -9.337 2.974 4
      vertex -9.138 3.428 0
    endloop
  endfacet
  facet normal -0.915879 0.401454 0
    outer loop
      vertex -9.337 2.974 4
      vertex -9.138 3.428 4
      vertex -9.138 3.428 0
    endloop
  endfacet
  facet normal 0 0 -1
    outer loop
      vertex -9.459 -2.494 0
      vertex -5.07977 -1.88294 0
      vertex 9.5 -2 0
    endloop
  endfacet
  facet normal 0 0 -1
    outer loop
      vertex -9.459 -2.494 0
      vertex -6.3901 -0.837986 0
      vertex -5.07977 -1.88294 0
    endloop
  endfacet
  facet normal 0 0 -1
    outer loop
      vertex -9.459 -2.494 0
      vertex -6.3901 0.837986 0
      vertex -6.3901 -0.837986 0
    endloop
  endfacet
  facet normal 0 0 -1
    outer loop
      vertex -9.459 -2.494 0
      vertex -6.5 -4.99 0
      vertex -6.748 -4.99 0
    endloop
  endfacet
  facet normal 0 0 -1
    outer loop
      vertex -9.459 -2.494 0
      vertex -6.5 4.99 0
      vertex -6.3901 0.837986 0
    endloop
  endfacet
  facet normal 0 0 -1
    outer loop
      vertex -9.459 -2.494 0
      vertex -6.748 -4.99 0
      vertex -7.236 -4.908 0
    endloop
  endfacet
  facet normal 0 0 -1
    outer loop
      vertex -9.459 -2.494 0
      vertex -6.748 4.99 0
      vertex -6.5 4.99 0
    endloop
  endfacet
  facet normal 0 0 -1
    outer loop
      vertex -9.459 -2.494 0
      vertex -7.236 -4.908 0
      vertex -7.705 -4.747 0
    endloop
  endfacet
  facet normal 0 0 -1
    outer loop
      vertex -9.459 -2.494 0
      vertex -7.236 4.908 0
      vertex -6.748 4.99 0
    endloop
  endfacet
  facet normal 0 0 -1
    outer loop
      vertex -9.459 -2.494 0
      vertex -7.705 -4.747 0
      vertex -8.141 -4.511 0
    endloop
  endfacet
  facet normal 0 0 -1
    outer loop
      vertex -9.459 -2.494 0
      vertex -7.705 4.747 0
      vertex -7.236 4.908 0
    endloop
  endfacet
  facet normal 0 0 -1
    outer loop
      vertex -9.459 -2.494 0
      vertex -8.141 -4.511 0
      vertex -8.532 -4.207 0
    endloop
  endfacet
  facet normal 0 0 -1
    outer loop
      vertex -9.459 -2.494 0
      vertex -8.141 4.511 0
      vertex -7.705 4.747 0
    endloop
  endfacet
  facet normal 0 0 -1
    outer loop
      vertex -9.459 -2.494 0
      vertex -8.532 -4.207 0
      vertex -8.867 -3.843 0
    endloop
  endfacet
  facet normal 0 0 -1
    outer loop
      vertex -9.459 -2.494 0
      vertex -8.532 4.207 0
      vertex -8.141 4.511 0
    endloop
  endfacet
  facet normal 0 0 -1
    outer loop
      vertex -9.459 -2.494 0
      vertex -8.867 -3.843 0
      vertex -9.138 -3.428 0
    endloop
  endfacet
  facet normal 0 0 -1
    outer loop
      vertex -9.459 -2.494 0
      vertex -8.867 3.843 0
      vertex -8.532 4.207 0
    endloop
  endfacet
  facet normal 0 0 -1
    outer loop
      vertex -9.459 -2.494 0
      vertex -9.138 -3.428 0
      vertex -9.337 -2.974 0
    endloop
  endfacet
  facet normal 0 0 -1
    outer loop
      vertex -9.459 -2.494 0
      vertex -9.138 3.428 0
      vertex -8.867 3.843 0
    endloop
  endfacet
  facet normal -0.969185 -0.246334 0
    outer loop
      vertex -9.459 -2.494 0
      vertex -9.337 -2.974 0
      vertex -9.459 -2.494 4
    endloop
  endfacet
  facet normal 0 0 -1
    outer loop
      vertex -9.459 -2.494 0
      vertex -9.337 2.974 0
      vertex -9.138 3.428 0
    endloop
  endfacet
  facet normal 0 0 -1
    outer loop
      vertex -9.459 -2.494 0
      vertex -9.459 2.494 0
      vertex -9.337 2.974 0
    endloop
  endfacet
  facet normal 0 0 -1
    outer loop
      vertex -9.459 -2.494 0
      vertex 6.5 -4.99 0
      vertex 6.5 -5 0
    endloop
  endfacet
  facet normal 0 0 -1
    outer loop
      vertex -9.459 -2.494 0
      vertex 6.5 -5 0
      vertex -6.5 -4.99 0
    endloop
  endfacet
  facet normal 0 0 -1
    outer loop
      vertex -9.459 -2.494 0
      vertex 6.748 -4.99 0
      vertex 6.5 -4.99 0
    endloop
  endfacet
  facet normal 0 0 -1
    outer loop
      vertex -9.459 -2.494 0
      vertex 7.236 -4.908 0
      vertex 6.748 -4.99 0
    endloop
  endfacet
  facet normal 0 0 -1
    outer loop
      vertex -9.459 -2.494 0
      vertex 7.705 -4.747 0
      vertex 7.236 -4.908 0
    endloop
  endfacet
  facet normal 0 0 -1
    outer loop
      vertex -9.459 -2.494 0
      vertex 8.141 -4.511 0
      vertex 7.705 -4.747 0
    endloop
  endfacet
  facet normal 0 0 -1
    outer loop
      vertex -9.459 -2.494 0
      vertex 8.532 -4.207 0
      vertex 8.141 -4.511 0
    endloop
  endfacet
  facet normal 0 0 -1
    outer loop
      vertex -9.459 -2.494 0
      vertex 8.867 -3.843 0
      vertex 8.532 -4.207 0
    endloop
  endfacet
  facet normal 0 0 -1
    outer loop
      vertex -9.459 -2.494 0
      vertex 9.138 -3.428 0
      vertex 8.867 -3.843 0
    endloop
  endfacet
  facet normal 0 0 -1
    outer loop
      vertex -9.459 -2.494 0
      vertex 9.337 -2.974 0
      vertex 9.138 -3.428 0
    endloop
  endfacet
  facet normal 0 0 -1
    outer loop
      vertex -9.459 -2.494 0
      vertex 9.459 -2.494 0
      vertex 9.337 -2.974 0
    endloop
  endfacet
  facet normal 0 0 -1
    outer loop
      vertex -9.459 -2.494 0
      vertex 9.5 -2 0
      vertex 9.459 -2.494 0
    endloop
  endfacet
  facet normal -0.969185 -0.246334 0
    outer loop
      vertex -9.459 -2.494 4
      vertex -9.337 -2.974 0
      vertex -9.337 -2.974 4
    endloop
  endfacet
  facet normal -0.969185 0.246334 0
    outer loop
      vertex -9.459 2.494 0
      vertex -9.459 2.494 4
      vertex -9.337 2.974 0
    endloop
  endfacet
  facet normal -0.969185 0.246334 0
    outer loop
      vertex -9.459 2.494 4
      vertex -9.337 2.974 4
      vertex -9.337 2.974 0
    endloop
  endfacet
  facet normal -0.996574 -0.0827116 0
    outer loop
      vertex -9.5 -2 0
      vertex -9.459 -2.494 0
      vertex -9.5 -2 4
    endloop
  endfacet
  facet normal -1 0 0
    outer loop
      vertex -9.5 -2 0
      vertex -9.5 -2 4
      vertex -9.5 2 0
    endloop
  endfacet
  facet normal 0 0 -1
    outer loop
      vertex -9.5 -2 0
      vertex -9.5 2 0
      vertex -9.459 -2.494 0
    endloop
  endfacet
  facet normal -0.996574 -0.0827116 0
    outer loop
      vertex -9.5 -2 4
      vertex -9.459 -2.494 0
      vertex -9.459 -2.494 4
    endloop
  endfacet
  facet normal 0 0 1
    outer loop
      vertex -9.5 -2 4
      vertex -9.459 -2.494 4
      vertex -9.5 2 4
    endloop
  endfacet
  facet normal -1 0 0
    outer loop
      vertex -9.5 -2 4
      vertex -9.5 2 4
      vertex -9.5 2 0
    endloop
  endfacet
  facet normal 0 0 -1
    outer loop
      vertex -9.5 2 0
      vertex -9.459 2.494 0
      vertex -9.459 -2.494 0
    endloop
  endfacet
  facet normal -0.996574 0.0827116 0
    outer loop
      vertex -9.5 2 0
      vertex -9.5 2 4
      vertex -9.459 2.494 0
    endloop
  endfacet
  facet normal 0 0 1
    outer loop
      vertex -9.5 2 4
      vertex -5.07977 1.88294 4
      vertex 9.5 2 4
    endloop
  endfacet
  facet normal 0 0 1
    outer loop
      vertex -9.5 2 4
      vertex -6.3901 -0.837986 4
      vertex -6.3901 0.837986 4
    endloop
  endfacet
  facet normal 0 0 1
    outer loop
      vertex -9.5 2 4
      vertex -6.3901 0.837986 4
      vertex -5.07977 1.88294 4
    endloop
  endfacet
  facet normal 0 0 1
    outer loop
      vertex -9.5 2 4
      vertex -6.5 -4.99 4
      vertex -6.3901 -0.837986 4
    endloop
  endfacet
  facet normal 0 0 1
    outer loop
      vertex -9.5 2 4
      vertex -6.5 4.99 4
      vertex -6.748 4.99 4
    endloop
  endfacet
  facet normal 0 0 1
    outer loop
      vertex -9.5 2 4
      vertex -6.748 -4.99 4
      vertex -6.5 -4.99 4
    endloop
  endfacet
  facet normal 0 0 1
    outer loop
      vertex -9.5 2 4
      vertex -6.748 4.99 4
      vertex -7.236 4.908 4
    endloop
  endfacet
  facet normal 0 0 1
    outer loop
      vertex -9.5 2 4
      vertex -7.236 -4.908 4
      vertex -6.748 -4.99 4
    endloop
  endfacet
  facet normal 0 0 1
    outer loop
      vertex -9.5 2 4
      vertex -7.236 4.908 4
      vertex -7.705 4.747 4
    endloop
  endfacet
  facet normal 0 0 1
    outer loop
      vertex -9.5 2 4
      vertex -7.705 -4.747 4
      vertex -7.236 -4.908 4
    endloop
  endfacet
  facet normal 0 0 1
    outer loop
      vertex -9.5 2 4
      vertex -7.705 4.747 4
      vertex -8.141 4.511 4
    endloop
  endfacet
  facet normal 0 0 1
    outer loop
      vertex -9.5 2 4
      vertex -8.141 -4.511 4
      vertex -7.705 -4.747 4
    endloop
  endfacet
  facet normal 0 0 1
    outer loop
      vertex -9.5 2 4
      vertex -8.141 4.511 4
      vertex -8.532 4.207 4
    endloop
  endfacet
  facet normal 0 0 1
    outer loop
      vertex -9.5 2 4
      vertex -8.532 -4.207 4
      vertex -8.141 -4.511 4
    endloop
  endfacet
  facet normal 0 0 1
    outer loop
      vertex -9.5 2 4
      vertex -8.532 4.207 4
      vertex -8.867 3.843 4
    endloop
  endfacet
  facet normal 0 0 1
    outer loop
      vertex -9.5 2 4
      vertex -8.867 -3.843 4
      vertex -8.532 -4.207 4
    endloop
  endfacet
  facet normal 0 0 1
    outer loop
      vertex -9.5 2 4
      vertex -8.867 3.843 4
      vertex -9.138 3.428 4
    endloop
  endfacet
  facet normal 0 0 1
    outer loop
      vertex -9.5 2 4
      vertex -9.138 -3.428 4
      vertex -8.867 -3.843 4
    endloop
  endfacet
  facet normal 0 0 1
    outer loop
      vertex -9.5 2 4
      vertex -9.138 3.428 4
      vertex -9.337 2.974 4
    endloop
  endfacet
  facet normal 0 0 1
    outer loop
      vertex -9.5 2 4
      vertex -9.337 -2.974 4
      vertex -9.138 -3.428 4
    endloop
  endfacet
  facet normal 0 0 1
    outer loop
      vertex -9.5 2 4
      vertex -9.337 2.974 4
      vertex -9.459 2.494 4
    endloop
  endfacet
  facet normal 0 0 1
    outer loop
      vertex -9.5 2 4
      vertex -9.459 -2.494 4
      vertex -9.337 -2.974 4
    endloop
  endfacet
  facet normal -0.996574 0.0827116 0
    outer loop
      vertex -9.5 2 4
      vertex -9.459 2.494 4
      vertex -9.459 2.494 0
    endloop
  endfacet
  facet normal 0 0 1
    outer loop
      vertex -9.5 2 4
      vertex 6.5 4.99 4
      vertex 6.5 5 4
    endloop
  endfacet
  facet normal 0 0 1
    outer loop
      vertex -9.5 2 4
      vertex 6.5 5 4
      vertex -6.5 4.99 4
    endloop
  endfacet
  facet normal 0 0 1
    outer loop
      vertex -9.5 2 4
      vertex 6.748 4.99 4
      vertex 6.5 4.99 4
    endloop
  endfacet
  facet normal 0 0 1
    outer loop
      vertex -9.5 2 4
      vertex 7.236 4.908 4
      vertex 6.748 4.99 4
    endloop
  endfacet
  facet normal 0 0 1
    outer loop
      vertex -9.5 2 4
      vertex 7.705 4.747 4
      vertex 7.236 4.908 4
    endloop
  endfacet
  facet normal 0 0 1
    outer loop
      vertex -9.5 2 4
      vertex 8.141 4.511 4
      vertex 7.705 4.747 4
    endloop
  endfacet
  facet normal 0 0 1
    outer loop
      vertex -9.5 2 4
      vertex 8.532 4.207 4
      vertex 8.141 4.511 4
    endloop
  endfacet
  facet normal 0 0 1
    outer loop
      vertex -9.5 2 4
      vertex 8.867 3.843 4
      vertex 8.532 4.207 4
    endloop
  endfacet
  facet normal 0 0 1
    outer loop
      vertex -9.5 2 4
      vertex 9.138 3.428 4
      vertex 8.867 3.843 4
    endloop
  endfacet
  facet normal 0 0 1
    outer loop
      vertex -9.5 2 4
      vertex 9.337 2.974 4
      vertex 9.138 3.428 4
    endloop
  endfacet
  facet normal 0 0 1
    outer loop
      vertex -9.5 2 4
      vertex 9.459 2.494 4
      vertex 9.337 2.974 4
    endloop
  endfacet
  facet normal 0 0 1
    outer loop
      vertex -9.5 2 4
      vertex 9.5 2 4
      vertex 9.459 2.494 4
    endloop
  endfacet
  facet normal 0.62349 0.781831 0
    outer loop
      vertex 2.9099 -0.837986 0
      vertex 2.9099 -0.837986 3.99
      vertex 4.22023 -1.88294 0
    endloop
  endfacet
  facet normal 1 0 0
    outer loop
      vertex 2.9099 -0.837986 0
      vertex 2.9099 0.837986 0
      vertex 2.9099 -0.837986 3.99
    endloop
  endfacet
  facet normal 1 0 0
    outer loop
      vertex 2.9099 -0.837986 3.99
      vertex 2.9099 0.837986 0
      vertex 2.9099 0.837986 3.99
    endloop
  endfacet
  facet normal 0 0 -1
    outer loop
      vertex 2.9099 -0.837986 3.99
      vertex 2.9099 0.837986 3.99
      vertex 3 -0.909836 3.99
    endloop
  endfacet
  facet normal 0.62349 0.781831 0
    outer loop
      vertex 2.9099 -0.837986 3.99
      vertex 3 -0.909836 3.99
      vertex 4.22023 -1.88294 0
    endloop
  endfacet
  facet normal 0.62349 -0.781831 0
    outer loop
      vertex 2.9099 0.837986 0
      vertex 4.22023 1.88294 0
      vertex 2.9099 0.837986 3.99
    endloop
  endfacet
  facet normal 0 0 -1
    outer loop
      vertex 2.9099 0.837986 3.99
      vertex 3 0.909836 3.99
      vertex 3 -0.909836 3.99
    endloop
  endfacet
  facet normal 0.62349 -0.781831 0
    outer loop
      vertex 2.9099 0.837986 3.99
      vertex 4.22023 1.88294 0
      vertex 3 0.909836 3.99
    endloop
  endfacet
  facet normal 0.62349 0.781831 0
    outer loop
      vertex 3 -0.909836 3.99
      vertex 3 -0.909836 4
      vertex 4.22023 -1.88294 4
    endloop
  endfacet
  facet normal 1 0 0
    outer loop
      vertex 3 -0.909836 3.99
      vertex 3 0.909836 3.99
      vertex 3 -0.909836 4
    endloop
  endfacet
  facet normal 0.62349 0.781831 0
    outer loop
      vertex 3 -0.909836 3.99
      vertex 4.22023 -1.88294 4
      vertex 4.22023 -1.88294 0
    endloop
  endfacet
  facet normal 1 0 0
    outer loop
      vertex 3 -1.25 4
      vertex 3 -0.909836 4
      vertex 3 -1.25 5.115
    endloop
  endfacet
  facet normal 0 0 1
    outer loop
      vertex 3 -1.25 4
      vertex 4.22023 -1.88294 4
      vertex 3 -0.909836 4
    endloop
  endfacet
  facet normal 0 0 1
    outer loop
      vertex 3 -1.25 4
      vertex 6.5 -4.99 4
      vertex 6.748 -4.99 4
    endloop
  endfacet
  facet normal 0 0 1
    outer loop
      vertex 3 -1.25 4
      vertex 6.5 -5 4
      vertex 6.5 -4.99 4
    endloop
  endfacet
  facet normal 0 0 1
    outer loop
      vertex 3 -1.25 4
      vertex 6.748 -4.99 4
      vertex 7.236 -4.908 4
    endloop
  endfacet
  facet normal 0 0 1
    outer loop
      vertex 3 -1.25 4
      vertex 7.236 -4.908 4
      vertex 7.705 -4.747 4
    endloop
  endfacet
  facet normal 0 0 1
    outer loop
      vertex 3 -1.25 4
      vertex 7.705 -4.747 4
      vertex 8.141 -4.511 4
    endloop
  endfacet
  facet normal 0 0 1
    outer loop
      vertex 3 -1.25 4
      vertex 8.141 -4.511 4
      vertex 8.532 -4.207 4
    endloop
  endfacet
  facet normal 0 0 1
    outer loop
      vertex 3 -1.25 4
      vertex 8.532 -4.207 4
      vertex 4.22023 -1.88294 4
    endloop
  endfacet
  facet normal 1 0 0
    outer loop
      vertex 3 -1.25 5.115
      vertex 3 -0.909836 4
      vertex 3 0.909836 3.99
    endloop
  endfacet
  facet normal 1 0 0
    outer loop
      vertex 3 -1.25 5.115
      vertex 3 0.909836 3.99
      vertex 3 0.909836 4
    endloop
  endfacet
  facet normal 1 0 0
    outer loop
      vertex 3 -1.25 5.115
      vertex 3 0.909836 4
      vertex 3 1.25 4
    endloop
  endfacet
  facet normal 1 0 0
    outer loop
      vertex 3 -1.25 5.115
      vertex 3 1.25 4
      vertex 3 1.25 5.115
    endloop
  endfacet
  facet normal 0.62349 -0.781831 0
    outer loop
      vertex 3 0.909836 3.99
      vertex 4.22023 1.88294 0
      vertex 3 0.909836 4
    endloop
  endfacet
  facet normal 0.62349 -0.781831 0
    outer loop
      vertex 3 0.909836 4
      vertex 4.22023 1.88294 0
      vertex 4.22023 1.88294 4
    endloop
  endfacet
  facet normal 0 0 1
    outer loop
      vertex 3 0.909836 4
      vertex 4.22023 1.88294 4
      vertex 3 1.25 4
    endloop
  endfacet
  facet normal -0.222522 0.974928 0
    outer loop
      vertex 4.22023 -1.88294 0
      vertex 4.22023 -1.88294 4
      vertex 5.85418 -1.51 0
    endloop
  endfacet
  facet normal 0 0 -1
    outer loop
      vertex 4.22023 -1.88294 0
      vertex 5.85418 -1.51 0
      vertex 9.5 -2 0
    endloop
  endfacet
  facet normal -0.222522 0.974928 0
    outer loop
      vertex 4.22023 -1.88294 4
      vertex 5.85418 -1.51 4
      vertex 5.85418 -1.51 0
    endloop
  endfacet
  facet normal 0 0 1
    outer loop
      vertex 4.22023 -1.88294 4
      vertex 8.532 -4.207 4
      vertex 8.867 -3.843 4
    endloop
  endfacet
  facet normal 0 0 1
    outer loop
      vertex 4.22023 -1.88294 4
      vertex 8.867 -3.843 4
      vertex 9.138 -3.428 4
    endloop
  endfacet
  facet normal 0 0 1
    outer loop
      vertex 4.22023 -1.88294 4
      vertex 9.138 -3.428 4
      vertex 9.337 -2.974 4
    endloop
  endfacet
  facet normal 0 0 1
    outer loop
      vertex 4.22023 -1.88294 4
      vertex 9.337 -2.974 4
      vertex 5.85418 -1.51 4
    endloop
  endfacet
  facet normal -0.222522 -0.974928 0
    outer loop
      vertex 4.22023 1.88294 0
      vertex 5.85418 1.51 0
      vertex 4.22023 1.88294 4
    endloop
  endfacet
  facet normal 0 0 -1
    outer loop
      vertex 4.22023 1.88294 0
      vertex 8.867 3.843 0
      vertex 9.138 3.428 0
    endloop
  endfacet
  facet normal 0 0 -1
    outer loop
      vertex 4.22023 1.88294 0
      vertex 9.138 3.428 0
      vertex 9.337 2.974 0
    endloop
  endfacet
  facet normal 0 0 -1
    outer loop
      vertex 4.22023 1.88294 0
      vertex 9.337 2.974 0
      vertex 9.459 2.494 0
    endloop
  endfacet
  facet normal 0 0 -1
    outer loop
      vertex 4.22023 1.88294 0
      vertex 9.459 2.494 0
      vertex 5.85418 1.51 0
    endloop
  endfacet
  facet normal -0.222522 -0.974928 0
    outer loop
      vertex 4.22023 1.88294 4
      vertex 5.85418 1.51 0
      vertex 5.85418 1.51 4
    endloop
  endfacet
  facet normal 0 0 1
    outer loop
      vertex 4.22023 1.88294 4
      vertex 5.85418 1.51 4
      vertex 9.5 2 4
    endloop
  endfacet
  facet normal -0.900969 0.433884 0
    outer loop
      vertex 5.85418 -1.51 0
      vertex 5.85418 -1.51 4
      vertex 6.58136 0 0
    endloop
  endfacet
  facet normal 0 0 -1
    outer loop
      vertex 5.85418 -1.51 0
      vertex 6.58136 0 0
      vertex 9.5 -2 0
    endloop
  endfacet
  facet normal -0.900969 0.433884 0
    outer loop
      vertex 5.85418 -1.51 4
      vertex 6.58136 0 4
      vertex 6.58136 0 0
    endloop
  endfacet
  facet normal 0 0 1
    outer loop
      vertex 5.85418 -1.51 4
      vertex 9.337 -2.974 4
      vertex 9.459 -2.494 4
    endloop
  endfacet
  facet normal 0 0 1
    outer loop
      vertex 5.85418 -1.51 4
      vertex 9.459 -2.494 4
      vertex 9.5 -2 4
    endloop
  endfacet
  facet normal 0 0 1
    outer loop
      vertex 5.85418 -1.51 4
      vertex 9.5 -2 4
      vertex 6.58136 0 4
    endloop
  endfacet
  facet normal -0.900969 -0.433884 0
    outer loop
      vertex 5.85418 1.51 0
      vertex 6.58136 0 0
      vertex 5.85418 1.51 4
    endloop
  endfacet
  facet normal 0 0 -1
    outer loop
      vertex 5.85418 1.51 0
      vertex 9.459 2.494 0
      vertex 9.5 2 0
    endloop
  endfacet
  facet normal 0 0 -1
    outer loop
      vertex 5.85418 1.51 0
      vertex 9.5 2 0
      vertex 6.58136 0 0
    endloop
  endfacet
  facet normal -0.900969 -0.433884 0
    outer loop
      vertex 5.85418 1.51 4
      vertex 6.58136 0 0
      vertex 6.58136 0 4
    endloop
  endfacet
  facet normal 0 0 1
    outer loop
      vertex 5.85418 1.51 4
      vertex 6.58136 0 4
      vertex 9.5 -2 4
    endloop
  endfacet
  facet normal 0 0 1
    outer loop
      vertex 5.85418 1.51 4
      vertex 9.5 -2 4
      vertex 9.5 2 4
    endloop
  endfacet
  facet normal 0 -1 0
    outer loop
      vertex 6.5 -4.99 0
      vertex 6.748 -4.99 0
      vertex 6.5 -4.99 4
    endloop
  endfacet
  facet normal 0 -1 0
    outer loop
      vertex 6.5 -4.99 4
      vertex 6.748 -4.99 0
      vertex 6.748 -4.99 4
    endloop
  endfacet
  facet normal 1 0 0
    outer loop
      vertex 6.5 -5 0
      vertex 6.5 -4.99 0
      vertex 6.5 -5 4
    endloop
  endfacet
  facet normal 1 0 0
    outer loop
      vertex 6.5 -5 4
      vertex 6.5 -4.99 0
      vertex 6.5 -4.99 4
    endloop
  endfacet
  facet normal 0 1 0
    outer loop
      vertex 6.5 4.99 0
      vertex 6.5 4.99 4
      vertex 6.748 4.99 0
    endloop
  endfacet
  facet normal 1 0 0
    outer loop
      vertex 6.5 4.99 0
      vertex 6.5 5 0
      vertex 6.5 4.99 4
    endloop
  endfacet
  facet normal 1 0 0
    outer loop
      vertex 6.5 4.99 4
      vertex 6.5 5 0
      vertex 6.5 5 4
    endloop
  endfacet
  facet normal 0 1 0
    outer loop
      vertex 6.5 4.99 4
      vertex 6.748 4.99 4
      vertex 6.748 4.99 0
    endloop
  endfacet
  facet normal 0 0 -1
    outer loop
      vertex 6.58136 0 0
      vertex 9.5 2 0
      vertex 9.5 -2 0
    endloop
  endfacet
  facet normal 0.16571 -0.986175 0
    outer loop
      vertex 6.748 -4.99 0
      vertex 7.236 -4.908 0
      vertex 6.748 -4.99 4
    endloop
  endfacet
  facet normal 0.16571 -0.986175 0
    outer loop
      vertex 6.748 -4.99 4
      vertex 7.236 -4.908 0
      vertex 7.236 -4.908 4
    endloop
  endfacet
  facet normal 0.16571 0.986175 0
    outer loop
      vertex 6.748 4.99 0
      vertex 6.748 4.99 4
      vertex 7.236 4.908 0
    endloop
  endfacet
  facet normal 0.16571 0.986175 0
    outer loop
      vertex 6.748 4.99 4
      vertex 7.236 4.908 4
      vertex 7.236 4.908 0
    endloop
  endfacet
  facet normal 0.324685 -0.945822 0
    outer loop
      vertex 7.236 -4.908 0
      vertex 7.705 -4.747 0
      vertex 7.236 -4.908 4
    endloop
  endfacet
  facet normal 0.324685 -0.945822 0
    outer loop
      vertex 7.236 -4.908 4
      vertex 7.705 -4.747 0
      vertex 7.705 -4.747 4
    endloop
  endfacet
  facet normal 0.324685 0.945822 0
    outer loop
      vertex 7.236 4.908 0
      vertex 7.236 4.908 4
      vertex 7.705 4.747 0
    endloop
  endfacet
  facet normal 0.324685 0.945822 0
    outer loop
      vertex 7.236 4.908 4
      vertex 7.705 4.747 4
      vertex 7.705 4.747 0
    endloop
  endfacet
  facet normal 0.476023 -0.879433 0
    outer loop
      vertex 7.705 -4.747 0
      vertex 8.141 -4.511 0
      vertex 7.705 -4.747 4
    endloop
  endfacet
  facet normal 0.476023 -0.879433 0
    outer loop
      vertex 7.705 -4.747 4
      vertex 8.141 -4.511 0
      vertex 8.141 -4.511 4
    endloop
  endfacet
  facet normal 0.476023 0.879433 0
    outer loop
      vertex 7.705 4.747 0
      vertex 7.705 4.747 4
      vertex 8.141 4.511 0
    endloop
  endfacet
  facet normal 0.476023 0.879433 0
    outer loop
      vertex 7.705 4.747 4
      vertex 8.141 4.511 4
      vertex 8.141 4.511 0
    endloop
  endfacet
  facet normal 0.613801 -0.789461 0
    outer loop
      vertex 8.141 -4.511 0
      vertex 8.532 -4.207 0
      vertex 8.141 -4.511 4
    endloop
  endfacet
  facet normal 0.613801 -0.789461 0
    outer loop
      vertex 8.141 -4.511 4
      vertex 8.532 -4.207 0
      vertex 8.532 -4.207 4
    endloop
  endfacet
  facet normal 0.613801 0.789461 0
    outer loop
      vertex 8.141 4.511 0
      vertex 8.141 4.511 4
      vertex 8.532 4.207 0
    endloop
  endfacet
  facet normal 0.613801 0.789461 0
    outer loop
      vertex 8.141 4.511 4
      vertex 8.532 4.207 4
      vertex 8.532 4.207 0
    endloop
  endfacet
  facet normal 0.73581 -0.677188 0
    outer loop
      vertex 8.532 -4.207 0
      vertex 8.867 -3.843 0
      vertex 8.532 -4.207 4
    endloop
  endfacet
  facet normal 0.73581 -0.677188 0
    outer loop
      vertex 8.532 -4.207 4
      vertex 8.867 -3.843 0
      vertex 8.867 -3.843 4
    endloop
  endfacet
  facet normal 0.73581 0.677188 0
    outer loop
      vertex 8.532 4.207 0
      vertex 8.532 4.207 4
      vertex 8.867 3.843 0
    endloop
  endfacet
  facet normal 0.73581 0.677188 0
    outer loop
      vertex 8.532 4.207 4
      vertex 8.867 3.843 4
      vertex 8.867 3.843 0
    endloop
  endfacet
  facet normal 0.837289 -0.54676 0
    outer loop
      vertex 8.867 -3.843 0
      vertex 9.138 -3.428 0
      vertex 8.867 -3.843 4
    endloop
  endfacet
  facet normal 0.837289 -0.54676 0
    outer loop
      vertex 8.867 -3.843 4
      vertex 9.138 -3.428 0
      vertex 9.138 -3.428 4
    endloop
  endfacet
  facet normal 0.837289 0.54676 0
    outer loop
      vertex 8.867 3.843 0
      vertex 8.867 3.843 4
      vertex 9.138 3.428 0
    endloop
  endfacet
  facet normal 0.837289 0.54676 0
    outer loop
      vertex 8.867 3.843 4
      vertex 9.138 3.428 4
      vertex 9.138 3.428 0
    endloop
  endfacet
  facet normal 0.915879 -0.401454 0
    outer loop
      vertex 9.138 -3.428 0
      vertex 9.337 -2.974 0
      vertex 9.138 -3.428 4
    endloop
  endfacet
  facet normal 0.915879 -0.401454 0
    outer loop
      vertex 9.138 -3.428 4
      vertex 9.337 -2.974 0
      vertex 9.337 -2.974 4
    endloop
  endfacet
  facet normal 0.915879 0.401454 0
    outer loop
      vertex 9.138 3.428 0
      vertex 9.138 3.428 4
      vertex 9.337 2.974 0
    endloop
  endfacet
  facet normal 0.915879 0.401454 0
    outer loop
      vertex 9.138 3.428 4
      vertex 9.337 2.974 4
      vertex 9.337 2.974 0
    endloop
  endfacet
  facet normal 0.969185 -0.246334 0
    outer loop
      vertex 9.337 -2.974 0
      vertex 9.459 -2.494 0
      vertex 9.337 -2.974 4
    endloop
  endfacet
  facet normal 0.969185 -0.246334 0
    outer loop
      vertex 9.337 -2.974 4
      vertex 9.459 -2.494 0
      vertex 9.459 -2.494 4
    endloop
  endfacet
  facet normal 0.969185 0.246334 0
    outer loop
      vertex 9.337 2.974 0
      vertex 9.337 2.974 4
      vertex 9.459 2.494 0
    endloop
  endfacet
  facet normal 0.969185 0.246334 0
    outer loop
      vertex 9.337 2.974 4
      vertex 9.459 2.494 4
      vertex 9.459 2.494 0
    endloop
  endfacet
  facet normal 0.996574 -0.0827116 0
    outer loop
      vertex 9.459 -2.494 0
      vertex 9.5 -2 0
      vertex 9.459 -2.494 4
    endloop
  endfacet
  facet normal 0.996574 -0.0827116 0
    outer loop
      vertex 9.459 -2.494 4
      vertex 9.5 -2 0
      vertex 9.5 -2 4
    endloop
  endfacet
  facet normal 0.996574 0.0827116 0
    outer loop
      vertex 9.459 2.494 0
      vertex 9.459 2.494 4
      vertex 9.5 2 0
    endloop
  endfacet
  facet normal 0.996574 0.0827116 0
    outer loop
      vertex 9.459 2.494 4
      vertex 9.5 2 4
      vertex 9.5 2 0
    endloop
  endfacet
  facet normal 1 0 0
    outer loop
      vertex 9.5 -2 0
      vertex 9.5 2 0
      vertex 9.5 -2 4
    endloop
  endfacet
  facet normal 1 0 0
    outer loop
      vertex 9.5 -2 4
      vertex 9.5 2 0
      vertex 9.5 2 4
    endloop
  endfacet
endsolid OpenSCAD_Model
