<?xml version="1.0" encoding="UTF-8" standalone="no"?>
<svg
   xmlns:dc="http://purl.org/dc/elements/1.1/"
   xmlns:cc="http://creativecommons.org/ns#"
   xmlns:rdf="http://www.w3.org/1999/02/22-rdf-syntax-ns#"
   xmlns:svg="http://www.w3.org/2000/svg"
   xmlns="http://www.w3.org/2000/svg"
   xmlns:sodipodi="http://sodipodi.sourceforge.net/DTD/sodipodi-0.dtd"
   xmlns:inkscape="http://www.inkscape.org/namespaces/inkscape"
   version="1.1"
   height="765"
   width="1260"
   id="svg2"
   inkscape:version="0.48.4 r9939"
   sodipodi:docname="y_carriage_edits.svg">
  <metadata
     id="metadata228">
    <rdf:RDF>
      <cc:Work
         rdf:about="">
        <dc:format>image/svg+xml</dc:format>
        <dc:type
           rdf:resource="http://purl.org/dc/dcmitype/StillImage" />
        <dc:title></dc:title>
      </cc:Work>
    </rdf:RDF>
  </metadata>
  <defs
     id="defs226" />
  <sodipodi:namedview
     pagecolor="#ffffff"
     bordercolor="#666666"
     borderopacity="1"
     objecttolerance="10"
     gridtolerance="10"
     guidetolerance="10"
     inkscape:pageopacity="0"
     inkscape:pageshadow="2"
     inkscape:window-width="1004"
     inkscape:window-height="809"
     id="namedview224"
     showgrid="false"
     inkscape:zoom="0.29997743"
     inkscape:cx="659.49471"
     inkscape:cy="-206.49568"
     inkscape:window-x="65"
     inkscape:window-y="24"
     inkscape:window-maximized="0"
     inkscape:current-layer="g4"
     inkscape:document-units="in"
     units="in" />
  <g
     style="fill-opacity:1;stroke:#000000;stroke-width:1"
     id="g4"
     transform="translate(0,-1460.197)">
    <g
       id="g3218"
       transform="translate(40.003016,1570.1181)">
      <line
         id="line6"
         y2="2180.0125"
         x2="0.035433069"
         y1="2180.0125"
         x1="0.035433069" />
      <line
         id="line8"
         y2="10.629921"
         x2="0"
         y1="2180.0125"
         x1="0.035433069" />
      <line
         id="line10"
         y2="8.879528"
         x2="0.14527559"
         y1="10.629921"
         x1="0" />
      <line
         id="line12"
         y2="7.17874"
         x2="0.57755905"
         y1="8.879528"
         x1="0.14527559" />
      <line
         id="line14"
         y2="5.5700788"
         x2="1.2826772"
         y1="7.17874"
         x1="0.57755905" />
      <line
         id="line16"
         y2="4.099606"
         x2="2.2429135"
         y1="5.5700788"
         x1="1.2826772" />
      <line
         id="line18"
         y2="2.8098423"
         x2="3.4299212"
         y1="4.099606"
         x1="2.2429135" />
      <line
         id="line20"
         y2="1.7326771"
         x2="4.8153543"
         y1="2.8098423"
         x1="3.4299212" />
      <line
         id="line22"
         y2="0.89645666"
         x2="6.3602362"
         y1="1.7326771"
         x1="4.8153543" />
      <line
         id="line24"
         y2="0.32598424"
         x2="8.022047"
         y1="0.89645666"
         x1="6.3602362" />
      <line
         id="line26"
         y2="0.035433069"
         x2="9.7511816"
         y1="0.32598424"
         x1="8.022047" />
      <line
         id="line28"
         y2="0.017716534"
         x2="1029.2953"
         y1="0.035433069"
         x1="9.7511816" />
      <line
         id="line30"
         y2="31.889763"
         x2="1029.2953"
         y1="0.017716534"
         x1="1029.2953" />
      <line
         id="line32"
         y2="31.889763"
         x2="1160.4685"
         y1="31.889763"
         x1="1029.2953" />
      <line
         id="line34"
         y2="0.017716534"
         x2="1160.4685"
         y1="31.889763"
         x1="1160.4685" />
      <line
         id="line36"
         y2="0"
         x2="2179.1338"
         y1="0.017716534"
         x1="1160.4685" />
      <line
         id="line38"
         y2="0.14527559"
         x2="2180.8843"
         y1="0"
         x1="2179.1338" />
      <line
         id="line40"
         y2="0.57755905"
         x2="2182.585"
         y1="0.14527559"
         x1="2180.8843" />
      <line
         id="line42"
         y2="1.2826772"
         x2="2184.1936"
         y1="0.57755905"
         x1="2182.585" />
      <line
         id="line44"
         y2="2.2429135"
         x2="2185.6643"
         y1="1.2826772"
         x1="2184.1936" />
      <line
         id="line46"
         y2="3.4299212"
         x2="2186.9539"
         y1="2.2429135"
         x1="2185.6643" />
      <line
         id="line48"
         y2="4.8153543"
         x2="2188.031"
         y1="3.4299212"
         x1="2186.9539" />
      <line
         id="line50"
         y2="6.3602362"
         x2="2188.8674"
         y1="4.8153543"
         x1="2188.031" />
      <line
         id="line52"
         y2="8.022047"
         x2="2189.438"
         y1="6.3602362"
         x1="2188.8674" />
      <line
         id="line54"
         y2="9.7511816"
         x2="2189.7283"
         y1="8.022047"
         x1="2189.438" />
      <line
         id="line56"
         y2="2179.1338"
         x2="2189.7637"
         y1="9.7511816"
         x1="2189.7283" />
      <line
         id="line58"
         y2="2180.8843"
         x2="2189.6184"
         y1="2179.1338"
         x1="2189.7637" />
      <line
         id="line60"
         y2="2182.585"
         x2="2189.186"
         y1="2180.8843"
         x1="2189.6184" />
      <line
         id="line62"
         y2="2184.1936"
         x2="2188.4812"
         y1="2182.585"
         x1="2189.186" />
      <line
         id="line64"
         y2="2185.6643"
         x2="2187.521"
         y1="2184.1936"
         x1="2188.4812" />
      <line
         id="line66"
         y2="2186.9539"
         x2="2186.3337"
         y1="2185.6643"
         x1="2187.521" />
      <line
         id="line68"
         y2="2188.031"
         x2="2184.9485"
         y1="2186.9539"
         x1="2186.3337" />
      <line
         id="line70"
         y2="2188.8674"
         x2="2183.4036"
         y1="2188.031"
         x1="2184.9485" />
      <line
         id="line72"
         y2="2189.438"
         x2="2181.7417"
         y1="2188.8674"
         x1="2183.4036" />
      <line
         id="line74"
         y2="2189.7283"
         x2="2180.0125"
         y1="2189.438"
         x1="2181.7417" />
      <line
         id="line76"
         y2="2189.7637"
         x2="10.629921"
         y1="2189.7283"
         x1="2180.0125" />
      <line
         id="line78"
         y2="2189.6184"
         x2="8.879528"
         y1="2189.7637"
         x1="10.629921" />
      <line
         id="line80"
         y2="2189.186"
         x2="7.17874"
         y1="2189.6184"
         x1="8.879528" />
      <line
         id="line82"
         y2="2188.4812"
         x2="5.5700788"
         y1="2189.186"
         x1="7.17874" />
      <line
         id="line84"
         y2="2187.521"
         x2="4.099606"
         y1="2188.4812"
         x1="5.5700788" />
      <line
         id="line86"
         y2="2186.3337"
         x2="2.8098423"
         y1="2187.521"
         x1="4.099606" />
      <line
         id="line88"
         y2="2184.9485"
         x2="1.7326771"
         y1="2186.3337"
         x1="2.8098423" />
      <line
         id="line90"
         y2="2183.4036"
         x2="0.89645666"
         y1="2184.9485"
         x1="1.7326771" />
      <line
         id="line92"
         y2="2181.7417"
         x2="0.32598424"
         y1="2183.4036"
         x1="0.89645666" />
      <line
         id="line94"
         y2="2180.0125"
         x2="0.035433069"
         y1="2181.7417"
         x1="0.32598424" />
      <circle
         d="m 18.602886,2175.5908 c 0,2.4463 -1.983087,4.4294 -4.42935,4.4294 -2.446262,0 -4.4293496,-1.9831 -4.4293496,-4.4294 0,-2.4462 1.9830876,-4.4293 4.4293496,-4.4293 2.446263,0 4.42935,1.9831 4.42935,4.4293 z"
         style="fill:none"
         sodipodi:ry="4.4293499"
         sodipodi:rx="4.4293499"
         sodipodi:cy="2175.5908"
         sodipodi:cx="14.173536"
         id="circle96"
         r="4.4293499"
         cy="2175.5908"
         cx="14.173536" />
      <line
         id="line98"
         y2="2175.5908"
         x2="5.3148403"
         y1="2175.5908"
         x1="23.032232" />
      <line
         id="line100"
         y2="2184.4495"
         x2="14.173536"
         y1="2166.7322"
         x1="14.173536" />
      <text
         style="font-size:24px"
         id="text102"
         font-size="24"
         y="2168.5039"
         x="17.716536">2.5</text>
      <circle
         d="m 18.602886,14.173445 c 0,2.446262 -1.983087,4.42935 -4.42935,4.42935 -2.446262,0 -4.4293496,-1.983088 -4.4293496,-4.42935 0,-2.446263 1.9830876,-4.4293502 4.4293496,-4.4293502 2.446263,0 4.42935,1.9830872 4.42935,4.4293502 z"
         style="fill:none"
         sodipodi:ry="4.4293499"
         sodipodi:rx="4.4293499"
         sodipodi:cy="14.173445"
         sodipodi:cx="14.173536"
         id="circle104"
         r="4.4293499"
         cy="14.173445"
         cx="14.173536" />
      <line
         id="line106"
         y2="14.173445"
         x2="5.3148403"
         y1="14.173445"
         x1="23.032232" />
      <line
         id="line108"
         y2="23.032141"
         x2="14.173536"
         y1="5.3147445"
         x1="14.173536" />
      <text
         style="font-size:24px"
         id="text110"
         font-size="24"
         y="7.0866141"
         x="17.716536">2.5</text>
      <circle
         d="m 374.77694,2074.6062 c 0,6.4581 -5.23531,11.6934 -11.69338,11.6934 -6.45808,0 -11.69338,-5.2353 -11.69338,-11.6934 0,-6.4581 5.2353,-11.6934 11.69338,-11.6934 6.45807,0 11.69338,5.2353 11.69338,11.6934 z"
         style="fill:none"
         sodipodi:ry="11.693381"
         sodipodi:rx="11.693381"
         sodipodi:cy="2074.6062"
         sodipodi:cx="363.08356"
         id="circle112"
         r="11.693381"
         cy="2074.6062"
         cx="363.08356"
         transform="translate(0,89.979886)" />
      <line
         id="line114"
         y2="2164.5864"
         x2="339.69678"
         y1="2164.5864"
         x1="386.47031" />
      <line
         id="line116"
         y2="2187.9731"
         x2="363.08356"
         y1="2141.1997"
         x1="363.08356" />
      <text
         style="font-size:24px;stroke-width:1"
         id="text118"
         font-size="24"
         y="2152.1851"
         x="372.04724">6.6</text>
      <circle
         d="m 374.77694,207.28337 c 0,6.45808 -5.23531,11.69338 -11.69338,11.69338 -6.45808,0 -11.69338,-5.2353 -11.69338,-11.69338 0,-6.45808 5.2353,-11.69338 11.69338,-11.69338 6.45807,0 11.69338,5.2353 11.69338,11.69338 z"
         style="fill:none"
         sodipodi:ry="11.693381"
         sodipodi:rx="11.693381"
         sodipodi:cy="207.28337"
         sodipodi:cx="363.08356"
         id="circle120"
         r="11.693381"
         cy="207.28337"
         cx="363.08356"
         transform="translate(0,-90.017117)" />
      <line
         id="line122"
         y2="117.26625"
         x2="339.69678"
         y1="117.26625"
         x1="386.47031" />
      <line
         id="line124"
         y2="140.65303"
         x2="363.08356"
         y1="93.879501"
         x1="363.08356" />
      <text
         style="font-size:24px"
         id="text126"
         font-size="24"
         y="104.86478"
         x="372.04724">6.6</text>
      <circle
         d="m 573.20211,1982.4803 c 0,6.4581 -5.23531,11.6934 -11.69338,11.6934 -6.45808,0 -11.69338,-5.2353 -11.69338,-11.6934 0,-6.458 5.2353,-11.6933 11.69338,-11.6933 6.45807,0 11.69338,5.2353 11.69338,11.6933 z"
         style="fill:none"
         sodipodi:ry="11.693381"
         sodipodi:rx="11.693381"
         sodipodi:cy="1982.4803"
         sodipodi:cx="561.50873"
         id="circle128"
         r="11.693381"
         cy="1982.4803"
         cx="561.50873"
         transform="translate(0,89.979886)" />
      <line
         id="line130"
         y2="2072.4602"
         x2="538.12195"
         y1="2072.4602"
         x1="584.89551" />
      <line
         id="line132"
         y2="2095.8472"
         x2="561.50873"
         y1="2049.0735"
         x1="561.50873" />
      <text
         style="font-size:24px;stroke-width:1"
         id="text134"
         font-size="24"
         y="2060.0586"
         x="570.47241">6.6</text>
      <circle
         d="m 573.20211,115.15739 c 0,6.45807 -5.23531,11.69338 -11.69338,11.69338 -6.45808,0 -11.69338,-5.23531 -11.69338,-11.69338 0,-6.45808 5.2353,-11.69338 11.69338,-11.69338 6.45807,0 11.69338,5.2353 11.69338,11.69338 z"
         style="fill:none"
         sodipodi:ry="11.693381"
         sodipodi:rx="11.693381"
         sodipodi:cy="115.15739"
         sodipodi:cx="561.50873"
         id="circle136"
         r="11.693381"
         cy="115.15739"
         cx="561.50873"
         transform="translate(0,-90.017117)" />
      <line
         id="line138"
         y2="25.140268"
         x2="538.12195"
         y1="25.140268"
         x1="584.89551" />
      <line
         id="line140"
         y2="48.527039"
         x2="561.50873"
         y1="1.7535111"
         x1="561.50873" />
      <text
         style="font-size:24px"
         id="text142"
         font-size="24"
         y="12.738794"
         x="570.47241">6.6</text>
      <circle
         d="m 987.30781,2001.8441 c 0,3.2294 -2.6179,5.8473 -5.84724,5.8473 -3.22934,0 -5.84723,-2.6179 -5.84723,-5.8473 0,-3.2293 2.61789,-5.8472 5.84723,-5.8472 3.22934,0 5.84724,2.6179 5.84724,5.8472 z"
         style="fill:none"
         sodipodi:ry="5.8472362"
         sodipodi:rx="5.8472362"
         sodipodi:cy="2001.8441"
         sodipodi:cx="981.46057"
         id="circle144"
         r="5.8472362"
         cy="2001.8441"
         cx="981.46057" />
      <line
         id="line146"
         y2="2001.8441"
         x2="969.76611"
         y1="2001.8441"
         x1="993.15509" />
      <line
         id="line148"
         y2="2013.5386"
         x2="981.46057"
         y1="1990.1495"
         x1="981.46057" />
      <text
         style="font-size:24px"
         id="text150"
         font-size="24"
         y="1994.8818"
         x="985.03937">3.3</text>
      <circle
         d="m 987.30781,1877.0133 c 0,3.2293 -2.6179,5.8472 -5.84724,5.8472 -3.22934,0 -5.84723,-2.6179 -5.84723,-5.8472 0,-3.2293 2.61789,-5.8472 5.84723,-5.8472 3.22934,0 5.84724,2.6179 5.84724,5.8472 z"
         style="fill:none"
         sodipodi:ry="5.8472362"
         sodipodi:rx="5.8472362"
         sodipodi:cy="1877.0133"
         sodipodi:cx="981.46057"
         id="circle152"
         r="5.8472362"
         cy="1877.0133"
         cx="981.46057" />
      <line
         id="line154"
         y2="1877.0133"
         x2="969.76611"
         y1="1877.0133"
         x1="993.15509" />
      <line
         id="line156"
         y2="1888.7079"
         x2="981.46057"
         y1="1865.319"
         x1="981.46057" />
      <text
         style="font-size:24px"
         id="text158"
         font-size="24"
         y="1870.8661"
         x="985.03937">3.3</text>
      <circle
         d="m 987.30452,326.39243 c 0,3.22857 -2.61727,5.84584 -5.84584,5.84584 -3.22857,0 -5.84584,-2.61727 -5.84584,-5.84584 0,-3.22857 2.61727,-5.84585 5.84584,-5.84585 3.22857,0 5.84584,2.61728 5.84584,5.84585 z"
         style="fill:none"
         sodipodi:ry="5.8458438"
         sodipodi:rx="5.8458438"
         sodipodi:cy="326.39243"
         sodipodi:cx="981.45868"
         id="circle160"
         r="5.8458438"
         cy="326.39243"
         cx="981.45868" />
      <line
         id="line162"
         y2="326.39243"
         x2="969.76697"
         y1="326.39243"
         x1="993.15045" />
      <line
         id="line164"
         y2="338.08411"
         x2="981.45868"
         y1="314.70074"
         x1="981.45868" />
      <text
         style="font-size:24px"
         id="text166"
         font-size="24"
         y="318.89764"
         x="985.03937">3.3</text>
      <circle
         d="m 987.30452,201.56172 c 0,3.22857 -2.61727,5.84585 -5.84584,5.84585 -3.22857,0 -5.84584,-2.61728 -5.84584,-5.84585 0,-3.22857 2.61727,-5.84584 5.84584,-5.84584 3.22857,0 5.84584,2.61727 5.84584,5.84584 z"
         style="fill:none"
         sodipodi:ry="5.8458438"
         sodipodi:rx="5.8458438"
         sodipodi:cy="201.56172"
         sodipodi:cx="981.45868"
         id="circle168"
         r="5.8458438"
         cy="201.56172"
         cx="981.45868" />
      <line
         id="line170"
         y2="201.56172"
         x2="969.76697"
         y1="201.56172"
         x1="993.15045" />
      <line
         id="line172"
         y2="213.2534"
         x2="981.45868"
         y1="189.87003"
         x1="981.45868" />
      <text
         style="font-size:24px"
         id="text174"
         font-size="24"
         y="194.8819"
         x="985.03937">3.3</text>
      <circle
         d="m 1027.525,63.779438 c 0,6.458076 -5.2353,11.693381 -11.6934,11.693381 -6.4581,0 -11.6934,-5.235305 -11.6934,-11.693381 0,-6.458076 5.2353,-11.693381 11.6934,-11.693381 6.4581,0 11.6934,5.235305 11.6934,11.693381 z"
         style="fill:none"
         sodipodi:ry="11.693381"
         sodipodi:rx="11.693381"
         sodipodi:cy="63.779438"
         sodipodi:cx="1015.8316"
         id="circle176"
         r="11.693381"
         cy="63.779438"
         cx="1015.8316" />
      <line
         id="line178"
         y2="63.779438"
         x2="992.44489"
         y1="63.779438"
         x1="1039.2183" />
      <line
         id="line180"
         y2="87.166206"
         x2="1015.8316"
         y1="40.392677"
         x1="1015.8316" />
      <text
         style="font-size:24px"
         id="text182"
         font-size="24"
         y="49.6063"
         x="1024.0157">6.6</text>
      <circle
         d="m 1185.6273,63.779438 c 0,6.458076 -5.2353,11.693381 -11.6933,11.693381 -6.4581,0 -11.6934,-5.235305 -11.6934,-11.693381 0,-6.458076 5.2353,-11.693381 11.6934,-11.693381 6.458,0 11.6933,5.235305 11.6933,11.693381 z"
         style="fill:none"
         sodipodi:ry="11.693381"
         sodipodi:rx="11.693381"
         sodipodi:cy="63.779438"
         sodipodi:cx="1173.934"
         id="circle184"
         r="11.693381"
         cy="63.779438"
         cx="1173.934" />
      <line
         id="line186"
         y2="63.779438"
         x2="1150.5472"
         y1="63.779438"
         x1="1197.3208" />
      <line
         id="line188"
         y2="87.166206"
         x2="1173.934"
         y1="40.392677"
         x1="1173.934" />
      <text
         style="font-size:24px"
         id="text190"
         font-size="24"
         y="49.6063"
         x="1183.4646">6.6</text>
      <circle
         d="m 1639.9501,1140.9448 c 0,6.4581 -5.2353,11.6934 -11.6934,11.6934 -6.4581,0 -11.6934,-5.2353 -11.6934,-11.6934 0,-6.4581 5.2353,-11.6934 11.6934,-11.6934 6.4581,0 11.6934,5.2353 11.6934,11.6934 z"
         style="fill:none"
         sodipodi:ry="11.693381"
         sodipodi:rx="11.693381"
         sodipodi:cy="1140.9448"
         sodipodi:cx="1628.2567"
         id="circle192"
         r="11.693381"
         cy="1140.9448"
         cx="1628.2567" />
      <line
         id="line194"
         y2="1140.9448"
         x2="1604.87"
         y1="1140.9448"
         x1="1651.6436" />
      <line
         id="line196"
         y2="1164.3315"
         x2="1628.2567"
         y1="1117.5581"
         x1="1628.2567" />
      <text
         style="font-size:24px"
         id="text198"
         font-size="24"
         y="1126.7716"
         x="1637.0079">6.6</text>
      <circle
         d="m 1838.3755,1048.8188 c 0,6.4581 -5.2353,11.6934 -11.6934,11.6934 -6.458,0 -11.6934,-5.2353 -11.6934,-11.6934 0,-6.458 5.2354,-11.6933 11.6934,-11.6933 6.4581,0 11.6934,5.2353 11.6934,11.6933 z"
         style="fill:none"
         sodipodi:ry="11.693381"
         sodipodi:rx="11.693381"
         sodipodi:cy="1048.8188"
         sodipodi:cx="1826.6821"
         id="circle200"
         r="11.693381"
         cy="1048.8188"
         cx="1826.6821" />
      <line
         id="line202"
         y2="1048.8188"
         x2="1803.2953"
         y1="1048.8188"
         x1="1850.0687" />
      <line
         id="line204"
         y2="1072.2056"
         x2="1826.6821"
         y1="1025.4321"
         x1="1826.6821" />
      <text
         style="font-size:24px"
         id="text206"
         font-size="24"
         y="1034.6456"
         x="1835.4331">6.6</text>
      <circle
         d="m 2180.0202,2175.5908 c 0,2.4463 -1.9831,4.4294 -4.4294,4.4294 -2.4462,0 -4.4293,-1.9831 -4.4293,-4.4294 0,-2.4462 1.9831,-4.4293 4.4293,-4.4293 2.4463,0 4.4294,1.9831 4.4294,4.4293 z"
         style="fill:none"
         sodipodi:ry="4.4293499"
         sodipodi:rx="4.4293499"
         sodipodi:cy="2175.5908"
         sodipodi:cx="2175.5908"
         id="circle208"
         r="4.4293499"
         cy="2175.5908"
         cx="2175.5908" />
      <line
         id="line210"
         y2="2175.5908"
         x2="2166.7322"
         y1="2175.5908"
         x1="2184.4495" />
      <line
         id="line212"
         y2="2184.4495"
         x2="2175.5908"
         y1="2166.7322"
         x1="2175.5908" />
      <text
         style="font-size:24px"
         id="text214"
         font-size="24"
         y="2168.5039"
         x="2179.1338">2.5</text>
      <circle
         d="m 2180.0202,14.173445 c 0,2.446262 -1.9831,4.42935 -4.4294,4.42935 -2.4462,0 -4.4293,-1.983088 -4.4293,-4.42935 0,-2.446263 1.9831,-4.4293502 4.4293,-4.4293502 2.4463,0 4.4294,1.9830872 4.4294,4.4293502 z"
         style="fill:none"
         sodipodi:ry="4.4293499"
         sodipodi:rx="4.4293499"
         sodipodi:cy="14.173445"
         sodipodi:cx="2175.5908"
         id="circle216"
         r="4.4293499"
         cy="14.173445"
         cx="2175.5908" />
      <line
         id="line218"
         y2="14.173445"
         x2="2166.7322"
         y1="14.173445"
         x1="2184.4495" />
      <line
         id="line220"
         y2="23.032141"
         x2="2175.5908"
         y1="5.3147445"
         x1="2175.5908" />
      <text
         style="font-size:24px"
         id="text222"
         font-size="24"
         y="7.0866141"
         x="2179.1338">2.5</text>
    </g>
    <rect
       style="color:#000000;fill:none;stroke:#000000;stroke-width:0.44999999;stroke-linecap:butt;stroke-linejoin:round;stroke-miterlimit:4;stroke-opacity:1;stroke-dasharray:none;stroke-dashoffset:0;marker:none;visibility:visible;display:inline;overflow:visible;enable-background:accumulate"
       id="rect3205"
       width="2204.55"
       height="2204.55"
       x="39.728012"
       y="1555.6068" />
    <rect
       y="2680.6067"
       x="39.728012"
       height="1079.55"
       width="1079.55"
       id="rect3336"
       style="color:#000000;fill:none;stroke:#000000;stroke-width:0.44999999;stroke-linecap:butt;stroke-linejoin:round;stroke-miterlimit:4;stroke-opacity:1;stroke-dasharray:none;stroke-dashoffset:0;marker:none;visibility:visible;display:inline;overflow:visible;enable-background:accumulate" />
  </g>
</svg>
