<?xml version="1.0"?>
<svg xmlns="http://www.w3.org/2000/svg" version="1.1" height="542mm" width="819mm" >
 <g style="fill-opacity:1.0; stroke:black; stroke-width:1;">
  <line x1="809.000000mm" y1="531.500000mm" x2="809.000000mm" y2="531.500000mm" />
  <line x1="809.000000mm" y1="531.500000mm" x2="0.000000mm" y2="531.500000mm" />
  <line x1="0.000000mm" y1="531.500000mm" x2="0.000000mm" y2="0.000000mm" />
  <line x1="0.000000mm" y1="0.000000mm" x2="809.000000mm" y2="0.000000mm" />
  <line x1="809.000000mm" y1="0.000000mm" x2="809.000000mm" y2="531.500000mm" />
  <circle cx="12.199964mm" cy="50.919964mm" r="2.200229mm" fill="none"/>
  <line x1="16.600421mm" y1="50.919964mm" x2="7.799507mm" y2="50.919964mm" />
  <line x1="12.199964mm" y1="46.519507mm" x2="12.199964mm" y2="55.320421mm" />
  <text x="14mm" y="48mm" font-size="24">
   4.4
  </text>
  <circle cx="12.199964mm" cy="13.699964mm" r="2.200229mm" fill="none"/>
  <line x1="16.600421mm" y1="13.699964mm" x2="7.799507mm" y2="13.699964mm" />
  <line x1="12.199964mm" y1="9.299507mm" x2="12.199964mm" y2="18.100421mm" />
  <text x="14mm" y="11mm" font-size="24">
   4.4
  </text>
  <circle cx="38.099964mm" cy="519.299964mm" r="2.200229mm" fill="none"/>
  <line x1="42.500421mm" y1="519.299964mm" x2="33.699507mm" y2="519.299964mm" />
  <line x1="38.099964mm" y1="514.899507mm" x2="38.099964mm" y2="523.700421mm" />
  <text x="40mm" y="517mm" font-size="24">
   4.4
  </text>
  <circle cx="55.249964mm" cy="500.849964mm" r="2.200229mm" fill="none"/>
  <line x1="59.650421mm" y1="500.849964mm" x2="50.849507mm" y2="500.849964mm" />
  <line x1="55.249964mm" y1="496.449507mm" x2="55.249964mm" y2="505.250421mm" />
  <text x="57mm" y="498mm" font-size="24">
   4.4
  </text>
  <circle cx="55.249964mm" cy="429.349964mm" r="2.200229mm" fill="none"/>
  <line x1="59.650421mm" y1="429.349964mm" x2="50.849507mm" y2="429.349964mm" />
  <line x1="55.249964mm" y1="424.949507mm" x2="55.249964mm" y2="433.750421mm" />
  <text x="57mm" y="427mm" font-size="24">
   4.4
  </text>
  <circle cx="91.000225mm" cy="465.099651mm" r="37.499925mm" fill="none"/>
  <line x1="166.000075mm" y1="465.099651mm" x2="16.000375mm" y2="465.099651mm" />
  <line x1="91.000225mm" y1="390.099800mm" x2="91.000225mm" y2="540.099501mm" />
  <text x="128mm" y="427mm" font-size="24">
   75.0
  </text>
  <circle cx="75.319964mm" cy="519.299964mm" r="2.200229mm" fill="none"/>
  <line x1="79.720421mm" y1="519.299964mm" x2="70.919507mm" y2="519.299964mm" />
  <line x1="75.319964mm" y1="514.899507mm" x2="75.319964mm" y2="523.700421mm" />
  <text x="77mm" y="517mm" font-size="24">
   4.4
  </text>
  <circle cx="126.749964mm" cy="500.849964mm" r="2.200229mm" fill="none"/>
  <line x1="131.150421mm" y1="500.849964mm" x2="122.349507mm" y2="500.849964mm" />
  <line x1="126.749964mm" y1="496.449507mm" x2="126.749964mm" y2="505.250421mm" />
  <text x="128mm" y="498mm" font-size="24">
   4.4
  </text>
  <circle cx="126.749964mm" cy="429.349964mm" r="2.200229mm" fill="none"/>
  <line x1="131.150421mm" y1="429.349964mm" x2="122.349507mm" y2="429.349964mm" />
  <line x1="126.749964mm" y1="424.949507mm" x2="126.749964mm" y2="433.750421mm" />
  <text x="128mm" y="427mm" font-size="24">
   4.4
  </text>
  <circle cx="676.511627mm" cy="446.599813mm" r="2.199934mm" fill="none"/>
  <line x1="680.911494mm" y1="446.599813mm" x2="672.111760mm" y2="446.599813mm" />
  <line x1="676.511627mm" y1="442.199946mm" x2="676.511627mm" y2="450.999680mm" />
  <text x="678mm" y="444mm" font-size="24">
   4.4
  </text>
  <circle cx="702.479808mm" cy="523.500013mm" r="2.999761mm" fill="none"/>
  <line x1="708.479330mm" y1="523.500013mm" x2="696.480285mm" y2="523.500013mm" />
  <line x1="702.479808mm" y1="517.500490mm" x2="702.479808mm" y2="529.499535mm" />
  <text x="705mm" y="520mm" font-size="24">
   6.0
  </text>
  <circle cx="716.579818mm" cy="524.500055mm" r="2.000011mm" fill="none"/>
  <line x1="720.579840mm" y1="524.500055mm" x2="712.579795mm" y2="524.500055mm" />
  <line x1="716.579818mm" y1="520.500033mm" x2="716.579818mm" y2="528.500077mm" />
  <text x="718mm" y="522mm" font-size="24">
   4.0
  </text>
  <circle cx="733.679964mm" cy="519.299964mm" r="2.200229mm" fill="none"/>
  <line x1="738.080421mm" y1="519.299964mm" x2="729.279507mm" y2="519.299964mm" />
  <line x1="733.679964mm" y1="514.899507mm" x2="733.679964mm" y2="523.700421mm" />
  <text x="735mm" y="517mm" font-size="24">
   4.4
  </text>
  <circle cx="770.899964mm" cy="519.299964mm" r="2.200229mm" fill="none"/>
  <line x1="775.300421mm" y1="519.299964mm" x2="766.499507mm" y2="519.299964mm" />
  <line x1="770.899964mm" y1="514.899507mm" x2="770.899964mm" y2="523.700421mm" />
  <text x="773mm" y="517mm" font-size="24">
   4.4
  </text>
 </g>
</svg>
