<?xml version="1.0"?>
<svg xmlns="http://www.w3.org/2000/svg" version="1.1" height="542mm" width="819mm" >
 <g style="fill-opacity:1.0; stroke:black; stroke-width:1;">
  <line x1="809.000000mm" y1="531.500000mm" x2="809.000000mm" y2="531.500000mm" />
  <line x1="809.000000mm" y1="531.500000mm" x2="0.000000mm" y2="531.500000mm" />
  <line x1="0.000000mm" y1="531.500000mm" x2="0.000000mm" y2="0.000000mm" />
  <line x1="0.000000mm" y1="0.000000mm" x2="809.000000mm" y2="0.000000mm" />
  <line x1="809.000000mm" y1="0.000000mm" x2="809.000000mm" y2="531.500000mm" />
  <circle cx="8.500151mm" cy="284.699567mm" r="3.499825mm" fill="none"/>
  <line x1="15.499802mm" y1="284.699567mm" x2="1.500500mm" y2="284.699567mm" />
  <line x1="8.500151mm" y1="277.699917mm" x2="8.500151mm" y2="291.699218mm" />
  <text x="11mm" y="281mm" font-size="24">
   7.0
  </text>
  <circle cx="7.500170mm" cy="26.899939mm" r="2.500268mm" fill="none"/>
  <line x1="12.500707mm" y1="26.899939mm" x2="2.499633mm" y2="26.899939mm" />
  <line x1="7.500170mm" y1="21.899402mm" x2="7.500170mm" y2="31.900476mm" />
  <text x="10mm" y="24mm" font-size="24">
   5.0
  </text>
  <circle cx="7.000009mm" cy="269.899777mm" r="1.999983mm" fill="none"/>
  <line x1="10.999974mm" y1="269.899777mm" x2="3.000044mm" y2="269.899777mm" />
  <line x1="7.000009mm" y1="265.899812mm" x2="7.000009mm" y2="273.899742mm" />
  <text x="8mm" y="267mm" font-size="24">
   4.0
  </text>
  <circle cx="7.000009mm" cy="36.399777mm" r="1.999983mm" fill="none"/>
  <line x1="10.999974mm" y1="36.399777mm" x2="3.000044mm" y2="36.399777mm" />
  <line x1="7.000009mm" y1="32.399812mm" x2="7.000009mm" y2="40.399742mm" />
  <text x="8mm" y="34mm" font-size="24">
   4.0
  </text>
  <circle cx="12.199964mm" cy="517.799964mm" r="2.200229mm" fill="none"/>
  <line x1="16.600421mm" y1="517.799964mm" x2="7.799507mm" y2="517.799964mm" />
  <line x1="12.199964mm" y1="513.399507mm" x2="12.199964mm" y2="522.200421mm" />
  <text x="14mm" y="515mm" font-size="24">
   4.4
  </text>
  <circle cx="12.199964mm" cy="480.579964mm" r="2.200229mm" fill="none"/>
  <line x1="16.600421mm" y1="480.579964mm" x2="7.799507mm" y2="480.579964mm" />
  <line x1="12.199964mm" y1="476.179507mm" x2="12.199964mm" y2="484.980421mm" />
  <text x="14mm" y="478mm" font-size="24">
   4.4
  </text>
  <circle cx="38.099964mm" cy="12.199964mm" r="2.200229mm" fill="none"/>
  <line x1="42.500421mm" y1="12.199964mm" x2="33.699507mm" y2="12.199964mm" />
  <line x1="38.099964mm" y1="7.799507mm" x2="38.099964mm" y2="16.600421mm" />
  <text x="40mm" y="9mm" font-size="24">
   4.4
  </text>
  <circle cx="44.899964mm" cy="520.499964mm" r="2.200229mm" fill="none"/>
  <line x1="49.300421mm" y1="520.499964mm" x2="40.499507mm" y2="520.499964mm" />
  <line x1="44.899964mm" y1="516.099507mm" x2="44.899964mm" y2="524.900421mm" />
  <text x="47mm" y="518mm" font-size="24">
   4.4
  </text>
  <circle cx="75.319964mm" cy="12.199964mm" r="2.200229mm" fill="none"/>
  <line x1="79.720421mm" y1="12.199964mm" x2="70.919507mm" y2="12.199964mm" />
  <line x1="75.319964mm" y1="7.799507mm" x2="75.319964mm" y2="16.600421mm" />
  <text x="77mm" y="9mm" font-size="24">
   4.4
  </text>
  <circle cx="129.899964mm" cy="520.499964mm" r="2.200229mm" fill="none"/>
  <line x1="134.300421mm" y1="520.499964mm" x2="125.499507mm" y2="520.499964mm" />
  <line x1="129.899964mm" y1="516.099507mm" x2="129.899964mm" y2="524.900421mm" />
  <text x="132mm" y="518mm" font-size="24">
   4.4
  </text>
  <circle cx="200.050194mm" cy="508.950223mm" r="0.849908mm" fill="none"/>
  <line x1="201.750009mm" y1="508.950223mm" x2="198.350378mm" y2="508.950223mm" />
  <line x1="200.050194mm" y1="507.250407mm" x2="200.050194mm" y2="510.650038mm" />
  <text x="200mm" y="508mm" font-size="24">
   1.7
  </text>
  <circle cx="214.350194mm" cy="493.050223mm" r="0.849908mm" fill="none"/>
  <line x1="216.050009mm" y1="493.050223mm" x2="212.650378mm" y2="493.050223mm" />
  <line x1="214.350194mm" y1="491.350407mm" x2="214.350194mm" y2="494.750038mm" />
  <text x="215mm" y="492mm" font-size="24">
   1.7
  </text>
  <circle cx="250.650194mm" cy="508.950223mm" r="0.849908mm" fill="none"/>
  <line x1="252.350009mm" y1="508.950223mm" x2="248.950378mm" y2="508.950223mm" />
  <line x1="250.650194mm" y1="507.250407mm" x2="250.650194mm" y2="510.650038mm" />
  <text x="251mm" y="508mm" font-size="24">
   1.7
  </text>
  <circle cx="264.950194mm" cy="493.050223mm" r="0.849908mm" fill="none"/>
  <line x1="266.650009mm" y1="493.050223mm" x2="263.250378mm" y2="493.050223mm" />
  <line x1="264.950194mm" y1="491.350407mm" x2="264.950194mm" y2="494.750038mm" />
  <text x="265mm" y="492mm" font-size="24">
   1.7
  </text>
  <circle cx="391.370087mm" cy="286.705061mm" r="1.250061mm" fill="none"/>
  <line x1="393.870208mm" y1="286.705061mm" x2="388.869966mm" y2="286.705061mm" />
  <line x1="391.370087mm" y1="284.204939mm" x2="391.370087mm" y2="289.205182mm" />
  <text x="392mm" y="285mm" font-size="24">
   2.5
  </text>
  <circle cx="391.370087mm" cy="244.795061mm" r="1.250061mm" fill="none"/>
  <line x1="393.870208mm" y1="244.795061mm" x2="388.869966mm" y2="244.795061mm" />
  <line x1="391.370087mm" y1="242.294939mm" x2="391.370087mm" y2="247.295182mm" />
  <text x="392mm" y="243mm" font-size="24">
   2.5
  </text>
  <circle cx="592.030087mm" cy="286.705061mm" r="1.250061mm" fill="none"/>
  <line x1="594.530208mm" y1="286.705061mm" x2="589.529966mm" y2="286.705061mm" />
  <line x1="592.030087mm" y1="284.204939mm" x2="592.030087mm" y2="289.205182mm" />
  <text x="593mm" y="285mm" font-size="24">
   2.5
  </text>
  <circle cx="592.030087mm" cy="244.795061mm" r="1.250061mm" fill="none"/>
  <line x1="594.530208mm" y1="244.795061mm" x2="589.529966mm" y2="244.795061mm" />
  <line x1="592.030087mm" y1="242.294939mm" x2="592.030087mm" y2="247.295182mm" />
  <text x="593mm" y="243mm" font-size="24">
   2.5
  </text>
  <circle cx="676.511627mm" cy="36.099813mm" r="2.199934mm" fill="none"/>
  <line x1="680.911494mm" y1="36.099813mm" x2="672.111760mm" y2="36.099813mm" />
  <line x1="676.511627mm" y1="31.699946mm" x2="676.511627mm" y2="40.499680mm" />
  <text x="678mm" y="33mm" font-size="24">
   4.4
  </text>
  <circle cx="702.479808mm" cy="8.000013mm" r="2.999761mm" fill="none"/>
  <line x1="708.479330mm" y1="8.000013mm" x2="696.480285mm" y2="8.000013mm" />
  <line x1="702.479808mm" y1="2.000490mm" x2="702.479808mm" y2="13.999535mm" />
  <text x="705mm" y="5mm" font-size="24">
   6.0
  </text>
  <circle cx="716.579818mm" cy="7.000055mm" r="2.000011mm" fill="none"/>
  <line x1="720.579840mm" y1="7.000055mm" x2="712.579795mm" y2="7.000055mm" />
  <line x1="716.579818mm" y1="3.000033mm" x2="716.579818mm" y2="11.000077mm" />
  <text x="718mm" y="5mm" font-size="24">
   4.0
  </text>
  <circle cx="733.679964mm" cy="12.199964mm" r="2.200229mm" fill="none"/>
  <line x1="738.080421mm" y1="12.199964mm" x2="729.279507mm" y2="12.199964mm" />
  <line x1="733.679964mm" y1="7.799507mm" x2="733.679964mm" y2="16.600421mm" />
  <text x="735mm" y="9mm" font-size="24">
   4.4
  </text>
  <circle cx="770.899964mm" cy="12.199964mm" r="2.200229mm" fill="none"/>
  <line x1="775.300421mm" y1="12.199964mm" x2="766.499507mm" y2="12.199964mm" />
  <line x1="770.899964mm" y1="7.799507mm" x2="770.899964mm" y2="16.600421mm" />
  <text x="773mm" y="9mm" font-size="24">
   4.4
  </text>
 </g>
</svg>
