<?xml version="1.0"?>
<svg xmlns="http://www.w3.org/2000/svg" version="1.1" height="819mm" width="926mm" >
 <g style="fill-opacity:1.0; stroke:black; stroke-width:1;">
  <line x1="126.000000mm" y1="809.000000mm" x2="126.000000mm" y2="809.000000mm" />
  <line x1="126.000000mm" y1="809.000000mm" x2="0.000000mm" y2="809.000000mm" />
  <line x1="0.000000mm" y1="809.000000mm" x2="0.000000mm" y2="0.000000mm" />
  <line x1="0.000000mm" y1="0.000000mm" x2="915.500000mm" y2="0.000000mm" />
  <line x1="915.500000mm" y1="0.000000mm" x2="915.500000mm" y2="809.000000mm" />
  <line x1="915.500000mm" y1="809.000000mm" x2="777.000000mm" y2="809.000000mm" />
  <line x1="777.000000mm" y1="809.000000mm" x2="777.000000mm" y2="125.900000mm" />
  <line x1="777.000000mm" y1="125.900000mm" x2="776.975000mm" y2="125.402000mm" />
  <line x1="776.975000mm" y1="125.402000mm" x2="776.901000mm" y2="124.909000mm" />
  <line x1="776.901000mm" y1="124.909000mm" x2="776.778000mm" y2="124.426000mm" />
  <line x1="776.778000mm" y1="124.426000mm" x2="776.607000mm" y2="123.958000mm" />
  <line x1="776.607000mm" y1="123.958000mm" x2="776.391000mm" y2="123.509000mm" />
  <line x1="776.391000mm" y1="123.509000mm" x2="776.131000mm" y2="123.083000mm" />
  <line x1="776.131000mm" y1="123.083000mm" x2="775.830000mm" y2="122.686000mm" />
  <line x1="775.830000mm" y1="122.686000mm" x2="775.491000mm" y2="122.321000mm" />
  <line x1="775.491000mm" y1="122.321000mm" x2="775.117000mm" y2="121.991000mm" />
  <line x1="775.117000mm" y1="121.991000mm" x2="774.713000mm" y2="121.700000mm" />
  <line x1="774.713000mm" y1="121.700000mm" x2="774.281000mm" y2="121.451000mm" />
  <line x1="774.281000mm" y1="121.451000mm" x2="773.827000mm" y2="121.246000mm" />
  <line x1="773.827000mm" y1="121.246000mm" x2="773.354000mm" y2="121.087000mm" />
  <line x1="773.354000mm" y1="121.087000mm" x2="772.868000mm" y2="120.976000mm" />
  <line x1="772.868000mm" y1="120.976000mm" x2="772.374000mm" y2="120.914000mm" />
  <line x1="772.374000mm" y1="120.914000mm" x2="772.000000mm" y2="120.905000mm" />
  <line x1="772.000000mm" y1="120.905000mm" x2="772.000000mm" y2="120.900000mm" />
  <line x1="772.000000mm" y1="120.900000mm" x2="131.000000mm" y2="120.900000mm" />
  <line x1="131.000000mm" y1="120.900000mm" x2="131.000000mm" y2="120.905000mm" />
  <line x1="131.000000mm" y1="120.905000mm" x2="130.875000mm" y2="120.902000mm" />
  <line x1="130.875000mm" y1="120.902000mm" x2="130.378000mm" y2="120.939000mm" />
  <line x1="130.378000mm" y1="120.939000mm" x2="129.887000mm" y2="121.025000mm" />
  <line x1="129.887000mm" y1="121.025000mm" x2="129.408000mm" y2="121.160000mm" />
  <line x1="129.408000mm" y1="121.160000mm" x2="128.944000mm" y2="121.342000mm" />
  <line x1="128.944000mm" y1="121.342000mm" x2="128.500000mm" y2="121.570000mm" />
  <line x1="128.500000mm" y1="121.570000mm" x2="128.081000mm" y2="121.840000mm" />
  <line x1="128.081000mm" y1="121.840000mm" x2="127.692000mm" y2="122.151000mm" />
  <line x1="127.692000mm" y1="122.151000mm" x2="127.335000mm" y2="122.499000mm" />
  <line x1="127.335000mm" y1="122.499000mm" x2="127.014000mm" y2="122.881000mm" />
  <line x1="127.014000mm" y1="122.881000mm" x2="126.734000mm" y2="123.293000mm" />
  <line x1="126.734000mm" y1="123.293000mm" x2="126.495000mm" y2="123.731000mm" />
  <line x1="126.495000mm" y1="123.731000mm" x2="126.302000mm" y2="124.190000mm" />
  <line x1="126.302000mm" y1="124.190000mm" x2="126.155000mm" y2="124.666000mm" />
  <line x1="126.155000mm" y1="124.666000mm" x2="126.056000mm" y2="125.155000mm" />
  <line x1="126.056000mm" y1="125.155000mm" x2="126.006000mm" y2="125.651000mm" />
  <line x1="126.006000mm" y1="125.651000mm" x2="126.006000mm" y2="125.900000mm" />
  <line x1="126.006000mm" y1="125.900000mm" x2="126.000000mm" y2="125.900000mm" />
  <line x1="126.000000mm" y1="125.900000mm" x2="126.000000mm" y2="809.000000mm" />
  <circle cx="4.499964mm" cy="700.899964mm" r="2.200229mm" fill="none"/>
  <line x1="8.900421mm" y1="700.899964mm" x2="0.099507mm" y2="700.899964mm" />
  <line x1="4.499964mm" y1="696.499507mm" x2="4.499964mm" y2="705.300421mm" />
  <text x="6mm" y="698mm" font-size="24">
   4.4
  </text>
  <circle cx="4.499964mm" cy="651.499964mm" r="2.200229mm" fill="none"/>
  <line x1="8.900421mm" y1="651.499964mm" x2="0.099507mm" y2="651.499964mm" />
  <line x1="4.499964mm" y1="647.099507mm" x2="4.499964mm" y2="655.900421mm" />
  <text x="6mm" y="649mm" font-size="24">
   4.4
  </text>
  <circle cx="13.699964mm" cy="796.799964mm" r="2.200229mm" fill="none"/>
  <line x1="18.100421mm" y1="796.799964mm" x2="9.299507mm" y2="796.799964mm" />
  <line x1="13.699964mm" y1="792.399507mm" x2="13.699964mm" y2="801.200421mm" />
  <text x="15mm" y="794mm" font-size="24">
   4.4
  </text>
  <circle cx="22.499964mm" cy="742.999964mm" r="2.200229mm" fill="none"/>
  <line x1="26.900421mm" y1="742.999964mm" x2="18.099507mm" y2="742.999964mm" />
  <line x1="22.499964mm" y1="738.599507mm" x2="22.499964mm" y2="747.400421mm" />
  <text x="24mm" y="740mm" font-size="24">
   4.4
  </text>
  <circle cx="36.499818mm" cy="727.000055mm" r="2.000011mm" fill="none"/>
  <line x1="40.499840mm" y1="727.000055mm" x2="32.499795mm" y2="727.000055mm" />
  <line x1="36.499818mm" y1="723.000033mm" x2="36.499818mm" y2="731.000077mm" />
  <text x="38mm" y="725mm" font-size="24">
   4.0
  </text>
  <circle cx="46.499964mm" cy="12.499964mm" r="2.200229mm" fill="none"/>
  <line x1="50.900421mm" y1="12.499964mm" x2="42.099507mm" y2="12.499964mm" />
  <line x1="46.499964mm" y1="8.099507mm" x2="46.499964mm" y2="16.900421mm" />
  <text x="48mm" y="10mm" font-size="24">
   4.4
  </text>
  <circle cx="46.499818mm" cy="27.000055mm" r="2.000011mm" fill="none"/>
  <line x1="50.499840mm" y1="27.000055mm" x2="42.499795mm" y2="27.000055mm" />
  <line x1="46.499818mm" y1="23.000033mm" x2="46.499818mm" y2="31.000077mm" />
  <text x="48mm" y="25mm" font-size="24">
   4.0
  </text>
  <circle cx="50.919964mm" cy="796.799964mm" r="2.200229mm" fill="none"/>
  <line x1="55.320421mm" y1="796.799964mm" x2="46.519507mm" y2="796.799964mm" />
  <line x1="50.919964mm" y1="792.399507mm" x2="50.919964mm" y2="801.200421mm" />
  <text x="53mm" y="794mm" font-size="24">
   4.4
  </text>
  <circle cx="51.499964mm" cy="742.999964mm" r="2.200229mm" fill="none"/>
  <line x1="55.900421mm" y1="742.999964mm" x2="47.099507mm" y2="742.999964mm" />
  <line x1="51.499964mm" y1="738.599507mm" x2="51.499964mm" y2="747.400421mm" />
  <text x="53mm" y="740mm" font-size="24">
   4.4
  </text>
  <circle cx="67.120170mm" cy="801.499939mm" r="2.500268mm" fill="none"/>
  <line x1="72.120707mm" y1="801.499939mm" x2="62.119633mm" y2="801.499939mm" />
  <line x1="67.120170mm" y1="796.499402mm" x2="67.120170mm" y2="806.500476mm" />
  <text x="69mm" y="798mm" font-size="24">
   5.0
  </text>
  <circle cx="75.079964mm" cy="796.799964mm" r="2.200229mm" fill="none"/>
  <line x1="79.480421mm" y1="796.799964mm" x2="70.679507mm" y2="796.799964mm" />
  <line x1="75.079964mm" y1="792.399507mm" x2="75.079964mm" y2="801.200421mm" />
  <text x="77mm" y="794mm" font-size="24">
   4.4
  </text>
  <circle cx="87.749964mm" cy="99.119964mm" r="2.200229mm" fill="none"/>
  <line x1="92.150421mm" y1="99.119964mm" x2="83.349507mm" y2="99.119964mm" />
  <line x1="87.749964mm" y1="94.719507mm" x2="87.749964mm" y2="103.520421mm" />
  <text x="89mm" y="96mm" font-size="24">
   4.4
  </text>
  <circle cx="94.699964mm" cy="752.289964mm" r="2.200229mm" fill="none"/>
  <line x1="99.100421mm" y1="752.289964mm" x2="90.299507mm" y2="752.289964mm" />
  <line x1="94.699964mm" y1="747.889507mm" x2="94.699964mm" y2="756.690421mm" />
  <text x="96mm" y="750mm" font-size="24">
   4.4
  </text>
  <circle cx="94.699964mm" cy="56.709964mm" r="2.200229mm" fill="none"/>
  <line x1="99.100421mm" y1="56.709964mm" x2="90.299507mm" y2="56.709964mm" />
  <line x1="94.699964mm" y1="52.309507mm" x2="94.699964mm" y2="61.110421mm" />
  <text x="96mm" y="54mm" font-size="24">
   4.4
  </text>
  <circle cx="103.499964mm" cy="12.499964mm" r="2.200229mm" fill="none"/>
  <line x1="107.900421mm" y1="12.499964mm" x2="99.099507mm" y2="12.499964mm" />
  <line x1="103.499964mm" y1="8.099507mm" x2="103.499964mm" y2="16.900421mm" />
  <text x="105mm" y="10mm" font-size="24">
   4.4
  </text>
  <circle cx="112.299964mm" cy="796.799964mm" r="2.200229mm" fill="none"/>
  <line x1="116.700421mm" y1="796.799964mm" x2="107.899507mm" y2="796.799964mm" />
  <line x1="112.299964mm" y1="792.399507mm" x2="112.299964mm" y2="801.200421mm" />
  <text x="114mm" y="794mm" font-size="24">
   4.4
  </text>
  <circle cx="130.999962mm" cy="125.899817mm" r="4.989768mm" fill="none"/>
  <line x1="140.979499mm" y1="125.899817mm" x2="121.020425mm" y2="125.899817mm" />
  <line x1="130.999962mm" y1="115.920280mm" x2="130.999962mm" y2="135.879354mm" />
  <text x="135mm" y="120mm" font-size="24">
   10.0
  </text>
  <circle cx="771.999962mm" cy="125.899817mm" r="4.989768mm" fill="none"/>
  <line x1="781.979499mm" y1="125.899817mm" x2="762.020425mm" y2="125.899817mm" />
  <line x1="771.999962mm" y1="115.920280mm" x2="771.999962mm" y2="135.879354mm" />
  <text x="776mm" y="120mm" font-size="24">
   10.0
  </text>
  <circle cx="783.499964mm" cy="12.499964mm" r="2.200229mm" fill="none"/>
  <line x1="787.900421mm" y1="12.499964mm" x2="779.099507mm" y2="12.499964mm" />
  <line x1="783.499964mm" y1="8.099507mm" x2="783.499964mm" y2="16.900421mm" />
  <text x="785mm" y="10mm" font-size="24">
   4.4
  </text>
  <circle cx="790.699964mm" cy="752.289964mm" r="2.200229mm" fill="none"/>
  <line x1="795.100421mm" y1="752.289964mm" x2="786.299507mm" y2="752.289964mm" />
  <line x1="790.699964mm" y1="747.889507mm" x2="790.699964mm" y2="756.690421mm" />
  <text x="792mm" y="750mm" font-size="24">
   4.4
  </text>
  <circle cx="790.699964mm" cy="56.709964mm" r="2.200229mm" fill="none"/>
  <line x1="795.100421mm" y1="56.709964mm" x2="786.299507mm" y2="56.709964mm" />
  <line x1="790.699964mm" y1="52.309507mm" x2="790.699964mm" y2="61.110421mm" />
  <text x="792mm" y="54mm" font-size="24">
   4.4
  </text>
  <circle cx="797.649964mm" cy="99.119964mm" r="2.200229mm" fill="none"/>
  <line x1="802.050421mm" y1="99.119964mm" x2="793.249507mm" y2="99.119964mm" />
  <line x1="797.649964mm" y1="94.719507mm" x2="797.649964mm" y2="103.520421mm" />
  <text x="799mm" y="96mm" font-size="24">
   4.4
  </text>
  <circle cx="820.499964mm" cy="742.999964mm" r="2.200229mm" fill="none"/>
  <line x1="824.900421mm" y1="742.999964mm" x2="816.099507mm" y2="742.999964mm" />
  <line x1="820.499964mm" y1="738.599507mm" x2="820.499964mm" y2="747.400421mm" />
  <text x="822mm" y="740mm" font-size="24">
   4.4
  </text>
  <circle cx="836.099964mm" cy="796.799964mm" r="2.200229mm" fill="none"/>
  <line x1="840.500421mm" y1="796.799964mm" x2="831.699507mm" y2="796.799964mm" />
  <line x1="836.099964mm" y1="792.399507mm" x2="836.099964mm" y2="801.200421mm" />
  <text x="838mm" y="794mm" font-size="24">
   4.4
  </text>
  <circle cx="840.499964mm" cy="12.499964mm" r="2.200229mm" fill="none"/>
  <line x1="844.900421mm" y1="12.499964mm" x2="836.099507mm" y2="12.499964mm" />
  <line x1="840.499964mm" y1="8.099507mm" x2="840.499964mm" y2="16.900421mm" />
  <text x="842mm" y="10mm" font-size="24">
   4.4
  </text>
  <circle cx="843.620170mm" cy="780.099939mm" r="2.500268mm" fill="none"/>
  <line x1="848.620707mm" y1="780.099939mm" x2="838.619633mm" y2="780.099939mm" />
  <line x1="843.620170mm" y1="775.099402mm" x2="843.620170mm" y2="785.100476mm" />
  <text x="846mm" y="777mm" font-size="24">
   5.0
  </text>
  <circle cx="849.499964mm" cy="742.999964mm" r="2.200229mm" fill="none"/>
  <line x1="853.900421mm" y1="742.999964mm" x2="845.099507mm" y2="742.999964mm" />
  <line x1="849.499964mm" y1="738.599507mm" x2="849.499964mm" y2="747.400421mm" />
  <text x="851mm" y="740mm" font-size="24">
   4.4
  </text>
  <circle cx="863.499964mm" cy="19.999964mm" r="2.200229mm" fill="none"/>
  <line x1="867.900421mm" y1="19.999964mm" x2="859.099507mm" y2="19.999964mm" />
  <line x1="863.499964mm" y1="15.599507mm" x2="863.499964mm" y2="24.400421mm" />
  <text x="865mm" y="17mm" font-size="24">
   4.4
  </text>
  <circle cx="864.579964mm" cy="796.799964mm" r="2.200229mm" fill="none"/>
  <line x1="868.980421mm" y1="796.799964mm" x2="860.179507mm" y2="796.799964mm" />
  <line x1="864.579964mm" y1="792.399507mm" x2="864.579964mm" y2="801.200421mm" />
  <text x="866mm" y="794mm" font-size="24">
   4.4
  </text>
  <circle cx="873.319964mm" cy="796.799964mm" r="2.200229mm" fill="none"/>
  <line x1="877.720421mm" y1="796.799964mm" x2="868.919507mm" y2="796.799964mm" />
  <line x1="873.319964mm" y1="792.399507mm" x2="873.319964mm" y2="801.200421mm" />
  <text x="875mm" y="794mm" font-size="24">
   4.4
  </text>
  <circle cx="899.899964mm" cy="766.599964mm" r="2.200229mm" fill="none"/>
  <line x1="904.300421mm" y1="766.599964mm" x2="895.499507mm" y2="766.599964mm" />
  <line x1="899.899964mm" y1="762.199507mm" x2="899.899964mm" y2="771.000421mm" />
  <text x="902mm" y="764mm" font-size="24">
   4.4
  </text>
  <circle cx="900.499964mm" cy="19.999964mm" r="2.200229mm" fill="none"/>
  <line x1="904.900421mm" y1="19.999964mm" x2="896.099507mm" y2="19.999964mm" />
  <line x1="900.499964mm" y1="15.599507mm" x2="900.499964mm" y2="24.400421mm" />
  <text x="902mm" y="17mm" font-size="24">
   4.4
  </text>
  <circle cx="901.799964mm" cy="796.799964mm" r="2.200229mm" fill="none"/>
  <line x1="906.200421mm" y1="796.799964mm" x2="897.399507mm" y2="796.799964mm" />
  <line x1="901.799964mm" y1="792.399507mm" x2="901.799964mm" y2="801.200421mm" />
  <text x="904mm" y="794mm" font-size="24">
   4.4
  </text>
 </g>
</svg>
