  0
SECTION
  2
BLOCKS
  0
ENDSEC
  0
SECTION
  2
ENTITIES
  0
LINE
  8
0
 10
-457.75
 11
-457.75
 20
0
 21
809
  0
LINE
  8
0
 10
-457.75
 11
457.75
 20
809
 21
809
  0
LINE
  8
0
 10
457.75
 11
457.75
 20
809
 21
0
  0
LINE
  8
0
 10
457.75
 11
319.25
 20
0
 21
0
  0
LINE
  8
0
 10
319.25
 11
319.25
 20
0
 21
683.1
  0
LINE
  8
0
 10
319.25
 11
319.225
 20
683.1
 21
683.598
  0
LINE
  8
0
 10
319.225
 11
319.151
 20
683.598
 21
684.091
  0
LINE
  8
0
 10
319.151
 11
319.028
 20
684.091
 21
684.574
  0
LINE
  8
0
 10
319.028
 11
318.857
 20
684.574
 21
685.042
  0
LINE
  8
0
 10
318.857
 11
318.641
 20
685.042
 21
685.491
  0
LINE
  8
0
 10
318.641
 11
318.381
 20
685.491
 21
685.917
  0
LINE
  8
0
 10
318.381
 11
318.08
 20
685.917
 21
686.314
  0
LINE
  8
0
 10
318.08
 11
317.741
 20
686.314
 21
686.679
  0
LINE
  8
0
 10
317.741
 11
317.367
 20
686.679
 21
687.009
  0
LINE
  8
0
 10
317.367
 11
316.963
 20
687.009
 21
687.3
  0
LINE
  8
0
 10
316.963
 11
316.531
 20
687.3
 21
687.549
  0
LINE
  8
0
 10
316.531
 11
316.077
 20
687.549
 21
687.754
  0
LINE
  8
0
 10
316.077
 11
315.604
 20
687.754
 21
687.913
  0
LINE
  8
0
 10
315.604
 11
315.118
 20
687.913
 21
688.024
  0
LINE
  8
0
 10
315.118
 11
314.624
 20
688.024
 21
688.086
  0
LINE
  8
0
 10
314.624
 11
314.25
 20
688.086
 21
688.095
  0
LINE
  8
0
 10
314.25
 11
314.25
 20
688.095
 21
688.1
  0
LINE
  8
0
 10
314.25
 11
-326.75
 20
688.1
 21
688.1
  0
LINE
  8
0
 10
-326.75
 11
-326.75
 20
688.1
 21
688.095
  0
LINE
  8
0
 10
-326.75
 11
-326.875
 20
688.095
 21
688.098
  0
LINE
  8
0
 10
-326.875
 11
-327.372
 20
688.098
 21
688.061
  0
LINE
  8
0
 10
-327.372
 11
-327.863
 20
688.061
 21
687.975
  0
LINE
  8
0
 10
-327.863
 11
-328.342
 20
687.975
 21
687.84
  0
LINE
  8
0
 10
-328.342
 11
-328.806
 20
687.84
 21
687.658
  0
LINE
  8
0
 10
-328.806
 11
-329.25
 20
687.658
 21
687.43
  0
LINE
  8
0
 10
-329.25
 11
-329.669
 20
687.43
 21
687.16
  0
LINE
  8
0
 10
-329.669
 11
-330.058
 20
687.16
 21
686.849
  0
LINE
  8
0
 10
-330.058
 11
-330.415
 20
686.849
 21
686.501
  0
LINE
  8
0
 10
-330.415
 11
-330.736
 20
686.501
 21
686.119
  0
LINE
  8
0
 10
-330.736
 11
-331.016
 20
686.119
 21
685.707
  0
LINE
  8
0
 10
-331.016
 11
-331.255
 20
685.707
 21
685.269
  0
LINE
  8
0
 10
-331.255
 11
-331.448
 20
685.269
 21
684.81
  0
LINE
  8
0
 10
-331.448
 11
-331.595
 20
684.81
 21
684.334
  0
LINE
  8
0
 10
-331.595
 11
-331.694
 20
684.334
 21
683.845
  0
LINE
  8
0
 10
-331.694
 11
-331.744
 20
683.845
 21
683.349
  0
LINE
  8
0
 10
-331.744
 11
-331.744
 20
683.349
 21
683.1
  0
LINE
  8
0
 10
-331.744
 11
-331.75
 20
683.1
 21
683.1
  0
LINE
  8
0
 10
-331.75
 11
-331.75
 20
683.1
 21
0
  0
LINE
  8
0
 10
-331.75
 11
-457.75
 20
0
 21
0
  0
LINE
  8
0
 10
-455.45
 11
-455.395
 20
108.1
 21
108.59
  0
LINE
  8
0
 10
-455.395
 11
-455.232
 20
108.59
 21
109.055
  0
LINE
  8
0
 10
-455.232
 11
-454.97
 20
109.055
 21
109.472
  0
LINE
  8
0
 10
-454.97
 11
-454.622
 20
109.472
 21
109.82
  0
LINE
  8
0
 10
-454.622
 11
-454.205
 20
109.82
 21
110.082
  0
LINE
  8
0
 10
-454.205
 11
-453.74
 20
110.082
 21
110.245
  0
LINE
  8
0
 10
-453.74
 11
-453.25
 20
110.245
 21
110.3
  0
LINE
  8
0
 10
-453.25
 11
-452.76
 20
110.3
 21
110.245
  0
LINE
  8
0
 10
-452.76
 11
-452.295
 20
110.245
 21
110.082
  0
LINE
  8
0
 10
-452.295
 11
-451.878
 20
110.082
 21
109.82
  0
LINE
  8
0
 10
-451.878
 11
-451.53
 20
109.82
 21
109.472
  0
LINE
  8
0
 10
-451.53
 11
-451.268
 20
109.472
 21
109.055
  0
LINE
  8
0
 10
-451.268
 11
-451.105
 20
109.055
 21
108.59
  0
LINE
  8
0
 10
-451.105
 11
-451.05
 20
108.59
 21
108.1
  0
LINE
  8
0
 10
-451.05
 11
-451.105
 20
108.1
 21
107.61
  0
LINE
  8
0
 10
-451.105
 11
-451.268
 20
107.61
 21
107.145
  0
LINE
  8
0
 10
-451.268
 11
-451.53
 20
107.145
 21
106.728
  0
LINE
  8
0
 10
-451.53
 11
-451.878
 20
106.728
 21
106.38
  0
LINE
  8
0
 10
-451.878
 11
-452.295
 20
106.38
 21
106.118
  0
LINE
  8
0
 10
-452.295
 11
-452.76
 20
106.118
 21
105.955
  0
LINE
  8
0
 10
-452.76
 11
-453.25
 20
105.955
 21
105.9
  0
LINE
  8
0
 10
-453.25
 11
-453.74
 20
105.9
 21
105.955
  0
LINE
  8
0
 10
-453.74
 11
-454.205
 20
105.955
 21
106.118
  0
LINE
  8
0
 10
-454.205
 11
-454.622
 20
106.118
 21
106.38
  0
LINE
  8
0
 10
-454.622
 11
-454.97
 20
106.38
 21
106.728
  0
LINE
  8
0
 10
-454.97
 11
-455.232
 20
106.728
 21
107.145
  0
LINE
  8
0
 10
-455.232
 11
-455.395
 20
107.145
 21
107.61
  0
LINE
  8
0
 10
-455.395
 11
-455.45
 20
107.61
 21
108.1
  0
LINE
  8
0
 10
-455.45
 11
-455.395
 20
157.5
 21
157.99
  0
LINE
  8
0
 10
-455.395
 11
-455.232
 20
157.99
 21
158.455
  0
LINE
  8
0
 10
-455.232
 11
-454.97
 20
158.455
 21
158.872
  0
LINE
  8
0
 10
-454.97
 11
-454.622
 20
158.872
 21
159.22
  0
LINE
  8
0
 10
-454.622
 11
-454.205
 20
159.22
 21
159.482
  0
LINE
  8
0
 10
-454.205
 11
-453.74
 20
159.482
 21
159.645
  0
LINE
  8
0
 10
-453.74
 11
-453.25
 20
159.645
 21
159.7
  0
LINE
  8
0
 10
-453.25
 11
-452.76
 20
159.7
 21
159.645
  0
LINE
  8
0
 10
-452.76
 11
-452.295
 20
159.645
 21
159.482
  0
LINE
  8
0
 10
-452.295
 11
-451.878
 20
159.482
 21
159.22
  0
LINE
  8
0
 10
-451.878
 11
-451.53
 20
159.22
 21
158.872
  0
LINE
  8
0
 10
-451.53
 11
-451.268
 20
158.872
 21
158.455
  0
LINE
  8
0
 10
-451.268
 11
-451.105
 20
158.455
 21
157.99
  0
LINE
  8
0
 10
-451.105
 11
-451.05
 20
157.99
 21
157.5
  0
LINE
  8
0
 10
-451.05
 11
-451.105
 20
157.5
 21
157.01
  0
LINE
  8
0
 10
-451.105
 11
-451.268
 20
157.01
 21
156.545
  0
LINE
  8
0
 10
-451.268
 11
-451.53
 20
156.545
 21
156.128
  0
LINE
  8
0
 10
-451.53
 11
-451.878
 20
156.128
 21
155.78
  0
LINE
  8
0
 10
-451.878
 11
-452.295
 20
155.78
 21
155.518
  0
LINE
  8
0
 10
-452.295
 11
-452.76
 20
155.518
 21
155.355
  0
LINE
  8
0
 10
-452.76
 11
-453.25
 20
155.355
 21
155.3
  0
LINE
  8
0
 10
-453.25
 11
-453.74
 20
155.3
 21
155.355
  0
LINE
  8
0
 10
-453.74
 11
-454.205
 20
155.355
 21
155.518
  0
LINE
  8
0
 10
-454.205
 11
-454.622
 20
155.518
 21
155.78
  0
LINE
  8
0
 10
-454.622
 11
-454.97
 20
155.78
 21
156.128
  0
LINE
  8
0
 10
-454.97
 11
-455.232
 20
156.128
 21
156.545
  0
LINE
  8
0
 10
-455.232
 11
-455.395
 20
156.545
 21
157.01
  0
LINE
  8
0
 10
-455.395
 11
-455.45
 20
157.01
 21
157.5
  0
LINE
  8
0
 10
-446.25
 11
-446.195
 20
12.2
 21
12.69
  0
LINE
  8
0
 10
-446.195
 11
-446.032
 20
12.69
 21
13.155
  0
LINE
  8
0
 10
-446.032
 11
-445.77
 20
13.155
 21
13.572
  0
LINE
  8
0
 10
-445.77
 11
-445.422
 20
13.572
 21
13.92
  0
LINE
  8
0
 10
-445.422
 11
-445.005
 20
13.92
 21
14.182
  0
LINE
  8
0
 10
-445.005
 11
-444.54
 20
14.182
 21
14.345
  0
LINE
  8
0
 10
-444.54
 11
-444.05
 20
14.345
 21
14.4
  0
LINE
  8
0
 10
-444.05
 11
-443.56
 20
14.4
 21
14.345
  0
LINE
  8
0
 10
-443.56
 11
-443.095
 20
14.345
 21
14.182
  0
LINE
  8
0
 10
-443.095
 11
-442.678
 20
14.182
 21
13.92
  0
LINE
  8
0
 10
-442.678
 11
-442.33
 20
13.92
 21
13.572
  0
LINE
  8
0
 10
-442.33
 11
-442.068
 20
13.572
 21
13.155
  0
LINE
  8
0
 10
-442.068
 11
-441.905
 20
13.155
 21
12.69
  0
LINE
  8
0
 10
-441.905
 11
-441.85
 20
12.69
 21
12.2
  0
LINE
  8
0
 10
-441.85
 11
-441.905
 20
12.2
 21
11.71
  0
LINE
  8
0
 10
-441.905
 11
-442.068
 20
11.71
 21
11.245
  0
LINE
  8
0
 10
-442.068
 11
-442.33
 20
11.245
 21
10.828
  0
LINE
  8
0
 10
-442.33
 11
-442.678
 20
10.828
 21
10.48
  0
LINE
  8
0
 10
-442.678
 11
-443.095
 20
10.48
 21
10.218
  0
LINE
  8
0
 10
-443.095
 11
-443.56
 20
10.218
 21
10.055
  0
LINE
  8
0
 10
-443.56
 11
-444.05
 20
10.055
 21
10
  0
LINE
  8
0
 10
-444.05
 11
-444.54
 20
10
 21
10.055
  0
LINE
  8
0
 10
-444.54
 11
-445.005
 20
10.055
 21
10.218
  0
LINE
  8
0
 10
-445.005
 11
-445.422
 20
10.218
 21
10.48
  0
LINE
  8
0
 10
-445.422
 11
-445.77
 20
10.48
 21
10.828
  0
LINE
  8
0
 10
-445.77
 11
-446.032
 20
10.828
 21
11.245
  0
LINE
  8
0
 10
-446.032
 11
-446.195
 20
11.245
 21
11.71
  0
LINE
  8
0
 10
-446.195
 11
-446.25
 20
11.71
 21
12.2
  0
LINE
  8
0
 10
-437.45
 11
-437.395
 20
66
 21
66.49
  0
LINE
  8
0
 10
-437.395
 11
-437.232
 20
66.49
 21
66.955
  0
LINE
  8
0
 10
-437.232
 11
-436.97
 20
66.955
 21
67.372
  0
LINE
  8
0
 10
-436.97
 11
-436.622
 20
67.372
 21
67.72
  0
LINE
  8
0
 10
-436.622
 11
-436.205
 20
67.72
 21
67.982
  0
LINE
  8
0
 10
-436.205
 11
-435.74
 20
67.982
 21
68.145
  0
LINE
  8
0
 10
-435.74
 11
-435.25
 20
68.145
 21
68.2
  0
LINE
  8
0
 10
-435.25
 11
-434.76
 20
68.2
 21
68.145
  0
LINE
  8
0
 10
-434.76
 11
-434.295
 20
68.145
 21
67.982
  0
LINE
  8
0
 10
-434.295
 11
-433.878
 20
67.982
 21
67.72
  0
LINE
  8
0
 10
-433.878
 11
-433.53
 20
67.72
 21
67.372
  0
LINE
  8
0
 10
-433.53
 11
-433.268
 20
67.372
 21
66.955
  0
LINE
  8
0
 10
-433.268
 11
-433.105
 20
66.955
 21
66.49
  0
LINE
  8
0
 10
-433.105
 11
-433.05
 20
66.49
 21
66
  0
LINE
  8
0
 10
-433.05
 11
-433.105
 20
66
 21
65.51
  0
LINE
  8
0
 10
-433.105
 11
-433.268
 20
65.51
 21
65.045
  0
LINE
  8
0
 10
-433.268
 11
-433.53
 20
65.045
 21
64.628
  0
LINE
  8
0
 10
-433.53
 11
-433.878
 20
64.628
 21
64.28
  0
LINE
  8
0
 10
-433.878
 11
-434.295
 20
64.28
 21
64.018
  0
LINE
  8
0
 10
-434.295
 11
-434.76
 20
64.018
 21
63.855
  0
LINE
  8
0
 10
-434.76
 11
-435.25
 20
63.855
 21
63.8
  0
LINE
  8
0
 10
-435.25
 11
-435.74
 20
63.8
 21
63.855
  0
LINE
  8
0
 10
-435.74
 11
-436.205
 20
63.855
 21
64.018
  0
LINE
  8
0
 10
-436.205
 11
-436.622
 20
64.018
 21
64.28
  0
LINE
  8
0
 10
-436.622
 11
-436.97
 20
64.28
 21
64.628
  0
LINE
  8
0
 10
-436.97
 11
-437.232
 20
64.628
 21
65.045
  0
LINE
  8
0
 10
-437.232
 11
-437.395
 20
65.045
 21
65.51
  0
LINE
  8
0
 10
-437.395
 11
-437.45
 20
65.51
 21
66
  0
LINE
  8
0
 10
-423.25
 11
-423.192
 20
82
 21
82.479
  0
LINE
  8
0
 10
-423.192
 11
-423.021
 20
82.479
 21
82.929
  0
LINE
  8
0
 10
-423.021
 11
-422.747
 20
82.929
 21
83.326
  0
LINE
  8
0
 10
-422.747
 11
-422.386
 20
83.326
 21
83.646
  0
LINE
  8
0
 10
-422.386
 11
-421.959
 20
83.646
 21
83.87
  0
LINE
  8
0
 10
-421.959
 11
-421.491
 20
83.87
 21
83.985
  0
LINE
  8
0
 10
-421.491
 11
-421.009
 20
83.985
 21
83.985
  0
LINE
  8
0
 10
-421.009
 11
-420.541
 20
83.985
 21
83.87
  0
LINE
  8
0
 10
-420.541
 11
-420.114
 20
83.87
 21
83.646
  0
LINE
  8
0
 10
-420.114
 11
-419.753
 20
83.646
 21
83.326
  0
LINE
  8
0
 10
-419.753
 11
-419.479
 20
83.326
 21
82.929
  0
LINE
  8
0
 10
-419.479
 11
-419.308
 20
82.929
 21
82.479
  0
LINE
  8
0
 10
-419.308
 11
-419.25
 20
82.479
 21
82
  0
LINE
  8
0
 10
-419.25
 11
-419.308
 20
82
 21
81.521
  0
LINE
  8
0
 10
-419.308
 11
-419.479
 20
81.521
 21
81.071
  0
LINE
  8
0
 10
-419.479
 11
-419.753
 20
81.071
 21
80.674
  0
LINE
  8
0
 10
-419.753
 11
-420.114
 20
80.674
 21
80.354
  0
LINE
  8
0
 10
-420.114
 11
-420.541
 20
80.354
 21
80.13
  0
LINE
  8
0
 10
-420.541
 11
-421.009
 20
80.13
 21
80.015
  0
LINE
  8
0
 10
-421.009
 11
-421.491
 20
80.015
 21
80.015
  0
LINE
  8
0
 10
-421.491
 11
-421.959
 20
80.015
 21
80.13
  0
LINE
  8
0
 10
-421.959
 11
-422.386
 20
80.13
 21
80.354
  0
LINE
  8
0
 10
-422.386
 11
-422.747
 20
80.354
 21
80.674
  0
LINE
  8
0
 10
-422.747
 11
-423.021
 20
80.674
 21
81.071
  0
LINE
  8
0
 10
-423.021
 11
-423.192
 20
81.071
 21
81.521
  0
LINE
  8
0
 10
-423.192
 11
-423.25
 20
81.521
 21
82
  0
LINE
  8
0
 10
-413.45
 11
-413.395
 20
796.5
 21
796.99
  0
LINE
  8
0
 10
-413.395
 11
-413.232
 20
796.99
 21
797.455
  0
LINE
  8
0
 10
-413.232
 11
-412.97
 20
797.455
 21
797.872
  0
LINE
  8
0
 10
-412.97
 11
-412.622
 20
797.872
 21
798.22
  0
LINE
  8
0
 10
-412.622
 11
-412.205
 20
798.22
 21
798.482
  0
LINE
  8
0
 10
-412.205
 11
-411.74
 20
798.482
 21
798.645
  0
LINE
  8
0
 10
-411.74
 11
-411.25
 20
798.645
 21
798.7
  0
LINE
  8
0
 10
-411.25
 11
-410.76
 20
798.7
 21
798.645
  0
LINE
  8
0
 10
-410.76
 11
-410.295
 20
798.645
 21
798.482
  0
LINE
  8
0
 10
-410.295
 11
-409.878
 20
798.482
 21
798.22
  0
LINE
  8
0
 10
-409.878
 11
-409.53
 20
798.22
 21
797.872
  0
LINE
  8
0
 10
-409.53
 11
-409.268
 20
797.872
 21
797.455
  0
LINE
  8
0
 10
-409.268
 11
-409.105
 20
797.455
 21
796.99
  0
LINE
  8
0
 10
-409.105
 11
-409.05
 20
796.99
 21
796.5
  0
LINE
  8
0
 10
-409.05
 11
-409.105
 20
796.5
 21
796.01
  0
LINE
  8
0
 10
-409.105
 11
-409.268
 20
796.01
 21
795.545
  0
LINE
  8
0
 10
-409.268
 11
-409.53
 20
795.545
 21
795.128
  0
LINE
  8
0
 10
-409.53
 11
-409.878
 20
795.128
 21
794.78
  0
LINE
  8
0
 10
-409.878
 11
-410.295
 20
794.78
 21
794.518
  0
LINE
  8
0
 10
-410.295
 11
-410.76
 20
794.518
 21
794.355
  0
LINE
  8
0
 10
-410.76
 11
-411.25
 20
794.355
 21
794.3
  0
LINE
  8
0
 10
-411.25
 11
-411.74
 20
794.3
 21
794.355
  0
LINE
  8
0
 10
-411.74
 11
-412.205
 20
794.355
 21
794.518
  0
LINE
  8
0
 10
-412.205
 11
-412.622
 20
794.518
 21
794.78
  0
LINE
  8
0
 10
-412.622
 11
-412.97
 20
794.78
 21
795.128
  0
LINE
  8
0
 10
-412.97
 11
-413.232
 20
795.128
 21
795.545
  0
LINE
  8
0
 10
-413.232
 11
-413.395
 20
795.545
 21
796.01
  0
LINE
  8
0
 10
-413.395
 11
-413.45
 20
796.01
 21
796.5
  0
LINE
  8
0
 10
-413.25
 11
-413.192
 20
782
 21
782.479
  0
LINE
  8
0
 10
-413.192
 11
-413.021
 20
782.479
 21
782.929
  0
LINE
  8
0
 10
-413.021
 11
-412.747
 20
782.929
 21
783.326
  0
LINE
  8
0
 10
-412.747
 11
-412.386
 20
783.326
 21
783.646
  0
LINE
  8
0
 10
-412.386
 11
-411.959
 20
783.646
 21
783.87
  0
LINE
  8
0
 10
-411.959
 11
-411.491
 20
783.87
 21
783.985
  0
LINE
  8
0
 10
-411.491
 11
-411.009
 20
783.985
 21
783.985
  0
LINE
  8
0
 10
-411.009
 11
-410.541
 20
783.985
 21
783.87
  0
LINE
  8
0
 10
-410.541
 11
-410.114
 20
783.87
 21
783.646
  0
LINE
  8
0
 10
-410.114
 11
-409.753
 20
783.646
 21
783.326
  0
LINE
  8
0
 10
-409.753
 11
-409.479
 20
783.326
 21
782.929
  0
LINE
  8
0
 10
-409.479
 11
-409.308
 20
782.929
 21
782.479
  0
LINE
  8
0
 10
-409.308
 11
-409.25
 20
782.479
 21
782
  0
LINE
  8
0
 10
-409.25
 11
-409.308
 20
782
 21
781.521
  0
LINE
  8
0
 10
-409.308
 11
-409.479
 20
781.521
 21
781.071
  0
LINE
  8
0
 10
-409.479
 11
-409.753
 20
781.071
 21
780.674
  0
LINE
  8
0
 10
-409.753
 11
-410.114
 20
780.674
 21
780.354
  0
LINE
  8
0
 10
-410.114
 11
-410.541
 20
780.354
 21
780.13
  0
LINE
  8
0
 10
-410.541
 11
-411.009
 20
780.13
 21
780.015
  0
LINE
  8
0
 10
-411.009
 11
-411.491
 20
780.015
 21
780.015
  0
LINE
  8
0
 10
-411.491
 11
-411.959
 20
780.015
 21
780.13
  0
LINE
  8
0
 10
-411.959
 11
-412.386
 20
780.13
 21
780.354
  0
LINE
  8
0
 10
-412.386
 11
-412.747
 20
780.354
 21
780.674
  0
LINE
  8
0
 10
-412.747
 11
-413.021
 20
780.674
 21
781.071
  0
LINE
  8
0
 10
-413.021
 11
-413.192
 20
781.071
 21
781.521
  0
LINE
  8
0
 10
-413.192
 11
-413.25
 20
781.521
 21
782
  0
LINE
  8
0
 10
-409.03
 11
-408.975
 20
12.2
 21
12.69
  0
LINE
  8
0
 10
-408.975
 11
-408.812
 20
12.69
 21
13.155
  0
LINE
  8
0
 10
-408.812
 11
-408.55
 20
13.155
 21
13.572
  0
LINE
  8
0
 10
-408.55
 11
-408.202
 20
13.572
 21
13.92
  0
LINE
  8
0
 10
-408.202
 11
-407.785
 20
13.92
 21
14.182
  0
LINE
  8
0
 10
-407.785
 11
-407.32
 20
14.182
 21
14.345
  0
LINE
  8
0
 10
-407.32
 11
-406.83
 20
14.345
 21
14.4
  0
LINE
  8
0
 10
-406.83
 11
-406.34
 20
14.4
 21
14.345
  0
LINE
  8
0
 10
-406.34
 11
-405.875
 20
14.345
 21
14.182
  0
LINE
  8
0
 10
-405.875
 11
-405.458
 20
14.182
 21
13.92
  0
LINE
  8
0
 10
-405.458
 11
-405.11
 20
13.92
 21
13.572
  0
LINE
  8
0
 10
-405.11
 11
-404.848
 20
13.572
 21
13.155
  0
LINE
  8
0
 10
-404.848
 11
-404.685
 20
13.155
 21
12.69
  0
LINE
  8
0
 10
-404.685
 11
-404.63
 20
12.69
 21
12.2
  0
LINE
  8
0
 10
-404.63
 11
-404.685
 20
12.2
 21
11.71
  0
LINE
  8
0
 10
-404.685
 11
-404.848
 20
11.71
 21
11.245
  0
LINE
  8
0
 10
-404.848
 11
-405.11
 20
11.245
 21
10.828
  0
LINE
  8
0
 10
-405.11
 11
-405.458
 20
10.828
 21
10.48
  0
LINE
  8
0
 10
-405.458
 11
-405.875
 20
10.48
 21
10.218
  0
LINE
  8
0
 10
-405.875
 11
-406.34
 20
10.218
 21
10.055
  0
LINE
  8
0
 10
-406.34
 11
-406.83
 20
10.055
 21
10
  0
LINE
  8
0
 10
-406.83
 11
-407.32
 20
10
 21
10.055
  0
LINE
  8
0
 10
-407.32
 11
-407.785
 20
10.055
 21
10.218
  0
LINE
  8
0
 10
-407.785
 11
-408.202
 20
10.218
 21
10.48
  0
LINE
  8
0
 10
-408.202
 11
-408.55
 20
10.48
 21
10.828
  0
LINE
  8
0
 10
-408.55
 11
-408.812
 20
10.828
 21
11.245
  0
LINE
  8
0
 10
-408.812
 11
-408.975
 20
11.245
 21
11.71
  0
LINE
  8
0
 10
-408.975
 11
-409.03
 20
11.71
 21
12.2
  0
LINE
  8
0
 10
-408.45
 11
-408.395
 20
66
 21
66.49
  0
LINE
  8
0
 10
-408.395
 11
-408.232
 20
66.49
 21
66.955
  0
LINE
  8
0
 10
-408.232
 11
-407.97
 20
66.955
 21
67.372
  0
LINE
  8
0
 10
-407.97
 11
-407.622
 20
67.372
 21
67.72
  0
LINE
  8
0
 10
-407.622
 11
-407.205
 20
67.72
 21
67.982
  0
LINE
  8
0
 10
-407.205
 11
-406.74
 20
67.982
 21
68.145
  0
LINE
  8
0
 10
-406.74
 11
-406.25
 20
68.145
 21
68.2
  0
LINE
  8
0
 10
-406.25
 11
-405.76
 20
68.2
 21
68.145
  0
LINE
  8
0
 10
-405.76
 11
-405.295
 20
68.145
 21
67.982
  0
LINE
  8
0
 10
-405.295
 11
-404.878
 20
67.982
 21
67.72
  0
LINE
  8
0
 10
-404.878
 11
-404.53
 20
67.72
 21
67.372
  0
LINE
  8
0
 10
-404.53
 11
-404.268
 20
67.372
 21
66.955
  0
LINE
  8
0
 10
-404.268
 11
-404.105
 20
66.955
 21
66.49
  0
LINE
  8
0
 10
-404.105
 11
-404.05
 20
66.49
 21
66
  0
LINE
  8
0
 10
-404.05
 11
-404.105
 20
66
 21
65.51
  0
LINE
  8
0
 10
-404.105
 11
-404.268
 20
65.51
 21
65.045
  0
LINE
  8
0
 10
-404.268
 11
-404.53
 20
65.045
 21
64.628
  0
LINE
  8
0
 10
-404.53
 11
-404.878
 20
64.628
 21
64.28
  0
LINE
  8
0
 10
-404.878
 11
-405.295
 20
64.28
 21
64.018
  0
LINE
  8
0
 10
-405.295
 11
-405.76
 20
64.018
 21
63.855
  0
LINE
  8
0
 10
-405.76
 11
-406.25
 20
63.855
 21
63.8
  0
LINE
  8
0
 10
-406.25
 11
-406.74
 20
63.8
 21
63.855
  0
LINE
  8
0
 10
-406.74
 11
-407.205
 20
63.855
 21
64.018
  0
LINE
  8
0
 10
-407.205
 11
-407.622
 20
64.018
 21
64.28
  0
LINE
  8
0
 10
-407.622
 11
-407.97
 20
64.28
 21
64.628
  0
LINE
  8
0
 10
-407.97
 11
-408.232
 20
64.628
 21
65.045
  0
LINE
  8
0
 10
-408.232
 11
-408.395
 20
65.045
 21
65.51
  0
LINE
  8
0
 10
-408.395
 11
-408.45
 20
65.51
 21
66
  0
LINE
  8
0
 10
-393.13
 11
-393.082
 20
7.5
 21
7.988
  0
LINE
  8
0
 10
-393.082
 11
-392.94
 20
7.988
 21
8.457
  0
LINE
  8
0
 10
-392.94
 11
-392.709
 20
8.457
 21
8.889
  0
LINE
  8
0
 10
-392.709
 11
-392.398
 20
8.889
 21
9.268
  0
LINE
  8
0
 10
-392.398
 11
-392.019
 20
9.268
 21
9.579
  0
LINE
  8
0
 10
-392.019
 11
-391.587
 20
9.579
 21
9.81
  0
LINE
  8
0
 10
-391.587
 11
-391.118
 20
9.81
 21
9.952
  0
LINE
  8
0
 10
-391.118
 11
-390.63
 20
9.952
 21
10
  0
LINE
  8
0
 10
-390.63
 11
-390.142
 20
10
 21
9.952
  0
LINE
  8
0
 10
-390.142
 11
-389.673
 20
9.952
 21
9.81
  0
LINE
  8
0
 10
-389.673
 11
-389.241
 20
9.81
 21
9.579
  0
LINE
  8
0
 10
-389.241
 11
-388.862
 20
9.579
 21
9.268
  0
LINE
  8
0
 10
-388.862
 11
-388.551
 20
9.268
 21
8.889
  0
LINE
  8
0
 10
-388.551
 11
-388.32
 20
8.889
 21
8.457
  0
LINE
  8
0
 10
-388.32
 11
-388.178
 20
8.457
 21
7.988
  0
LINE
  8
0
 10
-388.178
 11
-388.13
 20
7.988
 21
7.5
  0
LINE
  8
0
 10
-388.13
 11
-388.178
 20
7.5
 21
7.012
  0
LINE
  8
0
 10
-388.178
 11
-388.32
 20
7.012
 21
6.543
  0
LINE
  8
0
 10
-388.32
 11
-388.551
 20
6.543
 21
6.111
  0
LINE
  8
0
 10
-388.551
 11
-388.862
 20
6.111
 21
5.732
  0
LINE
  8
0
 10
-388.862
 11
-389.241
 20
5.732
 21
5.421
  0
LINE
  8
0
 10
-389.241
 11
-389.673
 20
5.421
 21
5.19
  0
LINE
  8
0
 10
-389.673
 11
-390.142
 20
5.19
 21
5.048
  0
LINE
  8
0
 10
-390.142
 11
-390.63
 20
5.048
 21
5
  0
LINE
  8
0
 10
-390.63
 11
-391.118
 20
5
 21
5.048
  0
LINE
  8
0
 10
-391.118
 11
-391.587
 20
5.048
 21
5.19
  0
LINE
  8
0
 10
-391.587
 11
-392.019
 20
5.19
 21
5.421
  0
LINE
  8
0
 10
-392.019
 11
-392.398
 20
5.421
 21
5.732
  0
LINE
  8
0
 10
-392.398
 11
-392.709
 20
5.732
 21
6.111
  0
LINE
  8
0
 10
-392.709
 11
-392.94
 20
6.111
 21
6.543
  0
LINE
  8
0
 10
-392.94
 11
-393.082
 20
6.543
 21
7.012
  0
LINE
  8
0
 10
-393.082
 11
-393.13
 20
7.012
 21
7.5
  0
LINE
  8
0
 10
-384.87
 11
-384.815
 20
12.2
 21
12.69
  0
LINE
  8
0
 10
-384.815
 11
-384.652
 20
12.69
 21
13.155
  0
LINE
  8
0
 10
-384.652
 11
-384.39
 20
13.155
 21
13.572
  0
LINE
  8
0
 10
-384.39
 11
-384.042
 20
13.572
 21
13.92
  0
LINE
  8
0
 10
-384.042
 11
-383.625
 20
13.92
 21
14.182
  0
LINE
  8
0
 10
-383.625
 11
-383.16
 20
14.182
 21
14.345
  0
LINE
  8
0
 10
-383.16
 11
-382.67
 20
14.345
 21
14.4
  0
LINE
  8
0
 10
-382.67
 11
-382.18
 20
14.4
 21
14.345
  0
LINE
  8
0
 10
-382.18
 11
-381.715
 20
14.345
 21
14.182
  0
LINE
  8
0
 10
-381.715
 11
-381.298
 20
14.182
 21
13.92
  0
LINE
  8
0
 10
-381.298
 11
-380.95
 20
13.92
 21
13.572
  0
LINE
  8
0
 10
-380.95
 11
-380.688
 20
13.572
 21
13.155
  0
LINE
  8
0
 10
-380.688
 11
-380.525
 20
13.155
 21
12.69
  0
LINE
  8
0
 10
-380.525
 11
-380.47
 20
12.69
 21
12.2
  0
LINE
  8
0
 10
-380.47
 11
-380.525
 20
12.2
 21
11.71
  0
LINE
  8
0
 10
-380.525
 11
-380.688
 20
11.71
 21
11.245
  0
LINE
  8
0
 10
-380.688
 11
-380.95
 20
11.245
 21
10.828
  0
LINE
  8
0
 10
-380.95
 11
-381.298
 20
10.828
 21
10.48
  0
LINE
  8
0
 10
-381.298
 11
-381.715
 20
10.48
 21
10.218
  0
LINE
  8
0
 10
-381.715
 11
-382.18
 20
10.218
 21
10.055
  0
LINE
  8
0
 10
-382.18
 11
-382.67
 20
10.055
 21
10
  0
LINE
  8
0
 10
-382.67
 11
-383.16
 20
10
 21
10.055
  0
LINE
  8
0
 10
-383.16
 11
-383.625
 20
10.055
 21
10.218
  0
LINE
  8
0
 10
-383.625
 11
-384.042
 20
10.218
 21
10.48
  0
LINE
  8
0
 10
-384.042
 11
-384.39
 20
10.48
 21
10.828
  0
LINE
  8
0
 10
-384.39
 11
-384.652
 20
10.828
 21
11.245
  0
LINE
  8
0
 10
-384.652
 11
-384.815
 20
11.245
 21
11.71
  0
LINE
  8
0
 10
-384.815
 11
-384.87
 20
11.71
 21
12.2
  0
LINE
  8
0
 10
-372.2
 11
-372.145
 20
709.88
 21
710.37
  0
LINE
  8
0
 10
-372.145
 11
-371.982
 20
710.37
 21
710.835
  0
LINE
  8
0
 10
-371.982
 11
-371.72
 20
710.835
 21
711.252
  0
LINE
  8
0
 10
-371.72
 11
-371.372
 20
711.252
 21
711.6
  0
LINE
  8
0
 10
-371.372
 11
-370.955
 20
711.6
 21
711.862
  0
LINE
  8
0
 10
-370.955
 11
-370.49
 20
711.862
 21
712.025
  0
LINE
  8
0
 10
-370.49
 11
-370
 20
712.025
 21
712.08
  0
LINE
  8
0
 10
-370
 11
-369.51
 20
712.08
 21
712.025
  0
LINE
  8
0
 10
-369.51
 11
-369.045
 20
712.025
 21
711.862
  0
LINE
  8
0
 10
-369.045
 11
-368.628
 20
711.862
 21
711.6
  0
LINE
  8
0
 10
-368.628
 11
-368.28
 20
711.6
 21
711.252
  0
LINE
  8
0
 10
-368.28
 11
-368.018
 20
711.252
 21
710.835
  0
LINE
  8
0
 10
-368.018
 11
-367.855
 20
710.835
 21
710.37
  0
LINE
  8
0
 10
-367.855
 11
-367.8
 20
710.37
 21
709.88
  0
LINE
  8
0
 10
-367.8
 11
-367.855
 20
709.88
 21
709.39
  0
LINE
  8
0
 10
-367.855
 11
-368.018
 20
709.39
 21
708.925
  0
LINE
  8
0
 10
-368.018
 11
-368.28
 20
708.925
 21
708.508
  0
LINE
  8
0
 10
-368.28
 11
-368.628
 20
708.508
 21
708.16
  0
LINE
  8
0
 10
-368.628
 11
-369.045
 20
708.16
 21
707.898
  0
LINE
  8
0
 10
-369.045
 11
-369.51
 20
707.898
 21
707.735
  0
LINE
  8
0
 10
-369.51
 11
-370
 20
707.735
 21
707.68
  0
LINE
  8
0
 10
-370
 11
-370.49
 20
707.68
 21
707.735
  0
LINE
  8
0
 10
-370.49
 11
-370.955
 20
707.735
 21
707.898
  0
LINE
  8
0
 10
-370.955
 11
-371.372
 20
707.898
 21
708.16
  0
LINE
  8
0
 10
-371.372
 11
-371.72
 20
708.16
 21
708.508
  0
LINE
  8
0
 10
-371.72
 11
-371.982
 20
708.508
 21
708.925
  0
LINE
  8
0
 10
-371.982
 11
-372.145
 20
708.925
 21
709.39
  0
LINE
  8
0
 10
-372.145
 11
-372.2
 20
709.39
 21
709.88
  0
LINE
  8
0
 10
-365.25
 11
-365.195
 20
56.71
 21
57.2
  0
LINE
  8
0
 10
-365.195
 11
-365.032
 20
57.2
 21
57.665
  0
LINE
  8
0
 10
-365.032
 11
-364.77
 20
57.665
 21
58.082
  0
LINE
  8
0
 10
-364.77
 11
-364.422
 20
58.082
 21
58.43
  0
LINE
  8
0
 10
-364.422
 11
-364.005
 20
58.43
 21
58.692
  0
LINE
  8
0
 10
-364.005
 11
-363.54
 20
58.692
 21
58.855
  0
LINE
  8
0
 10
-363.54
 11
-363.05
 20
58.855
 21
58.91
  0
LINE
  8
0
 10
-363.05
 11
-362.56
 20
58.91
 21
58.855
  0
LINE
  8
0
 10
-362.56
 11
-362.095
 20
58.855
 21
58.692
  0
LINE
  8
0
 10
-362.095
 11
-361.678
 20
58.692
 21
58.43
  0
LINE
  8
0
 10
-361.678
 11
-361.33
 20
58.43
 21
58.082
  0
LINE
  8
0
 10
-361.33
 11
-361.068
 20
58.082
 21
57.665
  0
LINE
  8
0
 10
-361.068
 11
-360.905
 20
57.665
 21
57.2
  0
LINE
  8
0
 10
-360.905
 11
-360.85
 20
57.2
 21
56.71
  0
LINE
  8
0
 10
-360.85
 11
-360.905
 20
56.71
 21
56.22
  0
LINE
  8
0
 10
-360.905
 11
-361.068
 20
56.22
 21
55.755
  0
LINE
  8
0
 10
-361.068
 11
-361.33
 20
55.755
 21
55.338
  0
LINE
  8
0
 10
-361.33
 11
-361.678
 20
55.338
 21
54.99
  0
LINE
  8
0
 10
-361.678
 11
-362.095
 20
54.99
 21
54.728
  0
LINE
  8
0
 10
-362.095
 11
-362.56
 20
54.728
 21
54.565
  0
LINE
  8
0
 10
-362.56
 11
-363.05
 20
54.565
 21
54.51
  0
LINE
  8
0
 10
-363.05
 11
-363.54
 20
54.51
 21
54.565
  0
LINE
  8
0
 10
-363.54
 11
-364.005
 20
54.565
 21
54.728
  0
LINE
  8
0
 10
-364.005
 11
-364.422
 20
54.728
 21
54.99
  0
LINE
  8
0
 10
-364.422
 11
-364.77
 20
54.99
 21
55.338
  0
LINE
  8
0
 10
-364.77
 11
-365.032
 20
55.338
 21
55.755
  0
LINE
  8
0
 10
-365.032
 11
-365.195
 20
55.755
 21
56.22
  0
LINE
  8
0
 10
-365.195
 11
-365.25
 20
56.22
 21
56.71
  0
LINE
  8
0
 10
-365.25
 11
-365.195
 20
752.29
 21
752.78
  0
LINE
  8
0
 10
-365.195
 11
-365.032
 20
752.78
 21
753.245
  0
LINE
  8
0
 10
-365.032
 11
-364.77
 20
753.245
 21
753.662
  0
LINE
  8
0
 10
-364.77
 11
-364.422
 20
753.662
 21
754.01
  0
LINE
  8
0
 10
-364.422
 11
-364.005
 20
754.01
 21
754.272
  0
LINE
  8
0
 10
-364.005
 11
-363.54
 20
754.272
 21
754.435
  0
LINE
  8
0
 10
-363.54
 11
-363.05
 20
754.435
 21
754.49
  0
LINE
  8
0
 10
-363.05
 11
-362.56
 20
754.49
 21
754.435
  0
LINE
  8
0
 10
-362.56
 11
-362.095
 20
754.435
 21
754.272
  0
LINE
  8
0
 10
-362.095
 11
-361.678
 20
754.272
 21
754.01
  0
LINE
  8
0
 10
-361.678
 11
-361.33
 20
754.01
 21
753.662
  0
LINE
  8
0
 10
-361.33
 11
-361.068
 20
753.662
 21
753.245
  0
LINE
  8
0
 10
-361.068
 11
-360.905
 20
753.245
 21
752.78
  0
LINE
  8
0
 10
-360.905
 11
-360.85
 20
752.78
 21
752.29
  0
LINE
  8
0
 10
-360.85
 11
-360.905
 20
752.29
 21
751.8
  0
LINE
  8
0
 10
-360.905
 11
-361.068
 20
751.8
 21
751.335
  0
LINE
  8
0
 10
-361.068
 11
-361.33
 20
751.335
 21
750.918
  0
LINE
  8
0
 10
-361.33
 11
-361.678
 20
750.918
 21
750.57
  0
LINE
  8
0
 10
-361.678
 11
-362.095
 20
750.57
 21
750.308
  0
LINE
  8
0
 10
-362.095
 11
-362.56
 20
750.308
 21
750.145
  0
LINE
  8
0
 10
-362.56
 11
-363.05
 20
750.145
 21
750.09
  0
LINE
  8
0
 10
-363.05
 11
-363.54
 20
750.09
 21
750.145
  0
LINE
  8
0
 10
-363.54
 11
-364.005
 20
750.145
 21
750.308
  0
LINE
  8
0
 10
-364.005
 11
-364.422
 20
750.308
 21
750.57
  0
LINE
  8
0
 10
-364.422
 11
-364.77
 20
750.57
 21
750.918
  0
LINE
  8
0
 10
-364.77
 11
-365.032
 20
750.918
 21
751.335
  0
LINE
  8
0
 10
-365.032
 11
-365.195
 20
751.335
 21
751.8
  0
LINE
  8
0
 10
-365.195
 11
-365.25
 20
751.8
 21
752.29
  0
LINE
  8
0
 10
-356.45
 11
-356.395
 20
796.5
 21
796.99
  0
LINE
  8
0
 10
-356.395
 11
-356.232
 20
796.99
 21
797.455
  0
LINE
  8
0
 10
-356.232
 11
-355.97
 20
797.455
 21
797.872
  0
LINE
  8
0
 10
-355.97
 11
-355.622
 20
797.872
 21
798.22
  0
LINE
  8
0
 10
-355.622
 11
-355.205
 20
798.22
 21
798.482
  0
LINE
  8
0
 10
-355.205
 11
-354.74
 20
798.482
 21
798.645
  0
LINE
  8
0
 10
-354.74
 11
-354.25
 20
798.645
 21
798.7
  0
LINE
  8
0
 10
-354.25
 11
-353.76
 20
798.7
 21
798.645
  0
LINE
  8
0
 10
-353.76
 11
-353.295
 20
798.645
 21
798.482
  0
LINE
  8
0
 10
-353.295
 11
-352.878
 20
798.482
 21
798.22
  0
LINE
  8
0
 10
-352.878
 11
-352.53
 20
798.22
 21
797.872
  0
LINE
  8
0
 10
-352.53
 11
-352.268
 20
797.872
 21
797.455
  0
LINE
  8
0
 10
-352.268
 11
-352.105
 20
797.455
 21
796.99
  0
LINE
  8
0
 10
-352.105
 11
-352.05
 20
796.99
 21
796.5
  0
LINE
  8
0
 10
-352.05
 11
-352.105
 20
796.5
 21
796.01
  0
LINE
  8
0
 10
-352.105
 11
-352.268
 20
796.01
 21
795.545
  0
LINE
  8
0
 10
-352.268
 11
-352.53
 20
795.545
 21
795.128
  0
LINE
  8
0
 10
-352.53
 11
-352.878
 20
795.128
 21
794.78
  0
LINE
  8
0
 10
-352.878
 11
-353.295
 20
794.78
 21
794.518
  0
LINE
  8
0
 10
-353.295
 11
-353.76
 20
794.518
 21
794.355
  0
LINE
  8
0
 10
-353.76
 11
-354.25
 20
794.355
 21
794.3
  0
LINE
  8
0
 10
-354.25
 11
-354.74
 20
794.3
 21
794.355
  0
LINE
  8
0
 10
-354.74
 11
-355.205
 20
794.355
 21
794.518
  0
LINE
  8
0
 10
-355.205
 11
-355.622
 20
794.518
 21
794.78
  0
LINE
  8
0
 10
-355.622
 11
-355.97
 20
794.78
 21
795.128
  0
LINE
  8
0
 10
-355.97
 11
-356.232
 20
795.128
 21
795.545
  0
LINE
  8
0
 10
-356.232
 11
-356.395
 20
795.545
 21
796.01
  0
LINE
  8
0
 10
-356.395
 11
-356.45
 20
796.01
 21
796.5
  0
LINE
  8
0
 10
-347.65
 11
-347.595
 20
12.2
 21
12.69
  0
LINE
  8
0
 10
-347.595
 11
-347.432
 20
12.69
 21
13.155
  0
LINE
  8
0
 10
-347.432
 11
-347.17
 20
13.155
 21
13.572
  0
LINE
  8
0
 10
-347.17
 11
-346.822
 20
13.572
 21
13.92
  0
LINE
  8
0
 10
-346.822
 11
-346.405
 20
13.92
 21
14.182
  0
LINE
  8
0
 10
-346.405
 11
-345.94
 20
14.182
 21
14.345
  0
LINE
  8
0
 10
-345.94
 11
-345.45
 20
14.345
 21
14.4
  0
LINE
  8
0
 10
-345.45
 11
-344.96
 20
14.4
 21
14.345
  0
LINE
  8
0
 10
-344.96
 11
-344.495
 20
14.345
 21
14.182
  0
LINE
  8
0
 10
-344.495
 11
-344.078
 20
14.182
 21
13.92
  0
LINE
  8
0
 10
-344.078
 11
-343.73
 20
13.92
 21
13.572
  0
LINE
  8
0
 10
-343.73
 11
-343.468
 20
13.572
 21
13.155
  0
LINE
  8
0
 10
-343.468
 11
-343.305
 20
13.155
 21
12.69
  0
LINE
  8
0
 10
-343.305
 11
-343.25
 20
12.69
 21
12.2
  0
LINE
  8
0
 10
-343.25
 11
-343.305
 20
12.2
 21
11.71
  0
LINE
  8
0
 10
-343.305
 11
-343.468
 20
11.71
 21
11.245
  0
LINE
  8
0
 10
-343.468
 11
-343.73
 20
11.245
 21
10.828
  0
LINE
  8
0
 10
-343.73
 11
-344.078
 20
10.828
 21
10.48
  0
LINE
  8
0
 10
-344.078
 11
-344.495
 20
10.48
 21
10.218
  0
LINE
  8
0
 10
-344.495
 11
-344.96
 20
10.218
 21
10.055
  0
LINE
  8
0
 10
-344.96
 11
-345.45
 20
10.055
 21
10
  0
LINE
  8
0
 10
-345.45
 11
-345.94
 20
10
 21
10.055
  0
LINE
  8
0
 10
-345.94
 11
-346.405
 20
10.055
 21
10.218
  0
LINE
  8
0
 10
-346.405
 11
-346.822
 20
10.218
 21
10.48
  0
LINE
  8
0
 10
-346.822
 11
-347.17
 20
10.48
 21
10.828
  0
LINE
  8
0
 10
-347.17
 11
-347.432
 20
10.828
 21
11.245
  0
LINE
  8
0
 10
-347.432
 11
-347.595
 20
11.245
 21
11.71
  0
LINE
  8
0
 10
-347.595
 11
-347.65
 20
11.71
 21
12.2
  0
LINE
  8
0
 10
-315.25
 11
-315.209
 20
615
 21
615.494
  0
LINE
  8
0
 10
-315.209
 11
-315.087
 20
615.494
 21
615.974
  0
LINE
  8
0
 10
-315.087
 11
-314.888
 20
615.974
 21
616.428
  0
LINE
  8
0
 10
-314.888
 11
-314.617
 20
616.428
 21
616.843
  0
LINE
  8
0
 10
-314.617
 11
-314.282
 20
616.843
 21
617.207
  0
LINE
  8
0
 10
-314.282
 11
-313.891
 20
617.207
 21
617.511
  0
LINE
  8
0
 10
-313.891
 11
-313.455
 20
617.511
 21
617.747
  0
LINE
  8
0
 10
-313.455
 11
-312.986
 20
617.747
 21
617.908
  0
LINE
  8
0
 10
-312.986
 11
-312.498
 20
617.908
 21
617.99
  0
LINE
  8
0
 10
-312.498
 11
-24.76
 20
617.99
 21
617.995
  0
LINE
  8
0
 10
-24.76
 11
-24.76
 20
617.995
 21
609
  0
LINE
  8
0
 10
-24.76
 11
12.26
 20
609
 21
609
  0
LINE
  8
0
 10
12.26
 11
12.26
 20
609
 21
617.995
  0
LINE
  8
0
 10
12.26
 11
299.75
 20
617.995
 21
618
  0
LINE
  8
0
 10
299.75
 11
300.244
 20
618
 21
617.959
  0
LINE
  8
0
 10
300.244
 11
300.724
 20
617.959
 21
617.837
  0
LINE
  8
0
 10
300.724
 11
301.178
 20
617.837
 21
617.638
  0
LINE
  8
0
 10
301.178
 11
301.593
 20
617.638
 21
617.367
  0
LINE
  8
0
 10
301.593
 11
301.957
 20
617.367
 21
617.032
  0
LINE
  8
0
 10
301.957
 11
302.261
 20
617.032
 21
616.641
  0
LINE
  8
0
 10
302.261
 11
302.497
 20
616.641
 21
616.205
  0
LINE
  8
0
 10
302.497
 11
302.658
 20
616.205
 21
615.736
  0
LINE
  8
0
 10
302.658
 11
302.74
 20
615.736
 21
615.248
  0
LINE
  8
0
 10
302.74
 11
302.75
 20
615.248
 21
3
  0
LINE
  8
0
 10
302.75
 11
302.709
 20
3
 21
2.506
  0
LINE
  8
0
 10
302.709
 11
302.587
 20
2.506
 21
2.026
  0
LINE
  8
0
 10
302.587
 11
302.388
 20
2.026
 21
1.572
  0
LINE
  8
0
 10
302.388
 11
302.117
 20
1.572
 21
1.157
  0
LINE
  8
0
 10
302.117
 11
301.782
 20
1.157
 21
0.793
  0
LINE
  8
0
 10
301.782
 11
301.391
 20
0.793
 21
0.489
  0
LINE
  8
0
 10
301.391
 11
300.955
 20
0.489
 21
0.253
  0
LINE
  8
0
 10
300.955
 11
300.486
 20
0.253
 21
0.092
  0
LINE
  8
0
 10
300.486
 11
299.998
 20
0.092
 21
0.01
  0
LINE
  8
0
 10
299.998
 11
-312.25
 20
0.01
 21
0
  0
LINE
  8
0
 10
-312.25
 11
-312.744
 20
0
 21
0.041
  0
LINE
  8
0
 10
-312.744
 11
-313.224
 20
0.041
 21
0.163
  0
LINE
  8
0
 10
-313.224
 11
-313.678
 20
0.163
 21
0.362
  0
LINE
  8
0
 10
-313.678
 11
-314.093
 20
0.362
 21
0.633
  0
LINE
  8
0
 10
-314.093
 11
-314.457
 20
0.633
 21
0.968
  0
LINE
  8
0
 10
-314.457
 11
-314.761
 20
0.968
 21
1.359
  0
LINE
  8
0
 10
-314.761
 11
-314.997
 20
1.359
 21
1.795
  0
LINE
  8
0
 10
-314.997
 11
-315.158
 20
1.795
 21
2.264
  0
LINE
  8
0
 10
-315.158
 11
-315.24
 20
2.264
 21
2.752
  0
LINE
  8
0
 10
-315.24
 11
-315.25
 20
2.752
 21
615
  0
LINE
  8
0
 10
-312.5
 11
-312.405
 20
4
 21
4.478
  0
LINE
  8
0
 10
-312.405
 11
-312.134
 20
4.478
 21
4.884
  0
LINE
  8
0
 10
-312.134
 11
-311.728
 20
4.884
 21
5.155
  0
LINE
  8
0
 10
-311.728
 11
-311.25
 20
5.155
 21
5.25
  0
LINE
  8
0
 10
-311.25
 11
-310.772
 20
5.25
 21
5.155
  0
LINE
  8
0
 10
-310.772
 11
-310.366
 20
5.155
 21
4.884
  0
LINE
  8
0
 10
-310.366
 11
-310.095
 20
4.884
 21
4.478
  0
LINE
  8
0
 10
-310.095
 11
-310
 20
4.478
 21
4
  0
LINE
  8
0
 10
-310
 11
-310.095
 20
4
 21
3.522
  0
LINE
  8
0
 10
-310.095
 11
-310.366
 20
3.522
 21
3.116
  0
LINE
  8
0
 10
-310.366
 11
-310.772
 20
3.116
 21
2.845
  0
LINE
  8
0
 10
-310.772
 11
-311.25
 20
2.845
 21
2.75
  0
LINE
  8
0
 10
-311.25
 11
-311.728
 20
2.75
 21
2.845
  0
LINE
  8
0
 10
-311.728
 11
-312.134
 20
2.845
 21
3.116
  0
LINE
  8
0
 10
-312.134
 11
-312.405
 20
3.116
 21
3.522
  0
LINE
  8
0
 10
-312.405
 11
-312.5
 20
3.522
 21
4
  0
LINE
  8
0
 10
-312.5
 11
-312.405
 20
614
 21
614.478
  0
LINE
  8
0
 10
-312.405
 11
-312.134
 20
614.478
 21
614.884
  0
LINE
  8
0
 10
-312.134
 11
-311.728
 20
614.884
 21
615.155
  0
LINE
  8
0
 10
-311.728
 11
-311.25
 20
615.155
 21
615.25
  0
LINE
  8
0
 10
-311.25
 11
-310.772
 20
615.25
 21
615.155
  0
LINE
  8
0
 10
-310.772
 11
-310.366
 20
615.155
 21
614.884
  0
LINE
  8
0
 10
-310.366
 11
-310.095
 20
614.884
 21
614.478
  0
LINE
  8
0
 10
-310.095
 11
-310
 20
614.478
 21
614
  0
LINE
  8
0
 10
-310
 11
-310.095
 20
614
 21
613.522
  0
LINE
  8
0
 10
-310.095
 11
-310.366
 20
613.522
 21
613.116
  0
LINE
  8
0
 10
-310.366
 11
-310.772
 20
613.116
 21
612.845
  0
LINE
  8
0
 10
-310.772
 11
-311.25
 20
612.845
 21
612.75
  0
LINE
  8
0
 10
-311.25
 11
-311.728
 20
612.75
 21
612.845
  0
LINE
  8
0
 10
-311.728
 11
-312.134
 20
612.845
 21
613.116
  0
LINE
  8
0
 10
-312.134
 11
-312.405
 20
613.116
 21
613.522
  0
LINE
  8
0
 10
-312.405
 11
-312.5
 20
613.522
 21
614
  0
LINE
  8
0
 10
-216.08
 11
-216.043
 20
32.5
 21
32.992
  0
LINE
  8
0
 10
-216.043
 11
-215.933
 20
32.992
 21
33.473
  0
LINE
  8
0
 10
-215.933
 11
-215.753
 20
33.473
 21
33.932
  0
LINE
  8
0
 10
-215.753
 11
-215.507
 20
33.932
 21
34.359
  0
LINE
  8
0
 10
-215.507
 11
-215.199
 20
34.359
 21
34.745
  0
LINE
  8
0
 10
-215.199
 11
-214.838
 20
34.745
 21
35.08
  0
LINE
  8
0
 10
-214.838
 11
-214.43
 20
35.08
 21
35.358
  0
LINE
  8
0
 10
-214.43
 11
-213.986
 20
35.358
 21
35.572
  0
LINE
  8
0
 10
-213.986
 11
-213.514
 20
35.572
 21
35.717
  0
LINE
  8
0
 10
-213.514
 11
-213.027
 20
35.717
 21
35.791
  0
LINE
  8
0
 10
-213.027
 11
-212.533
 20
35.791
 21
35.791
  0
LINE
  8
0
 10
-212.533
 11
-212.046
 20
35.791
 21
35.717
  0
LINE
  8
0
 10
-212.046
 11
-211.574
 20
35.717
 21
35.572
  0
LINE
  8
0
 10
-211.574
 11
-211.13
 20
35.572
 21
35.358
  0
LINE
  8
0
 10
-211.13
 11
-210.722
 20
35.358
 21
35.08
  0
LINE
  8
0
 10
-210.722
 11
-210.361
 20
35.08
 21
34.745
  0
LINE
  8
0
 10
-210.361
 11
-210.053
 20
34.745
 21
34.359
  0
LINE
  8
0
 10
-210.053
 11
-209.807
 20
34.359
 21
33.932
  0
LINE
  8
0
 10
-209.807
 11
-209.627
 20
33.932
 21
33.473
  0
LINE
  8
0
 10
-209.627
 11
-209.517
 20
33.473
 21
32.992
  0
LINE
  8
0
 10
-209.517
 11
-209.48
 20
32.992
 21
32.5
  0
LINE
  8
0
 10
-209.48
 11
-209.517
 20
32.5
 21
32.008
  0
LINE
  8
0
 10
-209.517
 11
-209.627
 20
32.008
 21
31.527
  0
LINE
  8
0
 10
-209.627
 11
-209.807
 20
31.527
 21
31.068
  0
LINE
  8
0
 10
-209.807
 11
-210.053
 20
31.068
 21
30.641
  0
LINE
  8
0
 10
-210.053
 11
-210.361
 20
30.641
 21
30.255
  0
LINE
  8
0
 10
-210.361
 11
-210.722
 20
30.255
 21
29.92
  0
LINE
  8
0
 10
-210.722
 11
-211.13
 20
29.92
 21
29.642
  0
LINE
  8
0
 10
-211.13
 11
-211.574
 20
29.642
 21
29.428
  0
LINE
  8
0
 10
-211.574
 11
-212.046
 20
29.428
 21
29.283
  0
LINE
  8
0
 10
-212.046
 11
-212.533
 20
29.283
 21
29.209
  0
LINE
  8
0
 10
-212.533
 11
-213.027
 20
29.209
 21
29.209
  0
LINE
  8
0
 10
-213.027
 11
-213.514
 20
29.209
 21
29.283
  0
LINE
  8
0
 10
-213.514
 11
-213.986
 20
29.283
 21
29.428
  0
LINE
  8
0
 10
-213.986
 11
-214.43
 20
29.428
 21
29.642
  0
LINE
  8
0
 10
-214.43
 11
-214.838
 20
29.642
 21
29.92
  0
LINE
  8
0
 10
-214.838
 11
-215.199
 20
29.92
 21
30.255
  0
LINE
  8
0
 10
-215.199
 11
-215.507
 20
30.255
 21
30.641
  0
LINE
  8
0
 10
-215.507
 11
-215.753
 20
30.641
 21
31.068
  0
LINE
  8
0
 10
-215.753
 11
-215.933
 20
31.068
 21
31.527
  0
LINE
  8
0
 10
-215.933
 11
-216.043
 20
31.527
 21
32.008
  0
LINE
  8
0
 10
-216.043
 11
-216.08
 20
32.008
 21
32.5
  0
LINE
  8
0
 10
-216.08
 11
-216.043
 20
559.5
 21
559.992
  0
LINE
  8
0
 10
-216.043
 11
-215.933
 20
559.992
 21
560.473
  0
LINE
  8
0
 10
-215.933
 11
-215.753
 20
560.473
 21
560.932
  0
LINE
  8
0
 10
-215.753
 11
-215.507
 20
560.932
 21
561.359
  0
LINE
  8
0
 10
-215.507
 11
-215.199
 20
561.359
 21
561.745
  0
LINE
  8
0
 10
-215.199
 11
-214.838
 20
561.745
 21
562.08
  0
LINE
  8
0
 10
-214.838
 11
-214.43
 20
562.08
 21
562.358
  0
LINE
  8
0
 10
-214.43
 11
-213.986
 20
562.358
 21
562.572
  0
LINE
  8
0
 10
-213.986
 11
-213.514
 20
562.572
 21
562.717
  0
LINE
  8
0
 10
-213.514
 11
-213.027
 20
562.717
 21
562.791
  0
LINE
  8
0
 10
-213.027
 11
-212.533
 20
562.791
 21
562.791
  0
LINE
  8
0
 10
-212.533
 11
-212.046
 20
562.791
 21
562.717
  0
LINE
  8
0
 10
-212.046
 11
-211.574
 20
562.717
 21
562.572
  0
LINE
  8
0
 10
-211.574
 11
-211.13
 20
562.572
 21
562.358
  0
LINE
  8
0
 10
-211.13
 11
-210.722
 20
562.358
 21
562.08
  0
LINE
  8
0
 10
-210.722
 11
-210.361
 20
562.08
 21
561.745
  0
LINE
  8
0
 10
-210.361
 11
-210.053
 20
561.745
 21
561.359
  0
LINE
  8
0
 10
-210.053
 11
-209.807
 20
561.359
 21
560.932
  0
LINE
  8
0
 10
-209.807
 11
-209.627
 20
560.932
 21
560.473
  0
LINE
  8
0
 10
-209.627
 11
-209.517
 20
560.473
 21
559.992
  0
LINE
  8
0
 10
-209.517
 11
-209.48
 20
559.992
 21
559.5
  0
LINE
  8
0
 10
-209.48
 11
-209.517
 20
559.5
 21
559.008
  0
LINE
  8
0
 10
-209.517
 11
-209.627
 20
559.008
 21
558.527
  0
LINE
  8
0
 10
-209.627
 11
-209.807
 20
558.527
 21
558.068
  0
LINE
  8
0
 10
-209.807
 11
-210.053
 20
558.068
 21
557.641
  0
LINE
  8
0
 10
-210.053
 11
-210.361
 20
557.641
 21
557.255
  0
LINE
  8
0
 10
-210.361
 11
-210.722
 20
557.255
 21
556.92
  0
LINE
  8
0
 10
-210.722
 11
-211.13
 20
556.92
 21
556.642
  0
LINE
  8
0
 10
-211.13
 11
-211.574
 20
556.642
 21
556.428
  0
LINE
  8
0
 10
-211.574
 11
-212.046
 20
556.428
 21
556.283
  0
LINE
  8
0
 10
-212.046
 11
-212.533
 20
556.283
 21
556.209
  0
LINE
  8
0
 10
-212.533
 11
-213.027
 20
556.209
 21
556.209
  0
LINE
  8
0
 10
-213.027
 11
-213.514
 20
556.209
 21
556.283
  0
LINE
  8
0
 10
-213.514
 11
-213.986
 20
556.283
 21
556.428
  0
LINE
  8
0
 10
-213.986
 11
-214.43
 20
556.428
 21
556.642
  0
LINE
  8
0
 10
-214.43
 11
-214.838
 20
556.642
 21
556.92
  0
LINE
  8
0
 10
-214.838
 11
-215.199
 20
556.92
 21
557.255
  0
LINE
  8
0
 10
-215.199
 11
-215.507
 20
557.255
 21
557.641
  0
LINE
  8
0
 10
-215.507
 11
-215.753
 20
557.641
 21
558.068
  0
LINE
  8
0
 10
-215.753
 11
-215.933
 20
558.068
 21
558.527
  0
LINE
  8
0
 10
-215.933
 11
-216.043
 20
558.527
 21
559.008
  0
LINE
  8
0
 10
-216.043
 11
-216.08
 20
559.008
 21
559.5
  0
LINE
  8
0
 10
-160.08
 11
-160.043
 20
58.5
 21
58.992
  0
LINE
  8
0
 10
-160.043
 11
-159.933
 20
58.992
 21
59.473
  0
LINE
  8
0
 10
-159.933
 11
-159.753
 20
59.473
 21
59.932
  0
LINE
  8
0
 10
-159.753
 11
-159.507
 20
59.932
 21
60.359
  0
LINE
  8
0
 10
-159.507
 11
-159.199
 20
60.359
 21
60.745
  0
LINE
  8
0
 10
-159.199
 11
-158.838
 20
60.745
 21
61.08
  0
LINE
  8
0
 10
-158.838
 11
-158.43
 20
61.08
 21
61.358
  0
LINE
  8
0
 10
-158.43
 11
-157.986
 20
61.358
 21
61.572
  0
LINE
  8
0
 10
-157.986
 11
-157.514
 20
61.572
 21
61.717
  0
LINE
  8
0
 10
-157.514
 11
-157.027
 20
61.717
 21
61.791
  0
LINE
  8
0
 10
-157.027
 11
-156.533
 20
61.791
 21
61.791
  0
LINE
  8
0
 10
-156.533
 11
-156.046
 20
61.791
 21
61.717
  0
LINE
  8
0
 10
-156.046
 11
-155.574
 20
61.717
 21
61.572
  0
LINE
  8
0
 10
-155.574
 11
-155.13
 20
61.572
 21
61.358
  0
LINE
  8
0
 10
-155.13
 11
-154.722
 20
61.358
 21
61.08
  0
LINE
  8
0
 10
-154.722
 11
-154.361
 20
61.08
 21
60.745
  0
LINE
  8
0
 10
-154.361
 11
-154.053
 20
60.745
 21
60.359
  0
LINE
  8
0
 10
-154.053
 11
-153.807
 20
60.359
 21
59.932
  0
LINE
  8
0
 10
-153.807
 11
-153.627
 20
59.932
 21
59.473
  0
LINE
  8
0
 10
-153.627
 11
-153.517
 20
59.473
 21
58.992
  0
LINE
  8
0
 10
-153.517
 11
-153.48
 20
58.992
 21
58.5
  0
LINE
  8
0
 10
-153.48
 11
-153.517
 20
58.5
 21
58.008
  0
LINE
  8
0
 10
-153.517
 11
-153.627
 20
58.008
 21
57.527
  0
LINE
  8
0
 10
-153.627
 11
-153.807
 20
57.527
 21
57.068
  0
LINE
  8
0
 10
-153.807
 11
-154.053
 20
57.068
 21
56.641
  0
LINE
  8
0
 10
-154.053
 11
-154.361
 20
56.641
 21
56.255
  0
LINE
  8
0
 10
-154.361
 11
-154.722
 20
56.255
 21
55.92
  0
LINE
  8
0
 10
-154.722
 11
-155.13
 20
55.92
 21
55.642
  0
LINE
  8
0
 10
-155.13
 11
-155.574
 20
55.642
 21
55.428
  0
LINE
  8
0
 10
-155.574
 11
-156.046
 20
55.428
 21
55.283
  0
LINE
  8
0
 10
-156.046
 11
-156.533
 20
55.283
 21
55.209
  0
LINE
  8
0
 10
-156.533
 11
-157.027
 20
55.209
 21
55.209
  0
LINE
  8
0
 10
-157.027
 11
-157.514
 20
55.209
 21
55.283
  0
LINE
  8
0
 10
-157.514
 11
-157.986
 20
55.283
 21
55.428
  0
LINE
  8
0
 10
-157.986
 11
-158.43
 20
55.428
 21
55.642
  0
LINE
  8
0
 10
-158.43
 11
-158.838
 20
55.642
 21
55.92
  0
LINE
  8
0
 10
-158.838
 11
-159.199
 20
55.92
 21
56.255
  0
LINE
  8
0
 10
-159.199
 11
-159.507
 20
56.255
 21
56.641
  0
LINE
  8
0
 10
-159.507
 11
-159.753
 20
56.641
 21
57.068
  0
LINE
  8
0
 10
-159.753
 11
-159.933
 20
57.068
 21
57.527
  0
LINE
  8
0
 10
-159.933
 11
-160.043
 20
57.527
 21
58.008
  0
LINE
  8
0
 10
-160.043
 11
-160.08
 20
58.008
 21
58.5
  0
LINE
  8
0
 10
-160.08
 11
-160.043
 20
585.5
 21
585.992
  0
LINE
  8
0
 10
-160.043
 11
-159.933
 20
585.992
 21
586.473
  0
LINE
  8
0
 10
-159.933
 11
-159.753
 20
586.473
 21
586.932
  0
LINE
  8
0
 10
-159.753
 11
-159.507
 20
586.932
 21
587.359
  0
LINE
  8
0
 10
-159.507
 11
-159.199
 20
587.359
 21
587.745
  0
LINE
  8
0
 10
-159.199
 11
-158.838
 20
587.745
 21
588.08
  0
LINE
  8
0
 10
-158.838
 11
-158.43
 20
588.08
 21
588.358
  0
LINE
  8
0
 10
-158.43
 11
-157.986
 20
588.358
 21
588.572
  0
LINE
  8
0
 10
-157.986
 11
-157.514
 20
588.572
 21
588.717
  0
LINE
  8
0
 10
-157.514
 11
-157.027
 20
588.717
 21
588.791
  0
LINE
  8
0
 10
-157.027
 11
-156.533
 20
588.791
 21
588.791
  0
LINE
  8
0
 10
-156.533
 11
-156.046
 20
588.791
 21
588.717
  0
LINE
  8
0
 10
-156.046
 11
-155.574
 20
588.717
 21
588.572
  0
LINE
  8
0
 10
-155.574
 11
-155.13
 20
588.572
 21
588.358
  0
LINE
  8
0
 10
-155.13
 11
-154.722
 20
588.358
 21
588.08
  0
LINE
  8
0
 10
-154.722
 11
-154.361
 20
588.08
 21
587.745
  0
LINE
  8
0
 10
-154.361
 11
-154.053
 20
587.745
 21
587.359
  0
LINE
  8
0
 10
-154.053
 11
-153.807
 20
587.359
 21
586.932
  0
LINE
  8
0
 10
-153.807
 11
-153.627
 20
586.932
 21
586.473
  0
LINE
  8
0
 10
-153.627
 11
-153.517
 20
586.473
 21
585.992
  0
LINE
  8
0
 10
-153.517
 11
-153.48
 20
585.992
 21
585.5
  0
LINE
  8
0
 10
-153.48
 11
-153.517
 20
585.5
 21
585.008
  0
LINE
  8
0
 10
-153.517
 11
-153.627
 20
585.008
 21
584.527
  0
LINE
  8
0
 10
-153.627
 11
-153.807
 20
584.527
 21
584.068
  0
LINE
  8
0
 10
-153.807
 11
-154.053
 20
584.068
 21
583.641
  0
LINE
  8
0
 10
-154.053
 11
-154.361
 20
583.641
 21
583.255
  0
LINE
  8
0
 10
-154.361
 11
-154.722
 20
583.255
 21
582.92
  0
LINE
  8
0
 10
-154.722
 11
-155.13
 20
582.92
 21
582.642
  0
LINE
  8
0
 10
-155.13
 11
-155.574
 20
582.642
 21
582.428
  0
LINE
  8
0
 10
-155.574
 11
-156.046
 20
582.428
 21
582.283
  0
LINE
  8
0
 10
-156.046
 11
-156.533
 20
582.283
 21
582.209
  0
LINE
  8
0
 10
-156.533
 11
-157.027
 20
582.209
 21
582.209
  0
LINE
  8
0
 10
-157.027
 11
-157.514
 20
582.209
 21
582.283
  0
LINE
  8
0
 10
-157.514
 11
-157.986
 20
582.283
 21
582.428
  0
LINE
  8
0
 10
-157.986
 11
-158.43
 20
582.428
 21
582.642
  0
LINE
  8
0
 10
-158.43
 11
-158.838
 20
582.642
 21
582.92
  0
LINE
  8
0
 10
-158.838
 11
-159.199
 20
582.92
 21
583.255
  0
LINE
  8
0
 10
-159.199
 11
-159.507
 20
583.255
 21
583.641
  0
LINE
  8
0
 10
-159.507
 11
-159.753
 20
583.641
 21
584.068
  0
LINE
  8
0
 10
-159.753
 11
-159.933
 20
584.068
 21
584.527
  0
LINE
  8
0
 10
-159.933
 11
-160.043
 20
584.527
 21
585.008
  0
LINE
  8
0
 10
-160.043
 11
-160.08
 20
585.008
 21
585.5
  0
LINE
  8
0
 10
-39.91
 11
-39.837
 20
53.035
 21
53.521
  0
LINE
  8
0
 10
-39.837
 11
-39.623
 20
53.521
 21
53.964
  0
LINE
  8
0
 10
-39.623
 11
-39.289
 20
53.964
 21
54.325
  0
LINE
  8
0
 10
-39.289
 11
-38.863
 20
54.325
 21
54.571
  0
LINE
  8
0
 10
-38.863
 11
-38.383
 20
54.571
 21
54.68
  0
LINE
  8
0
 10
-38.383
 11
-37.893
 20
54.68
 21
54.644
  0
LINE
  8
0
 10
-37.893
 11
-37.435
 20
54.644
 21
54.464
  0
LINE
  8
0
 10
-37.435
 11
-37.05
 20
54.464
 21
54.157
  0
LINE
  8
0
 10
-37.05
 11
-36.773
 20
54.157
 21
53.751
  0
LINE
  8
0
 10
-36.773
 11
-36.628
 20
53.751
 21
53.281
  0
LINE
  8
0
 10
-36.628
 11
-36.628
 20
53.281
 21
52.789
  0
LINE
  8
0
 10
-36.628
 11
-36.773
 20
52.789
 21
52.319
  0
LINE
  8
0
 10
-36.773
 11
-37.05
 20
52.319
 21
51.913
  0
LINE
  8
0
 10
-37.05
 11
-37.435
 20
51.913
 21
51.606
  0
LINE
  8
0
 10
-37.435
 11
-37.893
 20
51.606
 21
51.426
  0
LINE
  8
0
 10
-37.893
 11
-38.383
 20
51.426
 21
51.39
  0
LINE
  8
0
 10
-38.383
 11
-38.863
 20
51.39
 21
51.499
  0
LINE
  8
0
 10
-38.863
 11
-39.289
 20
51.499
 21
51.745
  0
LINE
  8
0
 10
-39.289
 11
-39.623
 20
51.745
 21
52.106
  0
LINE
  8
0
 10
-39.623
 11
-39.837
 20
52.106
 21
52.549
  0
LINE
  8
0
 10
-39.837
 11
-39.91
 20
52.549
 21
53.035
  0
LINE
  8
0
 10
-39.91
 11
-39.837
 20
88.265
 21
88.751
  0
LINE
  8
0
 10
-39.837
 11
-39.623
 20
88.751
 21
89.194
  0
LINE
  8
0
 10
-39.623
 11
-39.289
 20
89.194
 21
89.555
  0
LINE
  8
0
 10
-39.289
 11
-38.863
 20
89.555
 21
89.801
  0
LINE
  8
0
 10
-38.863
 11
-38.383
 20
89.801
 21
89.91
  0
LINE
  8
0
 10
-38.383
 11
-37.893
 20
89.91
 21
89.874
  0
LINE
  8
0
 10
-37.893
 11
-37.435
 20
89.874
 21
89.694
  0
LINE
  8
0
 10
-37.435
 11
-37.05
 20
89.694
 21
89.387
  0
LINE
  8
0
 10
-37.05
 11
-36.773
 20
89.387
 21
88.981
  0
LINE
  8
0
 10
-36.773
 11
-36.628
 20
88.981
 21
88.511
  0
LINE
  8
0
 10
-36.628
 11
-36.628
 20
88.511
 21
88.019
  0
LINE
  8
0
 10
-36.628
 11
-36.773
 20
88.019
 21
87.549
  0
LINE
  8
0
 10
-36.773
 11
-37.05
 20
87.549
 21
87.143
  0
LINE
  8
0
 10
-37.05
 11
-37.435
 20
87.143
 21
86.836
  0
LINE
  8
0
 10
-37.435
 11
-37.893
 20
86.836
 21
86.656
  0
LINE
  8
0
 10
-37.893
 11
-38.383
 20
86.656
 21
86.62
  0
LINE
  8
0
 10
-38.383
 11
-38.863
 20
86.62
 21
86.729
  0
LINE
  8
0
 10
-38.863
 11
-39.289
 20
86.729
 21
86.975
  0
LINE
  8
0
 10
-39.289
 11
-39.623
 20
86.975
 21
87.336
  0
LINE
  8
0
 10
-39.623
 11
-39.837
 20
87.336
 21
87.779
  0
LINE
  8
0
 10
-39.837
 11
-39.91
 20
87.779
 21
88.265
  0
LINE
  8
0
 10
-39.892
 11
-39.892
 20
525.639
 21
526.131
  0
LINE
  8
0
 10
-39.892
 11
-39.747
 20
526.131
 21
526.601
  0
LINE
  8
0
 10
-39.747
 11
-39.47
 20
526.601
 21
527.007
  0
LINE
  8
0
 10
-39.47
 11
-39.085
 20
527.007
 21
527.314
  0
LINE
  8
0
 10
-39.085
 11
-38.627
 20
527.314
 21
527.494
  0
LINE
  8
0
 10
-38.627
 11
-38.137
 20
527.494
 21
527.53
  0
LINE
  8
0
 10
-38.137
 11
-37.657
 20
527.53
 21
527.421
  0
LINE
  8
0
 10
-37.657
 11
-37.231
 20
527.421
 21
527.175
  0
LINE
  8
0
 10
-37.231
 11
-36.897
 20
527.175
 21
526.814
  0
LINE
  8
0
 10
-36.897
 11
-36.683
 20
526.814
 21
526.371
  0
LINE
  8
0
 10
-36.683
 11
-36.61
 20
526.371
 21
525.885
  0
LINE
  8
0
 10
-36.61
 11
-36.683
 20
525.885
 21
525.399
  0
LINE
  8
0
 10
-36.683
 11
-36.897
 20
525.399
 21
524.956
  0
LINE
  8
0
 10
-36.897
 11
-37.231
 20
524.956
 21
524.595
  0
LINE
  8
0
 10
-37.231
 11
-37.657
 20
524.595
 21
524.349
  0
LINE
  8
0
 10
-37.657
 11
-38.137
 20
524.349
 21
524.24
  0
LINE
  8
0
 10
-38.137
 11
-38.627
 20
524.24
 21
524.276
  0
LINE
  8
0
 10
-38.627
 11
-39.085
 20
524.276
 21
524.456
  0
LINE
  8
0
 10
-39.085
 11
-39.47
 20
524.456
 21
524.763
  0
LINE
  8
0
 10
-39.47
 11
-39.747
 20
524.763
 21
525.169
  0
LINE
  8
0
 10
-39.747
 11
-39.892
 20
525.169
 21
525.639
  0
LINE
  8
0
 10
-39.892
 11
-39.892
 20
560.869
 21
561.361
  0
LINE
  8
0
 10
-39.892
 11
-39.747
 20
561.361
 21
561.831
  0
LINE
  8
0
 10
-39.747
 11
-39.47
 20
561.831
 21
562.237
  0
LINE
  8
0
 10
-39.47
 11
-39.085
 20
562.237
 21
562.544
  0
LINE
  8
0
 10
-39.085
 11
-38.627
 20
562.544
 21
562.724
  0
LINE
  8
0
 10
-38.627
 11
-38.137
 20
562.724
 21
562.76
  0
LINE
  8
0
 10
-38.137
 11
-37.657
 20
562.76
 21
562.651
  0
LINE
  8
0
 10
-37.657
 11
-37.231
 20
562.651
 21
562.405
  0
LINE
  8
0
 10
-37.231
 11
-36.897
 20
562.405
 21
562.044
  0
LINE
  8
0
 10
-36.897
 11
-36.683
 20
562.044
 21
561.601
  0
LINE
  8
0
 10
-36.683
 11
-36.61
 20
561.601
 21
561.115
  0
LINE
  8
0
 10
-36.61
 11
-36.683
 20
561.115
 21
560.629
  0
LINE
  8
0
 10
-36.683
 11
-36.897
 20
560.629
 21
560.186
  0
LINE
  8
0
 10
-36.897
 11
-37.231
 20
560.186
 21
559.825
  0
LINE
  8
0
 10
-37.231
 11
-37.657
 20
559.825
 21
559.579
  0
LINE
  8
0
 10
-37.657
 11
-38.137
 20
559.579
 21
559.47
  0
LINE
  8
0
 10
-38.137
 11
-38.627
 20
559.47
 21
559.506
  0
LINE
  8
0
 10
-38.627
 11
-39.085
 20
559.506
 21
559.686
  0
LINE
  8
0
 10
-39.085
 11
-39.47
 20
559.686
 21
559.993
  0
LINE
  8
0
 10
-39.47
 11
-39.747
 20
559.993
 21
560.399
  0
LINE
  8
0
 10
-39.747
 11
-39.892
 20
560.399
 21
560.869
  0
LINE
  8
0
 10
-31.86
 11
-31.823
 20
600
 21
600.492
  0
LINE
  8
0
 10
-31.823
 11
-31.713
 20
600.492
 21
600.973
  0
LINE
  8
0
 10
-31.713
 11
-31.533
 20
600.973
 21
601.432
  0
LINE
  8
0
 10
-31.533
 11
-31.287
 20
601.432
 21
601.859
  0
LINE
  8
0
 10
-31.287
 11
-30.979
 20
601.859
 21
602.245
  0
LINE
  8
0
 10
-30.979
 11
-30.618
 20
602.245
 21
602.58
  0
LINE
  8
0
 10
-30.618
 11
-30.21
 20
602.58
 21
602.858
  0
LINE
  8
0
 10
-30.21
 11
-29.766
 20
602.858
 21
603.072
  0
LINE
  8
0
 10
-29.766
 11
-29.294
 20
603.072
 21
603.217
  0
LINE
  8
0
 10
-29.294
 11
-28.807
 20
603.217
 21
603.291
  0
LINE
  8
0
 10
-28.807
 11
-28.313
 20
603.291
 21
603.291
  0
LINE
  8
0
 10
-28.313
 11
-27.826
 20
603.291
 21
603.217
  0
LINE
  8
0
 10
-27.826
 11
-27.354
 20
603.217
 21
603.072
  0
LINE
  8
0
 10
-27.354
 11
-26.91
 20
603.072
 21
602.858
  0
LINE
  8
0
 10
-26.91
 11
-26.502
 20
602.858
 21
602.58
  0
LINE
  8
0
 10
-26.502
 11
-26.141
 20
602.58
 21
602.245
  0
LINE
  8
0
 10
-26.141
 11
-25.833
 20
602.245
 21
601.859
  0
LINE
  8
0
 10
-25.833
 11
-25.587
 20
601.859
 21
601.432
  0
LINE
  8
0
 10
-25.587
 11
-25.407
 20
601.432
 21
600.973
  0
LINE
  8
0
 10
-25.407
 11
-25.297
 20
600.973
 21
600.492
  0
LINE
  8
0
 10
-25.297
 11
-25.26
 20
600.492
 21
600
  0
LINE
  8
0
 10
-25.26
 11
-25.297
 20
600
 21
599.508
  0
LINE
  8
0
 10
-25.297
 11
-25.407
 20
599.508
 21
599.027
  0
LINE
  8
0
 10
-25.407
 11
-25.587
 20
599.027
 21
598.568
  0
LINE
  8
0
 10
-25.587
 11
-25.833
 20
598.568
 21
598.141
  0
LINE
  8
0
 10
-25.833
 11
-26.141
 20
598.141
 21
597.755
  0
LINE
  8
0
 10
-26.141
 11
-26.502
 20
597.755
 21
597.42
  0
LINE
  8
0
 10
-26.502
 11
-26.91
 20
597.42
 21
597.142
  0
LINE
  8
0
 10
-26.91
 11
-27.354
 20
597.142
 21
596.928
  0
LINE
  8
0
 10
-27.354
 11
-27.826
 20
596.928
 21
596.783
  0
LINE
  8
0
 10
-27.826
 11
-28.313
 20
596.783
 21
596.709
  0
LINE
  8
0
 10
-28.313
 11
-28.807
 20
596.709
 21
596.709
  0
LINE
  8
0
 10
-28.807
 11
-29.294
 20
596.709
 21
596.783
  0
LINE
  8
0
 10
-29.294
 11
-29.766
 20
596.783
 21
596.928
  0
LINE
  8
0
 10
-29.766
 11
-30.21
 20
596.928
 21
597.142
  0
LINE
  8
0
 10
-30.21
 11
-30.618
 20
597.142
 21
597.42
  0
LINE
  8
0
 10
-30.618
 11
-30.979
 20
597.42
 21
597.755
  0
LINE
  8
0
 10
-30.979
 11
-31.287
 20
597.755
 21
598.141
  0
LINE
  8
0
 10
-31.287
 11
-31.533
 20
598.141
 21
598.568
  0
LINE
  8
0
 10
-31.533
 11
-31.713
 20
598.568
 21
599.027
  0
LINE
  8
0
 10
-31.713
 11
-31.823
 20
599.027
 21
599.508
  0
LINE
  8
0
 10
-31.823
 11
-31.86
 20
599.508
 21
600
  0
LINE
  8
0
 10
12.76
 11
12.797
 20
600
 21
600.492
  0
LINE
  8
0
 10
12.797
 11
12.907
 20
600.492
 21
600.973
  0
LINE
  8
0
 10
12.907
 11
13.087
 20
600.973
 21
601.432
  0
LINE
  8
0
 10
13.087
 11
13.333
 20
601.432
 21
601.859
  0
LINE
  8
0
 10
13.333
 11
13.641
 20
601.859
 21
602.245
  0
LINE
  8
0
 10
13.641
 11
14.002
 20
602.245
 21
602.58
  0
LINE
  8
0
 10
14.002
 11
14.41
 20
602.58
 21
602.858
  0
LINE
  8
0
 10
14.41
 11
14.854
 20
602.858
 21
603.072
  0
LINE
  8
0
 10
14.854
 11
15.326
 20
603.072
 21
603.217
  0
LINE
  8
0
 10
15.326
 11
15.813
 20
603.217
 21
603.291
  0
LINE
  8
0
 10
15.813
 11
16.307
 20
603.291
 21
603.291
  0
LINE
  8
0
 10
16.307
 11
16.794
 20
603.291
 21
603.217
  0
LINE
  8
0
 10
16.794
 11
17.266
 20
603.217
 21
603.072
  0
LINE
  8
0
 10
17.266
 11
17.71
 20
603.072
 21
602.858
  0
LINE
  8
0
 10
17.71
 11
18.118
 20
602.858
 21
602.58
  0
LINE
  8
0
 10
18.118
 11
18.479
 20
602.58
 21
602.245
  0
LINE
  8
0
 10
18.479
 11
18.787
 20
602.245
 21
601.859
  0
LINE
  8
0
 10
18.787
 11
19.033
 20
601.859
 21
601.432
  0
LINE
  8
0
 10
19.033
 11
19.213
 20
601.432
 21
600.973
  0
LINE
  8
0
 10
19.213
 11
19.323
 20
600.973
 21
600.492
  0
LINE
  8
0
 10
19.323
 11
19.36
 20
600.492
 21
600
  0
LINE
  8
0
 10
19.36
 11
19.323
 20
600
 21
599.508
  0
LINE
  8
0
 10
19.323
 11
19.213
 20
599.508
 21
599.027
  0
LINE
  8
0
 10
19.213
 11
19.033
 20
599.027
 21
598.568
  0
LINE
  8
0
 10
19.033
 11
18.787
 20
598.568
 21
598.141
  0
LINE
  8
0
 10
18.787
 11
18.479
 20
598.141
 21
597.755
  0
LINE
  8
0
 10
18.479
 11
18.118
 20
597.755
 21
597.42
  0
LINE
  8
0
 10
18.118
 11
17.71
 20
597.42
 21
597.142
  0
LINE
  8
0
 10
17.71
 11
17.266
 20
597.142
 21
596.928
  0
LINE
  8
0
 10
17.266
 11
16.794
 20
596.928
 21
596.783
  0
LINE
  8
0
 10
16.794
 11
16.307
 20
596.783
 21
596.709
  0
LINE
  8
0
 10
16.307
 11
15.813
 20
596.709
 21
596.709
  0
LINE
  8
0
 10
15.813
 11
15.326
 20
596.709
 21
596.783
  0
LINE
  8
0
 10
15.326
 11
14.854
 20
596.783
 21
596.928
  0
LINE
  8
0
 10
14.854
 11
14.41
 20
596.928
 21
597.142
  0
LINE
  8
0
 10
14.41
 11
14.002
 20
597.142
 21
597.42
  0
LINE
  8
0
 10
14.002
 11
13.641
 20
597.42
 21
597.755
  0
LINE
  8
0
 10
13.641
 11
13.333
 20
597.755
 21
598.141
  0
LINE
  8
0
 10
13.333
 11
13.087
 20
598.141
 21
598.568
  0
LINE
  8
0
 10
13.087
 11
12.907
 20
598.568
 21
599.027
  0
LINE
  8
0
 10
12.907
 11
12.797
 20
599.027
 21
599.508
  0
LINE
  8
0
 10
12.797
 11
12.76
 20
599.508
 21
600
  0
LINE
  8
0
 10
140.98
 11
141.017
 20
296
 21
296.492
  0
LINE
  8
0
 10
141.017
 11
141.127
 20
296.492
 21
296.973
  0
LINE
  8
0
 10
141.127
 11
141.307
 20
296.973
 21
297.432
  0
LINE
  8
0
 10
141.307
 11
141.553
 20
297.432
 21
297.859
  0
LINE
  8
0
 10
141.553
 11
141.861
 20
297.859
 21
298.245
  0
LINE
  8
0
 10
141.861
 11
142.222
 20
298.245
 21
298.58
  0
LINE
  8
0
 10
142.222
 11
142.63
 20
298.58
 21
298.858
  0
LINE
  8
0
 10
142.63
 11
143.074
 20
298.858
 21
299.072
  0
LINE
  8
0
 10
143.074
 11
143.546
 20
299.072
 21
299.217
  0
LINE
  8
0
 10
143.546
 11
144.033
 20
299.217
 21
299.291
  0
LINE
  8
0
 10
144.033
 11
144.527
 20
299.291
 21
299.291
  0
LINE
  8
0
 10
144.527
 11
145.014
 20
299.291
 21
299.217
  0
LINE
  8
0
 10
145.014
 11
145.486
 20
299.217
 21
299.072
  0
LINE
  8
0
 10
145.486
 11
145.93
 20
299.072
 21
298.858
  0
LINE
  8
0
 10
145.93
 11
146.338
 20
298.858
 21
298.58
  0
LINE
  8
0
 10
146.338
 11
146.699
 20
298.58
 21
298.245
  0
LINE
  8
0
 10
146.699
 11
147.007
 20
298.245
 21
297.859
  0
LINE
  8
0
 10
147.007
 11
147.253
 20
297.859
 21
297.432
  0
LINE
  8
0
 10
147.253
 11
147.433
 20
297.432
 21
296.973
  0
LINE
  8
0
 10
147.433
 11
147.543
 20
296.973
 21
296.492
  0
LINE
  8
0
 10
147.543
 11
147.58
 20
296.492
 21
296
  0
LINE
  8
0
 10
147.58
 11
147.543
 20
296
 21
295.508
  0
LINE
  8
0
 10
147.543
 11
147.433
 20
295.508
 21
295.027
  0
LINE
  8
0
 10
147.433
 11
147.253
 20
295.027
 21
294.568
  0
LINE
  8
0
 10
147.253
 11
147.007
 20
294.568
 21
294.141
  0
LINE
  8
0
 10
147.007
 11
146.699
 20
294.141
 21
293.755
  0
LINE
  8
0
 10
146.699
 11
146.338
 20
293.755
 21
293.42
  0
LINE
  8
0
 10
146.338
 11
145.93
 20
293.42
 21
293.142
  0
LINE
  8
0
 10
145.93
 11
145.486
 20
293.142
 21
292.928
  0
LINE
  8
0
 10
145.486
 11
145.014
 20
292.928
 21
292.783
  0
LINE
  8
0
 10
145.014
 11
144.527
 20
292.783
 21
292.709
  0
LINE
  8
0
 10
144.527
 11
144.033
 20
292.709
 21
292.709
  0
LINE
  8
0
 10
144.033
 11
143.546
 20
292.709
 21
292.783
  0
LINE
  8
0
 10
143.546
 11
143.074
 20
292.783
 21
292.928
  0
LINE
  8
0
 10
143.074
 11
142.63
 20
292.928
 21
293.142
  0
LINE
  8
0
 10
142.63
 11
142.222
 20
293.142
 21
293.42
  0
LINE
  8
0
 10
142.222
 11
141.861
 20
293.42
 21
293.755
  0
LINE
  8
0
 10
141.861
 11
141.553
 20
293.755
 21
294.141
  0
LINE
  8
0
 10
141.553
 11
141.307
 20
294.141
 21
294.568
  0
LINE
  8
0
 10
141.307
 11
141.127
 20
294.568
 21
295.027
  0
LINE
  8
0
 10
141.127
 11
141.017
 20
295.027
 21
295.508
  0
LINE
  8
0
 10
141.017
 11
140.98
 20
295.508
 21
296
  0
LINE
  8
0
 10
196.98
 11
197.017
 20
322
 21
322.492
  0
LINE
  8
0
 10
197.017
 11
197.127
 20
322.492
 21
322.973
  0
LINE
  8
0
 10
197.127
 11
197.307
 20
322.973
 21
323.432
  0
LINE
  8
0
 10
197.307
 11
197.553
 20
323.432
 21
323.859
  0
LINE
  8
0
 10
197.553
 11
197.861
 20
323.859
 21
324.245
  0
LINE
  8
0
 10
197.861
 11
198.222
 20
324.245
 21
324.58
  0
LINE
  8
0
 10
198.222
 11
198.63
 20
324.58
 21
324.858
  0
LINE
  8
0
 10
198.63
 11
199.074
 20
324.858
 21
325.072
  0
LINE
  8
0
 10
199.074
 11
199.546
 20
325.072
 21
325.217
  0
LINE
  8
0
 10
199.546
 11
200.033
 20
325.217
 21
325.291
  0
LINE
  8
0
 10
200.033
 11
200.527
 20
325.291
 21
325.291
  0
LINE
  8
0
 10
200.527
 11
201.014
 20
325.291
 21
325.217
  0
LINE
  8
0
 10
201.014
 11
201.486
 20
325.217
 21
325.072
  0
LINE
  8
0
 10
201.486
 11
201.93
 20
325.072
 21
324.858
  0
LINE
  8
0
 10
201.93
 11
202.338
 20
324.858
 21
324.58
  0
LINE
  8
0
 10
202.338
 11
202.699
 20
324.58
 21
324.245
  0
LINE
  8
0
 10
202.699
 11
203.007
 20
324.245
 21
323.859
  0
LINE
  8
0
 10
203.007
 11
203.253
 20
323.859
 21
323.432
  0
LINE
  8
0
 10
203.253
 11
203.433
 20
323.432
 21
322.973
  0
LINE
  8
0
 10
203.433
 11
203.543
 20
322.973
 21
322.492
  0
LINE
  8
0
 10
203.543
 11
203.58
 20
322.492
 21
322
  0
LINE
  8
0
 10
203.58
 11
203.543
 20
322
 21
321.508
  0
LINE
  8
0
 10
203.543
 11
203.433
 20
321.508
 21
321.027
  0
LINE
  8
0
 10
203.433
 11
203.253
 20
321.027
 21
320.568
  0
LINE
  8
0
 10
203.253
 11
203.007
 20
320.568
 21
320.141
  0
LINE
  8
0
 10
203.007
 11
202.699
 20
320.141
 21
319.755
  0
LINE
  8
0
 10
202.699
 11
202.338
 20
319.755
 21
319.42
  0
LINE
  8
0
 10
202.338
 11
201.93
 20
319.42
 21
319.142
  0
LINE
  8
0
 10
201.93
 11
201.486
 20
319.142
 21
318.928
  0
LINE
  8
0
 10
201.486
 11
201.014
 20
318.928
 21
318.783
  0
LINE
  8
0
 10
201.014
 11
200.527
 20
318.783
 21
318.709
  0
LINE
  8
0
 10
200.527
 11
200.033
 20
318.709
 21
318.709
  0
LINE
  8
0
 10
200.033
 11
199.546
 20
318.709
 21
318.783
  0
LINE
  8
0
 10
199.546
 11
199.074
 20
318.783
 21
318.928
  0
LINE
  8
0
 10
199.074
 11
198.63
 20
318.928
 21
319.142
  0
LINE
  8
0
 10
198.63
 11
198.222
 20
319.142
 21
319.42
  0
LINE
  8
0
 10
198.222
 11
197.861
 20
319.42
 21
319.755
  0
LINE
  8
0
 10
197.861
 11
197.553
 20
319.755
 21
320.141
  0
LINE
  8
0
 10
197.553
 11
197.307
 20
320.141
 21
320.568
  0
LINE
  8
0
 10
197.307
 11
197.127
 20
320.568
 21
321.027
  0
LINE
  8
0
 10
197.127
 11
197.017
 20
321.027
 21
321.508
  0
LINE
  8
0
 10
197.017
 11
196.98
 20
321.508
 21
322
  0
LINE
  8
0
 10
297.5
 11
297.595
 20
4
 21
4.478
  0
LINE
  8
0
 10
297.595
 11
297.866
 20
4.478
 21
4.884
  0
LINE
  8
0
 10
297.866
 11
298.272
 20
4.884
 21
5.155
  0
LINE
  8
0
 10
298.272
 11
298.75
 20
5.155
 21
5.25
  0
LINE
  8
0
 10
298.75
 11
299.228
 20
5.25
 21
5.155
  0
LINE
  8
0
 10
299.228
 11
299.634
 20
5.155
 21
4.884
  0
LINE
  8
0
 10
299.634
 11
299.905
 20
4.884
 21
4.478
  0
LINE
  8
0
 10
299.905
 11
300
 20
4.478
 21
4
  0
LINE
  8
0
 10
300
 11
299.905
 20
4
 21
3.522
  0
LINE
  8
0
 10
299.905
 11
299.634
 20
3.522
 21
3.116
  0
LINE
  8
0
 10
299.634
 11
299.228
 20
3.116
 21
2.845
  0
LINE
  8
0
 10
299.228
 11
298.75
 20
2.845
 21
2.75
  0
LINE
  8
0
 10
298.75
 11
298.272
 20
2.75
 21
2.845
  0
LINE
  8
0
 10
298.272
 11
297.866
 20
2.845
 21
3.116
  0
LINE
  8
0
 10
297.866
 11
297.595
 20
3.116
 21
3.522
  0
LINE
  8
0
 10
297.595
 11
297.5
 20
3.522
 21
4
  0
LINE
  8
0
 10
297.5
 11
297.595
 20
614
 21
614.478
  0
LINE
  8
0
 10
297.595
 11
297.866
 20
614.478
 21
614.884
  0
LINE
  8
0
 10
297.866
 11
298.272
 20
614.884
 21
615.155
  0
LINE
  8
0
 10
298.272
 11
298.75
 20
615.155
 21
615.25
  0
LINE
  8
0
 10
298.75
 11
299.228
 20
615.25
 21
615.155
  0
LINE
  8
0
 10
299.228
 11
299.634
 20
615.155
 21
614.884
  0
LINE
  8
0
 10
299.634
 11
299.905
 20
614.884
 21
614.478
  0
LINE
  8
0
 10
299.905
 11
300
 20
614.478
 21
614
  0
LINE
  8
0
 10
300
 11
299.905
 20
614
 21
613.522
  0
LINE
  8
0
 10
299.905
 11
299.634
 20
613.522
 21
613.116
  0
LINE
  8
0
 10
299.634
 11
299.228
 20
613.116
 21
612.845
  0
LINE
  8
0
 10
299.228
 11
298.75
 20
612.845
 21
612.75
  0
LINE
  8
0
 10
298.75
 11
298.272
 20
612.75
 21
612.845
  0
LINE
  8
0
 10
298.272
 11
297.866
 20
612.845
 21
613.116
  0
LINE
  8
0
 10
297.866
 11
297.595
 20
613.116
 21
613.522
  0
LINE
  8
0
 10
297.595
 11
297.5
 20
613.522
 21
614
  0
LINE
  8
0
 10
323.55
 11
323.605
 20
796.5
 21
796.99
  0
LINE
  8
0
 10
323.605
 11
323.768
 20
796.99
 21
797.455
  0
LINE
  8
0
 10
323.768
 11
324.03
 20
797.455
 21
797.872
  0
LINE
  8
0
 10
324.03
 11
324.378
 20
797.872
 21
798.22
  0
LINE
  8
0
 10
324.378
 11
324.795
 20
798.22
 21
798.482
  0
LINE
  8
0
 10
324.795
 11
325.26
 20
798.482
 21
798.645
  0
LINE
  8
0
 10
325.26
 11
325.75
 20
798.645
 21
798.7
  0
LINE
  8
0
 10
325.75
 11
326.24
 20
798.7
 21
798.645
  0
LINE
  8
0
 10
326.24
 11
326.705
 20
798.645
 21
798.482
  0
LINE
  8
0
 10
326.705
 11
327.122
 20
798.482
 21
798.22
  0
LINE
  8
0
 10
327.122
 11
327.47
 20
798.22
 21
797.872
  0
LINE
  8
0
 10
327.47
 11
327.732
 20
797.872
 21
797.455
  0
LINE
  8
0
 10
327.732
 11
327.895
 20
797.455
 21
796.99
  0
LINE
  8
0
 10
327.895
 11
327.95
 20
796.99
 21
796.5
  0
LINE
  8
0
 10
327.95
 11
327.895
 20
796.5
 21
796.01
  0
LINE
  8
0
 10
327.895
 11
327.732
 20
796.01
 21
795.545
  0
LINE
  8
0
 10
327.732
 11
327.47
 20
795.545
 21
795.128
  0
LINE
  8
0
 10
327.47
 11
327.122
 20
795.128
 21
794.78
  0
LINE
  8
0
 10
327.122
 11
326.705
 20
794.78
 21
794.518
  0
LINE
  8
0
 10
326.705
 11
326.24
 20
794.518
 21
794.355
  0
LINE
  8
0
 10
326.24
 11
325.75
 20
794.355
 21
794.3
  0
LINE
  8
0
 10
325.75
 11
325.26
 20
794.3
 21
794.355
  0
LINE
  8
0
 10
325.26
 11
324.795
 20
794.355
 21
794.518
  0
LINE
  8
0
 10
324.795
 11
324.378
 20
794.518
 21
794.78
  0
LINE
  8
0
 10
324.378
 11
324.03
 20
794.78
 21
795.128
  0
LINE
  8
0
 10
324.03
 11
323.768
 20
795.128
 21
795.545
  0
LINE
  8
0
 10
323.768
 11
323.605
 20
795.545
 21
796.01
  0
LINE
  8
0
 10
323.605
 11
323.55
 20
796.01
 21
796.5
  0
LINE
  8
0
 10
330.75
 11
330.805
 20
56.71
 21
57.2
  0
LINE
  8
0
 10
330.805
 11
330.968
 20
57.2
 21
57.665
  0
LINE
  8
0
 10
330.968
 11
331.23
 20
57.665
 21
58.082
  0
LINE
  8
0
 10
331.23
 11
331.578
 20
58.082
 21
58.43
  0
LINE
  8
0
 10
331.578
 11
331.995
 20
58.43
 21
58.692
  0
LINE
  8
0
 10
331.995
 11
332.46
 20
58.692
 21
58.855
  0
LINE
  8
0
 10
332.46
 11
332.95
 20
58.855
 21
58.91
  0
LINE
  8
0
 10
332.95
 11
333.44
 20
58.91
 21
58.855
  0
LINE
  8
0
 10
333.44
 11
333.905
 20
58.855
 21
58.692
  0
LINE
  8
0
 10
333.905
 11
334.322
 20
58.692
 21
58.43
  0
LINE
  8
0
 10
334.322
 11
334.67
 20
58.43
 21
58.082
  0
LINE
  8
0
 10
334.67
 11
334.932
 20
58.082
 21
57.665
  0
LINE
  8
0
 10
334.932
 11
335.095
 20
57.665
 21
57.2
  0
LINE
  8
0
 10
335.095
 11
335.15
 20
57.2
 21
56.71
  0
LINE
  8
0
 10
335.15
 11
335.095
 20
56.71
 21
56.22
  0
LINE
  8
0
 10
335.095
 11
334.932
 20
56.22
 21
55.755
  0
LINE
  8
0
 10
334.932
 11
334.67
 20
55.755
 21
55.338
  0
LINE
  8
0
 10
334.67
 11
334.322
 20
55.338
 21
54.99
  0
LINE
  8
0
 10
334.322
 11
333.905
 20
54.99
 21
54.728
  0
LINE
  8
0
 10
333.905
 11
333.44
 20
54.728
 21
54.565
  0
LINE
  8
0
 10
333.44
 11
332.95
 20
54.565
 21
54.51
  0
LINE
  8
0
 10
332.95
 11
332.46
 20
54.51
 21
54.565
  0
LINE
  8
0
 10
332.46
 11
331.995
 20
54.565
 21
54.728
  0
LINE
  8
0
 10
331.995
 11
331.578
 20
54.728
 21
54.99
  0
LINE
  8
0
 10
331.578
 11
331.23
 20
54.99
 21
55.338
  0
LINE
  8
0
 10
331.23
 11
330.968
 20
55.338
 21
55.755
  0
LINE
  8
0
 10
330.968
 11
330.805
 20
55.755
 21
56.22
  0
LINE
  8
0
 10
330.805
 11
330.75
 20
56.22
 21
56.71
  0
LINE
  8
0
 10
330.75
 11
330.805
 20
752.29
 21
752.78
  0
LINE
  8
0
 10
330.805
 11
330.968
 20
752.78
 21
753.245
  0
LINE
  8
0
 10
330.968
 11
331.23
 20
753.245
 21
753.662
  0
LINE
  8
0
 10
331.23
 11
331.578
 20
753.662
 21
754.01
  0
LINE
  8
0
 10
331.578
 11
331.995
 20
754.01
 21
754.272
  0
LINE
  8
0
 10
331.995
 11
332.46
 20
754.272
 21
754.435
  0
LINE
  8
0
 10
332.46
 11
332.95
 20
754.435
 21
754.49
  0
LINE
  8
0
 10
332.95
 11
333.44
 20
754.49
 21
754.435
  0
LINE
  8
0
 10
333.44
 11
333.905
 20
754.435
 21
754.272
  0
LINE
  8
0
 10
333.905
 11
334.322
 20
754.272
 21
754.01
  0
LINE
  8
0
 10
334.322
 11
334.67
 20
754.01
 21
753.662
  0
LINE
  8
0
 10
334.67
 11
334.932
 20
753.662
 21
753.245
  0
LINE
  8
0
 10
334.932
 11
335.095
 20
753.245
 21
752.78
  0
LINE
  8
0
 10
335.095
 11
335.15
 20
752.78
 21
752.29
  0
LINE
  8
0
 10
335.15
 11
335.095
 20
752.29
 21
751.8
  0
LINE
  8
0
 10
335.095
 11
334.932
 20
751.8
 21
751.335
  0
LINE
  8
0
 10
334.932
 11
334.67
 20
751.335
 21
750.918
  0
LINE
  8
0
 10
334.67
 11
334.322
 20
750.918
 21
750.57
  0
LINE
  8
0
 10
334.322
 11
333.905
 20
750.57
 21
750.308
  0
LINE
  8
0
 10
333.905
 11
333.44
 20
750.308
 21
750.145
  0
LINE
  8
0
 10
333.44
 11
332.95
 20
750.145
 21
750.09
  0
LINE
  8
0
 10
332.95
 11
332.46
 20
750.09
 21
750.145
  0
LINE
  8
0
 10
332.46
 11
331.995
 20
750.145
 21
750.308
  0
LINE
  8
0
 10
331.995
 11
331.578
 20
750.308
 21
750.57
  0
LINE
  8
0
 10
331.578
 11
331.23
 20
750.57
 21
750.918
  0
LINE
  8
0
 10
331.23
 11
330.968
 20
750.918
 21
751.335
  0
LINE
  8
0
 10
330.968
 11
330.805
 20
751.335
 21
751.8
  0
LINE
  8
0
 10
330.805
 11
330.75
 20
751.8
 21
752.29
  0
LINE
  8
0
 10
337.7
 11
337.755
 20
709.88
 21
710.37
  0
LINE
  8
0
 10
337.755
 11
337.918
 20
710.37
 21
710.835
  0
LINE
  8
0
 10
337.918
 11
338.18
 20
710.835
 21
711.252
  0
LINE
  8
0
 10
338.18
 11
338.528
 20
711.252
 21
711.6
  0
LINE
  8
0
 10
338.528
 11
338.945
 20
711.6
 21
711.862
  0
LINE
  8
0
 10
338.945
 11
339.41
 20
711.862
 21
712.025
  0
LINE
  8
0
 10
339.41
 11
339.9
 20
712.025
 21
712.08
  0
LINE
  8
0
 10
339.9
 11
340.39
 20
712.08
 21
712.025
  0
LINE
  8
0
 10
340.39
 11
340.855
 20
712.025
 21
711.862
  0
LINE
  8
0
 10
340.855
 11
341.272
 20
711.862
 21
711.6
  0
LINE
  8
0
 10
341.272
 11
341.62
 20
711.6
 21
711.252
  0
LINE
  8
0
 10
341.62
 11
341.882
 20
711.252
 21
710.835
  0
LINE
  8
0
 10
341.882
 11
342.045
 20
710.835
 21
710.37
  0
LINE
  8
0
 10
342.045
 11
342.1
 20
710.37
 21
709.88
  0
LINE
  8
0
 10
342.1
 11
342.045
 20
709.88
 21
709.39
  0
LINE
  8
0
 10
342.045
 11
341.882
 20
709.39
 21
708.925
  0
LINE
  8
0
 10
341.882
 11
341.62
 20
708.925
 21
708.508
  0
LINE
  8
0
 10
341.62
 11
341.272
 20
708.508
 21
708.16
  0
LINE
  8
0
 10
341.272
 11
340.855
 20
708.16
 21
707.898
  0
LINE
  8
0
 10
340.855
 11
340.39
 20
707.898
 21
707.735
  0
LINE
  8
0
 10
340.39
 11
339.9
 20
707.735
 21
707.68
  0
LINE
  8
0
 10
339.9
 11
339.41
 20
707.68
 21
707.735
  0
LINE
  8
0
 10
339.41
 11
338.945
 20
707.735
 21
707.898
  0
LINE
  8
0
 10
338.945
 11
338.528
 20
707.898
 21
708.16
  0
LINE
  8
0
 10
338.528
 11
338.18
 20
708.16
 21
708.508
  0
LINE
  8
0
 10
338.18
 11
337.918
 20
708.508
 21
708.925
  0
LINE
  8
0
 10
337.918
 11
337.755
 20
708.925
 21
709.39
  0
LINE
  8
0
 10
337.755
 11
337.7
 20
709.39
 21
709.88
  0
LINE
  8
0
 10
360.55
 11
360.605
 20
66
 21
66.49
  0
LINE
  8
0
 10
360.605
 11
360.768
 20
66.49
 21
66.955
  0
LINE
  8
0
 10
360.768
 11
361.03
 20
66.955
 21
67.372
  0
LINE
  8
0
 10
361.03
 11
361.378
 20
67.372
 21
67.72
  0
LINE
  8
0
 10
361.378
 11
361.795
 20
67.72
 21
67.982
  0
LINE
  8
0
 10
361.795
 11
362.26
 20
67.982
 21
68.145
  0
LINE
  8
0
 10
362.26
 11
362.75
 20
68.145
 21
68.2
  0
LINE
  8
0
 10
362.75
 11
363.24
 20
68.2
 21
68.145
  0
LINE
  8
0
 10
363.24
 11
363.705
 20
68.145
 21
67.982
  0
LINE
  8
0
 10
363.705
 11
364.122
 20
67.982
 21
67.72
  0
LINE
  8
0
 10
364.122
 11
364.47
 20
67.72
 21
67.372
  0
LINE
  8
0
 10
364.47
 11
364.732
 20
67.372
 21
66.955
  0
LINE
  8
0
 10
364.732
 11
364.895
 20
66.955
 21
66.49
  0
LINE
  8
0
 10
364.895
 11
364.95
 20
66.49
 21
66
  0
LINE
  8
0
 10
364.95
 11
364.895
 20
66
 21
65.51
  0
LINE
  8
0
 10
364.895
 11
364.732
 20
65.51
 21
65.045
  0
LINE
  8
0
 10
364.732
 11
364.47
 20
65.045
 21
64.628
  0
LINE
  8
0
 10
364.47
 11
364.122
 20
64.628
 21
64.28
  0
LINE
  8
0
 10
364.122
 11
363.705
 20
64.28
 21
64.018
  0
LINE
  8
0
 10
363.705
 11
363.24
 20
64.018
 21
63.855
  0
LINE
  8
0
 10
363.24
 11
362.75
 20
63.855
 21
63.8
  0
LINE
  8
0
 10
362.75
 11
362.26
 20
63.8
 21
63.855
  0
LINE
  8
0
 10
362.26
 11
361.795
 20
63.855
 21
64.018
  0
LINE
  8
0
 10
361.795
 11
361.378
 20
64.018
 21
64.28
  0
LINE
  8
0
 10
361.378
 11
361.03
 20
64.28
 21
64.628
  0
LINE
  8
0
 10
361.03
 11
360.768
 20
64.628
 21
65.045
  0
LINE
  8
0
 10
360.768
 11
360.605
 20
65.045
 21
65.51
  0
LINE
  8
0
 10
360.605
 11
360.55
 20
65.51
 21
66
  0
LINE
  8
0
 10
376.15
 11
376.205
 20
12.2
 21
12.69
  0
LINE
  8
0
 10
376.205
 11
376.368
 20
12.69
 21
13.155
  0
LINE
  8
0
 10
376.368
 11
376.63
 20
13.155
 21
13.572
  0
LINE
  8
0
 10
376.63
 11
376.978
 20
13.572
 21
13.92
  0
LINE
  8
0
 10
376.978
 11
377.395
 20
13.92
 21
14.182
  0
LINE
  8
0
 10
377.395
 11
377.86
 20
14.182
 21
14.345
  0
LINE
  8
0
 10
377.86
 11
378.35
 20
14.345
 21
14.4
  0
LINE
  8
0
 10
378.35
 11
378.84
 20
14.4
 21
14.345
  0
LINE
  8
0
 10
378.84
 11
379.305
 20
14.345
 21
14.182
  0
LINE
  8
0
 10
379.305
 11
379.722
 20
14.182
 21
13.92
  0
LINE
  8
0
 10
379.722
 11
380.07
 20
13.92
 21
13.572
  0
LINE
  8
0
 10
380.07
 11
380.332
 20
13.572
 21
13.155
  0
LINE
  8
0
 10
380.332
 11
380.495
 20
13.155
 21
12.69
  0
LINE
  8
0
 10
380.495
 11
380.55
 20
12.69
 21
12.2
  0
LINE
  8
0
 10
380.55
 11
380.495
 20
12.2
 21
11.71
  0
LINE
  8
0
 10
380.495
 11
380.332
 20
11.71
 21
11.245
  0
LINE
  8
0
 10
380.332
 11
380.07
 20
11.245
 21
10.828
  0
LINE
  8
0
 10
380.07
 11
379.722
 20
10.828
 21
10.48
  0
LINE
  8
0
 10
379.722
 11
379.305
 20
10.48
 21
10.218
  0
LINE
  8
0
 10
379.305
 11
378.84
 20
10.218
 21
10.055
  0
LINE
  8
0
 10
378.84
 11
378.35
 20
10.055
 21
10
  0
LINE
  8
0
 10
378.35
 11
377.86
 20
10
 21
10.055
  0
LINE
  8
0
 10
377.86
 11
377.395
 20
10.055
 21
10.218
  0
LINE
  8
0
 10
377.395
 11
376.978
 20
10.218
 21
10.48
  0
LINE
  8
0
 10
376.978
 11
376.63
 20
10.48
 21
10.828
  0
LINE
  8
0
 10
376.63
 11
376.368
 20
10.828
 21
11.245
  0
LINE
  8
0
 10
376.368
 11
376.205
 20
11.245
 21
11.71
  0
LINE
  8
0
 10
376.205
 11
376.15
 20
11.71
 21
12.2
  0
LINE
  8
0
 10
380.55
 11
380.605
 20
796.5
 21
796.99
  0
LINE
  8
0
 10
380.605
 11
380.768
 20
796.99
 21
797.455
  0
LINE
  8
0
 10
380.768
 11
381.03
 20
797.455
 21
797.872
  0
LINE
  8
0
 10
381.03
 11
381.378
 20
797.872
 21
798.22
  0
LINE
  8
0
 10
381.378
 11
381.795
 20
798.22
 21
798.482
  0
LINE
  8
0
 10
381.795
 11
382.26
 20
798.482
 21
798.645
  0
LINE
  8
0
 10
382.26
 11
382.75
 20
798.645
 21
798.7
  0
LINE
  8
0
 10
382.75
 11
383.24
 20
798.7
 21
798.645
  0
LINE
  8
0
 10
383.24
 11
383.705
 20
798.645
 21
798.482
  0
LINE
  8
0
 10
383.705
 11
384.122
 20
798.482
 21
798.22
  0
LINE
  8
0
 10
384.122
 11
384.47
 20
798.22
 21
797.872
  0
LINE
  8
0
 10
384.47
 11
384.732
 20
797.872
 21
797.455
  0
LINE
  8
0
 10
384.732
 11
384.895
 20
797.455
 21
796.99
  0
LINE
  8
0
 10
384.895
 11
384.95
 20
796.99
 21
796.5
  0
LINE
  8
0
 10
384.95
 11
384.895
 20
796.5
 21
796.01
  0
LINE
  8
0
 10
384.895
 11
384.732
 20
796.01
 21
795.545
  0
LINE
  8
0
 10
384.732
 11
384.47
 20
795.545
 21
795.128
  0
LINE
  8
0
 10
384.47
 11
384.122
 20
795.128
 21
794.78
  0
LINE
  8
0
 10
384.122
 11
383.705
 20
794.78
 21
794.518
  0
LINE
  8
0
 10
383.705
 11
383.24
 20
794.518
 21
794.355
  0
LINE
  8
0
 10
383.24
 11
382.75
 20
794.355
 21
794.3
  0
LINE
  8
0
 10
382.75
 11
382.26
 20
794.3
 21
794.355
  0
LINE
  8
0
 10
382.26
 11
381.795
 20
794.355
 21
794.518
  0
LINE
  8
0
 10
381.795
 11
381.378
 20
794.518
 21
794.78
  0
LINE
  8
0
 10
381.378
 11
381.03
 20
794.78
 21
795.128
  0
LINE
  8
0
 10
381.03
 11
380.768
 20
795.128
 21
795.545
  0
LINE
  8
0
 10
380.768
 11
380.605
 20
795.545
 21
796.01
  0
LINE
  8
0
 10
380.605
 11
380.55
 20
796.01
 21
796.5
  0
LINE
  8
0
 10
383.37
 11
383.418
 20
28.9
 21
29.388
  0
LINE
  8
0
 10
383.418
 11
383.56
 20
29.388
 21
29.857
  0
LINE
  8
0
 10
383.56
 11
383.791
 20
29.857
 21
30.289
  0
LINE
  8
0
 10
383.791
 11
384.102
 20
30.289
 21
30.668
  0
LINE
  8
0
 10
384.102
 11
384.481
 20
30.668
 21
30.979
  0
LINE
  8
0
 10
384.481
 11
384.913
 20
30.979
 21
31.21
  0
LINE
  8
0
 10
384.913
 11
385.382
 20
31.21
 21
31.352
  0
LINE
  8
0
 10
385.382
 11
385.87
 20
31.352
 21
31.4
  0
LINE
  8
0
 10
385.87
 11
386.358
 20
31.4
 21
31.352
  0
LINE
  8
0
 10
386.358
 11
386.827
 20
31.352
 21
31.21
  0
LINE
  8
0
 10
386.827
 11
387.259
 20
31.21
 21
30.979
  0
LINE
  8
0
 10
387.259
 11
387.638
 20
30.979
 21
30.668
  0
LINE
  8
0
 10
387.638
 11
387.949
 20
30.668
 21
30.289
  0
LINE
  8
0
 10
387.949
 11
388.18
 20
30.289
 21
29.857
  0
LINE
  8
0
 10
388.18
 11
388.322
 20
29.857
 21
29.388
  0
LINE
  8
0
 10
388.322
 11
388.37
 20
29.388
 21
28.9
  0
LINE
  8
0
 10
388.37
 11
388.322
 20
28.9
 21
28.412
  0
LINE
  8
0
 10
388.322
 11
388.18
 20
28.412
 21
27.943
  0
LINE
  8
0
 10
388.18
 11
387.949
 20
27.943
 21
27.511
  0
LINE
  8
0
 10
387.949
 11
387.638
 20
27.511
 21
27.132
  0
LINE
  8
0
 10
387.638
 11
387.259
 20
27.132
 21
26.821
  0
LINE
  8
0
 10
387.259
 11
386.827
 20
26.821
 21
26.59
  0
LINE
  8
0
 10
386.827
 11
386.358
 20
26.59
 21
26.448
  0
LINE
  8
0
 10
386.358
 11
385.87
 20
26.448
 21
26.4
  0
LINE
  8
0
 10
385.87
 11
385.382
 20
26.4
 21
26.448
  0
LINE
  8
0
 10
385.382
 11
384.913
 20
26.448
 21
26.59
  0
LINE
  8
0
 10
384.913
 11
384.481
 20
26.59
 21
26.821
  0
LINE
  8
0
 10
384.481
 11
384.102
 20
26.821
 21
27.132
  0
LINE
  8
0
 10
384.102
 11
383.791
 20
27.132
 21
27.511
  0
LINE
  8
0
 10
383.791
 11
383.56
 20
27.511
 21
27.943
  0
LINE
  8
0
 10
383.56
 11
383.418
 20
27.943
 21
28.412
  0
LINE
  8
0
 10
383.418
 11
383.37
 20
28.412
 21
28.9
  0
LINE
  8
0
 10
389.55
 11
389.605
 20
66
 21
66.49
  0
LINE
  8
0
 10
389.605
 11
389.768
 20
66.49
 21
66.955
  0
LINE
  8
0
 10
389.768
 11
390.03
 20
66.955
 21
67.372
  0
LINE
  8
0
 10
390.03
 11
390.378
 20
67.372
 21
67.72
  0
LINE
  8
0
 10
390.378
 11
390.795
 20
67.72
 21
67.982
  0
LINE
  8
0
 10
390.795
 11
391.26
 20
67.982
 21
68.145
  0
LINE
  8
0
 10
391.26
 11
391.75
 20
68.145
 21
68.2
  0
LINE
  8
0
 10
391.75
 11
392.24
 20
68.2
 21
68.145
  0
LINE
  8
0
 10
392.24
 11
392.705
 20
68.145
 21
67.982
  0
LINE
  8
0
 10
392.705
 11
393.122
 20
67.982
 21
67.72
  0
LINE
  8
0
 10
393.122
 11
393.47
 20
67.72
 21
67.372
  0
LINE
  8
0
 10
393.47
 11
393.732
 20
67.372
 21
66.955
  0
LINE
  8
0
 10
393.732
 11
393.895
 20
66.955
 21
66.49
  0
LINE
  8
0
 10
393.895
 11
393.95
 20
66.49
 21
66
  0
LINE
  8
0
 10
393.95
 11
393.895
 20
66
 21
65.51
  0
LINE
  8
0
 10
393.895
 11
393.732
 20
65.51
 21
65.045
  0
LINE
  8
0
 10
393.732
 11
393.47
 20
65.045
 21
64.628
  0
LINE
  8
0
 10
393.47
 11
393.122
 20
64.628
 21
64.28
  0
LINE
  8
0
 10
393.122
 11
392.705
 20
64.28
 21
64.018
  0
LINE
  8
0
 10
392.705
 11
392.24
 20
64.018
 21
63.855
  0
LINE
  8
0
 10
392.24
 11
391.75
 20
63.855
 21
63.8
  0
LINE
  8
0
 10
391.75
 11
391.26
 20
63.8
 21
63.855
  0
LINE
  8
0
 10
391.26
 11
390.795
 20
63.855
 21
64.018
  0
LINE
  8
0
 10
390.795
 11
390.378
 20
64.018
 21
64.28
  0
LINE
  8
0
 10
390.378
 11
390.03
 20
64.28
 21
64.628
  0
LINE
  8
0
 10
390.03
 11
389.768
 20
64.628
 21
65.045
  0
LINE
  8
0
 10
389.768
 11
389.605
 20
65.045
 21
65.51
  0
LINE
  8
0
 10
389.605
 11
389.55
 20
65.51
 21
66
  0
LINE
  8
0
 10
403.55
 11
403.605
 20
789
 21
789.49
  0
LINE
  8
0
 10
403.605
 11
403.768
 20
789.49
 21
789.955
  0
LINE
  8
0
 10
403.768
 11
404.03
 20
789.955
 21
790.372
  0
LINE
  8
0
 10
404.03
 11
404.378
 20
790.372
 21
790.72
  0
LINE
  8
0
 10
404.378
 11
404.795
 20
790.72
 21
790.982
  0
LINE
  8
0
 10
404.795
 11
405.26
 20
790.982
 21
791.145
  0
LINE
  8
0
 10
405.26
 11
405.75
 20
791.145
 21
791.2
  0
LINE
  8
0
 10
405.75
 11
406.24
 20
791.2
 21
791.145
  0
LINE
  8
0
 10
406.24
 11
406.705
 20
791.145
 21
790.982
  0
LINE
  8
0
 10
406.705
 11
407.122
 20
790.982
 21
790.72
  0
LINE
  8
0
 10
407.122
 11
407.47
 20
790.72
 21
790.372
  0
LINE
  8
0
 10
407.47
 11
407.732
 20
790.372
 21
789.955
  0
LINE
  8
0
 10
407.732
 11
407.895
 20
789.955
 21
789.49
  0
LINE
  8
0
 10
407.895
 11
407.95
 20
789.49
 21
789
  0
LINE
  8
0
 10
407.95
 11
407.895
 20
789
 21
788.51
  0
LINE
  8
0
 10
407.895
 11
407.732
 20
788.51
 21
788.045
  0
LINE
  8
0
 10
407.732
 11
407.47
 20
788.045
 21
787.628
  0
LINE
  8
0
 10
407.47
 11
407.122
 20
787.628
 21
787.28
  0
LINE
  8
0
 10
407.122
 11
406.705
 20
787.28
 21
787.018
  0
LINE
  8
0
 10
406.705
 11
406.24
 20
787.018
 21
786.855
  0
LINE
  8
0
 10
406.24
 11
405.75
 20
786.855
 21
786.8
  0
LINE
  8
0
 10
405.75
 11
405.26
 20
786.8
 21
786.855
  0
LINE
  8
0
 10
405.26
 11
404.795
 20
786.855
 21
787.018
  0
LINE
  8
0
 10
404.795
 11
404.378
 20
787.018
 21
787.28
  0
LINE
  8
0
 10
404.378
 11
404.03
 20
787.28
 21
787.628
  0
LINE
  8
0
 10
404.03
 11
403.768
 20
787.628
 21
788.045
  0
LINE
  8
0
 10
403.768
 11
403.605
 20
788.045
 21
788.51
  0
LINE
  8
0
 10
403.605
 11
403.55
 20
788.51
 21
789
  0
LINE
  8
0
 10
404.63
 11
404.685
 20
12.2
 21
12.69
  0
LINE
  8
0
 10
404.685
 11
404.848
 20
12.69
 21
13.155
  0
LINE
  8
0
 10
404.848
 11
405.11
 20
13.155
 21
13.572
  0
LINE
  8
0
 10
405.11
 11
405.458
 20
13.572
 21
13.92
  0
LINE
  8
0
 10
405.458
 11
405.875
 20
13.92
 21
14.182
  0
LINE
  8
0
 10
405.875
 11
406.34
 20
14.182
 21
14.345
  0
LINE
  8
0
 10
406.34
 11
406.83
 20
14.345
 21
14.4
  0
LINE
  8
0
 10
406.83
 11
407.32
 20
14.4
 21
14.345
  0
LINE
  8
0
 10
407.32
 11
407.785
 20
14.345
 21
14.182
  0
LINE
  8
0
 10
407.785
 11
408.202
 20
14.182
 21
13.92
  0
LINE
  8
0
 10
408.202
 11
408.55
 20
13.92
 21
13.572
  0
LINE
  8
0
 10
408.55
 11
408.812
 20
13.572
 21
13.155
  0
LINE
  8
0
 10
408.812
 11
408.975
 20
13.155
 21
12.69
  0
LINE
  8
0
 10
408.975
 11
409.03
 20
12.69
 21
12.2
  0
LINE
  8
0
 10
409.03
 11
408.975
 20
12.2
 21
11.71
  0
LINE
  8
0
 10
408.975
 11
408.812
 20
11.71
 21
11.245
  0
LINE
  8
0
 10
408.812
 11
408.55
 20
11.245
 21
10.828
  0
LINE
  8
0
 10
408.55
 11
408.202
 20
10.828
 21
10.48
  0
LINE
  8
0
 10
408.202
 11
407.785
 20
10.48
 21
10.218
  0
LINE
  8
0
 10
407.785
 11
407.32
 20
10.218
 21
10.055
  0
LINE
  8
0
 10
407.32
 11
406.83
 20
10.055
 21
10
  0
LINE
  8
0
 10
406.83
 11
406.34
 20
10
 21
10.055
  0
LINE
  8
0
 10
406.34
 11
405.875
 20
10.055
 21
10.218
  0
LINE
  8
0
 10
405.875
 11
405.458
 20
10.218
 21
10.48
  0
LINE
  8
0
 10
405.458
 11
405.11
 20
10.48
 21
10.828
  0
LINE
  8
0
 10
405.11
 11
404.848
 20
10.828
 21
11.245
  0
LINE
  8
0
 10
404.848
 11
404.685
 20
11.245
 21
11.71
  0
LINE
  8
0
 10
404.685
 11
404.63
 20
11.71
 21
12.2
  0
LINE
  8
0
 10
413.37
 11
413.425
 20
12.2
 21
12.69
  0
LINE
  8
0
 10
413.425
 11
413.588
 20
12.69
 21
13.155
  0
LINE
  8
0
 10
413.588
 11
413.85
 20
13.155
 21
13.572
  0
LINE
  8
0
 10
413.85
 11
414.198
 20
13.572
 21
13.92
  0
LINE
  8
0
 10
414.198
 11
414.615
 20
13.92
 21
14.182
  0
LINE
  8
0
 10
414.615
 11
415.08
 20
14.182
 21
14.345
  0
LINE
  8
0
 10
415.08
 11
415.57
 20
14.345
 21
14.4
  0
LINE
  8
0
 10
415.57
 11
416.06
 20
14.4
 21
14.345
  0
LINE
  8
0
 10
416.06
 11
416.525
 20
14.345
 21
14.182
  0
LINE
  8
0
 10
416.525
 11
416.942
 20
14.182
 21
13.92
  0
LINE
  8
0
 10
416.942
 11
417.29
 20
13.92
 21
13.572
  0
LINE
  8
0
 10
417.29
 11
417.552
 20
13.572
 21
13.155
  0
LINE
  8
0
 10
417.552
 11
417.715
 20
13.155
 21
12.69
  0
LINE
  8
0
 10
417.715
 11
417.77
 20
12.69
 21
12.2
  0
LINE
  8
0
 10
417.77
 11
417.715
 20
12.2
 21
11.71
  0
LINE
  8
0
 10
417.715
 11
417.552
 20
11.71
 21
11.245
  0
LINE
  8
0
 10
417.552
 11
417.29
 20
11.245
 21
10.828
  0
LINE
  8
0
 10
417.29
 11
416.942
 20
10.828
 21
10.48
  0
LINE
  8
0
 10
416.942
 11
416.525
 20
10.48
 21
10.218
  0
LINE
  8
0
 10
416.525
 11
416.06
 20
10.218
 21
10.055
  0
LINE
  8
0
 10
416.06
 11
415.57
 20
10.055
 21
10
  0
LINE
  8
0
 10
415.57
 11
415.08
 20
10
 21
10.055
  0
LINE
  8
0
 10
415.08
 11
414.615
 20
10.055
 21
10.218
  0
LINE
  8
0
 10
414.615
 11
414.198
 20
10.218
 21
10.48
  0
LINE
  8
0
 10
414.198
 11
413.85
 20
10.48
 21
10.828
  0
LINE
  8
0
 10
413.85
 11
413.588
 20
10.828
 21
11.245
  0
LINE
  8
0
 10
413.588
 11
413.425
 20
11.245
 21
11.71
  0
LINE
  8
0
 10
413.425
 11
413.37
 20
11.71
 21
12.2
  0
LINE
  8
0
 10
439.95
 11
440.005
 20
42.4
 21
42.89
  0
LINE
  8
0
 10
440.005
 11
440.168
 20
42.89
 21
43.355
  0
LINE
  8
0
 10
440.168
 11
440.43
 20
43.355
 21
43.772
  0
LINE
  8
0
 10
440.43
 11
440.778
 20
43.772
 21
44.12
  0
LINE
  8
0
 10
440.778
 11
441.195
 20
44.12
 21
44.382
  0
LINE
  8
0
 10
441.195
 11
441.66
 20
44.382
 21
44.545
  0
LINE
  8
0
 10
441.66
 11
442.15
 20
44.545
 21
44.6
  0
LINE
  8
0
 10
442.15
 11
442.64
 20
44.6
 21
44.545
  0
LINE
  8
0
 10
442.64
 11
443.105
 20
44.545
 21
44.382
  0
LINE
  8
0
 10
443.105
 11
443.522
 20
44.382
 21
44.12
  0
LINE
  8
0
 10
443.522
 11
443.87
 20
44.12
 21
43.772
  0
LINE
  8
0
 10
443.87
 11
444.132
 20
43.772
 21
43.355
  0
LINE
  8
0
 10
444.132
 11
444.295
 20
43.355
 21
42.89
  0
LINE
  8
0
 10
444.295
 11
444.35
 20
42.89
 21
42.4
  0
LINE
  8
0
 10
444.35
 11
444.295
 20
42.4
 21
41.91
  0
LINE
  8
0
 10
444.295
 11
444.132
 20
41.91
 21
41.445
  0
LINE
  8
0
 10
444.132
 11
443.87
 20
41.445
 21
41.028
  0
LINE
  8
0
 10
443.87
 11
443.522
 20
41.028
 21
40.68
  0
LINE
  8
0
 10
443.522
 11
443.105
 20
40.68
 21
40.418
  0
LINE
  8
0
 10
443.105
 11
442.64
 20
40.418
 21
40.255
  0
LINE
  8
0
 10
442.64
 11
442.15
 20
40.255
 21
40.2
  0
LINE
  8
0
 10
442.15
 11
441.66
 20
40.2
 21
40.255
  0
LINE
  8
0
 10
441.66
 11
441.195
 20
40.255
 21
40.418
  0
LINE
  8
0
 10
441.195
 11
440.778
 20
40.418
 21
40.68
  0
LINE
  8
0
 10
440.778
 11
440.43
 20
40.68
 21
41.028
  0
LINE
  8
0
 10
440.43
 11
440.168
 20
41.028
 21
41.445
  0
LINE
  8
0
 10
440.168
 11
440.005
 20
41.445
 21
41.91
  0
LINE
  8
0
 10
440.005
 11
439.95
 20
41.91
 21
42.4
  0
LINE
  8
0
 10
440.55
 11
440.605
 20
789
 21
789.49
  0
LINE
  8
0
 10
440.605
 11
440.768
 20
789.49
 21
789.955
  0
LINE
  8
0
 10
440.768
 11
441.03
 20
789.955
 21
790.372
  0
LINE
  8
0
 10
441.03
 11
441.378
 20
790.372
 21
790.72
  0
LINE
  8
0
 10
441.378
 11
441.795
 20
790.72
 21
790.982
  0
LINE
  8
0
 10
441.795
 11
442.26
 20
790.982
 21
791.145
  0
LINE
  8
0
 10
442.26
 11
442.75
 20
791.145
 21
791.2
  0
LINE
  8
0
 10
442.75
 11
443.24
 20
791.2
 21
791.145
  0
LINE
  8
0
 10
443.24
 11
443.705
 20
791.145
 21
790.982
  0
LINE
  8
0
 10
443.705
 11
444.122
 20
790.982
 21
790.72
  0
LINE
  8
0
 10
444.122
 11
444.47
 20
790.72
 21
790.372
  0
LINE
  8
0
 10
444.47
 11
444.732
 20
790.372
 21
789.955
  0
LINE
  8
0
 10
444.732
 11
444.895
 20
789.955
 21
789.49
  0
LINE
  8
0
 10
444.895
 11
444.95
 20
789.49
 21
789
  0
LINE
  8
0
 10
444.95
 11
444.895
 20
789
 21
788.51
  0
LINE
  8
0
 10
444.895
 11
444.732
 20
788.51
 21
788.045
  0
LINE
  8
0
 10
444.732
 11
444.47
 20
788.045
 21
787.628
  0
LINE
  8
0
 10
444.47
 11
444.122
 20
787.628
 21
787.28
  0
LINE
  8
0
 10
444.122
 11
443.705
 20
787.28
 21
787.018
  0
LINE
  8
0
 10
443.705
 11
443.24
 20
787.018
 21
786.855
  0
LINE
  8
0
 10
443.24
 11
442.75
 20
786.855
 21
786.8
  0
LINE
  8
0
 10
442.75
 11
442.26
 20
786.8
 21
786.855
  0
LINE
  8
0
 10
442.26
 11
441.795
 20
786.855
 21
787.018
  0
LINE
  8
0
 10
441.795
 11
441.378
 20
787.018
 21
787.28
  0
LINE
  8
0
 10
441.378
 11
441.03
 20
787.28
 21
787.628
  0
LINE
  8
0
 10
441.03
 11
440.768
 20
787.628
 21
788.045
  0
LINE
  8
0
 10
440.768
 11
440.605
 20
788.045
 21
788.51
  0
LINE
  8
0
 10
440.605
 11
440.55
 20
788.51
 21
789
  0
LINE
  8
0
 10
441.85
 11
441.905
 20
12.2
 21
12.69
  0
LINE
  8
0
 10
441.905
 11
442.068
 20
12.69
 21
13.155
  0
LINE
  8
0
 10
442.068
 11
442.33
 20
13.155
 21
13.572
  0
LINE
  8
0
 10
442.33
 11
442.678
 20
13.572
 21
13.92
  0
LINE
  8
0
 10
442.678
 11
443.095
 20
13.92
 21
14.182
  0
LINE
  8
0
 10
443.095
 11
443.56
 20
14.182
 21
14.345
  0
LINE
  8
0
 10
443.56
 11
444.05
 20
14.345
 21
14.4
  0
LINE
  8
0
 10
444.05
 11
444.54
 20
14.4
 21
14.345
  0
LINE
  8
0
 10
444.54
 11
445.005
 20
14.345
 21
14.182
  0
LINE
  8
0
 10
445.005
 11
445.422
 20
14.182
 21
13.92
  0
LINE
  8
0
 10
445.422
 11
445.77
 20
13.92
 21
13.572
  0
LINE
  8
0
 10
445.77
 11
446.032
 20
13.572
 21
13.155
  0
LINE
  8
0
 10
446.032
 11
446.195
 20
13.155
 21
12.69
  0
LINE
  8
0
 10
446.195
 11
446.25
 20
12.69
 21
12.2
  0
LINE
  8
0
 10
446.25
 11
446.195
 20
12.2
 21
11.71
  0
LINE
  8
0
 10
446.195
 11
446.032
 20
11.71
 21
11.245
  0
LINE
  8
0
 10
446.032
 11
445.77
 20
11.245
 21
10.828
  0
LINE
  8
0
 10
445.77
 11
445.422
 20
10.828
 21
10.48
  0
LINE
  8
0
 10
445.422
 11
445.005
 20
10.48
 21
10.218
  0
LINE
  8
0
 10
445.005
 11
444.54
 20
10.218
 21
10.055
  0
LINE
  8
0
 10
444.54
 11
444.05
 20
10.055
 21
10
  0
LINE
  8
0
 10
444.05
 11
443.56
 20
10
 21
10.055
  0
LINE
  8
0
 10
443.56
 11
443.095
 20
10.055
 21
10.218
  0
LINE
  8
0
 10
443.095
 11
442.678
 20
10.218
 21
10.48
  0
LINE
  8
0
 10
442.678
 11
442.33
 20
10.48
 21
10.828
  0
LINE
  8
0
 10
442.33
 11
442.068
 20
10.828
 21
11.245
  0
LINE
  8
0
 10
442.068
 11
441.905
 20
11.245
 21
11.71
  0
LINE
  8
0
 10
441.905
 11
441.85
 20
11.71
 21
12.2
  0
ENDSEC
  0
SECTION
  2
OBJECTS
  0
DICTIONARY
  0
ENDSEC
  0
EOF
