<?xml version="1.0"?>
<svg xmlns="http://www.w3.org/2000/svg" version="1.1" height="1223mm" width="926mm" >
 <g style="fill-opacity:1.0; stroke:black; stroke-width:1;">
  <line x1="915.500000mm" y1="1213.000000mm" x2="915.500000mm" y2="1213.000000mm" />
  <line x1="915.500000mm" y1="1213.000000mm" x2="0.000000mm" y2="1213.000000mm" />
  <line x1="0.000000mm" y1="1213.000000mm" x2="0.000000mm" y2="0.000000mm" />
  <line x1="0.000000mm" y1="0.000000mm" x2="915.500000mm" y2="0.000000mm" />
  <line x1="915.500000mm" y1="0.000000mm" x2="915.500000mm" y2="1213.000000mm" />
  <circle cx="32.309964mm" cy="519.299964mm" r="2.200229mm" fill="none"/>
  <line x1="36.710421mm" y1="519.299964mm" x2="27.909507mm" y2="519.299964mm" />
  <line x1="32.309964mm" y1="514.899507mm" x2="32.309964mm" y2="523.700421mm" />
  <text x="34mm" y="517mm" font-size="24">
   4.4
  </text>
  <circle cx="36.999971mm" cy="606.499864mm" r="4.000103mm" fill="none"/>
  <line x1="45.000177mm" y1="606.499864mm" x2="28.999766mm" y2="606.499864mm" />
  <line x1="36.999971mm" y1="598.499659mm" x2="36.999971mm" y2="614.500070mm" />
  <text x="41mm" y="602mm" font-size="24">
   8.0
  </text>
  <circle cx="93.689964mm" cy="519.299964mm" r="2.200229mm" fill="none"/>
  <line x1="98.090421mm" y1="519.299964mm" x2="89.289507mm" y2="519.299964mm" />
  <line x1="93.689964mm" y1="514.899507mm" x2="93.689964mm" y2="523.700421mm" />
  <text x="95mm" y="517mm" font-size="24">
   4.4
  </text>
  <circle cx="94.699964mm" cy="32.309964mm" r="2.200229mm" fill="none"/>
  <line x1="99.100421mm" y1="32.309964mm" x2="90.299507mm" y2="32.309964mm" />
  <line x1="94.699964mm" y1="27.909507mm" x2="94.699964mm" y2="36.710421mm" />
  <text x="96mm" y="30mm" font-size="24">
   4.4
  </text>
  <circle cx="251.969964mm" cy="1200.499964mm" r="2.200229mm" fill="none"/>
  <line x1="256.370421mm" y1="1200.499964mm" x2="247.569507mm" y2="1200.499964mm" />
  <line x1="251.969964mm" y1="1196.099507mm" x2="251.969964mm" y2="1204.900421mm" />
  <text x="254mm" y="1198mm" font-size="24">
   4.4
  </text>
  <circle cx="251.969964mm" cy="12.499964mm" r="2.200229mm" fill="none"/>
  <line x1="256.370421mm" y1="12.499964mm" x2="247.569507mm" y2="12.499964mm" />
  <line x1="251.969964mm" y1="8.099507mm" x2="251.969964mm" y2="16.900421mm" />
  <text x="254mm" y="10mm" font-size="24">
   4.4
  </text>
  <circle cx="308.969964mm" cy="1200.499964mm" r="2.200229mm" fill="none"/>
  <line x1="313.370421mm" y1="1200.499964mm" x2="304.569507mm" y2="1200.499964mm" />
  <line x1="308.969964mm" y1="1196.099507mm" x2="308.969964mm" y2="1204.900421mm" />
  <text x="311mm" y="1198mm" font-size="24">
   4.4
  </text>
  <circle cx="308.969964mm" cy="12.499964mm" r="2.200229mm" fill="none"/>
  <line x1="313.370421mm" y1="12.499964mm" x2="304.569507mm" y2="12.499964mm" />
  <line x1="308.969964mm" y1="8.099507mm" x2="308.969964mm" y2="16.900421mm" />
  <text x="311mm" y="10mm" font-size="24">
   4.4
  </text>
  <circle cx="419.489964mm" cy="26.499964mm" r="2.200229mm" fill="none"/>
  <line x1="423.890421mm" y1="26.499964mm" x2="415.089507mm" y2="26.499964mm" />
  <line x1="419.489964mm" y1="22.099507mm" x2="419.489964mm" y2="30.900421mm" />
  <text x="421mm" y="24mm" font-size="24">
   4.4
  </text>
  <circle cx="429.189964mm" cy="315.499964mm" r="2.200229mm" fill="none"/>
  <line x1="433.590421mm" y1="315.499964mm" x2="424.789507mm" y2="315.499964mm" />
  <line x1="429.189964mm" y1="311.099507mm" x2="429.189964mm" y2="319.900421mm" />
  <text x="431mm" y="313mm" font-size="24">
   4.4
  </text>
  <circle cx="441.989964mm" cy="1201.499964mm" r="2.200229mm" fill="none"/>
  <line x1="446.390421mm" y1="1201.499964mm" x2="437.589507mm" y2="1201.499964mm" />
  <line x1="441.989964mm" y1="1197.099507mm" x2="441.989964mm" y2="1205.900421mm" />
  <text x="444mm" y="1199mm" font-size="24">
   4.4
  </text>
  <circle cx="441.989964mm" cy="1130.499964mm" r="2.200229mm" fill="none"/>
  <line x1="446.390421mm" y1="1130.499964mm" x2="437.589507mm" y2="1130.499964mm" />
  <line x1="441.989964mm" y1="1126.099507mm" x2="441.989964mm" y2="1134.900421mm" />
  <text x="444mm" y="1128mm" font-size="24">
   4.4
  </text>
  <circle cx="463.989964mm" cy="1201.499964mm" r="2.200229mm" fill="none"/>
  <line x1="468.390421mm" y1="1201.499964mm" x2="459.589507mm" y2="1201.499964mm" />
  <line x1="463.989964mm" y1="1197.099507mm" x2="463.989964mm" y2="1205.900421mm" />
  <text x="466mm" y="1199mm" font-size="24">
   4.4
  </text>
  <circle cx="463.989964mm" cy="1130.499964mm" r="2.200229mm" fill="none"/>
  <line x1="468.390421mm" y1="1130.499964mm" x2="459.589507mm" y2="1130.499964mm" />
  <line x1="463.989964mm" y1="1126.099507mm" x2="463.989964mm" y2="1134.900421mm" />
  <text x="466mm" y="1128mm" font-size="24">
   4.4
  </text>
  <circle cx="473.809964mm" cy="315.499964mm" r="2.200229mm" fill="none"/>
  <line x1="478.210421mm" y1="315.499964mm" x2="469.409507mm" y2="315.499964mm" />
  <line x1="473.809964mm" y1="311.099507mm" x2="473.809964mm" y2="319.900421mm" />
  <text x="476mm" y="313mm" font-size="24">
   4.4
  </text>
  <circle cx="477.749964mm" cy="254.899964mm" r="2.200229mm" fill="none"/>
  <line x1="482.150421mm" y1="254.899964mm" x2="473.349507mm" y2="254.899964mm" />
  <line x1="477.749964mm" y1="250.499507mm" x2="477.749964mm" y2="259.300421mm" />
  <text x="479mm" y="252mm" font-size="24">
   4.4
  </text>
  <circle cx="594.029964mm" cy="946.999964mm" r="2.200229mm" fill="none"/>
  <line x1="598.430421mm" y1="946.999964mm" x2="589.629507mm" y2="946.999964mm" />
  <line x1="594.029964mm" y1="942.599507mm" x2="594.029964mm" y2="951.400421mm" />
  <text x="596mm" y="944mm" font-size="24">
   4.4
  </text>
  <circle cx="594.029964mm" cy="275.999964mm" r="2.200229mm" fill="none"/>
  <line x1="598.430421mm" y1="275.999964mm" x2="589.629507mm" y2="275.999964mm" />
  <line x1="594.029964mm" y1="271.599507mm" x2="594.029964mm" y2="280.400421mm" />
  <text x="596mm" y="273mm" font-size="24">
   4.4
  </text>
  <circle cx="651.029964mm" cy="946.999964mm" r="2.200229mm" fill="none"/>
  <line x1="655.430421mm" y1="946.999964mm" x2="646.629507mm" y2="946.999964mm" />
  <line x1="651.029964mm" y1="942.599507mm" x2="651.029964mm" y2="951.400421mm" />
  <text x="653mm" y="944mm" font-size="24">
   4.4
  </text>
  <circle cx="651.029964mm" cy="275.999964mm" r="2.200229mm" fill="none"/>
  <line x1="655.430421mm" y1="275.999964mm" x2="646.629507mm" y2="275.999964mm" />
  <line x1="651.029964mm" y1="271.599507mm" x2="651.029964mm" y2="280.400421mm" />
  <text x="653mm" y="273mm" font-size="24">
   4.4
  </text>
  <circle cx="766.399964mm" cy="932.499964mm" r="2.200229mm" fill="none"/>
  <line x1="770.800421mm" y1="932.499964mm" x2="761.999507mm" y2="932.499964mm" />
  <line x1="766.399964mm" y1="928.099507mm" x2="766.399964mm" y2="936.900421mm" />
  <text x="768mm" y="930mm" font-size="24">
   4.4
  </text>
  <circle cx="766.399964mm" cy="512.099964mm" r="2.200229mm" fill="none"/>
  <line x1="770.800421mm" y1="512.099964mm" x2="761.999507mm" y2="512.099964mm" />
  <line x1="766.399964mm" y1="507.699507mm" x2="766.399964mm" y2="516.500421mm" />
  <text x="768mm" y="509mm" font-size="24">
   4.4
  </text>
  <circle cx="790.699964mm" cy="32.309964mm" r="2.200229mm" fill="none"/>
  <line x1="795.100421mm" y1="32.309964mm" x2="786.299507mm" y2="32.309964mm" />
  <line x1="790.699964mm" y1="27.909507mm" x2="790.699964mm" y2="36.710421mm" />
  <text x="792mm" y="30mm" font-size="24">
   4.4
  </text>
  <circle cx="834.999971mm" cy="606.499864mm" r="4.000103mm" fill="none"/>
  <line x1="843.000177mm" y1="606.499864mm" x2="826.999766mm" y2="606.499864mm" />
  <line x1="834.999971mm" y1="598.499659mm" x2="834.999971mm" y2="614.500070mm" />
  <text x="839mm" y="602mm" font-size="24">
   8.0
  </text>
  <circle cx="854.709964mm" cy="519.299964mm" r="2.200229mm" fill="none"/>
  <line x1="859.110421mm" y1="519.299964mm" x2="850.309507mm" y2="519.299964mm" />
  <line x1="854.709964mm" y1="514.899507mm" x2="854.709964mm" y2="523.700421mm" />
  <text x="856mm" y="517mm" font-size="24">
   4.4
  </text>
  <circle cx="883.189964mm" cy="519.299964mm" r="2.200229mm" fill="none"/>
  <line x1="887.590421mm" y1="519.299964mm" x2="878.789507mm" y2="519.299964mm" />
  <line x1="883.189964mm" y1="514.899507mm" x2="883.189964mm" y2="523.700421mm" />
  <text x="885mm" y="517mm" font-size="24">
   4.4
  </text>
  <circle cx="900.299964mm" cy="141.999964mm" r="2.200229mm" fill="none"/>
  <line x1="904.700421mm" y1="141.999964mm" x2="895.899507mm" y2="141.999964mm" />
  <line x1="900.299964mm" y1="137.599507mm" x2="900.299964mm" y2="146.400421mm" />
  <text x="902mm" y="139mm" font-size="24">
   4.4
  </text>
 </g>
</svg>
