<?xml version="1.0"?>
<svg xmlns="http://www.w3.org/2000/svg" version="1.1" height="1077mm" width="819mm" >
 <g style="fill-opacity:1.0; stroke:black; stroke-width:1;">
  <line x1="809.000000mm" y1="1067.000000mm" x2="809.000000mm" y2="1067.000000mm" />
  <line x1="809.000000mm" y1="1067.000000mm" x2="0.000000mm" y2="1067.000000mm" />
  <line x1="0.000000mm" y1="1067.000000mm" x2="0.000000mm" y2="535.500000mm" />
  <line x1="0.000000mm" y1="535.500000mm" x2="809.000000mm" y2="535.500000mm" />
  <line x1="809.000000mm" y1="535.500000mm" x2="809.000000mm" y2="1067.000000mm" />
  <line x1="809.000000mm" y1="531.500000mm" x2="809.000000mm" y2="531.500000mm" />
  <line x1="809.000000mm" y1="531.500000mm" x2="0.000000mm" y2="531.500000mm" />
  <line x1="0.000000mm" y1="531.500000mm" x2="0.000000mm" y2="0.000000mm" />
  <line x1="0.000000mm" y1="0.000000mm" x2="809.000000mm" y2="0.000000mm" />
  <line x1="809.000000mm" y1="0.000000mm" x2="809.000000mm" y2="531.500000mm" />
  <circle cx="8.500151mm" cy="820.199567mm" r="3.499825mm" fill="none"/>
  <line x1="15.499802mm" y1="820.199567mm" x2="1.500500mm" y2="820.199567mm" />
  <line x1="8.500151mm" y1="813.199917mm" x2="8.500151mm" y2="827.199218mm" />
  <text x="11mm" y="816mm" font-size="24">
   7.0
  </text>
  <circle cx="7.500170mm" cy="562.399939mm" r="2.500268mm" fill="none"/>
  <line x1="12.500707mm" y1="562.399939mm" x2="2.499633mm" y2="562.399939mm" />
  <line x1="7.500170mm" y1="557.399402mm" x2="7.500170mm" y2="567.400476mm" />
  <text x="10mm" y="559mm" font-size="24">
   5.0
  </text>
  <circle cx="7.000009mm" cy="805.399777mm" r="1.999983mm" fill="none"/>
  <line x1="10.999974mm" y1="805.399777mm" x2="3.000044mm" y2="805.399777mm" />
  <line x1="7.000009mm" y1="801.399812mm" x2="7.000009mm" y2="809.399742mm" />
  <text x="8mm" y="803mm" font-size="24">
   4.0
  </text>
  <circle cx="7.000009mm" cy="571.899777mm" r="1.999983mm" fill="none"/>
  <line x1="10.999974mm" y1="571.899777mm" x2="3.000044mm" y2="571.899777mm" />
  <line x1="7.000009mm" y1="567.899812mm" x2="7.000009mm" y2="575.899742mm" />
  <text x="8mm" y="569mm" font-size="24">
   4.0
  </text>
  <circle cx="12.199964mm" cy="1053.299964mm" r="2.200229mm" fill="none"/>
  <line x1="16.600421mm" y1="1053.299964mm" x2="7.799507mm" y2="1053.299964mm" />
  <line x1="12.199964mm" y1="1048.899507mm" x2="12.199964mm" y2="1057.700421mm" />
  <text x="14mm" y="1051mm" font-size="24">
   4.4
  </text>
  <circle cx="12.199964mm" cy="1016.079964mm" r="2.200229mm" fill="none"/>
  <line x1="16.600421mm" y1="1016.079964mm" x2="7.799507mm" y2="1016.079964mm" />
  <line x1="12.199964mm" y1="1011.679507mm" x2="12.199964mm" y2="1020.480421mm" />
  <text x="14mm" y="1013mm" font-size="24">
   4.4
  </text>
  <circle cx="12.199964mm" cy="50.919964mm" r="2.200229mm" fill="none"/>
  <line x1="16.600421mm" y1="50.919964mm" x2="7.799507mm" y2="50.919964mm" />
  <line x1="12.199964mm" y1="46.519507mm" x2="12.199964mm" y2="55.320421mm" />
  <text x="14mm" y="48mm" font-size="24">
   4.4
  </text>
  <circle cx="12.199964mm" cy="13.699964mm" r="2.200229mm" fill="none"/>
  <line x1="16.600421mm" y1="13.699964mm" x2="7.799507mm" y2="13.699964mm" />
  <line x1="12.199964mm" y1="9.299507mm" x2="12.199964mm" y2="18.100421mm" />
  <text x="14mm" y="11mm" font-size="24">
   4.4
  </text>
  <circle cx="38.099964mm" cy="547.699964mm" r="2.200229mm" fill="none"/>
  <line x1="42.500421mm" y1="547.699964mm" x2="33.699507mm" y2="547.699964mm" />
  <line x1="38.099964mm" y1="543.299507mm" x2="38.099964mm" y2="552.100421mm" />
  <text x="40mm" y="545mm" font-size="24">
   4.4
  </text>
  <circle cx="38.099964mm" cy="519.299964mm" r="2.200229mm" fill="none"/>
  <line x1="42.500421mm" y1="519.299964mm" x2="33.699507mm" y2="519.299964mm" />
  <line x1="38.099964mm" y1="514.899507mm" x2="38.099964mm" y2="523.700421mm" />
  <text x="40mm" y="517mm" font-size="24">
   4.4
  </text>
  <circle cx="44.899964mm" cy="1055.999964mm" r="2.200229mm" fill="none"/>
  <line x1="49.300421mm" y1="1055.999964mm" x2="40.499507mm" y2="1055.999964mm" />
  <line x1="44.899964mm" y1="1051.599507mm" x2="44.899964mm" y2="1060.400421mm" />
  <text x="47mm" y="1053mm" font-size="24">
   4.4
  </text>
  <circle cx="55.249964mm" cy="500.849964mm" r="2.200229mm" fill="none"/>
  <line x1="59.650421mm" y1="500.849964mm" x2="50.849507mm" y2="500.849964mm" />
  <line x1="55.249964mm" y1="496.449507mm" x2="55.249964mm" y2="505.250421mm" />
  <text x="57mm" y="498mm" font-size="24">
   4.4
  </text>
  <circle cx="55.249964mm" cy="429.349964mm" r="2.200229mm" fill="none"/>
  <line x1="59.650421mm" y1="429.349964mm" x2="50.849507mm" y2="429.349964mm" />
  <line x1="55.249964mm" y1="424.949507mm" x2="55.249964mm" y2="433.750421mm" />
  <text x="57mm" y="427mm" font-size="24">
   4.4
  </text>
  <circle cx="91.000225mm" cy="465.099651mm" r="37.499925mm" fill="none"/>
  <line x1="166.000075mm" y1="465.099651mm" x2="16.000375mm" y2="465.099651mm" />
  <line x1="91.000225mm" y1="390.099800mm" x2="91.000225mm" y2="540.099501mm" />
  <text x="128mm" y="427mm" font-size="24">
   75.0
  </text>
  <circle cx="75.319964mm" cy="547.699964mm" r="2.200229mm" fill="none"/>
  <line x1="79.720421mm" y1="547.699964mm" x2="70.919507mm" y2="547.699964mm" />
  <line x1="75.319964mm" y1="543.299507mm" x2="75.319964mm" y2="552.100421mm" />
  <text x="77mm" y="545mm" font-size="24">
   4.4
  </text>
  <circle cx="75.319964mm" cy="519.299964mm" r="2.200229mm" fill="none"/>
  <line x1="79.720421mm" y1="519.299964mm" x2="70.919507mm" y2="519.299964mm" />
  <line x1="75.319964mm" y1="514.899507mm" x2="75.319964mm" y2="523.700421mm" />
  <text x="77mm" y="517mm" font-size="24">
   4.4
  </text>
  <circle cx="126.749964mm" cy="500.849964mm" r="2.200229mm" fill="none"/>
  <line x1="131.150421mm" y1="500.849964mm" x2="122.349507mm" y2="500.849964mm" />
  <line x1="126.749964mm" y1="496.449507mm" x2="126.749964mm" y2="505.250421mm" />
  <text x="128mm" y="498mm" font-size="24">
   4.4
  </text>
  <circle cx="126.749964mm" cy="429.349964mm" r="2.200229mm" fill="none"/>
  <line x1="131.150421mm" y1="429.349964mm" x2="122.349507mm" y2="429.349964mm" />
  <line x1="126.749964mm" y1="424.949507mm" x2="126.749964mm" y2="433.750421mm" />
  <text x="128mm" y="427mm" font-size="24">
   4.4
  </text>
  <circle cx="129.899964mm" cy="1055.999964mm" r="2.200229mm" fill="none"/>
  <line x1="134.300421mm" y1="1055.999964mm" x2="125.499507mm" y2="1055.999964mm" />
  <line x1="129.899964mm" y1="1051.599507mm" x2="129.899964mm" y2="1060.400421mm" />
  <text x="132mm" y="1053mm" font-size="24">
   4.4
  </text>
  <circle cx="200.050194mm" cy="1044.450223mm" r="0.849908mm" fill="none"/>
  <line x1="201.750009mm" y1="1044.450223mm" x2="198.350378mm" y2="1044.450223mm" />
  <line x1="200.050194mm" y1="1042.750407mm" x2="200.050194mm" y2="1046.150038mm" />
  <text x="200mm" y="1043mm" font-size="24">
   1.7
  </text>
  <circle cx="214.350194mm" cy="1028.550223mm" r="0.849908mm" fill="none"/>
  <line x1="216.050009mm" y1="1028.550223mm" x2="212.650378mm" y2="1028.550223mm" />
  <line x1="214.350194mm" y1="1026.850407mm" x2="214.350194mm" y2="1030.250038mm" />
  <text x="215mm" y="1027mm" font-size="24">
   1.7
  </text>
  <circle cx="250.650194mm" cy="1044.450223mm" r="0.849908mm" fill="none"/>
  <line x1="252.350009mm" y1="1044.450223mm" x2="248.950378mm" y2="1044.450223mm" />
  <line x1="250.650194mm" y1="1042.750407mm" x2="250.650194mm" y2="1046.150038mm" />
  <text x="251mm" y="1043mm" font-size="24">
   1.7
  </text>
  <circle cx="264.950194mm" cy="1028.550223mm" r="0.849908mm" fill="none"/>
  <line x1="266.650009mm" y1="1028.550223mm" x2="263.250378mm" y2="1028.550223mm" />
  <line x1="264.950194mm" y1="1026.850407mm" x2="264.950194mm" y2="1030.250038mm" />
  <text x="265mm" y="1027mm" font-size="24">
   1.7
  </text>
  <circle cx="391.370087mm" cy="822.205061mm" r="1.250061mm" fill="none"/>
  <line x1="393.870208mm" y1="822.205061mm" x2="388.869966mm" y2="822.205061mm" />
  <line x1="391.370087mm" y1="819.704939mm" x2="391.370087mm" y2="824.705182mm" />
  <text x="392mm" y="820mm" font-size="24">
   2.5
  </text>
  <circle cx="391.370087mm" cy="780.295061mm" r="1.250061mm" fill="none"/>
  <line x1="393.870208mm" y1="780.295061mm" x2="388.869966mm" y2="780.295061mm" />
  <line x1="391.370087mm" y1="777.794939mm" x2="391.370087mm" y2="782.795182mm" />
  <text x="392mm" y="779mm" font-size="24">
   2.5
  </text>
  <circle cx="592.030087mm" cy="822.205061mm" r="1.250061mm" fill="none"/>
  <line x1="594.530208mm" y1="822.205061mm" x2="589.529966mm" y2="822.205061mm" />
  <line x1="592.030087mm" y1="819.704939mm" x2="592.030087mm" y2="824.705182mm" />
  <text x="593mm" y="820mm" font-size="24">
   2.5
  </text>
  <circle cx="592.030087mm" cy="780.295061mm" r="1.250061mm" fill="none"/>
  <line x1="594.530208mm" y1="780.295061mm" x2="589.529966mm" y2="780.295061mm" />
  <line x1="592.030087mm" y1="777.794939mm" x2="592.030087mm" y2="782.795182mm" />
  <text x="593mm" y="779mm" font-size="24">
   2.5
  </text>
  <circle cx="676.511627mm" cy="571.599813mm" r="2.199934mm" fill="none"/>
  <line x1="680.911494mm" y1="571.599813mm" x2="672.111760mm" y2="571.599813mm" />
  <line x1="676.511627mm" y1="567.199946mm" x2="676.511627mm" y2="575.999680mm" />
  <text x="678mm" y="569mm" font-size="24">
   4.4
  </text>
  <circle cx="676.511627mm" cy="446.599813mm" r="2.199934mm" fill="none"/>
  <line x1="680.911494mm" y1="446.599813mm" x2="672.111760mm" y2="446.599813mm" />
  <line x1="676.511627mm" y1="442.199946mm" x2="676.511627mm" y2="450.999680mm" />
  <text x="678mm" y="444mm" font-size="24">
   4.4
  </text>
  <circle cx="702.479808mm" cy="543.500013mm" r="2.999761mm" fill="none"/>
  <line x1="708.479330mm" y1="543.500013mm" x2="696.480285mm" y2="543.500013mm" />
  <line x1="702.479808mm" y1="537.500490mm" x2="702.479808mm" y2="549.499535mm" />
  <text x="705mm" y="540mm" font-size="24">
   6.0
  </text>
  <circle cx="702.479808mm" cy="523.500013mm" r="2.999761mm" fill="none"/>
  <line x1="708.479330mm" y1="523.500013mm" x2="696.480285mm" y2="523.500013mm" />
  <line x1="702.479808mm" y1="517.500490mm" x2="702.479808mm" y2="529.499535mm" />
  <text x="705mm" y="520mm" font-size="24">
   6.0
  </text>
  <circle cx="716.579818mm" cy="542.500055mm" r="2.000011mm" fill="none"/>
  <line x1="720.579840mm" y1="542.500055mm" x2="712.579795mm" y2="542.500055mm" />
  <line x1="716.579818mm" y1="538.500033mm" x2="716.579818mm" y2="546.500077mm" />
  <text x="718mm" y="540mm" font-size="24">
   4.0
  </text>
  <circle cx="716.579818mm" cy="524.500055mm" r="2.000011mm" fill="none"/>
  <line x1="720.579840mm" y1="524.500055mm" x2="712.579795mm" y2="524.500055mm" />
  <line x1="716.579818mm" y1="520.500033mm" x2="716.579818mm" y2="528.500077mm" />
  <text x="718mm" y="522mm" font-size="24">
   4.0
  </text>
  <circle cx="733.679964mm" cy="547.699964mm" r="2.200229mm" fill="none"/>
  <line x1="738.080421mm" y1="547.699964mm" x2="729.279507mm" y2="547.699964mm" />
  <line x1="733.679964mm" y1="543.299507mm" x2="733.679964mm" y2="552.100421mm" />
  <text x="735mm" y="545mm" font-size="24">
   4.4
  </text>
  <circle cx="733.679964mm" cy="519.299964mm" r="2.200229mm" fill="none"/>
  <line x1="738.080421mm" y1="519.299964mm" x2="729.279507mm" y2="519.299964mm" />
  <line x1="733.679964mm" y1="514.899507mm" x2="733.679964mm" y2="523.700421mm" />
  <text x="735mm" y="517mm" font-size="24">
   4.4
  </text>
  <circle cx="770.899964mm" cy="547.699964mm" r="2.200229mm" fill="none"/>
  <line x1="775.300421mm" y1="547.699964mm" x2="766.499507mm" y2="547.699964mm" />
  <line x1="770.899964mm" y1="543.299507mm" x2="770.899964mm" y2="552.100421mm" />
  <text x="773mm" y="545mm" font-size="24">
   4.4
  </text>
  <circle cx="770.899964mm" cy="519.299964mm" r="2.200229mm" fill="none"/>
  <line x1="775.300421mm" y1="519.299964mm" x2="766.499507mm" y2="519.299964mm" />
  <line x1="770.899964mm" y1="514.899507mm" x2="770.899964mm" y2="523.700421mm" />
  <text x="773mm" y="517mm" font-size="24">
   4.4
  </text>
 </g>
</svg>
