  0
SECTION
  2
BLOCKS
  0
ENDSEC
  0
SECTION
  2
ENTITIES
  0
LINE
  8
0
 10
0
 11
0
 20
0
 21
531.5
  0
LINE
  8
0
 10
0
 11
809
 20
531.5
 21
531.5
  0
LINE
  8
0
 10
809
 11
809
 20
531.5
 21
0
  0
LINE
  8
0
 10
809
 11
0
 20
0
 21
0
  0
LINE
  8
0
 10
10
 11
10.055
 20
480.58
 21
481.07
  0
LINE
  8
0
 10
10.055
 11
10.218
 20
481.07
 21
481.535
  0
LINE
  8
0
 10
10.218
 11
10.48
 20
481.535
 21
481.952
  0
LINE
  8
0
 10
10.48
 11
10.828
 20
481.952
 21
482.3
  0
LINE
  8
0
 10
10.828
 11
11.245
 20
482.3
 21
482.562
  0
LINE
  8
0
 10
11.245
 11
11.71
 20
482.562
 21
482.725
  0
LINE
  8
0
 10
11.71
 11
12.2
 20
482.725
 21
482.78
  0
LINE
  8
0
 10
12.2
 11
12.69
 20
482.78
 21
482.725
  0
LINE
  8
0
 10
12.69
 11
13.155
 20
482.725
 21
482.562
  0
LINE
  8
0
 10
13.155
 11
13.572
 20
482.562
 21
482.3
  0
LINE
  8
0
 10
13.572
 11
13.92
 20
482.3
 21
481.952
  0
LINE
  8
0
 10
13.92
 11
14.182
 20
481.952
 21
481.535
  0
LINE
  8
0
 10
14.182
 11
14.345
 20
481.535
 21
481.07
  0
LINE
  8
0
 10
14.345
 11
14.4
 20
481.07
 21
480.58
  0
LINE
  8
0
 10
14.4
 11
14.345
 20
480.58
 21
480.09
  0
LINE
  8
0
 10
14.345
 11
14.182
 20
480.09
 21
479.625
  0
LINE
  8
0
 10
14.182
 11
13.92
 20
479.625
 21
479.208
  0
LINE
  8
0
 10
13.92
 11
13.572
 20
479.208
 21
478.86
  0
LINE
  8
0
 10
13.572
 11
13.155
 20
478.86
 21
478.598
  0
LINE
  8
0
 10
13.155
 11
12.69
 20
478.598
 21
478.435
  0
LINE
  8
0
 10
12.69
 11
12.2
 20
478.435
 21
478.38
  0
LINE
  8
0
 10
12.2
 11
11.71
 20
478.38
 21
478.435
  0
LINE
  8
0
 10
11.71
 11
11.245
 20
478.435
 21
478.598
  0
LINE
  8
0
 10
11.245
 11
10.828
 20
478.598
 21
478.86
  0
LINE
  8
0
 10
10.828
 11
10.48
 20
478.86
 21
479.208
  0
LINE
  8
0
 10
10.48
 11
10.218
 20
479.208
 21
479.625
  0
LINE
  8
0
 10
10.218
 11
10.055
 20
479.625
 21
480.09
  0
LINE
  8
0
 10
10.055
 11
10
 20
480.09
 21
480.58
  0
LINE
  8
0
 10
10
 11
10.055
 20
517.8
 21
518.29
  0
LINE
  8
0
 10
10.055
 11
10.218
 20
518.29
 21
518.755
  0
LINE
  8
0
 10
10.218
 11
10.48
 20
518.755
 21
519.172
  0
LINE
  8
0
 10
10.48
 11
10.828
 20
519.172
 21
519.52
  0
LINE
  8
0
 10
10.828
 11
11.245
 20
519.52
 21
519.782
  0
LINE
  8
0
 10
11.245
 11
11.71
 20
519.782
 21
519.945
  0
LINE
  8
0
 10
11.71
 11
12.2
 20
519.945
 21
520
  0
LINE
  8
0
 10
12.2
 11
12.69
 20
520
 21
519.945
  0
LINE
  8
0
 10
12.69
 11
13.155
 20
519.945
 21
519.782
  0
LINE
  8
0
 10
13.155
 11
13.572
 20
519.782
 21
519.52
  0
LINE
  8
0
 10
13.572
 11
13.92
 20
519.52
 21
519.172
  0
LINE
  8
0
 10
13.92
 11
14.182
 20
519.172
 21
518.755
  0
LINE
  8
0
 10
14.182
 11
14.345
 20
518.755
 21
518.29
  0
LINE
  8
0
 10
14.345
 11
14.4
 20
518.29
 21
517.8
  0
LINE
  8
0
 10
14.4
 11
14.345
 20
517.8
 21
517.31
  0
LINE
  8
0
 10
14.345
 11
14.182
 20
517.31
 21
516.845
  0
LINE
  8
0
 10
14.182
 11
13.92
 20
516.845
 21
516.428
  0
LINE
  8
0
 10
13.92
 11
13.572
 20
516.428
 21
516.08
  0
LINE
  8
0
 10
13.572
 11
13.155
 20
516.08
 21
515.818
  0
LINE
  8
0
 10
13.155
 11
12.69
 20
515.818
 21
515.655
  0
LINE
  8
0
 10
12.69
 11
12.2
 20
515.655
 21
515.6
  0
LINE
  8
0
 10
12.2
 11
11.71
 20
515.6
 21
515.655
  0
LINE
  8
0
 10
11.71
 11
11.245
 20
515.655
 21
515.818
  0
LINE
  8
0
 10
11.245
 11
10.828
 20
515.818
 21
516.08
  0
LINE
  8
0
 10
10.828
 11
10.48
 20
516.08
 21
516.428
  0
LINE
  8
0
 10
10.48
 11
10.218
 20
516.428
 21
516.845
  0
LINE
  8
0
 10
10.218
 11
10.055
 20
516.845
 21
517.31
  0
LINE
  8
0
 10
10.055
 11
10
 20
517.31
 21
517.8
  0
LINE
  8
0
 10
35.9
 11
35.955
 20
12.2
 21
12.69
  0
LINE
  8
0
 10
35.955
 11
36.118
 20
12.69
 21
13.155
  0
LINE
  8
0
 10
36.118
 11
36.38
 20
13.155
 21
13.572
  0
LINE
  8
0
 10
36.38
 11
36.728
 20
13.572
 21
13.92
  0
LINE
  8
0
 10
36.728
 11
37.145
 20
13.92
 21
14.182
  0
LINE
  8
0
 10
37.145
 11
37.61
 20
14.182
 21
14.345
  0
LINE
  8
0
 10
37.61
 11
38.1
 20
14.345
 21
14.4
  0
LINE
  8
0
 10
38.1
 11
38.59
 20
14.4
 21
14.345
  0
LINE
  8
0
 10
38.59
 11
39.055
 20
14.345
 21
14.182
  0
LINE
  8
0
 10
39.055
 11
39.472
 20
14.182
 21
13.92
  0
LINE
  8
0
 10
39.472
 11
39.82
 20
13.92
 21
13.572
  0
LINE
  8
0
 10
39.82
 11
40.082
 20
13.572
 21
13.155
  0
LINE
  8
0
 10
40.082
 11
40.245
 20
13.155
 21
12.69
  0
LINE
  8
0
 10
40.245
 11
40.3
 20
12.69
 21
12.2
  0
LINE
  8
0
 10
40.3
 11
40.245
 20
12.2
 21
11.71
  0
LINE
  8
0
 10
40.245
 11
40.082
 20
11.71
 21
11.245
  0
LINE
  8
0
 10
40.082
 11
39.82
 20
11.245
 21
10.828
  0
LINE
  8
0
 10
39.82
 11
39.472
 20
10.828
 21
10.48
  0
LINE
  8
0
 10
39.472
 11
39.055
 20
10.48
 21
10.218
  0
LINE
  8
0
 10
39.055
 11
38.59
 20
10.218
 21
10.055
  0
LINE
  8
0
 10
38.59
 11
38.1
 20
10.055
 21
10
  0
LINE
  8
0
 10
38.1
 11
37.61
 20
10
 21
10.055
  0
LINE
  8
0
 10
37.61
 11
37.145
 20
10.055
 21
10.218
  0
LINE
  8
0
 10
37.145
 11
36.728
 20
10.218
 21
10.48
  0
LINE
  8
0
 10
36.728
 11
36.38
 20
10.48
 21
10.828
  0
LINE
  8
0
 10
36.38
 11
36.118
 20
10.828
 21
11.245
  0
LINE
  8
0
 10
36.118
 11
35.955
 20
11.245
 21
11.71
  0
LINE
  8
0
 10
35.955
 11
35.9
 20
11.71
 21
12.2
  0
LINE
  8
0
 10
53.05
 11
53.105
 20
30.65
 21
31.14
  0
LINE
  8
0
 10
53.105
 11
53.268
 20
31.14
 21
31.605
  0
LINE
  8
0
 10
53.268
 11
53.53
 20
31.605
 21
32.022
  0
LINE
  8
0
 10
53.53
 11
53.878
 20
32.022
 21
32.37
  0
LINE
  8
0
 10
53.878
 11
54.295
 20
32.37
 21
32.632
  0
LINE
  8
0
 10
54.295
 11
54.76
 20
32.632
 21
32.795
  0
LINE
  8
0
 10
54.76
 11
55.25
 20
32.795
 21
32.85
  0
LINE
  8
0
 10
55.25
 11
55.74
 20
32.85
 21
32.795
  0
LINE
  8
0
 10
55.74
 11
56.205
 20
32.795
 21
32.632
  0
LINE
  8
0
 10
56.205
 11
56.622
 20
32.632
 21
32.37
  0
LINE
  8
0
 10
56.622
 11
56.97
 20
32.37
 21
32.022
  0
LINE
  8
0
 10
56.97
 11
57.232
 20
32.022
 21
31.605
  0
LINE
  8
0
 10
57.232
 11
57.395
 20
31.605
 21
31.14
  0
LINE
  8
0
 10
57.395
 11
57.45
 20
31.14
 21
30.65
  0
LINE
  8
0
 10
57.45
 11
57.395
 20
30.65
 21
30.16
  0
LINE
  8
0
 10
57.395
 11
57.232
 20
30.16
 21
29.695
  0
LINE
  8
0
 10
57.232
 11
56.97
 20
29.695
 21
29.278
  0
LINE
  8
0
 10
56.97
 11
56.622
 20
29.278
 21
28.93
  0
LINE
  8
0
 10
56.622
 11
56.205
 20
28.93
 21
28.668
  0
LINE
  8
0
 10
56.205
 11
55.74
 20
28.668
 21
28.505
  0
LINE
  8
0
 10
55.74
 11
55.25
 20
28.505
 21
28.45
  0
LINE
  8
0
 10
55.25
 11
54.76
 20
28.45
 21
28.505
  0
LINE
  8
0
 10
54.76
 11
54.295
 20
28.505
 21
28.668
  0
LINE
  8
0
 10
54.295
 11
53.878
 20
28.668
 21
28.93
  0
LINE
  8
0
 10
53.878
 11
53.53
 20
28.93
 21
29.278
  0
LINE
  8
0
 10
53.53
 11
53.268
 20
29.278
 21
29.695
  0
LINE
  8
0
 10
53.268
 11
53.105
 20
29.695
 21
30.16
  0
LINE
  8
0
 10
53.105
 11
53.05
 20
30.16
 21
30.65
  0
LINE
  8
0
 10
53.05
 11
53.105
 20
102.15
 21
102.64
  0
LINE
  8
0
 10
53.105
 11
53.268
 20
102.64
 21
103.105
  0
LINE
  8
0
 10
53.268
 11
53.53
 20
103.105
 21
103.522
  0
LINE
  8
0
 10
53.53
 11
53.878
 20
103.522
 21
103.87
  0
LINE
  8
0
 10
53.878
 11
54.295
 20
103.87
 21
104.132
  0
LINE
  8
0
 10
54.295
 11
54.76
 20
104.132
 21
104.295
  0
LINE
  8
0
 10
54.76
 11
55.25
 20
104.295
 21
104.35
  0
LINE
  8
0
 10
55.25
 11
55.74
 20
104.35
 21
104.295
  0
LINE
  8
0
 10
55.74
 11
56.205
 20
104.295
 21
104.132
  0
LINE
  8
0
 10
56.205
 11
56.622
 20
104.132
 21
103.87
  0
LINE
  8
0
 10
56.622
 11
56.97
 20
103.87
 21
103.522
  0
LINE
  8
0
 10
56.97
 11
57.232
 20
103.522
 21
103.105
  0
LINE
  8
0
 10
57.232
 11
57.395
 20
103.105
 21
102.64
  0
LINE
  8
0
 10
57.395
 11
57.45
 20
102.64
 21
102.15
  0
LINE
  8
0
 10
57.45
 11
57.395
 20
102.15
 21
101.66
  0
LINE
  8
0
 10
57.395
 11
57.232
 20
101.66
 21
101.195
  0
LINE
  8
0
 10
57.232
 11
56.97
 20
101.195
 21
100.778
  0
LINE
  8
0
 10
56.97
 11
56.622
 20
100.778
 21
100.43
  0
LINE
  8
0
 10
56.622
 11
56.205
 20
100.43
 21
100.168
  0
LINE
  8
0
 10
56.205
 11
55.74
 20
100.168
 21
100.005
  0
LINE
  8
0
 10
55.74
 11
55.25
 20
100.005
 21
99.95
  0
LINE
  8
0
 10
55.25
 11
54.76
 20
99.95
 21
100.005
  0
LINE
  8
0
 10
54.76
 11
54.295
 20
100.005
 21
100.168
  0
LINE
  8
0
 10
54.295
 11
53.878
 20
100.168
 21
100.43
  0
LINE
  8
0
 10
53.878
 11
53.53
 20
100.43
 21
100.778
  0
LINE
  8
0
 10
53.53
 11
53.268
 20
100.778
 21
101.195
  0
LINE
  8
0
 10
53.268
 11
53.105
 20
101.195
 21
101.66
  0
LINE
  8
0
 10
53.105
 11
53.05
 20
101.66
 21
102.15
  0
LINE
  8
0
 10
53.5
 11
53.643
 20
66.4
 21
69.668
  0
LINE
  8
0
 10
53.643
 11
54.07
 20
69.668
 21
72.912
  0
LINE
  8
0
 10
54.07
 11
54.778
 20
72.912
 21
76.106
  0
LINE
  8
0
 10
54.778
 11
55.762
 20
76.106
 21
79.226
  0
LINE
  8
0
 10
55.762
 11
57.013
 20
79.226
 21
82.248
  0
LINE
  8
0
 10
57.013
 11
58.524
 20
82.248
 21
85.15
  0
LINE
  8
0
 10
58.524
 11
60.282
 20
85.15
 21
87.909
  0
LINE
  8
0
 10
60.282
 11
62.273
 20
87.909
 21
90.505
  0
LINE
  8
0
 10
62.273
 11
64.483
 20
90.505
 21
92.917
  0
LINE
  8
0
 10
64.483
 11
66.895
 20
92.917
 21
95.127
  0
LINE
  8
0
 10
66.895
 11
69.491
 20
95.127
 21
97.118
  0
LINE
  8
0
 10
69.491
 11
72.25
 20
97.118
 21
98.876
  0
LINE
  8
0
 10
72.25
 11
75.152
 20
98.876
 21
100.387
  0
LINE
  8
0
 10
75.152
 11
78.174
 20
100.387
 21
101.638
  0
LINE
  8
0
 10
78.174
 11
81.294
 20
101.638
 21
102.622
  0
LINE
  8
0
 10
81.294
 11
84.488
 20
102.622
 21
103.33
  0
LINE
  8
0
 10
84.488
 11
87.732
 20
103.33
 21
103.757
  0
LINE
  8
0
 10
87.732
 11
91
 20
103.757
 21
103.9
  0
LINE
  8
0
 10
91
 11
94.268
 20
103.9
 21
103.757
  0
LINE
  8
0
 10
94.268
 11
97.512
 20
103.757
 21
103.33
  0
LINE
  8
0
 10
97.512
 11
100.706
 20
103.33
 21
102.622
  0
LINE
  8
0
 10
100.706
 11
103.826
 20
102.622
 21
101.638
  0
LINE
  8
0
 10
103.826
 11
106.848
 20
101.638
 21
100.387
  0
LINE
  8
0
 10
106.848
 11
109.75
 20
100.387
 21
98.876
  0
LINE
  8
0
 10
109.75
 11
112.509
 20
98.876
 21
97.118
  0
LINE
  8
0
 10
112.509
 11
115.105
 20
97.118
 21
95.127
  0
LINE
  8
0
 10
115.105
 11
117.517
 20
95.127
 21
92.917
  0
LINE
  8
0
 10
117.517
 11
119.727
 20
92.917
 21
90.505
  0
LINE
  8
0
 10
119.727
 11
121.718
 20
90.505
 21
87.909
  0
LINE
  8
0
 10
121.718
 11
123.476
 20
87.909
 21
85.15
  0
LINE
  8
0
 10
123.476
 11
124.987
 20
85.15
 21
82.248
  0
LINE
  8
0
 10
124.987
 11
126.238
 20
82.248
 21
79.226
  0
LINE
  8
0
 10
126.238
 11
127.222
 20
79.226
 21
76.106
  0
LINE
  8
0
 10
127.222
 11
127.93
 20
76.106
 21
72.912
  0
LINE
  8
0
 10
127.93
 11
128.357
 20
72.912
 21
69.668
  0
LINE
  8
0
 10
128.357
 11
128.5
 20
69.668
 21
66.4
  0
LINE
  8
0
 10
128.5
 11
128.357
 20
66.4
 21
63.132
  0
LINE
  8
0
 10
128.357
 11
127.93
 20
63.132
 21
59.888
  0
LINE
  8
0
 10
127.93
 11
127.222
 20
59.888
 21
56.694
  0
LINE
  8
0
 10
127.222
 11
126.238
 20
56.694
 21
53.574
  0
LINE
  8
0
 10
126.238
 11
124.987
 20
53.574
 21
50.552
  0
LINE
  8
0
 10
124.987
 11
123.476
 20
50.552
 21
47.65
  0
LINE
  8
0
 10
123.476
 11
121.718
 20
47.65
 21
44.891
  0
LINE
  8
0
 10
121.718
 11
119.727
 20
44.891
 21
42.295
  0
LINE
  8
0
 10
119.727
 11
117.517
 20
42.295
 21
39.883
  0
LINE
  8
0
 10
117.517
 11
115.105
 20
39.883
 21
37.673
  0
LINE
  8
0
 10
115.105
 11
112.509
 20
37.673
 21
35.682
  0
LINE
  8
0
 10
112.509
 11
109.75
 20
35.682
 21
33.924
  0
LINE
  8
0
 10
109.75
 11
106.848
 20
33.924
 21
32.413
  0
LINE
  8
0
 10
106.848
 11
103.826
 20
32.413
 21
31.162
  0
LINE
  8
0
 10
103.826
 11
100.706
 20
31.162
 21
30.178
  0
LINE
  8
0
 10
100.706
 11
97.512
 20
30.178
 21
29.47
  0
LINE
  8
0
 10
97.512
 11
94.268
 20
29.47
 21
29.043
  0
LINE
  8
0
 10
94.268
 11
91
 20
29.043
 21
28.9
  0
LINE
  8
0
 10
91
 11
87.732
 20
28.9
 21
29.043
  0
LINE
  8
0
 10
87.732
 11
84.488
 20
29.043
 21
29.47
  0
LINE
  8
0
 10
84.488
 11
81.294
 20
29.47
 21
30.178
  0
LINE
  8
0
 10
81.294
 11
78.174
 20
30.178
 21
31.162
  0
LINE
  8
0
 10
78.174
 11
75.152
 20
31.162
 21
32.413
  0
LINE
  8
0
 10
75.152
 11
72.25
 20
32.413
 21
33.924
  0
LINE
  8
0
 10
72.25
 11
69.491
 20
33.924
 21
35.682
  0
LINE
  8
0
 10
69.491
 11
66.895
 20
35.682
 21
37.673
  0
LINE
  8
0
 10
66.895
 11
64.483
 20
37.673
 21
39.883
  0
LINE
  8
0
 10
64.483
 11
62.273
 20
39.883
 21
42.295
  0
LINE
  8
0
 10
62.273
 11
60.282
 20
42.295
 21
44.891
  0
LINE
  8
0
 10
60.282
 11
58.524
 20
44.891
 21
47.65
  0
LINE
  8
0
 10
58.524
 11
57.013
 20
47.65
 21
50.552
  0
LINE
  8
0
 10
57.013
 11
55.762
 20
50.552
 21
53.574
  0
LINE
  8
0
 10
55.762
 11
54.778
 20
53.574
 21
56.694
  0
LINE
  8
0
 10
54.778
 11
54.07
 20
56.694
 21
59.888
  0
LINE
  8
0
 10
54.07
 11
53.643
 20
59.888
 21
63.132
  0
LINE
  8
0
 10
53.643
 11
53.5
 20
63.132
 21
66.4
  0
LINE
  8
0
 10
73.12
 11
73.175
 20
12.2
 21
12.69
  0
LINE
  8
0
 10
73.175
 11
73.338
 20
12.69
 21
13.155
  0
LINE
  8
0
 10
73.338
 11
73.6
 20
13.155
 21
13.572
  0
LINE
  8
0
 10
73.6
 11
73.948
 20
13.572
 21
13.92
  0
LINE
  8
0
 10
73.948
 11
74.365
 20
13.92
 21
14.182
  0
LINE
  8
0
 10
74.365
 11
74.83
 20
14.182
 21
14.345
  0
LINE
  8
0
 10
74.83
 11
75.32
 20
14.345
 21
14.4
  0
LINE
  8
0
 10
75.32
 11
75.81
 20
14.4
 21
14.345
  0
LINE
  8
0
 10
75.81
 11
76.275
 20
14.345
 21
14.182
  0
LINE
  8
0
 10
76.275
 11
76.692
 20
14.182
 21
13.92
  0
LINE
  8
0
 10
76.692
 11
77.04
 20
13.92
 21
13.572
  0
LINE
  8
0
 10
77.04
 11
77.302
 20
13.572
 21
13.155
  0
LINE
  8
0
 10
77.302
 11
77.465
 20
13.155
 21
12.69
  0
LINE
  8
0
 10
77.465
 11
77.52
 20
12.69
 21
12.2
  0
LINE
  8
0
 10
77.52
 11
77.465
 20
12.2
 21
11.71
  0
LINE
  8
0
 10
77.465
 11
77.302
 20
11.71
 21
11.245
  0
LINE
  8
0
 10
77.302
 11
77.04
 20
11.245
 21
10.828
  0
LINE
  8
0
 10
77.04
 11
76.692
 20
10.828
 21
10.48
  0
LINE
  8
0
 10
76.692
 11
76.275
 20
10.48
 21
10.218
  0
LINE
  8
0
 10
76.275
 11
75.81
 20
10.218
 21
10.055
  0
LINE
  8
0
 10
75.81
 11
75.32
 20
10.055
 21
10
  0
LINE
  8
0
 10
75.32
 11
74.83
 20
10
 21
10.055
  0
LINE
  8
0
 10
74.83
 11
74.365
 20
10.055
 21
10.218
  0
LINE
  8
0
 10
74.365
 11
73.948
 20
10.218
 21
10.48
  0
LINE
  8
0
 10
73.948
 11
73.6
 20
10.48
 21
10.828
  0
LINE
  8
0
 10
73.6
 11
73.338
 20
10.828
 21
11.245
  0
LINE
  8
0
 10
73.338
 11
73.175
 20
11.245
 21
11.71
  0
LINE
  8
0
 10
73.175
 11
73.12
 20
11.71
 21
12.2
  0
LINE
  8
0
 10
124.55
 11
124.605
 20
30.65
 21
31.14
  0
LINE
  8
0
 10
124.605
 11
124.768
 20
31.14
 21
31.605
  0
LINE
  8
0
 10
124.768
 11
125.03
 20
31.605
 21
32.022
  0
LINE
  8
0
 10
125.03
 11
125.378
 20
32.022
 21
32.37
  0
LINE
  8
0
 10
125.378
 11
125.795
 20
32.37
 21
32.632
  0
LINE
  8
0
 10
125.795
 11
126.26
 20
32.632
 21
32.795
  0
LINE
  8
0
 10
126.26
 11
126.75
 20
32.795
 21
32.85
  0
LINE
  8
0
 10
126.75
 11
127.24
 20
32.85
 21
32.795
  0
LINE
  8
0
 10
127.24
 11
127.705
 20
32.795
 21
32.632
  0
LINE
  8
0
 10
127.705
 11
128.122
 20
32.632
 21
32.37
  0
LINE
  8
0
 10
128.122
 11
128.47
 20
32.37
 21
32.022
  0
LINE
  8
0
 10
128.47
 11
128.732
 20
32.022
 21
31.605
  0
LINE
  8
0
 10
128.732
 11
128.895
 20
31.605
 21
31.14
  0
LINE
  8
0
 10
128.895
 11
128.95
 20
31.14
 21
30.65
  0
LINE
  8
0
 10
128.95
 11
128.895
 20
30.65
 21
30.16
  0
LINE
  8
0
 10
128.895
 11
128.732
 20
30.16
 21
29.695
  0
LINE
  8
0
 10
128.732
 11
128.47
 20
29.695
 21
29.278
  0
LINE
  8
0
 10
128.47
 11
128.122
 20
29.278
 21
28.93
  0
LINE
  8
0
 10
128.122
 11
127.705
 20
28.93
 21
28.668
  0
LINE
  8
0
 10
127.705
 11
127.24
 20
28.668
 21
28.505
  0
LINE
  8
0
 10
127.24
 11
126.75
 20
28.505
 21
28.45
  0
LINE
  8
0
 10
126.75
 11
126.26
 20
28.45
 21
28.505
  0
LINE
  8
0
 10
126.26
 11
125.795
 20
28.505
 21
28.668
  0
LINE
  8
0
 10
125.795
 11
125.378
 20
28.668
 21
28.93
  0
LINE
  8
0
 10
125.378
 11
125.03
 20
28.93
 21
29.278
  0
LINE
  8
0
 10
125.03
 11
124.768
 20
29.278
 21
29.695
  0
LINE
  8
0
 10
124.768
 11
124.605
 20
29.695
 21
30.16
  0
LINE
  8
0
 10
124.605
 11
124.55
 20
30.16
 21
30.65
  0
LINE
  8
0
 10
124.55
 11
124.605
 20
102.15
 21
102.64
  0
LINE
  8
0
 10
124.605
 11
124.768
 20
102.64
 21
103.105
  0
LINE
  8
0
 10
124.768
 11
125.03
 20
103.105
 21
103.522
  0
LINE
  8
0
 10
125.03
 11
125.378
 20
103.522
 21
103.87
  0
LINE
  8
0
 10
125.378
 11
125.795
 20
103.87
 21
104.132
  0
LINE
  8
0
 10
125.795
 11
126.26
 20
104.132
 21
104.295
  0
LINE
  8
0
 10
126.26
 11
126.75
 20
104.295
 21
104.35
  0
LINE
  8
0
 10
126.75
 11
127.24
 20
104.35
 21
104.295
  0
LINE
  8
0
 10
127.24
 11
127.705
 20
104.295
 21
104.132
  0
LINE
  8
0
 10
127.705
 11
128.122
 20
104.132
 21
103.87
  0
LINE
  8
0
 10
128.122
 11
128.47
 20
103.87
 21
103.522
  0
LINE
  8
0
 10
128.47
 11
128.732
 20
103.522
 21
103.105
  0
LINE
  8
0
 10
128.732
 11
128.895
 20
103.105
 21
102.64
  0
LINE
  8
0
 10
128.895
 11
128.95
 20
102.64
 21
102.15
  0
LINE
  8
0
 10
128.95
 11
128.895
 20
102.15
 21
101.66
  0
LINE
  8
0
 10
128.895
 11
128.732
 20
101.66
 21
101.195
  0
LINE
  8
0
 10
128.732
 11
128.47
 20
101.195
 21
100.778
  0
LINE
  8
0
 10
128.47
 11
128.122
 20
100.778
 21
100.43
  0
LINE
  8
0
 10
128.122
 11
127.705
 20
100.43
 21
100.168
  0
LINE
  8
0
 10
127.705
 11
127.24
 20
100.168
 21
100.005
  0
LINE
  8
0
 10
127.24
 11
126.75
 20
100.005
 21
99.95
  0
LINE
  8
0
 10
126.75
 11
126.26
 20
99.95
 21
100.005
  0
LINE
  8
0
 10
126.26
 11
125.795
 20
100.005
 21
100.168
  0
LINE
  8
0
 10
125.795
 11
125.378
 20
100.168
 21
100.43
  0
LINE
  8
0
 10
125.378
 11
125.03
 20
100.43
 21
100.778
  0
LINE
  8
0
 10
125.03
 11
124.768
 20
100.778
 21
101.195
  0
LINE
  8
0
 10
124.768
 11
124.605
 20
101.195
 21
101.66
  0
LINE
  8
0
 10
124.605
 11
124.55
 20
101.66
 21
102.15
  0
LINE
  8
0
 10
674.312
 11
674.367
 20
84.9
 21
85.39
  0
LINE
  8
0
 10
674.367
 11
674.529
 20
85.39
 21
85.855
  0
LINE
  8
0
 10
674.529
 11
674.792
 20
85.855
 21
86.272
  0
LINE
  8
0
 10
674.792
 11
675.14
 20
86.272
 21
86.62
  0
LINE
  8
0
 10
675.14
 11
675.557
 20
86.62
 21
86.882
  0
LINE
  8
0
 10
675.557
 11
676.022
 20
86.882
 21
87.045
  0
LINE
  8
0
 10
676.022
 11
676.512
 20
87.045
 21
87.1
  0
LINE
  8
0
 10
676.512
 11
677.001
 20
87.1
 21
87.045
  0
LINE
  8
0
 10
677.001
 11
677.466
 20
87.045
 21
86.882
  0
LINE
  8
0
 10
677.466
 11
677.883
 20
86.882
 21
86.62
  0
LINE
  8
0
 10
677.883
 11
678.232
 20
86.62
 21
86.272
  0
LINE
  8
0
 10
678.232
 11
678.494
 20
86.272
 21
85.855
  0
LINE
  8
0
 10
678.494
 11
678.656
 20
85.855
 21
85.39
  0
LINE
  8
0
 10
678.656
 11
678.712
 20
85.39
 21
84.9
  0
LINE
  8
0
 10
678.712
 11
678.656
 20
84.9
 21
84.41
  0
LINE
  8
0
 10
678.656
 11
678.494
 20
84.41
 21
83.945
  0
LINE
  8
0
 10
678.494
 11
678.232
 20
83.945
 21
83.528
  0
LINE
  8
0
 10
678.232
 11
677.883
 20
83.528
 21
83.18
  0
LINE
  8
0
 10
677.883
 11
677.466
 20
83.18
 21
82.918
  0
LINE
  8
0
 10
677.466
 11
677.001
 20
82.918
 21
82.755
  0
LINE
  8
0
 10
677.001
 11
676.512
 20
82.755
 21
82.7
  0
LINE
  8
0
 10
676.512
 11
676.022
 20
82.7
 21
82.755
  0
LINE
  8
0
 10
676.022
 11
675.557
 20
82.755
 21
82.918
  0
LINE
  8
0
 10
675.557
 11
675.14
 20
82.918
 21
83.18
  0
LINE
  8
0
 10
675.14
 11
674.792
 20
83.18
 21
83.528
  0
LINE
  8
0
 10
674.792
 11
674.529
 20
83.528
 21
83.945
  0
LINE
  8
0
 10
674.529
 11
674.367
 20
83.945
 21
84.41
  0
LINE
  8
0
 10
674.367
 11
674.312
 20
84.41
 21
84.9
  0
LINE
  8
0
 10
699.48
 11
699.521
 20
8
 21
8.494
  0
LINE
  8
0
 10
699.521
 11
699.643
 20
8.494
 21
8.974
  0
LINE
  8
0
 10
699.643
 11
699.842
 20
8.974
 21
9.428
  0
LINE
  8
0
 10
699.842
 11
700.113
 20
9.428
 21
9.843
  0
LINE
  8
0
 10
700.113
 11
700.448
 20
9.843
 21
10.207
  0
LINE
  8
0
 10
700.448
 11
700.839
 20
10.207
 21
10.511
  0
LINE
  8
0
 10
700.839
 11
701.275
 20
10.511
 21
10.747
  0
LINE
  8
0
 10
701.275
 11
701.744
 20
10.747
 21
10.908
  0
LINE
  8
0
 10
701.744
 11
702.232
 20
10.908
 21
10.99
  0
LINE
  8
0
 10
702.232
 11
702.728
 20
10.99
 21
10.99
  0
LINE
  8
0
 10
702.728
 11
703.216
 20
10.99
 21
10.908
  0
LINE
  8
0
 10
703.216
 11
703.685
 20
10.908
 21
10.747
  0
LINE
  8
0
 10
703.685
 11
704.121
 20
10.747
 21
10.511
  0
LINE
  8
0
 10
704.121
 11
704.512
 20
10.511
 21
10.207
  0
LINE
  8
0
 10
704.512
 11
704.847
 20
10.207
 21
9.843
  0
LINE
  8
0
 10
704.847
 11
705.118
 20
9.843
 21
9.428
  0
LINE
  8
0
 10
705.118
 11
705.317
 20
9.428
 21
8.974
  0
LINE
  8
0
 10
705.317
 11
705.439
 20
8.974
 21
8.494
  0
LINE
  8
0
 10
705.439
 11
705.48
 20
8.494
 21
8
  0
LINE
  8
0
 10
705.48
 11
705.439
 20
8
 21
7.506
  0
LINE
  8
0
 10
705.439
 11
705.317
 20
7.506
 21
7.026
  0
LINE
  8
0
 10
705.317
 11
705.118
 20
7.026
 21
6.572
  0
LINE
  8
0
 10
705.118
 11
704.847
 20
6.572
 21
6.157
  0
LINE
  8
0
 10
704.847
 11
704.512
 20
6.157
 21
5.793
  0
LINE
  8
0
 10
704.512
 11
704.121
 20
5.793
 21
5.489
  0
LINE
  8
0
 10
704.121
 11
703.685
 20
5.489
 21
5.253
  0
LINE
  8
0
 10
703.685
 11
703.216
 20
5.253
 21
5.092
  0
LINE
  8
0
 10
703.216
 11
702.728
 20
5.092
 21
5.01
  0
LINE
  8
0
 10
702.728
 11
702.232
 20
5.01
 21
5.01
  0
LINE
  8
0
 10
702.232
 11
701.744
 20
5.01
 21
5.092
  0
LINE
  8
0
 10
701.744
 11
701.275
 20
5.092
 21
5.253
  0
LINE
  8
0
 10
701.275
 11
700.839
 20
5.253
 21
5.489
  0
LINE
  8
0
 10
700.839
 11
700.448
 20
5.489
 21
5.793
  0
LINE
  8
0
 10
700.448
 11
700.113
 20
5.793
 21
6.157
  0
LINE
  8
0
 10
700.113
 11
699.842
 20
6.157
 21
6.572
  0
LINE
  8
0
 10
699.842
 11
699.643
 20
6.572
 21
7.026
  0
LINE
  8
0
 10
699.643
 11
699.521
 20
7.026
 21
7.506
  0
LINE
  8
0
 10
699.521
 11
699.48
 20
7.506
 21
8
  0
LINE
  8
0
 10
714.58
 11
714.638
 20
7
 21
7.479
  0
LINE
  8
0
 10
714.638
 11
714.809
 20
7.479
 21
7.929
  0
LINE
  8
0
 10
714.809
 11
715.083
 20
7.929
 21
8.326
  0
LINE
  8
0
 10
715.083
 11
715.444
 20
8.326
 21
8.646
  0
LINE
  8
0
 10
715.444
 11
715.871
 20
8.646
 21
8.87
  0
LINE
  8
0
 10
715.871
 11
716.339
 20
8.87
 21
8.985
  0
LINE
  8
0
 10
716.339
 11
716.821
 20
8.985
 21
8.985
  0
LINE
  8
0
 10
716.821
 11
717.289
 20
8.985
 21
8.87
  0
LINE
  8
0
 10
717.289
 11
717.716
 20
8.87
 21
8.646
  0
LINE
  8
0
 10
717.716
 11
718.077
 20
8.646
 21
8.326
  0
LINE
  8
0
 10
718.077
 11
718.351
 20
8.326
 21
7.929
  0
LINE
  8
0
 10
718.351
 11
718.522
 20
7.929
 21
7.479
  0
LINE
  8
0
 10
718.522
 11
718.58
 20
7.479
 21
7
  0
LINE
  8
0
 10
718.58
 11
718.522
 20
7
 21
6.521
  0
LINE
  8
0
 10
718.522
 11
718.351
 20
6.521
 21
6.071
  0
LINE
  8
0
 10
718.351
 11
718.077
 20
6.071
 21
5.674
  0
LINE
  8
0
 10
718.077
 11
717.716
 20
5.674
 21
5.354
  0
LINE
  8
0
 10
717.716
 11
717.289
 20
5.354
 21
5.13
  0
LINE
  8
0
 10
717.289
 11
716.821
 20
5.13
 21
5.015
  0
LINE
  8
0
 10
716.821
 11
716.339
 20
5.015
 21
5.015
  0
LINE
  8
0
 10
716.339
 11
715.871
 20
5.015
 21
5.13
  0
LINE
  8
0
 10
715.871
 11
715.444
 20
5.13
 21
5.354
  0
LINE
  8
0
 10
715.444
 11
715.083
 20
5.354
 21
5.674
  0
LINE
  8
0
 10
715.083
 11
714.809
 20
5.674
 21
6.071
  0
LINE
  8
0
 10
714.809
 11
714.638
 20
6.071
 21
6.521
  0
LINE
  8
0
 10
714.638
 11
714.58
 20
6.521
 21
7
  0
LINE
  8
0
 10
731.48
 11
731.535
 20
12.2
 21
12.69
  0
LINE
  8
0
 10
731.535
 11
731.698
 20
12.69
 21
13.155
  0
LINE
  8
0
 10
731.698
 11
731.96
 20
13.155
 21
13.572
  0
LINE
  8
0
 10
731.96
 11
732.308
 20
13.572
 21
13.92
  0
LINE
  8
0
 10
732.308
 11
732.725
 20
13.92
 21
14.182
  0
LINE
  8
0
 10
732.725
 11
733.19
 20
14.182
 21
14.345
  0
LINE
  8
0
 10
733.19
 11
733.68
 20
14.345
 21
14.4
  0
LINE
  8
0
 10
733.68
 11
734.17
 20
14.4
 21
14.345
  0
LINE
  8
0
 10
734.17
 11
734.635
 20
14.345
 21
14.182
  0
LINE
  8
0
 10
734.635
 11
735.052
 20
14.182
 21
13.92
  0
LINE
  8
0
 10
735.052
 11
735.4
 20
13.92
 21
13.572
  0
LINE
  8
0
 10
735.4
 11
735.662
 20
13.572
 21
13.155
  0
LINE
  8
0
 10
735.662
 11
735.825
 20
13.155
 21
12.69
  0
LINE
  8
0
 10
735.825
 11
735.88
 20
12.69
 21
12.2
  0
LINE
  8
0
 10
735.88
 11
735.825
 20
12.2
 21
11.71
  0
LINE
  8
0
 10
735.825
 11
735.662
 20
11.71
 21
11.245
  0
LINE
  8
0
 10
735.662
 11
735.4
 20
11.245
 21
10.828
  0
LINE
  8
0
 10
735.4
 11
735.052
 20
10.828
 21
10.48
  0
LINE
  8
0
 10
735.052
 11
734.635
 20
10.48
 21
10.218
  0
LINE
  8
0
 10
734.635
 11
734.17
 20
10.218
 21
10.055
  0
LINE
  8
0
 10
734.17
 11
733.68
 20
10.055
 21
10
  0
LINE
  8
0
 10
733.68
 11
733.19
 20
10
 21
10.055
  0
LINE
  8
0
 10
733.19
 11
732.725
 20
10.055
 21
10.218
  0
LINE
  8
0
 10
732.725
 11
732.308
 20
10.218
 21
10.48
  0
LINE
  8
0
 10
732.308
 11
731.96
 20
10.48
 21
10.828
  0
LINE
  8
0
 10
731.96
 11
731.698
 20
10.828
 21
11.245
  0
LINE
  8
0
 10
731.698
 11
731.535
 20
11.245
 21
11.71
  0
LINE
  8
0
 10
731.535
 11
731.48
 20
11.71
 21
12.2
  0
LINE
  8
0
 10
768.7
 11
768.755
 20
12.2
 21
12.69
  0
LINE
  8
0
 10
768.755
 11
768.918
 20
12.69
 21
13.155
  0
LINE
  8
0
 10
768.918
 11
769.18
 20
13.155
 21
13.572
  0
LINE
  8
0
 10
769.18
 11
769.528
 20
13.572
 21
13.92
  0
LINE
  8
0
 10
769.528
 11
769.945
 20
13.92
 21
14.182
  0
LINE
  8
0
 10
769.945
 11
770.41
 20
14.182
 21
14.345
  0
LINE
  8
0
 10
770.41
 11
770.9
 20
14.345
 21
14.4
  0
LINE
  8
0
 10
770.9
 11
771.39
 20
14.4
 21
14.345
  0
LINE
  8
0
 10
771.39
 11
771.855
 20
14.345
 21
14.182
  0
LINE
  8
0
 10
771.855
 11
772.272
 20
14.182
 21
13.92
  0
LINE
  8
0
 10
772.272
 11
772.62
 20
13.92
 21
13.572
  0
LINE
  8
0
 10
772.62
 11
772.882
 20
13.572
 21
13.155
  0
LINE
  8
0
 10
772.882
 11
773.045
 20
13.155
 21
12.69
  0
LINE
  8
0
 10
773.045
 11
773.1
 20
12.69
 21
12.2
  0
LINE
  8
0
 10
773.1
 11
773.045
 20
12.2
 21
11.71
  0
LINE
  8
0
 10
773.045
 11
772.882
 20
11.71
 21
11.245
  0
LINE
  8
0
 10
772.882
 11
772.62
 20
11.245
 21
10.828
  0
LINE
  8
0
 10
772.62
 11
772.272
 20
10.828
 21
10.48
  0
LINE
  8
0
 10
772.272
 11
771.855
 20
10.48
 21
10.218
  0
LINE
  8
0
 10
771.855
 11
771.39
 20
10.218
 21
10.055
  0
LINE
  8
0
 10
771.39
 11
770.9
 20
10.055
 21
10
  0
LINE
  8
0
 10
770.9
 11
770.41
 20
10
 21
10.055
  0
LINE
  8
0
 10
770.41
 11
769.945
 20
10.055
 21
10.218
  0
LINE
  8
0
 10
769.945
 11
769.528
 20
10.218
 21
10.48
  0
LINE
  8
0
 10
769.528
 11
769.18
 20
10.48
 21
10.828
  0
LINE
  8
0
 10
769.18
 11
768.918
 20
10.828
 21
11.245
  0
LINE
  8
0
 10
768.918
 11
768.755
 20
11.245
 21
11.71
  0
LINE
  8
0
 10
768.755
 11
768.7
 20
11.71
 21
12.2
  0
ENDSEC
  0
SECTION
  2
OBJECTS
  0
DICTIONARY
  0
ENDSEC
  0
EOF
