<?xml version="1.0"?>
<svg xmlns="http://www.w3.org/2000/svg" version="1.1" height="819mm" width="926mm" >
 <g style="fill-opacity:1.0; stroke:black; stroke-width:1;">
  <line x1="126.000000mm" y1="809.000000mm" x2="126.000000mm" y2="809.000000mm" />
  <line x1="126.000000mm" y1="809.000000mm" x2="0.000000mm" y2="809.000000mm" />
  <line x1="0.000000mm" y1="809.000000mm" x2="0.000000mm" y2="0.000000mm" />
  <line x1="0.000000mm" y1="0.000000mm" x2="915.500000mm" y2="0.000000mm" />
  <line x1="915.500000mm" y1="0.000000mm" x2="915.500000mm" y2="809.000000mm" />
  <line x1="915.500000mm" y1="809.000000mm" x2="777.000000mm" y2="809.000000mm" />
  <line x1="777.000000mm" y1="809.000000mm" x2="777.000000mm" y2="125.900000mm" />
  <line x1="777.000000mm" y1="125.900000mm" x2="776.975000mm" y2="125.402000mm" />
  <line x1="776.975000mm" y1="125.402000mm" x2="776.901000mm" y2="124.909000mm" />
  <line x1="776.901000mm" y1="124.909000mm" x2="776.778000mm" y2="124.426000mm" />
  <line x1="776.778000mm" y1="124.426000mm" x2="776.607000mm" y2="123.958000mm" />
  <line x1="776.607000mm" y1="123.958000mm" x2="776.391000mm" y2="123.509000mm" />
  <line x1="776.391000mm" y1="123.509000mm" x2="776.131000mm" y2="123.083000mm" />
  <line x1="776.131000mm" y1="123.083000mm" x2="775.830000mm" y2="122.686000mm" />
  <line x1="775.830000mm" y1="122.686000mm" x2="775.491000mm" y2="122.321000mm" />
  <line x1="775.491000mm" y1="122.321000mm" x2="775.117000mm" y2="121.991000mm" />
  <line x1="775.117000mm" y1="121.991000mm" x2="774.713000mm" y2="121.700000mm" />
  <line x1="774.713000mm" y1="121.700000mm" x2="774.281000mm" y2="121.451000mm" />
  <line x1="774.281000mm" y1="121.451000mm" x2="773.827000mm" y2="121.246000mm" />
  <line x1="773.827000mm" y1="121.246000mm" x2="773.354000mm" y2="121.087000mm" />
  <line x1="773.354000mm" y1="121.087000mm" x2="772.868000mm" y2="120.976000mm" />
  <line x1="772.868000mm" y1="120.976000mm" x2="772.374000mm" y2="120.914000mm" />
  <line x1="772.374000mm" y1="120.914000mm" x2="772.000000mm" y2="120.905000mm" />
  <line x1="772.000000mm" y1="120.905000mm" x2="772.000000mm" y2="120.900000mm" />
  <line x1="772.000000mm" y1="120.900000mm" x2="131.000000mm" y2="120.900000mm" />
  <line x1="131.000000mm" y1="120.900000mm" x2="131.000000mm" y2="120.905000mm" />
  <line x1="131.000000mm" y1="120.905000mm" x2="130.875000mm" y2="120.902000mm" />
  <line x1="130.875000mm" y1="120.902000mm" x2="130.378000mm" y2="120.939000mm" />
  <line x1="130.378000mm" y1="120.939000mm" x2="129.887000mm" y2="121.025000mm" />
  <line x1="129.887000mm" y1="121.025000mm" x2="129.408000mm" y2="121.160000mm" />
  <line x1="129.408000mm" y1="121.160000mm" x2="128.944000mm" y2="121.342000mm" />
  <line x1="128.944000mm" y1="121.342000mm" x2="128.500000mm" y2="121.570000mm" />
  <line x1="128.500000mm" y1="121.570000mm" x2="128.081000mm" y2="121.840000mm" />
  <line x1="128.081000mm" y1="121.840000mm" x2="127.692000mm" y2="122.151000mm" />
  <line x1="127.692000mm" y1="122.151000mm" x2="127.335000mm" y2="122.499000mm" />
  <line x1="127.335000mm" y1="122.499000mm" x2="127.014000mm" y2="122.881000mm" />
  <line x1="127.014000mm" y1="122.881000mm" x2="126.734000mm" y2="123.293000mm" />
  <line x1="126.734000mm" y1="123.293000mm" x2="126.495000mm" y2="123.731000mm" />
  <line x1="126.495000mm" y1="123.731000mm" x2="126.302000mm" y2="124.190000mm" />
  <line x1="126.302000mm" y1="124.190000mm" x2="126.155000mm" y2="124.666000mm" />
  <line x1="126.155000mm" y1="124.666000mm" x2="126.056000mm" y2="125.155000mm" />
  <line x1="126.056000mm" y1="125.155000mm" x2="126.006000mm" y2="125.651000mm" />
  <line x1="126.006000mm" y1="125.651000mm" x2="126.006000mm" y2="125.900000mm" />
  <line x1="126.006000mm" y1="125.900000mm" x2="126.000000mm" y2="125.900000mm" />
  <line x1="126.000000mm" y1="125.900000mm" x2="126.000000mm" y2="809.000000mm" />
  <circle cx="4.499964mm" cy="700.899964mm" r="2.200229mm" fill="none"/>
  <line x1="8.900421mm" y1="700.899964mm" x2="0.099507mm" y2="700.899964mm" />
  <line x1="4.499964mm" y1="696.499507mm" x2="4.499964mm" y2="705.300421mm" />
  <text x="6mm" y="698mm" font-size="24">
   4.4
  </text>
  <circle cx="4.499964mm" cy="651.499964mm" r="2.200229mm" fill="none"/>
  <line x1="8.900421mm" y1="651.499964mm" x2="0.099507mm" y2="651.499964mm" />
  <line x1="4.499964mm" y1="647.099507mm" x2="4.499964mm" y2="655.900421mm" />
  <text x="6mm" y="649mm" font-size="24">
   4.4
  </text>
  <circle cx="13.699964mm" cy="796.799964mm" r="2.200229mm" fill="none"/>
  <line x1="18.100421mm" y1="796.799964mm" x2="9.299507mm" y2="796.799964mm" />
  <line x1="13.699964mm" y1="792.399507mm" x2="13.699964mm" y2="801.200421mm" />
  <text x="15mm" y="794mm" font-size="24">
   4.4
  </text>
  <circle cx="22.499964mm" cy="742.999964mm" r="2.200229mm" fill="none"/>
  <line x1="26.900421mm" y1="742.999964mm" x2="18.099507mm" y2="742.999964mm" />
  <line x1="22.499964mm" y1="738.599507mm" x2="22.499964mm" y2="747.400421mm" />
  <text x="24mm" y="740mm" font-size="24">
   4.4
  </text>
  <circle cx="36.499818mm" cy="727.000055mm" r="2.000011mm" fill="none"/>
  <line x1="40.499840mm" y1="727.000055mm" x2="32.499795mm" y2="727.000055mm" />
  <line x1="36.499818mm" y1="723.000033mm" x2="36.499818mm" y2="731.000077mm" />
  <text x="38mm" y="725mm" font-size="24">
   4.0
  </text>
  <circle cx="46.499964mm" cy="12.499964mm" r="2.200229mm" fill="none"/>
  <line x1="50.900421mm" y1="12.499964mm" x2="42.099507mm" y2="12.499964mm" />
  <line x1="46.499964mm" y1="8.099507mm" x2="46.499964mm" y2="16.900421mm" />
  <text x="48mm" y="10mm" font-size="24">
   4.4
  </text>
  <circle cx="46.499818mm" cy="27.000055mm" r="2.000011mm" fill="none"/>
  <line x1="50.499840mm" y1="27.000055mm" x2="42.499795mm" y2="27.000055mm" />
  <line x1="46.499818mm" y1="23.000033mm" x2="46.499818mm" y2="31.000077mm" />
  <text x="48mm" y="25mm" font-size="24">
   4.0
  </text>
  <circle cx="50.919964mm" cy="796.799964mm" r="2.200229mm" fill="none"/>
  <line x1="55.320421mm" y1="796.799964mm" x2="46.519507mm" y2="796.799964mm" />
  <line x1="50.919964mm" y1="792.399507mm" x2="50.919964mm" y2="801.200421mm" />
  <text x="53mm" y="794mm" font-size="24">
   4.4
  </text>
  <circle cx="51.499964mm" cy="742.999964mm" r="2.200229mm" fill="none"/>
  <line x1="55.900421mm" y1="742.999964mm" x2="47.099507mm" y2="742.999964mm" />
  <line x1="51.499964mm" y1="738.599507mm" x2="51.499964mm" y2="747.400421mm" />
  <text x="53mm" y="740mm" font-size="24">
   4.4
  </text>
  <circle cx="67.120170mm" cy="801.499939mm" r="2.500268mm" fill="none"/>
  <line x1="72.120707mm" y1="801.499939mm" x2="62.119633mm" y2="801.499939mm" />
  <line x1="67.120170mm" y1="796.499402mm" x2="67.120170mm" y2="806.500476mm" />
  <text x="69mm" y="798mm" font-size="24">
   5.0
  </text>
  <circle cx="75.079964mm" cy="796.799964mm" r="2.200229mm" fill="none"/>
  <line x1="79.480421mm" y1="796.799964mm" x2="70.679507mm" y2="796.799964mm" />
  <line x1="75.079964mm" y1="792.399507mm" x2="75.079964mm" y2="801.200421mm" />
  <text x="77mm" y="794mm" font-size="24">
   4.4
  </text>
  <circle cx="87.749964mm" cy="99.119964mm" r="2.200229mm" fill="none"/>
  <line x1="92.150421mm" y1="99.119964mm" x2="83.349507mm" y2="99.119964mm" />
  <line x1="87.749964mm" y1="94.719507mm" x2="87.749964mm" y2="103.520421mm" />
  <text x="89mm" y="96mm" font-size="24">
   4.4
  </text>
  <circle cx="94.699964mm" cy="752.289964mm" r="2.200229mm" fill="none"/>
  <line x1="99.100421mm" y1="752.289964mm" x2="90.299507mm" y2="752.289964mm" />
  <line x1="94.699964mm" y1="747.889507mm" x2="94.699964mm" y2="756.690421mm" />
  <text x="96mm" y="750mm" font-size="24">
   4.4
  </text>
  <circle cx="94.699964mm" cy="56.709964mm" r="2.200229mm" fill="none"/>
  <line x1="99.100421mm" y1="56.709964mm" x2="90.299507mm" y2="56.709964mm" />
  <line x1="94.699964mm" y1="52.309507mm" x2="94.699964mm" y2="61.110421mm" />
  <text x="96mm" y="54mm" font-size="24">
   4.4
  </text>
  <circle cx="103.499964mm" cy="12.499964mm" r="2.200229mm" fill="none"/>
  <line x1="107.900421mm" y1="12.499964mm" x2="99.099507mm" y2="12.499964mm" />
  <line x1="103.499964mm" y1="8.099507mm" x2="103.499964mm" y2="16.900421mm" />
  <text x="105mm" y="10mm" font-size="24">
   4.4
  </text>
  <circle cx="112.299964mm" cy="796.799964mm" r="2.200229mm" fill="none"/>
  <line x1="116.700421mm" y1="796.799964mm" x2="107.899507mm" y2="796.799964mm" />
  <line x1="112.299964mm" y1="792.399507mm" x2="112.299964mm" y2="801.200421mm" />
  <text x="114mm" y="794mm" font-size="24">
   4.4
  </text>
  <line x1="142.510000mm" y1="806.248000mm" x2="142.510000mm" y2="806.248000mm" />
  <line x1="142.510000mm" y1="806.248000mm" x2="142.500000mm" y2="194.000000mm" />
  <line x1="142.500000mm" y1="194.000000mm" x2="142.541000mm" y2="193.506000mm" />
  <line x1="142.541000mm" y1="193.506000mm" x2="142.663000mm" y2="193.026000mm" />
  <line x1="142.663000mm" y1="193.026000mm" x2="142.862000mm" y2="192.572000mm" />
  <line x1="142.862000mm" y1="192.572000mm" x2="143.133000mm" y2="192.157000mm" />
  <line x1="143.133000mm" y1="192.157000mm" x2="143.468000mm" y2="191.793000mm" />
  <line x1="143.468000mm" y1="191.793000mm" x2="143.859000mm" y2="191.489000mm" />
  <line x1="143.859000mm" y1="191.489000mm" x2="144.295000mm" y2="191.253000mm" />
  <line x1="144.295000mm" y1="191.253000mm" x2="144.764000mm" y2="191.092000mm" />
  <line x1="144.764000mm" y1="191.092000mm" x2="145.252000mm" y2="191.010000mm" />
  <line x1="145.252000mm" y1="191.010000mm" x2="432.990000mm" y2="191.005000mm" />
  <line x1="432.990000mm" y1="191.005000mm" x2="432.990000mm" y2="200.000000mm" />
  <line x1="432.990000mm" y1="200.000000mm" x2="470.010000mm" y2="200.000000mm" />
  <line x1="470.010000mm" y1="200.000000mm" x2="470.010000mm" y2="191.005000mm" />
  <line x1="470.010000mm" y1="191.005000mm" x2="757.500000mm" y2="191.000000mm" />
  <line x1="757.500000mm" y1="191.000000mm" x2="757.994000mm" y2="191.041000mm" />
  <line x1="757.994000mm" y1="191.041000mm" x2="758.474000mm" y2="191.163000mm" />
  <line x1="758.474000mm" y1="191.163000mm" x2="758.928000mm" y2="191.362000mm" />
  <line x1="758.928000mm" y1="191.362000mm" x2="759.343000mm" y2="191.633000mm" />
  <line x1="759.343000mm" y1="191.633000mm" x2="759.707000mm" y2="191.968000mm" />
  <line x1="759.707000mm" y1="191.968000mm" x2="760.011000mm" y2="192.359000mm" />
  <line x1="760.011000mm" y1="192.359000mm" x2="760.247000mm" y2="192.795000mm" />
  <line x1="760.247000mm" y1="192.795000mm" x2="760.408000mm" y2="193.264000mm" />
  <line x1="760.408000mm" y1="193.264000mm" x2="760.490000mm" y2="193.752000mm" />
  <line x1="760.490000mm" y1="193.752000mm" x2="760.500000mm" y2="806.000000mm" />
  <line x1="760.500000mm" y1="806.000000mm" x2="760.459000mm" y2="806.494000mm" />
  <line x1="760.459000mm" y1="806.494000mm" x2="760.337000mm" y2="806.974000mm" />
  <line x1="760.337000mm" y1="806.974000mm" x2="760.138000mm" y2="807.428000mm" />
  <line x1="760.138000mm" y1="807.428000mm" x2="759.867000mm" y2="807.843000mm" />
  <line x1="759.867000mm" y1="807.843000mm" x2="759.532000mm" y2="808.207000mm" />
  <line x1="759.532000mm" y1="808.207000mm" x2="759.141000mm" y2="808.511000mm" />
  <line x1="759.141000mm" y1="808.511000mm" x2="758.705000mm" y2="808.747000mm" />
  <line x1="758.705000mm" y1="808.747000mm" x2="758.236000mm" y2="808.908000mm" />
  <line x1="758.236000mm" y1="808.908000mm" x2="757.748000mm" y2="808.990000mm" />
  <line x1="757.748000mm" y1="808.990000mm" x2="145.500000mm" y2="809.000000mm" />
  <line x1="145.500000mm" y1="809.000000mm" x2="145.006000mm" y2="808.959000mm" />
  <line x1="145.006000mm" y1="808.959000mm" x2="144.526000mm" y2="808.837000mm" />
  <line x1="144.526000mm" y1="808.837000mm" x2="144.072000mm" y2="808.638000mm" />
  <line x1="144.072000mm" y1="808.638000mm" x2="143.657000mm" y2="808.367000mm" />
  <line x1="143.657000mm" y1="808.367000mm" x2="143.293000mm" y2="808.032000mm" />
  <line x1="143.293000mm" y1="808.032000mm" x2="142.989000mm" y2="807.641000mm" />
  <line x1="142.989000mm" y1="807.641000mm" x2="142.753000mm" y2="807.205000mm" />
  <line x1="142.753000mm" y1="807.205000mm" x2="142.592000mm" y2="806.736000mm" />
  <line x1="142.592000mm" y1="806.736000mm" x2="142.510000mm" y2="806.248000mm" />
  <circle cx="146.500087mm" cy="805.000061mm" r="1.250061mm" fill="none"/>
  <line x1="149.000208mm" y1="805.000061mm" x2="143.999966mm" y2="805.000061mm" />
  <line x1="146.500087mm" y1="802.499939mm" x2="146.500087mm" y2="807.500182mm" />
  <text x="147mm" y="803mm" font-size="24">
   2.5
  </text>
  <circle cx="146.500087mm" cy="195.000061mm" r="1.250061mm" fill="none"/>
  <line x1="149.000208mm" y1="195.000061mm" x2="143.999966mm" y2="195.000061mm" />
  <line x1="146.500087mm" y1="192.499939mm" x2="146.500087mm" y2="197.500182mm" />
  <text x="147mm" y="193mm" font-size="24">
   2.5
  </text>
  <circle cx="244.970247mm" cy="776.499975mm" r="3.300132mm" fill="none"/>
  <line x1="251.570512mm" y1="776.499975mm" x2="238.369983mm" y2="776.499975mm" />
  <line x1="244.970247mm" y1="769.899711mm" x2="244.970247mm" y2="783.100240mm" />
  <text x="248mm" y="773mm" font-size="24">
   6.6
  </text>
  <circle cx="244.970247mm" cy="249.499975mm" r="3.300132mm" fill="none"/>
  <line x1="251.570512mm" y1="249.499975mm" x2="238.369983mm" y2="249.499975mm" />
  <line x1="244.970247mm" y1="242.899711mm" x2="244.970247mm" y2="256.100240mm" />
  <text x="248mm" y="246mm" font-size="24">
   6.6
  </text>
  <circle cx="300.970247mm" cy="750.499975mm" r="3.300132mm" fill="none"/>
  <line x1="307.570512mm" y1="750.499975mm" x2="294.369983mm" y2="750.499975mm" />
  <line x1="300.970247mm" y1="743.899711mm" x2="300.970247mm" y2="757.100240mm" />
  <text x="304mm" y="747mm" font-size="24">
   6.6
  </text>
  <circle cx="300.970247mm" cy="223.499975mm" r="3.300132mm" fill="none"/>
  <line x1="307.570512mm" y1="223.499975mm" x2="294.369983mm" y2="223.499975mm" />
  <line x1="300.970247mm" y1="216.899711mm" x2="300.970247mm" y2="230.100240mm" />
  <text x="304mm" y="220mm" font-size="24">
   6.6
  </text>
  <circle cx="419.489999mm" cy="755.964893mm" r="1.650220mm" fill="none"/>
  <line x1="422.790439mm" y1="755.964893mm" x2="416.189559mm" y2="755.964893mm" />
  <line x1="419.489999mm" y1="752.664453mm" x2="419.489999mm" y2="759.265333mm" />
  <text x="421mm" y="754mm" font-size="24">
   3.3
  </text>
  <circle cx="419.489999mm" cy="720.734893mm" r="1.650220mm" fill="none"/>
  <line x1="422.790439mm" y1="720.734893mm" x2="416.189559mm" y2="720.734893mm" />
  <line x1="419.489999mm" y1="717.434453mm" x2="419.489999mm" y2="724.035333mm" />
  <text x="421mm" y="719mm" font-size="24">
   3.3
  </text>
  <circle cx="419.489456mm" cy="283.115195mm" r="1.649827mm" fill="none"/>
  <line x1="422.789111mm" y1="283.115195mm" x2="416.189802mm" y2="283.115195mm" />
  <line x1="419.489456mm" y1="279.815541mm" x2="419.489456mm" y2="286.414849mm" />
  <text x="421mm" y="281mm" font-size="24">
   3.3
  </text>
  <circle cx="419.489456mm" cy="247.885195mm" r="1.649827mm" fill="none"/>
  <line x1="422.789111mm" y1="247.885195mm" x2="416.189802mm" y2="247.885195mm" />
  <line x1="419.489456mm" y1="244.585541mm" x2="419.489456mm" y2="251.184849mm" />
  <text x="421mm" y="246mm" font-size="24">
   3.3
  </text>
  <circle cx="429.190247mm" cy="208.999975mm" r="3.300132mm" fill="none"/>
  <line x1="435.790512mm" y1="208.999975mm" x2="422.589983mm" y2="208.999975mm" />
  <line x1="429.190247mm" y1="202.399711mm" x2="429.190247mm" y2="215.600240mm" />
  <text x="432mm" y="205mm" font-size="24">
   6.6
  </text>
  <circle cx="473.810247mm" cy="208.999975mm" r="3.300132mm" fill="none"/>
  <line x1="480.410512mm" y1="208.999975mm" x2="467.209983mm" y2="208.999975mm" />
  <line x1="473.810247mm" y1="202.399711mm" x2="473.810247mm" y2="215.600240mm" />
  <text x="477mm" y="205mm" font-size="24">
   6.6
  </text>
  <circle cx="602.030247mm" cy="512.999975mm" r="3.300132mm" fill="none"/>
  <line x1="608.630512mm" y1="512.999975mm" x2="595.429983mm" y2="512.999975mm" />
  <line x1="602.030247mm" y1="506.399711mm" x2="602.030247mm" y2="519.600240mm" />
  <text x="605mm" y="509mm" font-size="24">
   6.6
  </text>
  <circle cx="658.030247mm" cy="486.999975mm" r="3.300132mm" fill="none"/>
  <line x1="664.630512mm" y1="486.999975mm" x2="651.429983mm" y2="486.999975mm" />
  <line x1="658.030247mm" y1="480.399711mm" x2="658.030247mm" y2="493.600240mm" />
  <text x="661mm" y="483mm" font-size="24">
   6.6
  </text>
  <circle cx="756.500087mm" cy="805.000061mm" r="1.250061mm" fill="none"/>
  <line x1="759.000208mm" y1="805.000061mm" x2="753.999966mm" y2="805.000061mm" />
  <line x1="756.500087mm" y1="802.499939mm" x2="756.500087mm" y2="807.500182mm" />
  <text x="757mm" y="803mm" font-size="24">
   2.5
  </text>
  <circle cx="756.500087mm" cy="195.000061mm" r="1.250061mm" fill="none"/>
  <line x1="759.000208mm" y1="195.000061mm" x2="753.999966mm" y2="195.000061mm" />
  <line x1="756.500087mm" y1="192.499939mm" x2="756.500087mm" y2="197.500182mm" />
  <text x="757mm" y="193mm" font-size="24">
   2.5
  </text>
  <circle cx="783.499964mm" cy="12.499964mm" r="2.200229mm" fill="none"/>
  <line x1="787.900421mm" y1="12.499964mm" x2="779.099507mm" y2="12.499964mm" />
  <line x1="783.499964mm" y1="8.099507mm" x2="783.499964mm" y2="16.900421mm" />
  <text x="785mm" y="10mm" font-size="24">
   4.4
  </text>
  <circle cx="790.699964mm" cy="752.289964mm" r="2.200229mm" fill="none"/>
  <line x1="795.100421mm" y1="752.289964mm" x2="786.299507mm" y2="752.289964mm" />
  <line x1="790.699964mm" y1="747.889507mm" x2="790.699964mm" y2="756.690421mm" />
  <text x="792mm" y="750mm" font-size="24">
   4.4
  </text>
  <circle cx="790.699964mm" cy="56.709964mm" r="2.200229mm" fill="none"/>
  <line x1="795.100421mm" y1="56.709964mm" x2="786.299507mm" y2="56.709964mm" />
  <line x1="790.699964mm" y1="52.309507mm" x2="790.699964mm" y2="61.110421mm" />
  <text x="792mm" y="54mm" font-size="24">
   4.4
  </text>
  <circle cx="797.649964mm" cy="99.119964mm" r="2.200229mm" fill="none"/>
  <line x1="802.050421mm" y1="99.119964mm" x2="793.249507mm" y2="99.119964mm" />
  <line x1="797.649964mm" y1="94.719507mm" x2="797.649964mm" y2="103.520421mm" />
  <text x="799mm" y="96mm" font-size="24">
   4.4
  </text>
  <circle cx="820.499964mm" cy="742.999964mm" r="2.200229mm" fill="none"/>
  <line x1="824.900421mm" y1="742.999964mm" x2="816.099507mm" y2="742.999964mm" />
  <line x1="820.499964mm" y1="738.599507mm" x2="820.499964mm" y2="747.400421mm" />
  <text x="822mm" y="740mm" font-size="24">
   4.4
  </text>
  <circle cx="836.099964mm" cy="796.799964mm" r="2.200229mm" fill="none"/>
  <line x1="840.500421mm" y1="796.799964mm" x2="831.699507mm" y2="796.799964mm" />
  <line x1="836.099964mm" y1="792.399507mm" x2="836.099964mm" y2="801.200421mm" />
  <text x="838mm" y="794mm" font-size="24">
   4.4
  </text>
  <circle cx="840.499964mm" cy="12.499964mm" r="2.200229mm" fill="none"/>
  <line x1="844.900421mm" y1="12.499964mm" x2="836.099507mm" y2="12.499964mm" />
  <line x1="840.499964mm" y1="8.099507mm" x2="840.499964mm" y2="16.900421mm" />
  <text x="842mm" y="10mm" font-size="24">
   4.4
  </text>
  <circle cx="843.620170mm" cy="780.099939mm" r="2.500268mm" fill="none"/>
  <line x1="848.620707mm" y1="780.099939mm" x2="838.619633mm" y2="780.099939mm" />
  <line x1="843.620170mm" y1="775.099402mm" x2="843.620170mm" y2="785.100476mm" />
  <text x="846mm" y="777mm" font-size="24">
   5.0
  </text>
  <circle cx="849.499964mm" cy="742.999964mm" r="2.200229mm" fill="none"/>
  <line x1="853.900421mm" y1="742.999964mm" x2="845.099507mm" y2="742.999964mm" />
  <line x1="849.499964mm" y1="738.599507mm" x2="849.499964mm" y2="747.400421mm" />
  <text x="851mm" y="740mm" font-size="24">
   4.4
  </text>
  <circle cx="863.499964mm" cy="19.999964mm" r="2.200229mm" fill="none"/>
  <line x1="867.900421mm" y1="19.999964mm" x2="859.099507mm" y2="19.999964mm" />
  <line x1="863.499964mm" y1="15.599507mm" x2="863.499964mm" y2="24.400421mm" />
  <text x="865mm" y="17mm" font-size="24">
   4.4
  </text>
  <circle cx="864.579964mm" cy="796.799964mm" r="2.200229mm" fill="none"/>
  <line x1="868.980421mm" y1="796.799964mm" x2="860.179507mm" y2="796.799964mm" />
  <line x1="864.579964mm" y1="792.399507mm" x2="864.579964mm" y2="801.200421mm" />
  <text x="866mm" y="794mm" font-size="24">
   4.4
  </text>
  <circle cx="873.319964mm" cy="796.799964mm" r="2.200229mm" fill="none"/>
  <line x1="877.720421mm" y1="796.799964mm" x2="868.919507mm" y2="796.799964mm" />
  <line x1="873.319964mm" y1="792.399507mm" x2="873.319964mm" y2="801.200421mm" />
  <text x="875mm" y="794mm" font-size="24">
   4.4
  </text>
  <circle cx="899.899964mm" cy="766.599964mm" r="2.200229mm" fill="none"/>
  <line x1="904.300421mm" y1="766.599964mm" x2="895.499507mm" y2="766.599964mm" />
  <line x1="899.899964mm" y1="762.199507mm" x2="899.899964mm" y2="771.000421mm" />
  <text x="902mm" y="764mm" font-size="24">
   4.4
  </text>
  <circle cx="900.499964mm" cy="19.999964mm" r="2.200229mm" fill="none"/>
  <line x1="904.900421mm" y1="19.999964mm" x2="896.099507mm" y2="19.999964mm" />
  <line x1="900.499964mm" y1="15.599507mm" x2="900.499964mm" y2="24.400421mm" />
  <text x="902mm" y="17mm" font-size="24">
   4.4
  </text>
  <circle cx="901.799964mm" cy="796.799964mm" r="2.200229mm" fill="none"/>
  <line x1="906.200421mm" y1="796.799964mm" x2="897.399507mm" y2="796.799964mm" />
  <line x1="901.799964mm" y1="792.399507mm" x2="901.799964mm" y2="801.200421mm" />
  <text x="904mm" y="794mm" font-size="24">
   4.4
  </text>
 </g>
</svg>
