  0
SECTION
  2
BLOCKS
  0
ENDSEC
  0
SECTION
  2
ENTITIES
  0
LINE
  8
0
 10
-457.75
 11
-457.75
 20
-606.5
 21
606.5
  0
LINE
  8
0
 10
-457.75
 11
457.75
 20
606.5
 21
606.5
  0
LINE
  8
0
 10
457.75
 11
457.75
 20
606.5
 21
-606.5
  0
LINE
  8
0
 10
457.75
 11
-457.75
 20
-606.5
 21
-606.5
  0
LINE
  8
0
 10
-427.64
 11
-427.585
 20
87.2
 21
87.69
  0
LINE
  8
0
 10
-427.585
 11
-427.422
 20
87.69
 21
88.155
  0
LINE
  8
0
 10
-427.422
 11
-427.16
 20
88.155
 21
88.572
  0
LINE
  8
0
 10
-427.16
 11
-426.812
 20
88.572
 21
88.92
  0
LINE
  8
0
 10
-426.812
 11
-426.395
 20
88.92
 21
89.182
  0
LINE
  8
0
 10
-426.395
 11
-425.93
 20
89.182
 21
89.345
  0
LINE
  8
0
 10
-425.93
 11
-425.44
 20
89.345
 21
89.4
  0
LINE
  8
0
 10
-425.44
 11
-424.95
 20
89.4
 21
89.345
  0
LINE
  8
0
 10
-424.95
 11
-424.485
 20
89.345
 21
89.182
  0
LINE
  8
0
 10
-424.485
 11
-424.068
 20
89.182
 21
88.92
  0
LINE
  8
0
 10
-424.068
 11
-423.72
 20
88.92
 21
88.572
  0
LINE
  8
0
 10
-423.72
 11
-423.458
 20
88.572
 21
88.155
  0
LINE
  8
0
 10
-423.458
 11
-423.295
 20
88.155
 21
87.69
  0
LINE
  8
0
 10
-423.295
 11
-423.24
 20
87.69
 21
87.2
  0
LINE
  8
0
 10
-423.24
 11
-423.295
 20
87.2
 21
86.71
  0
LINE
  8
0
 10
-423.295
 11
-423.458
 20
86.71
 21
86.245
  0
LINE
  8
0
 10
-423.458
 11
-423.72
 20
86.245
 21
85.828
  0
LINE
  8
0
 10
-423.72
 11
-424.068
 20
85.828
 21
85.48
  0
LINE
  8
0
 10
-424.068
 11
-424.485
 20
85.48
 21
85.218
  0
LINE
  8
0
 10
-424.485
 11
-424.95
 20
85.218
 21
85.055
  0
LINE
  8
0
 10
-424.95
 11
-425.44
 20
85.055
 21
85
  0
LINE
  8
0
 10
-425.44
 11
-425.93
 20
85
 21
85.055
  0
LINE
  8
0
 10
-425.93
 11
-426.395
 20
85.055
 21
85.218
  0
LINE
  8
0
 10
-426.395
 11
-426.812
 20
85.218
 21
85.48
  0
LINE
  8
0
 10
-426.812
 11
-427.16
 20
85.48
 21
85.828
  0
LINE
  8
0
 10
-427.16
 11
-427.422
 20
85.828
 21
86.245
  0
LINE
  8
0
 10
-427.422
 11
-427.585
 20
86.245
 21
86.71
  0
LINE
  8
0
 10
-427.585
 11
-427.64
 20
86.71
 21
87.2
  0
LINE
  8
0
 10
-424.742
 11
-424.742
 20
-0.246
 21
0.246
  0
LINE
  8
0
 10
-424.742
 11
-424.682
 20
0.246
 21
0.735
  0
LINE
  8
0
 10
-424.682
 11
-424.562
 20
0.735
 21
1.213
  0
LINE
  8
0
 10
-424.562
 11
-424.384
 20
1.213
 21
1.672
  0
LINE
  8
0
 10
-424.384
 11
-424.151
 20
1.672
 21
2.106
  0
LINE
  8
0
 10
-424.151
 11
-423.866
 20
2.106
 21
2.508
  0
LINE
  8
0
 10
-423.866
 11
-423.535
 20
2.508
 21
2.872
  0
LINE
  8
0
 10
-423.535
 11
-423.161
 20
2.872
 21
3.192
  0
LINE
  8
0
 10
-423.161
 11
-422.75
 20
3.192
 21
3.464
  0
LINE
  8
0
 10
-422.75
 11
-422.309
 20
3.464
 21
3.684
  0
LINE
  8
0
 10
-422.309
 11
-421.845
 20
3.684
 21
3.847
  0
LINE
  8
0
 10
-421.845
 11
-421.364
 20
3.847
 21
3.953
  0
LINE
  8
0
 10
-421.364
 11
-420.873
 20
3.953
 21
3.998
  0
LINE
  8
0
 10
-420.873
 11
-420.381
 20
3.998
 21
3.983
  0
LINE
  8
0
 10
-420.381
 11
-419.894
 20
3.983
 21
3.907
  0
LINE
  8
0
 10
-419.894
 11
-419.421
 20
3.907
 21
3.773
  0
LINE
  8
0
 10
-419.421
 11
-418.967
 20
3.773
 21
3.581
  0
LINE
  8
0
 10
-418.967
 11
-418.541
 20
3.581
 21
3.334
  0
LINE
  8
0
 10
-418.541
 11
-418.148
 20
3.334
 21
3.038
  0
LINE
  8
0
 10
-418.148
 11
-417.794
 20
3.038
 21
2.695
  0
LINE
  8
0
 10
-417.794
 11
-417.485
 20
2.695
 21
2.311
  0
LINE
  8
0
 10
-417.485
 11
-417.226
 20
2.311
 21
1.892
  0
LINE
  8
0
 10
-417.226
 11
-417.02
 20
1.892
 21
1.445
  0
LINE
  8
0
 10
-417.02
 11
-416.871
 20
1.445
 21
0.976
  0
LINE
  8
0
 10
-416.871
 11
-416.78
 20
0.976
 21
0.492
  0
LINE
  8
0
 10
-416.78
 11
-416.75
 20
0.492
 21
0
  0
LINE
  8
0
 10
-416.75
 11
-416.78
 20
0
 21
-0.492
  0
LINE
  8
0
 10
-416.78
 11
-416.871
 20
-0.492
 21
-0.976
  0
LINE
  8
0
 10
-416.871
 11
-417.02
 20
-0.976
 21
-1.445
  0
LINE
  8
0
 10
-417.02
 11
-417.226
 20
-1.445
 21
-1.892
  0
LINE
  8
0
 10
-417.226
 11
-417.485
 20
-1.892
 21
-2.311
  0
LINE
  8
0
 10
-417.485
 11
-417.794
 20
-2.311
 21
-2.695
  0
LINE
  8
0
 10
-417.794
 11
-418.148
 20
-2.695
 21
-3.038
  0
LINE
  8
0
 10
-418.148
 11
-418.541
 20
-3.038
 21
-3.334
  0
LINE
  8
0
 10
-418.541
 11
-418.967
 20
-3.334
 21
-3.581
  0
LINE
  8
0
 10
-418.967
 11
-419.421
 20
-3.581
 21
-3.773
  0
LINE
  8
0
 10
-419.421
 11
-419.894
 20
-3.773
 21
-3.907
  0
LINE
  8
0
 10
-419.894
 11
-420.381
 20
-3.907
 21
-3.983
  0
LINE
  8
0
 10
-420.381
 11
-420.873
 20
-3.983
 21
-3.998
  0
LINE
  8
0
 10
-420.873
 11
-421.364
 20
-3.998
 21
-3.953
  0
LINE
  8
0
 10
-421.364
 11
-421.845
 20
-3.953
 21
-3.847
  0
LINE
  8
0
 10
-421.845
 11
-422.309
 20
-3.847
 21
-3.684
  0
LINE
  8
0
 10
-422.309
 11
-422.75
 20
-3.684
 21
-3.464
  0
LINE
  8
0
 10
-422.75
 11
-423.161
 20
-3.464
 21
-3.192
  0
LINE
  8
0
 10
-423.161
 11
-423.535
 20
-3.192
 21
-2.872
  0
LINE
  8
0
 10
-423.535
 11
-423.866
 20
-2.872
 21
-2.508
  0
LINE
  8
0
 10
-423.866
 11
-424.151
 20
-2.508
 21
-2.106
  0
LINE
  8
0
 10
-424.151
 11
-424.384
 20
-2.106
 21
-1.672
  0
LINE
  8
0
 10
-424.384
 11
-424.562
 20
-1.672
 21
-1.213
  0
LINE
  8
0
 10
-424.562
 11
-424.682
 20
-1.213
 21
-0.735
  0
LINE
  8
0
 10
-424.682
 11
-424.742
 20
-0.735
 21
-0.246
  0
LINE
  8
0
 10
-366.26
 11
-366.205
 20
87.2
 21
87.69
  0
LINE
  8
0
 10
-366.205
 11
-366.042
 20
87.69
 21
88.155
  0
LINE
  8
0
 10
-366.042
 11
-365.78
 20
88.155
 21
88.572
  0
LINE
  8
0
 10
-365.78
 11
-365.432
 20
88.572
 21
88.92
  0
LINE
  8
0
 10
-365.432
 11
-365.015
 20
88.92
 21
89.182
  0
LINE
  8
0
 10
-365.015
 11
-364.55
 20
89.182
 21
89.345
  0
LINE
  8
0
 10
-364.55
 11
-364.06
 20
89.345
 21
89.4
  0
LINE
  8
0
 10
-364.06
 11
-363.57
 20
89.4
 21
89.345
  0
LINE
  8
0
 10
-363.57
 11
-363.105
 20
89.345
 21
89.182
  0
LINE
  8
0
 10
-363.105
 11
-362.688
 20
89.182
 21
88.92
  0
LINE
  8
0
 10
-362.688
 11
-362.34
 20
88.92
 21
88.572
  0
LINE
  8
0
 10
-362.34
 11
-362.078
 20
88.572
 21
88.155
  0
LINE
  8
0
 10
-362.078
 11
-361.915
 20
88.155
 21
87.69
  0
LINE
  8
0
 10
-361.915
 11
-361.86
 20
87.69
 21
87.2
  0
LINE
  8
0
 10
-361.86
 11
-361.915
 20
87.2
 21
86.71
  0
LINE
  8
0
 10
-361.915
 11
-362.078
 20
86.71
 21
86.245
  0
LINE
  8
0
 10
-362.078
 11
-362.34
 20
86.245
 21
85.828
  0
LINE
  8
0
 10
-362.34
 11
-362.688
 20
85.828
 21
85.48
  0
LINE
  8
0
 10
-362.688
 11
-363.105
 20
85.48
 21
85.218
  0
LINE
  8
0
 10
-363.105
 11
-363.57
 20
85.218
 21
85.055
  0
LINE
  8
0
 10
-363.57
 11
-364.06
 20
85.055
 21
85
  0
LINE
  8
0
 10
-364.06
 11
-364.55
 20
85
 21
85.055
  0
LINE
  8
0
 10
-364.55
 11
-365.015
 20
85.055
 21
85.218
  0
LINE
  8
0
 10
-365.015
 11
-365.432
 20
85.218
 21
85.48
  0
LINE
  8
0
 10
-365.432
 11
-365.78
 20
85.48
 21
85.828
  0
LINE
  8
0
 10
-365.78
 11
-366.042
 20
85.828
 21
86.245
  0
LINE
  8
0
 10
-366.042
 11
-366.205
 20
86.245
 21
86.71
  0
LINE
  8
0
 10
-366.205
 11
-366.26
 20
86.71
 21
87.2
  0
LINE
  8
0
 10
-365.25
 11
-365.195
 20
574.19
 21
574.68
  0
LINE
  8
0
 10
-365.195
 11
-365.032
 20
574.68
 21
575.145
  0
LINE
  8
0
 10
-365.032
 11
-364.77
 20
575.145
 21
575.562
  0
LINE
  8
0
 10
-364.77
 11
-364.422
 20
575.562
 21
575.91
  0
LINE
  8
0
 10
-364.422
 11
-364.005
 20
575.91
 21
576.172
  0
LINE
  8
0
 10
-364.005
 11
-363.54
 20
576.172
 21
576.335
  0
LINE
  8
0
 10
-363.54
 11
-363.05
 20
576.335
 21
576.39
  0
LINE
  8
0
 10
-363.05
 11
-362.56
 20
576.39
 21
576.335
  0
LINE
  8
0
 10
-362.56
 11
-362.095
 20
576.335
 21
576.172
  0
LINE
  8
0
 10
-362.095
 11
-361.678
 20
576.172
 21
575.91
  0
LINE
  8
0
 10
-361.678
 11
-361.33
 20
575.91
 21
575.562
  0
LINE
  8
0
 10
-361.33
 11
-361.068
 20
575.562
 21
575.145
  0
LINE
  8
0
 10
-361.068
 11
-360.905
 20
575.145
 21
574.68
  0
LINE
  8
0
 10
-360.905
 11
-360.85
 20
574.68
 21
574.19
  0
LINE
  8
0
 10
-360.85
 11
-360.905
 20
574.19
 21
573.7
  0
LINE
  8
0
 10
-360.905
 11
-361.068
 20
573.7
 21
573.235
  0
LINE
  8
0
 10
-361.068
 11
-361.33
 20
573.235
 21
572.818
  0
LINE
  8
0
 10
-361.33
 11
-361.678
 20
572.818
 21
572.47
  0
LINE
  8
0
 10
-361.678
 11
-362.095
 20
572.47
 21
572.208
  0
LINE
  8
0
 10
-362.095
 11
-362.56
 20
572.208
 21
572.045
  0
LINE
  8
0
 10
-362.56
 11
-363.05
 20
572.045
 21
571.99
  0
LINE
  8
0
 10
-363.05
 11
-363.54
 20
571.99
 21
572.045
  0
LINE
  8
0
 10
-363.54
 11
-364.005
 20
572.045
 21
572.208
  0
LINE
  8
0
 10
-364.005
 11
-364.422
 20
572.208
 21
572.47
  0
LINE
  8
0
 10
-364.422
 11
-364.77
 20
572.47
 21
572.818
  0
LINE
  8
0
 10
-364.77
 11
-365.032
 20
572.818
 21
573.235
  0
LINE
  8
0
 10
-365.032
 11
-365.195
 20
573.235
 21
573.7
  0
LINE
  8
0
 10
-365.195
 11
-365.25
 20
573.7
 21
574.19
  0
LINE
  8
0
 10
-207.98
 11
-207.925
 20
-594
 21
-593.51
  0
LINE
  8
0
 10
-207.925
 11
-207.762
 20
-593.51
 21
-593.045
  0
LINE
  8
0
 10
-207.762
 11
-207.5
 20
-593.045
 21
-592.628
  0
LINE
  8
0
 10
-207.5
 11
-207.152
 20
-592.628
 21
-592.28
  0
LINE
  8
0
 10
-207.152
 11
-206.735
 20
-592.28
 21
-592.018
  0
LINE
  8
0
 10
-206.735
 11
-206.27
 20
-592.018
 21
-591.855
  0
LINE
  8
0
 10
-206.27
 11
-205.78
 20
-591.855
 21
-591.8
  0
LINE
  8
0
 10
-205.78
 11
-205.29
 20
-591.8
 21
-591.855
  0
LINE
  8
0
 10
-205.29
 11
-204.825
 20
-591.855
 21
-592.018
  0
LINE
  8
0
 10
-204.825
 11
-204.408
 20
-592.018
 21
-592.28
  0
LINE
  8
0
 10
-204.408
 11
-204.06
 20
-592.28
 21
-592.628
  0
LINE
  8
0
 10
-204.06
 11
-203.798
 20
-592.628
 21
-593.045
  0
LINE
  8
0
 10
-203.798
 11
-203.635
 20
-593.045
 21
-593.51
  0
LINE
  8
0
 10
-203.635
 11
-203.58
 20
-593.51
 21
-594
  0
LINE
  8
0
 10
-203.58
 11
-203.635
 20
-594
 21
-594.49
  0
LINE
  8
0
 10
-203.635
 11
-203.798
 20
-594.49
 21
-594.955
  0
LINE
  8
0
 10
-203.798
 11
-204.06
 20
-594.955
 21
-595.372
  0
LINE
  8
0
 10
-204.06
 11
-204.408
 20
-595.372
 21
-595.72
  0
LINE
  8
0
 10
-204.408
 11
-204.825
 20
-595.72
 21
-595.982
  0
LINE
  8
0
 10
-204.825
 11
-205.29
 20
-595.982
 21
-596.145
  0
LINE
  8
0
 10
-205.29
 11
-205.78
 20
-596.145
 21
-596.2
  0
LINE
  8
0
 10
-205.78
 11
-206.27
 20
-596.2
 21
-596.145
  0
LINE
  8
0
 10
-206.27
 11
-206.735
 20
-596.145
 21
-595.982
  0
LINE
  8
0
 10
-206.735
 11
-207.152
 20
-595.982
 21
-595.72
  0
LINE
  8
0
 10
-207.152
 11
-207.5
 20
-595.72
 21
-595.372
  0
LINE
  8
0
 10
-207.5
 11
-207.762
 20
-595.372
 21
-594.955
  0
LINE
  8
0
 10
-207.762
 11
-207.925
 20
-594.955
 21
-594.49
  0
LINE
  8
0
 10
-207.925
 11
-207.98
 20
-594.49
 21
-594
  0
LINE
  8
0
 10
-207.98
 11
-207.925
 20
594
 21
594.49
  0
LINE
  8
0
 10
-207.925
 11
-207.762
 20
594.49
 21
594.955
  0
LINE
  8
0
 10
-207.762
 11
-207.5
 20
594.955
 21
595.372
  0
LINE
  8
0
 10
-207.5
 11
-207.152
 20
595.372
 21
595.72
  0
LINE
  8
0
 10
-207.152
 11
-206.735
 20
595.72
 21
595.982
  0
LINE
  8
0
 10
-206.735
 11
-206.27
 20
595.982
 21
596.145
  0
LINE
  8
0
 10
-206.27
 11
-205.78
 20
596.145
 21
596.2
  0
LINE
  8
0
 10
-205.78
 11
-205.29
 20
596.2
 21
596.145
  0
LINE
  8
0
 10
-205.29
 11
-204.825
 20
596.145
 21
595.982
  0
LINE
  8
0
 10
-204.825
 11
-204.408
 20
595.982
 21
595.72
  0
LINE
  8
0
 10
-204.408
 11
-204.06
 20
595.72
 21
595.372
  0
LINE
  8
0
 10
-204.06
 11
-203.798
 20
595.372
 21
594.955
  0
LINE
  8
0
 10
-203.798
 11
-203.635
 20
594.955
 21
594.49
  0
LINE
  8
0
 10
-203.635
 11
-203.58
 20
594.49
 21
594
  0
LINE
  8
0
 10
-203.58
 11
-203.635
 20
594
 21
593.51
  0
LINE
  8
0
 10
-203.635
 11
-203.798
 20
593.51
 21
593.045
  0
LINE
  8
0
 10
-203.798
 11
-204.06
 20
593.045
 21
592.628
  0
LINE
  8
0
 10
-204.06
 11
-204.408
 20
592.628
 21
592.28
  0
LINE
  8
0
 10
-204.408
 11
-204.825
 20
592.28
 21
592.018
  0
LINE
  8
0
 10
-204.825
 11
-205.29
 20
592.018
 21
591.855
  0
LINE
  8
0
 10
-205.29
 11
-205.78
 20
591.855
 21
591.8
  0
LINE
  8
0
 10
-205.78
 11
-206.27
 20
591.8
 21
591.855
  0
LINE
  8
0
 10
-206.27
 11
-206.735
 20
591.855
 21
592.018
  0
LINE
  8
0
 10
-206.735
 11
-207.152
 20
592.018
 21
592.28
  0
LINE
  8
0
 10
-207.152
 11
-207.5
 20
592.28
 21
592.628
  0
LINE
  8
0
 10
-207.5
 11
-207.762
 20
592.628
 21
593.045
  0
LINE
  8
0
 10
-207.762
 11
-207.925
 20
593.045
 21
593.51
  0
LINE
  8
0
 10
-207.925
 11
-207.98
 20
593.51
 21
594
  0
LINE
  8
0
 10
-150.98
 11
-150.925
 20
-594
 21
-593.51
  0
LINE
  8
0
 10
-150.925
 11
-150.762
 20
-593.51
 21
-593.045
  0
LINE
  8
0
 10
-150.762
 11
-150.5
 20
-593.045
 21
-592.628
  0
LINE
  8
0
 10
-150.5
 11
-150.152
 20
-592.628
 21
-592.28
  0
LINE
  8
0
 10
-150.152
 11
-149.735
 20
-592.28
 21
-592.018
  0
LINE
  8
0
 10
-149.735
 11
-149.27
 20
-592.018
 21
-591.855
  0
LINE
  8
0
 10
-149.27
 11
-148.78
 20
-591.855
 21
-591.8
  0
LINE
  8
0
 10
-148.78
 11
-148.29
 20
-591.8
 21
-591.855
  0
LINE
  8
0
 10
-148.29
 11
-147.825
 20
-591.855
 21
-592.018
  0
LINE
  8
0
 10
-147.825
 11
-147.408
 20
-592.018
 21
-592.28
  0
LINE
  8
0
 10
-147.408
 11
-147.06
 20
-592.28
 21
-592.628
  0
LINE
  8
0
 10
-147.06
 11
-146.798
 20
-592.628
 21
-593.045
  0
LINE
  8
0
 10
-146.798
 11
-146.635
 20
-593.045
 21
-593.51
  0
LINE
  8
0
 10
-146.635
 11
-146.58
 20
-593.51
 21
-594
  0
LINE
  8
0
 10
-146.58
 11
-146.635
 20
-594
 21
-594.49
  0
LINE
  8
0
 10
-146.635
 11
-146.798
 20
-594.49
 21
-594.955
  0
LINE
  8
0
 10
-146.798
 11
-147.06
 20
-594.955
 21
-595.372
  0
LINE
  8
0
 10
-147.06
 11
-147.408
 20
-595.372
 21
-595.72
  0
LINE
  8
0
 10
-147.408
 11
-147.825
 20
-595.72
 21
-595.982
  0
LINE
  8
0
 10
-147.825
 11
-148.29
 20
-595.982
 21
-596.145
  0
LINE
  8
0
 10
-148.29
 11
-148.78
 20
-596.145
 21
-596.2
  0
LINE
  8
0
 10
-148.78
 11
-149.27
 20
-596.2
 21
-596.145
  0
LINE
  8
0
 10
-149.27
 11
-149.735
 20
-596.145
 21
-595.982
  0
LINE
  8
0
 10
-149.735
 11
-150.152
 20
-595.982
 21
-595.72
  0
LINE
  8
0
 10
-150.152
 11
-150.5
 20
-595.72
 21
-595.372
  0
LINE
  8
0
 10
-150.5
 11
-150.762
 20
-595.372
 21
-594.955
  0
LINE
  8
0
 10
-150.762
 11
-150.925
 20
-594.955
 21
-594.49
  0
LINE
  8
0
 10
-150.925
 11
-150.98
 20
-594.49
 21
-594
  0
LINE
  8
0
 10
-150.98
 11
-150.925
 20
594
 21
594.49
  0
LINE
  8
0
 10
-150.925
 11
-150.762
 20
594.49
 21
594.955
  0
LINE
  8
0
 10
-150.762
 11
-150.5
 20
594.955
 21
595.372
  0
LINE
  8
0
 10
-150.5
 11
-150.152
 20
595.372
 21
595.72
  0
LINE
  8
0
 10
-150.152
 11
-149.735
 20
595.72
 21
595.982
  0
LINE
  8
0
 10
-149.735
 11
-149.27
 20
595.982
 21
596.145
  0
LINE
  8
0
 10
-149.27
 11
-148.78
 20
596.145
 21
596.2
  0
LINE
  8
0
 10
-148.78
 11
-148.29
 20
596.2
 21
596.145
  0
LINE
  8
0
 10
-148.29
 11
-147.825
 20
596.145
 21
595.982
  0
LINE
  8
0
 10
-147.825
 11
-147.408
 20
595.982
 21
595.72
  0
LINE
  8
0
 10
-147.408
 11
-147.06
 20
595.72
 21
595.372
  0
LINE
  8
0
 10
-147.06
 11
-146.798
 20
595.372
 21
594.955
  0
LINE
  8
0
 10
-146.798
 11
-146.635
 20
594.955
 21
594.49
  0
LINE
  8
0
 10
-146.635
 11
-146.58
 20
594.49
 21
594
  0
LINE
  8
0
 10
-146.58
 11
-146.635
 20
594
 21
593.51
  0
LINE
  8
0
 10
-146.635
 11
-146.798
 20
593.51
 21
593.045
  0
LINE
  8
0
 10
-146.798
 11
-147.06
 20
593.045
 21
592.628
  0
LINE
  8
0
 10
-147.06
 11
-147.408
 20
592.628
 21
592.28
  0
LINE
  8
0
 10
-147.408
 11
-147.825
 20
592.28
 21
592.018
  0
LINE
  8
0
 10
-147.825
 11
-148.29
 20
592.018
 21
591.855
  0
LINE
  8
0
 10
-148.29
 11
-148.78
 20
591.855
 21
591.8
  0
LINE
  8
0
 10
-148.78
 11
-149.27
 20
591.8
 21
591.855
  0
LINE
  8
0
 10
-149.27
 11
-149.735
 20
591.855
 21
592.018
  0
LINE
  8
0
 10
-149.735
 11
-150.152
 20
592.018
 21
592.28
  0
LINE
  8
0
 10
-150.152
 11
-150.5
 20
592.28
 21
592.628
  0
LINE
  8
0
 10
-150.5
 11
-150.762
 20
592.628
 21
593.045
  0
LINE
  8
0
 10
-150.762
 11
-150.925
 20
593.045
 21
593.51
  0
LINE
  8
0
 10
-150.925
 11
-150.98
 20
593.51
 21
594
  0
LINE
  8
0
 10
-40.46
 11
-40.405
 20
580
 21
580.49
  0
LINE
  8
0
 10
-40.405
 11
-40.242
 20
580.49
 21
580.955
  0
LINE
  8
0
 10
-40.242
 11
-39.98
 20
580.955
 21
581.372
  0
LINE
  8
0
 10
-39.98
 11
-39.632
 20
581.372
 21
581.72
  0
LINE
  8
0
 10
-39.632
 11
-39.215
 20
581.72
 21
581.982
  0
LINE
  8
0
 10
-39.215
 11
-38.75
 20
581.982
 21
582.145
  0
LINE
  8
0
 10
-38.75
 11
-38.26
 20
582.145
 21
582.2
  0
LINE
  8
0
 10
-38.26
 11
-37.77
 20
582.2
 21
582.145
  0
LINE
  8
0
 10
-37.77
 11
-37.305
 20
582.145
 21
581.982
  0
LINE
  8
0
 10
-37.305
 11
-36.888
 20
581.982
 21
581.72
  0
LINE
  8
0
 10
-36.888
 11
-36.54
 20
581.72
 21
581.372
  0
LINE
  8
0
 10
-36.54
 11
-36.278
 20
581.372
 21
580.955
  0
LINE
  8
0
 10
-36.278
 11
-36.115
 20
580.955
 21
580.49
  0
LINE
  8
0
 10
-36.115
 11
-36.06
 20
580.49
 21
580
  0
LINE
  8
0
 10
-36.06
 11
-36.115
 20
580
 21
579.51
  0
LINE
  8
0
 10
-36.115
 11
-36.278
 20
579.51
 21
579.045
  0
LINE
  8
0
 10
-36.278
 11
-36.54
 20
579.045
 21
578.628
  0
LINE
  8
0
 10
-36.54
 11
-36.888
 20
578.628
 21
578.28
  0
LINE
  8
0
 10
-36.888
 11
-37.305
 20
578.28
 21
578.018
  0
LINE
  8
0
 10
-37.305
 11
-37.77
 20
578.018
 21
577.855
  0
LINE
  8
0
 10
-37.77
 11
-38.26
 20
577.855
 21
577.8
  0
LINE
  8
0
 10
-38.26
 11
-38.75
 20
577.8
 21
577.855
  0
LINE
  8
0
 10
-38.75
 11
-39.215
 20
577.855
 21
578.018
  0
LINE
  8
0
 10
-39.215
 11
-39.632
 20
578.018
 21
578.28
  0
LINE
  8
0
 10
-39.632
 11
-39.98
 20
578.28
 21
578.628
  0
LINE
  8
0
 10
-39.98
 11
-40.242
 20
578.628
 21
579.045
  0
LINE
  8
0
 10
-40.242
 11
-40.405
 20
579.045
 21
579.51
  0
LINE
  8
0
 10
-40.405
 11
-40.46
 20
579.51
 21
580
  0
LINE
  8
0
 10
-30.76
 11
-30.705
 20
291
 21
291.49
  0
LINE
  8
0
 10
-30.705
 11
-30.542
 20
291.49
 21
291.955
  0
LINE
  8
0
 10
-30.542
 11
-30.28
 20
291.955
 21
292.372
  0
LINE
  8
0
 10
-30.28
 11
-29.932
 20
292.372
 21
292.72
  0
LINE
  8
0
 10
-29.932
 11
-29.515
 20
292.72
 21
292.982
  0
LINE
  8
0
 10
-29.515
 11
-29.05
 20
292.982
 21
293.145
  0
LINE
  8
0
 10
-29.05
 11
-28.56
 20
293.145
 21
293.2
  0
LINE
  8
0
 10
-28.56
 11
-28.07
 20
293.2
 21
293.145
  0
LINE
  8
0
 10
-28.07
 11
-27.605
 20
293.145
 21
292.982
  0
LINE
  8
0
 10
-27.605
 11
-27.188
 20
292.982
 21
292.72
  0
LINE
  8
0
 10
-27.188
 11
-26.84
 20
292.72
 21
292.372
  0
LINE
  8
0
 10
-26.84
 11
-26.578
 20
292.372
 21
291.955
  0
LINE
  8
0
 10
-26.578
 11
-26.415
 20
291.955
 21
291.49
  0
LINE
  8
0
 10
-26.415
 11
-26.36
 20
291.49
 21
291
  0
LINE
  8
0
 10
-26.36
 11
-26.415
 20
291
 21
290.51
  0
LINE
  8
0
 10
-26.415
 11
-26.578
 20
290.51
 21
290.045
  0
LINE
  8
0
 10
-26.578
 11
-26.84
 20
290.045
 21
289.628
  0
LINE
  8
0
 10
-26.84
 11
-27.188
 20
289.628
 21
289.28
  0
LINE
  8
0
 10
-27.188
 11
-27.605
 20
289.28
 21
289.018
  0
LINE
  8
0
 10
-27.605
 11
-28.07
 20
289.018
 21
288.855
  0
LINE
  8
0
 10
-28.07
 11
-28.56
 20
288.855
 21
288.8
  0
LINE
  8
0
 10
-28.56
 11
-29.05
 20
288.8
 21
288.855
  0
LINE
  8
0
 10
-29.05
 11
-29.515
 20
288.855
 21
289.018
  0
LINE
  8
0
 10
-29.515
 11
-29.932
 20
289.018
 21
289.28
  0
LINE
  8
0
 10
-29.932
 11
-30.28
 20
289.28
 21
289.628
  0
LINE
  8
0
 10
-30.28
 11
-30.542
 20
289.628
 21
290.045
  0
LINE
  8
0
 10
-30.542
 11
-30.705
 20
290.045
 21
290.51
  0
LINE
  8
0
 10
-30.705
 11
-30.76
 20
290.51
 21
291
  0
LINE
  8
0
 10
-17.96
 11
-17.905
 20
-595
 21
-594.51
  0
LINE
  8
0
 10
-17.905
 11
-17.742
 20
-594.51
 21
-594.045
  0
LINE
  8
0
 10
-17.742
 11
-17.48
 20
-594.045
 21
-593.628
  0
LINE
  8
0
 10
-17.48
 11
-17.132
 20
-593.628
 21
-593.28
  0
LINE
  8
0
 10
-17.132
 11
-16.715
 20
-593.28
 21
-593.018
  0
LINE
  8
0
 10
-16.715
 11
-16.25
 20
-593.018
 21
-592.855
  0
LINE
  8
0
 10
-16.25
 11
-15.76
 20
-592.855
 21
-592.8
  0
LINE
  8
0
 10
-15.76
 11
-15.27
 20
-592.8
 21
-592.855
  0
LINE
  8
0
 10
-15.27
 11
-14.805
 20
-592.855
 21
-593.018
  0
LINE
  8
0
 10
-14.805
 11
-14.388
 20
-593.018
 21
-593.28
  0
LINE
  8
0
 10
-14.388
 11
-14.04
 20
-593.28
 21
-593.628
  0
LINE
  8
0
 10
-14.04
 11
-13.778
 20
-593.628
 21
-594.045
  0
LINE
  8
0
 10
-13.778
 11
-13.615
 20
-594.045
 21
-594.51
  0
LINE
  8
0
 10
-13.615
 11
-13.56
 20
-594.51
 21
-595
  0
LINE
  8
0
 10
-13.56
 11
-13.615
 20
-595
 21
-595.49
  0
LINE
  8
0
 10
-13.615
 11
-13.778
 20
-595.49
 21
-595.955
  0
LINE
  8
0
 10
-13.778
 11
-14.04
 20
-595.955
 21
-596.372
  0
LINE
  8
0
 10
-14.04
 11
-14.388
 20
-596.372
 21
-596.72
  0
LINE
  8
0
 10
-14.388
 11
-14.805
 20
-596.72
 21
-596.982
  0
LINE
  8
0
 10
-14.805
 11
-15.27
 20
-596.982
 21
-597.145
  0
LINE
  8
0
 10
-15.27
 11
-15.76
 20
-597.145
 21
-597.2
  0
LINE
  8
0
 10
-15.76
 11
-16.25
 20
-597.2
 21
-597.145
  0
LINE
  8
0
 10
-16.25
 11
-16.715
 20
-597.145
 21
-596.982
  0
LINE
  8
0
 10
-16.715
 11
-17.132
 20
-596.982
 21
-596.72
  0
LINE
  8
0
 10
-17.132
 11
-17.48
 20
-596.72
 21
-596.372
  0
LINE
  8
0
 10
-17.48
 11
-17.742
 20
-596.372
 21
-595.955
  0
LINE
  8
0
 10
-17.742
 11
-17.905
 20
-595.955
 21
-595.49
  0
LINE
  8
0
 10
-17.905
 11
-17.96
 20
-595.49
 21
-595
  0
LINE
  8
0
 10
-17.96
 11
-17.905
 20
-524
 21
-523.51
  0
LINE
  8
0
 10
-17.905
 11
-17.742
 20
-523.51
 21
-523.045
  0
LINE
  8
0
 10
-17.742
 11
-17.48
 20
-523.045
 21
-522.628
  0
LINE
  8
0
 10
-17.48
 11
-17.132
 20
-522.628
 21
-522.28
  0
LINE
  8
0
 10
-17.132
 11
-16.715
 20
-522.28
 21
-522.018
  0
LINE
  8
0
 10
-16.715
 11
-16.25
 20
-522.018
 21
-521.855
  0
LINE
  8
0
 10
-16.25
 11
-15.76
 20
-521.855
 21
-521.8
  0
LINE
  8
0
 10
-15.76
 11
-15.27
 20
-521.8
 21
-521.855
  0
LINE
  8
0
 10
-15.27
 11
-14.805
 20
-521.855
 21
-522.018
  0
LINE
  8
0
 10
-14.805
 11
-14.388
 20
-522.018
 21
-522.28
  0
LINE
  8
0
 10
-14.388
 11
-14.04
 20
-522.28
 21
-522.628
  0
LINE
  8
0
 10
-14.04
 11
-13.778
 20
-522.628
 21
-523.045
  0
LINE
  8
0
 10
-13.778
 11
-13.615
 20
-523.045
 21
-523.51
  0
LINE
  8
0
 10
-13.615
 11
-13.56
 20
-523.51
 21
-524
  0
LINE
  8
0
 10
-13.56
 11
-13.615
 20
-524
 21
-524.49
  0
LINE
  8
0
 10
-13.615
 11
-13.778
 20
-524.49
 21
-524.955
  0
LINE
  8
0
 10
-13.778
 11
-14.04
 20
-524.955
 21
-525.372
  0
LINE
  8
0
 10
-14.04
 11
-14.388
 20
-525.372
 21
-525.72
  0
LINE
  8
0
 10
-14.388
 11
-14.805
 20
-525.72
 21
-525.982
  0
LINE
  8
0
 10
-14.805
 11
-15.27
 20
-525.982
 21
-526.145
  0
LINE
  8
0
 10
-15.27
 11
-15.76
 20
-526.145
 21
-526.2
  0
LINE
  8
0
 10
-15.76
 11
-16.25
 20
-526.2
 21
-526.145
  0
LINE
  8
0
 10
-16.25
 11
-16.715
 20
-526.145
 21
-525.982
  0
LINE
  8
0
 10
-16.715
 11
-17.132
 20
-525.982
 21
-525.72
  0
LINE
  8
0
 10
-17.132
 11
-17.48
 20
-525.72
 21
-525.372
  0
LINE
  8
0
 10
-17.48
 11
-17.742
 20
-525.372
 21
-524.955
  0
LINE
  8
0
 10
-17.742
 11
-17.905
 20
-524.955
 21
-524.49
  0
LINE
  8
0
 10
-17.905
 11
-17.96
 20
-524.49
 21
-524
  0
LINE
  8
0
 10
4.04
 11
4.095
 20
-595
 21
-594.51
  0
LINE
  8
0
 10
4.095
 11
4.258
 20
-594.51
 21
-594.045
  0
LINE
  8
0
 10
4.258
 11
4.52
 20
-594.045
 21
-593.628
  0
LINE
  8
0
 10
4.52
 11
4.868
 20
-593.628
 21
-593.28
  0
LINE
  8
0
 10
4.868
 11
5.285
 20
-593.28
 21
-593.018
  0
LINE
  8
0
 10
5.285
 11
5.75
 20
-593.018
 21
-592.855
  0
LINE
  8
0
 10
5.75
 11
6.24
 20
-592.855
 21
-592.8
  0
LINE
  8
0
 10
6.24
 11
6.73
 20
-592.8
 21
-592.855
  0
LINE
  8
0
 10
6.73
 11
7.195
 20
-592.855
 21
-593.018
  0
LINE
  8
0
 10
7.195
 11
7.612
 20
-593.018
 21
-593.28
  0
LINE
  8
0
 10
7.612
 11
7.96
 20
-593.28
 21
-593.628
  0
LINE
  8
0
 10
7.96
 11
8.222
 20
-593.628
 21
-594.045
  0
LINE
  8
0
 10
8.222
 11
8.385
 20
-594.045
 21
-594.51
  0
LINE
  8
0
 10
8.385
 11
8.44
 20
-594.51
 21
-595
  0
LINE
  8
0
 10
8.44
 11
8.385
 20
-595
 21
-595.49
  0
LINE
  8
0
 10
8.385
 11
8.222
 20
-595.49
 21
-595.955
  0
LINE
  8
0
 10
8.222
 11
7.96
 20
-595.955
 21
-596.372
  0
LINE
  8
0
 10
7.96
 11
7.612
 20
-596.372
 21
-596.72
  0
LINE
  8
0
 10
7.612
 11
7.195
 20
-596.72
 21
-596.982
  0
LINE
  8
0
 10
7.195
 11
6.73
 20
-596.982
 21
-597.145
  0
LINE
  8
0
 10
6.73
 11
6.24
 20
-597.145
 21
-597.2
  0
LINE
  8
0
 10
6.24
 11
5.75
 20
-597.2
 21
-597.145
  0
LINE
  8
0
 10
5.75
 11
5.285
 20
-597.145
 21
-596.982
  0
LINE
  8
0
 10
5.285
 11
4.868
 20
-596.982
 21
-596.72
  0
LINE
  8
0
 10
4.868
 11
4.52
 20
-596.72
 21
-596.372
  0
LINE
  8
0
 10
4.52
 11
4.258
 20
-596.372
 21
-595.955
  0
LINE
  8
0
 10
4.258
 11
4.095
 20
-595.955
 21
-595.49
  0
LINE
  8
0
 10
4.095
 11
4.04
 20
-595.49
 21
-595
  0
LINE
  8
0
 10
4.04
 11
4.095
 20
-524
 21
-523.51
  0
LINE
  8
0
 10
4.095
 11
4.258
 20
-523.51
 21
-523.045
  0
LINE
  8
0
 10
4.258
 11
4.52
 20
-523.045
 21
-522.628
  0
LINE
  8
0
 10
4.52
 11
4.868
 20
-522.628
 21
-522.28
  0
LINE
  8
0
 10
4.868
 11
5.285
 20
-522.28
 21
-522.018
  0
LINE
  8
0
 10
5.285
 11
5.75
 20
-522.018
 21
-521.855
  0
LINE
  8
0
 10
5.75
 11
6.24
 20
-521.855
 21
-521.8
  0
LINE
  8
0
 10
6.24
 11
6.73
 20
-521.8
 21
-521.855
  0
LINE
  8
0
 10
6.73
 11
7.195
 20
-521.855
 21
-522.018
  0
LINE
  8
0
 10
7.195
 11
7.612
 20
-522.018
 21
-522.28
  0
LINE
  8
0
 10
7.612
 11
7.96
 20
-522.28
 21
-522.628
  0
LINE
  8
0
 10
7.96
 11
8.222
 20
-522.628
 21
-523.045
  0
LINE
  8
0
 10
8.222
 11
8.385
 20
-523.045
 21
-523.51
  0
LINE
  8
0
 10
8.385
 11
8.44
 20
-523.51
 21
-524
  0
LINE
  8
0
 10
8.44
 11
8.385
 20
-524
 21
-524.49
  0
LINE
  8
0
 10
8.385
 11
8.222
 20
-524.49
 21
-524.955
  0
LINE
  8
0
 10
8.222
 11
7.96
 20
-524.955
 21
-525.372
  0
LINE
  8
0
 10
7.96
 11
7.612
 20
-525.372
 21
-525.72
  0
LINE
  8
0
 10
7.612
 11
7.195
 20
-525.72
 21
-525.982
  0
LINE
  8
0
 10
7.195
 11
6.73
 20
-525.982
 21
-526.145
  0
LINE
  8
0
 10
6.73
 11
6.24
 20
-526.145
 21
-526.2
  0
LINE
  8
0
 10
6.24
 11
5.75
 20
-526.2
 21
-526.145
  0
LINE
  8
0
 10
5.75
 11
5.285
 20
-526.145
 21
-525.982
  0
LINE
  8
0
 10
5.285
 11
4.868
 20
-525.982
 21
-525.72
  0
LINE
  8
0
 10
4.868
 11
4.52
 20
-525.72
 21
-525.372
  0
LINE
  8
0
 10
4.52
 11
4.258
 20
-525.372
 21
-524.955
  0
LINE
  8
0
 10
4.258
 11
4.095
 20
-524.955
 21
-524.49
  0
LINE
  8
0
 10
4.095
 11
4.04
 20
-524.49
 21
-524
  0
LINE
  8
0
 10
13.86
 11
13.915
 20
291
 21
291.49
  0
LINE
  8
0
 10
13.915
 11
14.078
 20
291.49
 21
291.955
  0
LINE
  8
0
 10
14.078
 11
14.34
 20
291.955
 21
292.372
  0
LINE
  8
0
 10
14.34
 11
14.688
 20
292.372
 21
292.72
  0
LINE
  8
0
 10
14.688
 11
15.105
 20
292.72
 21
292.982
  0
LINE
  8
0
 10
15.105
 11
15.57
 20
292.982
 21
293.145
  0
LINE
  8
0
 10
15.57
 11
16.06
 20
293.145
 21
293.2
  0
LINE
  8
0
 10
16.06
 11
16.55
 20
293.2
 21
293.145
  0
LINE
  8
0
 10
16.55
 11
17.015
 20
293.145
 21
292.982
  0
LINE
  8
0
 10
17.015
 11
17.432
 20
292.982
 21
292.72
  0
LINE
  8
0
 10
17.432
 11
17.78
 20
292.72
 21
292.372
  0
LINE
  8
0
 10
17.78
 11
18.042
 20
292.372
 21
291.955
  0
LINE
  8
0
 10
18.042
 11
18.205
 20
291.955
 21
291.49
  0
LINE
  8
0
 10
18.205
 11
18.26
 20
291.49
 21
291
  0
LINE
  8
0
 10
18.26
 11
18.205
 20
291
 21
290.51
  0
LINE
  8
0
 10
18.205
 11
18.042
 20
290.51
 21
290.045
  0
LINE
  8
0
 10
18.042
 11
17.78
 20
290.045
 21
289.628
  0
LINE
  8
0
 10
17.78
 11
17.432
 20
289.628
 21
289.28
  0
LINE
  8
0
 10
17.432
 11
17.015
 20
289.28
 21
289.018
  0
LINE
  8
0
 10
17.015
 11
16.55
 20
289.018
 21
288.855
  0
LINE
  8
0
 10
16.55
 11
16.06
 20
288.855
 21
288.8
  0
LINE
  8
0
 10
16.06
 11
15.57
 20
288.8
 21
288.855
  0
LINE
  8
0
 10
15.57
 11
15.105
 20
288.855
 21
289.018
  0
LINE
  8
0
 10
15.105
 11
14.688
 20
289.018
 21
289.28
  0
LINE
  8
0
 10
14.688
 11
14.34
 20
289.28
 21
289.628
  0
LINE
  8
0
 10
14.34
 11
14.078
 20
289.628
 21
290.045
  0
LINE
  8
0
 10
14.078
 11
13.915
 20
290.045
 21
290.51
  0
LINE
  8
0
 10
13.915
 11
13.86
 20
290.51
 21
291
  0
LINE
  8
0
 10
17.8
 11
17.855
 20
351.6
 21
352.09
  0
LINE
  8
0
 10
17.855
 11
18.018
 20
352.09
 21
352.555
  0
LINE
  8
0
 10
18.018
 11
18.28
 20
352.555
 21
352.972
  0
LINE
  8
0
 10
18.28
 11
18.628
 20
352.972
 21
353.32
  0
LINE
  8
0
 10
18.628
 11
19.045
 20
353.32
 21
353.582
  0
LINE
  8
0
 10
19.045
 11
19.51
 20
353.582
 21
353.745
  0
LINE
  8
0
 10
19.51
 11
20
 20
353.745
 21
353.8
  0
LINE
  8
0
 10
20
 11
20.49
 20
353.8
 21
353.745
  0
LINE
  8
0
 10
20.49
 11
20.955
 20
353.745
 21
353.582
  0
LINE
  8
0
 10
20.955
 11
21.372
 20
353.582
 21
353.32
  0
LINE
  8
0
 10
21.372
 11
21.72
 20
353.32
 21
352.972
  0
LINE
  8
0
 10
21.72
 11
21.982
 20
352.972
 21
352.555
  0
LINE
  8
0
 10
21.982
 11
22.145
 20
352.555
 21
352.09
  0
LINE
  8
0
 10
22.145
 11
22.2
 20
352.09
 21
351.6
  0
LINE
  8
0
 10
22.2
 11
22.145
 20
351.6
 21
351.11
  0
LINE
  8
0
 10
22.145
 11
21.982
 20
351.11
 21
350.645
  0
LINE
  8
0
 10
21.982
 11
21.72
 20
350.645
 21
350.228
  0
LINE
  8
0
 10
21.72
 11
21.372
 20
350.228
 21
349.88
  0
LINE
  8
0
 10
21.372
 11
20.955
 20
349.88
 21
349.618
  0
LINE
  8
0
 10
20.955
 11
20.49
 20
349.618
 21
349.455
  0
LINE
  8
0
 10
20.49
 11
20
 20
349.455
 21
349.4
  0
LINE
  8
0
 10
20
 11
19.51
 20
349.4
 21
349.455
  0
LINE
  8
0
 10
19.51
 11
19.045
 20
349.455
 21
349.618
  0
LINE
  8
0
 10
19.045
 11
18.628
 20
349.618
 21
349.88
  0
LINE
  8
0
 10
18.628
 11
18.28
 20
349.88
 21
350.228
  0
LINE
  8
0
 10
18.28
 11
18.018
 20
350.228
 21
350.645
  0
LINE
  8
0
 10
18.018
 11
17.855
 20
350.645
 21
351.11
  0
LINE
  8
0
 10
17.855
 11
17.8
 20
351.11
 21
351.6
  0
LINE
  8
0
 10
134.08
 11
134.135
 20
-340.5
 21
-340.01
  0
LINE
  8
0
 10
134.135
 11
134.298
 20
-340.01
 21
-339.545
  0
LINE
  8
0
 10
134.298
 11
134.56
 20
-339.545
 21
-339.128
  0
LINE
  8
0
 10
134.56
 11
134.908
 20
-339.128
 21
-338.78
  0
LINE
  8
0
 10
134.908
 11
135.325
 20
-338.78
 21
-338.518
  0
LINE
  8
0
 10
135.325
 11
135.79
 20
-338.518
 21
-338.355
  0
LINE
  8
0
 10
135.79
 11
136.28
 20
-338.355
 21
-338.3
  0
LINE
  8
0
 10
136.28
 11
136.77
 20
-338.3
 21
-338.355
  0
LINE
  8
0
 10
136.77
 11
137.235
 20
-338.355
 21
-338.518
  0
LINE
  8
0
 10
137.235
 11
137.652
 20
-338.518
 21
-338.78
  0
LINE
  8
0
 10
137.652
 11
138
 20
-338.78
 21
-339.128
  0
LINE
  8
0
 10
138
 11
138.262
 20
-339.128
 21
-339.545
  0
LINE
  8
0
 10
138.262
 11
138.425
 20
-339.545
 21
-340.01
  0
LINE
  8
0
 10
138.425
 11
138.48
 20
-340.01
 21
-340.5
  0
LINE
  8
0
 10
138.48
 11
138.425
 20
-340.5
 21
-340.99
  0
LINE
  8
0
 10
138.425
 11
138.262
 20
-340.99
 21
-341.455
  0
LINE
  8
0
 10
138.262
 11
138
 20
-341.455
 21
-341.872
  0
LINE
  8
0
 10
138
 11
137.652
 20
-341.872
 21
-342.22
  0
LINE
  8
0
 10
137.652
 11
137.235
 20
-342.22
 21
-342.482
  0
LINE
  8
0
 10
137.235
 11
136.77
 20
-342.482
 21
-342.645
  0
LINE
  8
0
 10
136.77
 11
136.28
 20
-342.645
 21
-342.7
  0
LINE
  8
0
 10
136.28
 11
135.79
 20
-342.7
 21
-342.645
  0
LINE
  8
0
 10
135.79
 11
135.325
 20
-342.645
 21
-342.482
  0
LINE
  8
0
 10
135.325
 11
134.908
 20
-342.482
 21
-342.22
  0
LINE
  8
0
 10
134.908
 11
134.56
 20
-342.22
 21
-341.872
  0
LINE
  8
0
 10
134.56
 11
134.298
 20
-341.872
 21
-341.455
  0
LINE
  8
0
 10
134.298
 11
134.135
 20
-341.455
 21
-340.99
  0
LINE
  8
0
 10
134.135
 11
134.08
 20
-340.99
 21
-340.5
  0
LINE
  8
0
 10
134.08
 11
134.135
 20
330.5
 21
330.99
  0
LINE
  8
0
 10
134.135
 11
134.298
 20
330.99
 21
331.455
  0
LINE
  8
0
 10
134.298
 11
134.56
 20
331.455
 21
331.872
  0
LINE
  8
0
 10
134.56
 11
134.908
 20
331.872
 21
332.22
  0
LINE
  8
0
 10
134.908
 11
135.325
 20
332.22
 21
332.482
  0
LINE
  8
0
 10
135.325
 11
135.79
 20
332.482
 21
332.645
  0
LINE
  8
0
 10
135.79
 11
136.28
 20
332.645
 21
332.7
  0
LINE
  8
0
 10
136.28
 11
136.77
 20
332.7
 21
332.645
  0
LINE
  8
0
 10
136.77
 11
137.235
 20
332.645
 21
332.482
  0
LINE
  8
0
 10
137.235
 11
137.652
 20
332.482
 21
332.22
  0
LINE
  8
0
 10
137.652
 11
138
 20
332.22
 21
331.872
  0
LINE
  8
0
 10
138
 11
138.262
 20
331.872
 21
331.455
  0
LINE
  8
0
 10
138.262
 11
138.425
 20
331.455
 21
330.99
  0
LINE
  8
0
 10
138.425
 11
138.48
 20
330.99
 21
330.5
  0
LINE
  8
0
 10
138.48
 11
138.425
 20
330.5
 21
330.01
  0
LINE
  8
0
 10
138.425
 11
138.262
 20
330.01
 21
329.545
  0
LINE
  8
0
 10
138.262
 11
138
 20
329.545
 21
329.128
  0
LINE
  8
0
 10
138
 11
137.652
 20
329.128
 21
328.78
  0
LINE
  8
0
 10
137.652
 11
137.235
 20
328.78
 21
328.518
  0
LINE
  8
0
 10
137.235
 11
136.77
 20
328.518
 21
328.355
  0
LINE
  8
0
 10
136.77
 11
136.28
 20
328.355
 21
328.3
  0
LINE
  8
0
 10
136.28
 11
135.79
 20
328.3
 21
328.355
  0
LINE
  8
0
 10
135.79
 11
135.325
 20
328.355
 21
328.518
  0
LINE
  8
0
 10
135.325
 11
134.908
 20
328.518
 21
328.78
  0
LINE
  8
0
 10
134.908
 11
134.56
 20
328.78
 21
329.128
  0
LINE
  8
0
 10
134.56
 11
134.298
 20
329.128
 21
329.545
  0
LINE
  8
0
 10
134.298
 11
134.135
 20
329.545
 21
330.01
  0
LINE
  8
0
 10
134.135
 11
134.08
 20
330.01
 21
330.5
  0
LINE
  8
0
 10
191.08
 11
191.135
 20
-340.5
 21
-340.01
  0
LINE
  8
0
 10
191.135
 11
191.298
 20
-340.01
 21
-339.545
  0
LINE
  8
0
 10
191.298
 11
191.56
 20
-339.545
 21
-339.128
  0
LINE
  8
0
 10
191.56
 11
191.908
 20
-339.128
 21
-338.78
  0
LINE
  8
0
 10
191.908
 11
192.325
 20
-338.78
 21
-338.518
  0
LINE
  8
0
 10
192.325
 11
192.79
 20
-338.518
 21
-338.355
  0
LINE
  8
0
 10
192.79
 11
193.28
 20
-338.355
 21
-338.3
  0
LINE
  8
0
 10
193.28
 11
193.77
 20
-338.3
 21
-338.355
  0
LINE
  8
0
 10
193.77
 11
194.235
 20
-338.355
 21
-338.518
  0
LINE
  8
0
 10
194.235
 11
194.652
 20
-338.518
 21
-338.78
  0
LINE
  8
0
 10
194.652
 11
195
 20
-338.78
 21
-339.128
  0
LINE
  8
0
 10
195
 11
195.262
 20
-339.128
 21
-339.545
  0
LINE
  8
0
 10
195.262
 11
195.425
 20
-339.545
 21
-340.01
  0
LINE
  8
0
 10
195.425
 11
195.48
 20
-340.01
 21
-340.5
  0
LINE
  8
0
 10
195.48
 11
195.425
 20
-340.5
 21
-340.99
  0
LINE
  8
0
 10
195.425
 11
195.262
 20
-340.99
 21
-341.455
  0
LINE
  8
0
 10
195.262
 11
195
 20
-341.455
 21
-341.872
  0
LINE
  8
0
 10
195
 11
194.652
 20
-341.872
 21
-342.22
  0
LINE
  8
0
 10
194.652
 11
194.235
 20
-342.22
 21
-342.482
  0
LINE
  8
0
 10
194.235
 11
193.77
 20
-342.482
 21
-342.645
  0
LINE
  8
0
 10
193.77
 11
193.28
 20
-342.645
 21
-342.7
  0
LINE
  8
0
 10
193.28
 11
192.79
 20
-342.7
 21
-342.645
  0
LINE
  8
0
 10
192.79
 11
192.325
 20
-342.645
 21
-342.482
  0
LINE
  8
0
 10
192.325
 11
191.908
 20
-342.482
 21
-342.22
  0
LINE
  8
0
 10
191.908
 11
191.56
 20
-342.22
 21
-341.872
  0
LINE
  8
0
 10
191.56
 11
191.298
 20
-341.872
 21
-341.455
  0
LINE
  8
0
 10
191.298
 11
191.135
 20
-341.455
 21
-340.99
  0
LINE
  8
0
 10
191.135
 11
191.08
 20
-340.99
 21
-340.5
  0
LINE
  8
0
 10
191.08
 11
191.135
 20
330.5
 21
330.99
  0
LINE
  8
0
 10
191.135
 11
191.298
 20
330.99
 21
331.455
  0
LINE
  8
0
 10
191.298
 11
191.56
 20
331.455
 21
331.872
  0
LINE
  8
0
 10
191.56
 11
191.908
 20
331.872
 21
332.22
  0
LINE
  8
0
 10
191.908
 11
192.325
 20
332.22
 21
332.482
  0
LINE
  8
0
 10
192.325
 11
192.79
 20
332.482
 21
332.645
  0
LINE
  8
0
 10
192.79
 11
193.28
 20
332.645
 21
332.7
  0
LINE
  8
0
 10
193.28
 11
193.77
 20
332.7
 21
332.645
  0
LINE
  8
0
 10
193.77
 11
194.235
 20
332.645
 21
332.482
  0
LINE
  8
0
 10
194.235
 11
194.652
 20
332.482
 21
332.22
  0
LINE
  8
0
 10
194.652
 11
195
 20
332.22
 21
331.872
  0
LINE
  8
0
 10
195
 11
195.262
 20
331.872
 21
331.455
  0
LINE
  8
0
 10
195.262
 11
195.425
 20
331.455
 21
330.99
  0
LINE
  8
0
 10
195.425
 11
195.48
 20
330.99
 21
330.5
  0
LINE
  8
0
 10
195.48
 11
195.425
 20
330.5
 21
330.01
  0
LINE
  8
0
 10
195.425
 11
195.262
 20
330.01
 21
329.545
  0
LINE
  8
0
 10
195.262
 11
195
 20
329.545
 21
329.128
  0
LINE
  8
0
 10
195
 11
194.652
 20
329.128
 21
328.78
  0
LINE
  8
0
 10
194.652
 11
194.235
 20
328.78
 21
328.518
  0
LINE
  8
0
 10
194.235
 11
193.77
 20
328.518
 21
328.355
  0
LINE
  8
0
 10
193.77
 11
193.28
 20
328.355
 21
328.3
  0
LINE
  8
0
 10
193.28
 11
192.79
 20
328.3
 21
328.355
  0
LINE
  8
0
 10
192.79
 11
192.325
 20
328.355
 21
328.518
  0
LINE
  8
0
 10
192.325
 11
191.908
 20
328.518
 21
328.78
  0
LINE
  8
0
 10
191.908
 11
191.56
 20
328.78
 21
329.128
  0
LINE
  8
0
 10
191.56
 11
191.298
 20
329.128
 21
329.545
  0
LINE
  8
0
 10
191.298
 11
191.135
 20
329.545
 21
330.01
  0
LINE
  8
0
 10
191.135
 11
191.08
 20
330.01
 21
330.5
  0
LINE
  8
0
 10
306.45
 11
306.505
 20
-326
 21
-325.51
  0
LINE
  8
0
 10
306.505
 11
306.668
 20
-325.51
 21
-325.045
  0
LINE
  8
0
 10
306.668
 11
306.93
 20
-325.045
 21
-324.628
  0
LINE
  8
0
 10
306.93
 11
307.278
 20
-324.628
 21
-324.28
  0
LINE
  8
0
 10
307.278
 11
307.695
 20
-324.28
 21
-324.018
  0
LINE
  8
0
 10
307.695
 11
308.16
 20
-324.018
 21
-323.855
  0
LINE
  8
0
 10
308.16
 11
308.65
 20
-323.855
 21
-323.8
  0
LINE
  8
0
 10
308.65
 11
309.14
 20
-323.8
 21
-323.855
  0
LINE
  8
0
 10
309.14
 11
309.605
 20
-323.855
 21
-324.018
  0
LINE
  8
0
 10
309.605
 11
310.022
 20
-324.018
 21
-324.28
  0
LINE
  8
0
 10
310.022
 11
310.37
 20
-324.28
 21
-324.628
  0
LINE
  8
0
 10
310.37
 11
310.632
 20
-324.628
 21
-325.045
  0
LINE
  8
0
 10
310.632
 11
310.795
 20
-325.045
 21
-325.51
  0
LINE
  8
0
 10
310.795
 11
310.85
 20
-325.51
 21
-326
  0
LINE
  8
0
 10
310.85
 11
310.795
 20
-326
 21
-326.49
  0
LINE
  8
0
 10
310.795
 11
310.632
 20
-326.49
 21
-326.955
  0
LINE
  8
0
 10
310.632
 11
310.37
 20
-326.955
 21
-327.372
  0
LINE
  8
0
 10
310.37
 11
310.022
 20
-327.372
 21
-327.72
  0
LINE
  8
0
 10
310.022
 11
309.605
 20
-327.72
 21
-327.982
  0
LINE
  8
0
 10
309.605
 11
309.14
 20
-327.982
 21
-328.145
  0
LINE
  8
0
 10
309.14
 11
308.65
 20
-328.145
 21
-328.2
  0
LINE
  8
0
 10
308.65
 11
308.16
 20
-328.2
 21
-328.145
  0
LINE
  8
0
 10
308.16
 11
307.695
 20
-328.145
 21
-327.982
  0
LINE
  8
0
 10
307.695
 11
307.278
 20
-327.982
 21
-327.72
  0
LINE
  8
0
 10
307.278
 11
306.93
 20
-327.72
 21
-327.372
  0
LINE
  8
0
 10
306.93
 11
306.668
 20
-327.372
 21
-326.955
  0
LINE
  8
0
 10
306.668
 11
306.505
 20
-326.955
 21
-326.49
  0
LINE
  8
0
 10
306.505
 11
306.45
 20
-326.49
 21
-326
  0
LINE
  8
0
 10
306.45
 11
306.505
 20
94.4
 21
94.89
  0
LINE
  8
0
 10
306.505
 11
306.668
 20
94.89
 21
95.355
  0
LINE
  8
0
 10
306.668
 11
306.93
 20
95.355
 21
95.772
  0
LINE
  8
0
 10
306.93
 11
307.278
 20
95.772
 21
96.12
  0
LINE
  8
0
 10
307.278
 11
307.695
 20
96.12
 21
96.382
  0
LINE
  8
0
 10
307.695
 11
308.16
 20
96.382
 21
96.545
  0
LINE
  8
0
 10
308.16
 11
308.65
 20
96.545
 21
96.6
  0
LINE
  8
0
 10
308.65
 11
309.14
 20
96.6
 21
96.545
  0
LINE
  8
0
 10
309.14
 11
309.605
 20
96.545
 21
96.382
  0
LINE
  8
0
 10
309.605
 11
310.022
 20
96.382
 21
96.12
  0
LINE
  8
0
 10
310.022
 11
310.37
 20
96.12
 21
95.772
  0
LINE
  8
0
 10
310.37
 11
310.632
 20
95.772
 21
95.355
  0
LINE
  8
0
 10
310.632
 11
310.795
 20
95.355
 21
94.89
  0
LINE
  8
0
 10
310.795
 11
310.85
 20
94.89
 21
94.4
  0
LINE
  8
0
 10
310.85
 11
310.795
 20
94.4
 21
93.91
  0
LINE
  8
0
 10
310.795
 11
310.632
 20
93.91
 21
93.445
  0
LINE
  8
0
 10
310.632
 11
310.37
 20
93.445
 21
93.028
  0
LINE
  8
0
 10
310.37
 11
310.022
 20
93.028
 21
92.68
  0
LINE
  8
0
 10
310.022
 11
309.605
 20
92.68
 21
92.418
  0
LINE
  8
0
 10
309.605
 11
309.14
 20
92.418
 21
92.255
  0
LINE
  8
0
 10
309.14
 11
308.65
 20
92.255
 21
92.2
  0
LINE
  8
0
 10
308.65
 11
308.16
 20
92.2
 21
92.255
  0
LINE
  8
0
 10
308.16
 11
307.695
 20
92.255
 21
92.418
  0
LINE
  8
0
 10
307.695
 11
307.278
 20
92.418
 21
92.68
  0
LINE
  8
0
 10
307.278
 11
306.93
 20
92.68
 21
93.028
  0
LINE
  8
0
 10
306.93
 11
306.668
 20
93.028
 21
93.445
  0
LINE
  8
0
 10
306.668
 11
306.505
 20
93.445
 21
93.91
  0
LINE
  8
0
 10
306.505
 11
306.45
 20
93.91
 21
94.4
  0
LINE
  8
0
 10
330.75
 11
330.805
 20
574.19
 21
574.68
  0
LINE
  8
0
 10
330.805
 11
330.968
 20
574.68
 21
575.145
  0
LINE
  8
0
 10
330.968
 11
331.23
 20
575.145
 21
575.562
  0
LINE
  8
0
 10
331.23
 11
331.578
 20
575.562
 21
575.91
  0
LINE
  8
0
 10
331.578
 11
331.995
 20
575.91
 21
576.172
  0
LINE
  8
0
 10
331.995
 11
332.46
 20
576.172
 21
576.335
  0
LINE
  8
0
 10
332.46
 11
332.95
 20
576.335
 21
576.39
  0
LINE
  8
0
 10
332.95
 11
333.44
 20
576.39
 21
576.335
  0
LINE
  8
0
 10
333.44
 11
333.905
 20
576.335
 21
576.172
  0
LINE
  8
0
 10
333.905
 11
334.322
 20
576.172
 21
575.91
  0
LINE
  8
0
 10
334.322
 11
334.67
 20
575.91
 21
575.562
  0
LINE
  8
0
 10
334.67
 11
334.932
 20
575.562
 21
575.145
  0
LINE
  8
0
 10
334.932
 11
335.095
 20
575.145
 21
574.68
  0
LINE
  8
0
 10
335.095
 11
335.15
 20
574.68
 21
574.19
  0
LINE
  8
0
 10
335.15
 11
335.095
 20
574.19
 21
573.7
  0
LINE
  8
0
 10
335.095
 11
334.932
 20
573.7
 21
573.235
  0
LINE
  8
0
 10
334.932
 11
334.67
 20
573.235
 21
572.818
  0
LINE
  8
0
 10
334.67
 11
334.322
 20
572.818
 21
572.47
  0
LINE
  8
0
 10
334.322
 11
333.905
 20
572.47
 21
572.208
  0
LINE
  8
0
 10
333.905
 11
333.44
 20
572.208
 21
572.045
  0
LINE
  8
0
 10
333.44
 11
332.95
 20
572.045
 21
571.99
  0
LINE
  8
0
 10
332.95
 11
332.46
 20
571.99
 21
572.045
  0
LINE
  8
0
 10
332.46
 11
331.995
 20
572.045
 21
572.208
  0
LINE
  8
0
 10
331.995
 11
331.578
 20
572.208
 21
572.47
  0
LINE
  8
0
 10
331.578
 11
331.23
 20
572.47
 21
572.818
  0
LINE
  8
0
 10
331.23
 11
330.968
 20
572.818
 21
573.235
  0
LINE
  8
0
 10
330.968
 11
330.805
 20
573.235
 21
573.7
  0
LINE
  8
0
 10
330.805
 11
330.75
 20
573.7
 21
574.19
  0
LINE
  8
0
 10
373.258
 11
373.258
 20
-0.246
 21
0.246
  0
LINE
  8
0
 10
373.258
 11
373.318
 20
0.246
 21
0.735
  0
LINE
  8
0
 10
373.318
 11
373.438
 20
0.735
 21
1.213
  0
LINE
  8
0
 10
373.438
 11
373.616
 20
1.213
 21
1.672
  0
LINE
  8
0
 10
373.616
 11
373.849
 20
1.672
 21
2.106
  0
LINE
  8
0
 10
373.849
 11
374.134
 20
2.106
 21
2.508
  0
LINE
  8
0
 10
374.134
 11
374.465
 20
2.508
 21
2.872
  0
LINE
  8
0
 10
374.465
 11
374.839
 20
2.872
 21
3.192
  0
LINE
  8
0
 10
374.839
 11
375.25
 20
3.192
 21
3.464
  0
LINE
  8
0
 10
375.25
 11
375.691
 20
3.464
 21
3.684
  0
LINE
  8
0
 10
375.691
 11
376.155
 20
3.684
 21
3.847
  0
LINE
  8
0
 10
376.155
 11
376.636
 20
3.847
 21
3.953
  0
LINE
  8
0
 10
376.636
 11
377.127
 20
3.953
 21
3.998
  0
LINE
  8
0
 10
377.127
 11
377.619
 20
3.998
 21
3.983
  0
LINE
  8
0
 10
377.619
 11
378.106
 20
3.983
 21
3.907
  0
LINE
  8
0
 10
378.106
 11
378.579
 20
3.907
 21
3.773
  0
LINE
  8
0
 10
378.579
 11
379.033
 20
3.773
 21
3.581
  0
LINE
  8
0
 10
379.033
 11
379.459
 20
3.581
 21
3.334
  0
LINE
  8
0
 10
379.459
 11
379.852
 20
3.334
 21
3.038
  0
LINE
  8
0
 10
379.852
 11
380.206
 20
3.038
 21
2.695
  0
LINE
  8
0
 10
380.206
 11
380.515
 20
2.695
 21
2.311
  0
LINE
  8
0
 10
380.515
 11
380.774
 20
2.311
 21
1.892
  0
LINE
  8
0
 10
380.774
 11
380.98
 20
1.892
 21
1.445
  0
LINE
  8
0
 10
380.98
 11
381.129
 20
1.445
 21
0.976
  0
LINE
  8
0
 10
381.129
 11
381.22
 20
0.976
 21
0.492
  0
LINE
  8
0
 10
381.22
 11
381.25
 20
0.492
 21
0
  0
LINE
  8
0
 10
381.25
 11
381.22
 20
0
 21
-0.492
  0
LINE
  8
0
 10
381.22
 11
381.129
 20
-0.492
 21
-0.976
  0
LINE
  8
0
 10
381.129
 11
380.98
 20
-0.976
 21
-1.445
  0
LINE
  8
0
 10
380.98
 11
380.774
 20
-1.445
 21
-1.892
  0
LINE
  8
0
 10
380.774
 11
380.515
 20
-1.892
 21
-2.311
  0
LINE
  8
0
 10
380.515
 11
380.206
 20
-2.311
 21
-2.695
  0
LINE
  8
0
 10
380.206
 11
379.852
 20
-2.695
 21
-3.038
  0
LINE
  8
0
 10
379.852
 11
379.459
 20
-3.038
 21
-3.334
  0
LINE
  8
0
 10
379.459
 11
379.033
 20
-3.334
 21
-3.581
  0
LINE
  8
0
 10
379.033
 11
378.579
 20
-3.581
 21
-3.773
  0
LINE
  8
0
 10
378.579
 11
378.106
 20
-3.773
 21
-3.907
  0
LINE
  8
0
 10
378.106
 11
377.619
 20
-3.907
 21
-3.983
  0
LINE
  8
0
 10
377.619
 11
377.127
 20
-3.983
 21
-3.998
  0
LINE
  8
0
 10
377.127
 11
376.636
 20
-3.998
 21
-3.953
  0
LINE
  8
0
 10
376.636
 11
376.155
 20
-3.953
 21
-3.847
  0
LINE
  8
0
 10
376.155
 11
375.691
 20
-3.847
 21
-3.684
  0
LINE
  8
0
 10
375.691
 11
375.25
 20
-3.684
 21
-3.464
  0
LINE
  8
0
 10
375.25
 11
374.839
 20
-3.464
 21
-3.192
  0
LINE
  8
0
 10
374.839
 11
374.465
 20
-3.192
 21
-2.872
  0
LINE
  8
0
 10
374.465
 11
374.134
 20
-2.872
 21
-2.508
  0
LINE
  8
0
 10
374.134
 11
373.849
 20
-2.508
 21
-2.106
  0
LINE
  8
0
 10
373.849
 11
373.616
 20
-2.106
 21
-1.672
  0
LINE
  8
0
 10
373.616
 11
373.438
 20
-1.672
 21
-1.213
  0
LINE
  8
0
 10
373.438
 11
373.318
 20
-1.213
 21
-0.735
  0
LINE
  8
0
 10
373.318
 11
373.258
 20
-0.735
 21
-0.246
  0
LINE
  8
0
 10
394.76
 11
394.815
 20
87.2
 21
87.69
  0
LINE
  8
0
 10
394.815
 11
394.978
 20
87.69
 21
88.155
  0
LINE
  8
0
 10
394.978
 11
395.24
 20
88.155
 21
88.572
  0
LINE
  8
0
 10
395.24
 11
395.588
 20
88.572
 21
88.92
  0
LINE
  8
0
 10
395.588
 11
396.005
 20
88.92
 21
89.182
  0
LINE
  8
0
 10
396.005
 11
396.47
 20
89.182
 21
89.345
  0
LINE
  8
0
 10
396.47
 11
396.96
 20
89.345
 21
89.4
  0
LINE
  8
0
 10
396.96
 11
397.45
 20
89.4
 21
89.345
  0
LINE
  8
0
 10
397.45
 11
397.915
 20
89.345
 21
89.182
  0
LINE
  8
0
 10
397.915
 11
398.332
 20
89.182
 21
88.92
  0
LINE
  8
0
 10
398.332
 11
398.68
 20
88.92
 21
88.572
  0
LINE
  8
0
 10
398.68
 11
398.942
 20
88.572
 21
88.155
  0
LINE
  8
0
 10
398.942
 11
399.105
 20
88.155
 21
87.69
  0
LINE
  8
0
 10
399.105
 11
399.16
 20
87.69
 21
87.2
  0
LINE
  8
0
 10
399.16
 11
399.105
 20
87.2
 21
86.71
  0
LINE
  8
0
 10
399.105
 11
398.942
 20
86.71
 21
86.245
  0
LINE
  8
0
 10
398.942
 11
398.68
 20
86.245
 21
85.828
  0
LINE
  8
0
 10
398.68
 11
398.332
 20
85.828
 21
85.48
  0
LINE
  8
0
 10
398.332
 11
397.915
 20
85.48
 21
85.218
  0
LINE
  8
0
 10
397.915
 11
397.45
 20
85.218
 21
85.055
  0
LINE
  8
0
 10
397.45
 11
396.96
 20
85.055
 21
85
  0
LINE
  8
0
 10
396.96
 11
396.47
 20
85
 21
85.055
  0
LINE
  8
0
 10
396.47
 11
396.005
 20
85.055
 21
85.218
  0
LINE
  8
0
 10
396.005
 11
395.588
 20
85.218
 21
85.48
  0
LINE
  8
0
 10
395.588
 11
395.24
 20
85.48
 21
85.828
  0
LINE
  8
0
 10
395.24
 11
394.978
 20
85.828
 21
86.245
  0
LINE
  8
0
 10
394.978
 11
394.815
 20
86.245
 21
86.71
  0
LINE
  8
0
 10
394.815
 11
394.76
 20
86.71
 21
87.2
  0
LINE
  8
0
 10
423.24
 11
423.295
 20
87.2
 21
87.69
  0
LINE
  8
0
 10
423.295
 11
423.458
 20
87.69
 21
88.155
  0
LINE
  8
0
 10
423.458
 11
423.72
 20
88.155
 21
88.572
  0
LINE
  8
0
 10
423.72
 11
424.068
 20
88.572
 21
88.92
  0
LINE
  8
0
 10
424.068
 11
424.485
 20
88.92
 21
89.182
  0
LINE
  8
0
 10
424.485
 11
424.95
 20
89.182
 21
89.345
  0
LINE
  8
0
 10
424.95
 11
425.44
 20
89.345
 21
89.4
  0
LINE
  8
0
 10
425.44
 11
425.93
 20
89.4
 21
89.345
  0
LINE
  8
0
 10
425.93
 11
426.395
 20
89.345
 21
89.182
  0
LINE
  8
0
 10
426.395
 11
426.812
 20
89.182
 21
88.92
  0
LINE
  8
0
 10
426.812
 11
427.16
 20
88.92
 21
88.572
  0
LINE
  8
0
 10
427.16
 11
427.422
 20
88.572
 21
88.155
  0
LINE
  8
0
 10
427.422
 11
427.585
 20
88.155
 21
87.69
  0
LINE
  8
0
 10
427.585
 11
427.64
 20
87.69
 21
87.2
  0
LINE
  8
0
 10
427.64
 11
427.585
 20
87.2
 21
86.71
  0
LINE
  8
0
 10
427.585
 11
427.422
 20
86.71
 21
86.245
  0
LINE
  8
0
 10
427.422
 11
427.16
 20
86.245
 21
85.828
  0
LINE
  8
0
 10
427.16
 11
426.812
 20
85.828
 21
85.48
  0
LINE
  8
0
 10
426.812
 11
426.395
 20
85.48
 21
85.218
  0
LINE
  8
0
 10
426.395
 11
425.93
 20
85.218
 21
85.055
  0
LINE
  8
0
 10
425.93
 11
425.44
 20
85.055
 21
85
  0
LINE
  8
0
 10
425.44
 11
424.95
 20
85
 21
85.055
  0
LINE
  8
0
 10
424.95
 11
424.485
 20
85.055
 21
85.218
  0
LINE
  8
0
 10
424.485
 11
424.068
 20
85.218
 21
85.48
  0
LINE
  8
0
 10
424.068
 11
423.72
 20
85.48
 21
85.828
  0
LINE
  8
0
 10
423.72
 11
423.458
 20
85.828
 21
86.245
  0
LINE
  8
0
 10
423.458
 11
423.295
 20
86.245
 21
86.71
  0
LINE
  8
0
 10
423.295
 11
423.24
 20
86.71
 21
87.2
  0
LINE
  8
0
 10
440.35
 11
440.405
 20
464.5
 21
464.99
  0
LINE
  8
0
 10
440.405
 11
440.568
 20
464.99
 21
465.455
  0
LINE
  8
0
 10
440.568
 11
440.83
 20
465.455
 21
465.872
  0
LINE
  8
0
 10
440.83
 11
441.178
 20
465.872
 21
466.22
  0
LINE
  8
0
 10
441.178
 11
441.595
 20
466.22
 21
466.482
  0
LINE
  8
0
 10
441.595
 11
442.06
 20
466.482
 21
466.645
  0
LINE
  8
0
 10
442.06
 11
442.55
 20
466.645
 21
466.7
  0
LINE
  8
0
 10
442.55
 11
443.04
 20
466.7
 21
466.645
  0
LINE
  8
0
 10
443.04
 11
443.505
 20
466.645
 21
466.482
  0
LINE
  8
0
 10
443.505
 11
443.922
 20
466.482
 21
466.22
  0
LINE
  8
0
 10
443.922
 11
444.27
 20
466.22
 21
465.872
  0
LINE
  8
0
 10
444.27
 11
444.532
 20
465.872
 21
465.455
  0
LINE
  8
0
 10
444.532
 11
444.695
 20
465.455
 21
464.99
  0
LINE
  8
0
 10
444.695
 11
444.75
 20
464.99
 21
464.5
  0
LINE
  8
0
 10
444.75
 11
444.695
 20
464.5
 21
464.01
  0
LINE
  8
0
 10
444.695
 11
444.532
 20
464.01
 21
463.545
  0
LINE
  8
0
 10
444.532
 11
444.27
 20
463.545
 21
463.128
  0
LINE
  8
0
 10
444.27
 11
443.922
 20
463.128
 21
462.78
  0
LINE
  8
0
 10
443.922
 11
443.505
 20
462.78
 21
462.518
  0
LINE
  8
0
 10
443.505
 11
443.04
 20
462.518
 21
462.355
  0
LINE
  8
0
 10
443.04
 11
442.55
 20
462.355
 21
462.3
  0
LINE
  8
0
 10
442.55
 11
442.06
 20
462.3
 21
462.355
  0
LINE
  8
0
 10
442.06
 11
441.595
 20
462.355
 21
462.518
  0
LINE
  8
0
 10
441.595
 11
441.178
 20
462.518
 21
462.78
  0
LINE
  8
0
 10
441.178
 11
440.83
 20
462.78
 21
463.128
  0
LINE
  8
0
 10
440.83
 11
440.568
 20
463.128
 21
463.545
  0
LINE
  8
0
 10
440.568
 11
440.405
 20
463.545
 21
464.01
  0
LINE
  8
0
 10
440.405
 11
440.35
 20
464.01
 21
464.5
  0
ENDSEC
  0
SECTION
  2
OBJECTS
  0
DICTIONARY
  0
ENDSEC
  0
EOF
