  0
SECTION
  2
BLOCKS
  0
ENDSEC
  0
SECTION
  2
ENTITIES
  0
LINE
  8
0
 10
0
 11
0
 20
-531.5
 21
0
  0
LINE
  8
0
 10
0
 11
809
 20
0
 21
0
  0
LINE
  8
0
 10
809
 11
809
 20
0
 21
-531.5
  0
LINE
  8
0
 10
809
 11
0
 20
-531.5
 21
-531.5
  0
LINE
  8
0
 10
5
 11
5.036
 20
-284.7
 21
-284.202
  0
LINE
  8
0
 10
5.036
 11
5.142
 20
-284.202
 21
-283.714
  0
LINE
  8
0
 10
5.142
 11
5.316
 20
-283.714
 21
-283.246
  0
LINE
  8
0
 10
5.316
 11
5.556
 20
-283.246
 21
-282.808
  0
LINE
  8
0
 10
5.556
 11
5.855
 20
-282.808
 21
-282.408
  0
LINE
  8
0
 10
5.855
 11
6.208
 20
-282.408
 21
-282.055
  0
LINE
  8
0
 10
6.208
 11
6.608
 20
-282.055
 21
-281.756
  0
LINE
  8
0
 10
6.608
 11
7.046
 20
-281.756
 21
-281.516
  0
LINE
  8
0
 10
7.046
 11
7.514
 20
-281.516
 21
-281.342
  0
LINE
  8
0
 10
7.514
 11
8.002
 20
-281.342
 21
-281.236
  0
LINE
  8
0
 10
8.002
 11
8.5
 20
-281.236
 21
-281.2
  0
LINE
  8
0
 10
8.5
 11
8.998
 20
-281.2
 21
-281.236
  0
LINE
  8
0
 10
8.998
 11
9.486
 20
-281.236
 21
-281.342
  0
LINE
  8
0
 10
9.486
 11
9.954
 20
-281.342
 21
-281.516
  0
LINE
  8
0
 10
9.954
 11
10.392
 20
-281.516
 21
-281.756
  0
LINE
  8
0
 10
10.392
 11
10.792
 20
-281.756
 21
-282.055
  0
LINE
  8
0
 10
10.792
 11
11.145
 20
-282.055
 21
-282.408
  0
LINE
  8
0
 10
11.145
 11
11.444
 20
-282.408
 21
-282.808
  0
LINE
  8
0
 10
11.444
 11
11.684
 20
-282.808
 21
-283.246
  0
LINE
  8
0
 10
11.684
 11
11.858
 20
-283.246
 21
-283.714
  0
LINE
  8
0
 10
11.858
 11
11.964
 20
-283.714
 21
-284.202
  0
LINE
  8
0
 10
11.964
 11
12
 20
-284.202
 21
-284.7
  0
LINE
  8
0
 10
12
 11
11.964
 20
-284.7
 21
-285.198
  0
LINE
  8
0
 10
11.964
 11
11.858
 20
-285.198
 21
-285.686
  0
LINE
  8
0
 10
11.858
 11
11.684
 20
-285.686
 21
-286.154
  0
LINE
  8
0
 10
11.684
 11
11.444
 20
-286.154
 21
-286.592
  0
LINE
  8
0
 10
11.444
 11
11.145
 20
-286.592
 21
-286.992
  0
LINE
  8
0
 10
11.145
 11
10.792
 20
-286.992
 21
-287.345
  0
LINE
  8
0
 10
10.792
 11
10.392
 20
-287.345
 21
-287.644
  0
LINE
  8
0
 10
10.392
 11
9.954
 20
-287.644
 21
-287.884
  0
LINE
  8
0
 10
9.954
 11
9.486
 20
-287.884
 21
-288.058
  0
LINE
  8
0
 10
9.486
 11
8.998
 20
-288.058
 21
-288.164
  0
LINE
  8
0
 10
8.998
 11
8.5
 20
-288.164
 21
-288.2
  0
LINE
  8
0
 10
8.5
 11
8.002
 20
-288.2
 21
-288.164
  0
LINE
  8
0
 10
8.002
 11
7.514
 20
-288.164
 21
-288.058
  0
LINE
  8
0
 10
7.514
 11
7.046
 20
-288.058
 21
-287.884
  0
LINE
  8
0
 10
7.046
 11
6.608
 20
-287.884
 21
-287.644
  0
LINE
  8
0
 10
6.608
 11
6.208
 20
-287.644
 21
-287.345
  0
LINE
  8
0
 10
6.208
 11
5.855
 20
-287.345
 21
-286.992
  0
LINE
  8
0
 10
5.855
 11
5.556
 20
-286.992
 21
-286.592
  0
LINE
  8
0
 10
5.556
 11
5.316
 20
-286.592
 21
-286.154
  0
LINE
  8
0
 10
5.316
 11
5.142
 20
-286.154
 21
-285.686
  0
LINE
  8
0
 10
5.142
 11
5.036
 20
-285.686
 21
-285.198
  0
LINE
  8
0
 10
5.036
 11
5
 20
-285.198
 21
-284.7
  0
LINE
  8
0
 10
5
 11
5.048
 20
-26.9
 21
-26.412
  0
LINE
  8
0
 10
5.048
 11
5.19
 20
-26.412
 21
-25.943
  0
LINE
  8
0
 10
5.19
 11
5.421
 20
-25.943
 21
-25.511
  0
LINE
  8
0
 10
5.421
 11
5.732
 20
-25.511
 21
-25.132
  0
LINE
  8
0
 10
5.732
 11
6.111
 20
-25.132
 21
-24.821
  0
LINE
  8
0
 10
6.111
 11
6.543
 20
-24.821
 21
-24.59
  0
LINE
  8
0
 10
6.543
 11
7.012
 20
-24.59
 21
-24.448
  0
LINE
  8
0
 10
7.012
 11
7.5
 20
-24.448
 21
-24.4
  0
LINE
  8
0
 10
7.5
 11
7.988
 20
-24.4
 21
-24.448
  0
LINE
  8
0
 10
7.988
 11
8.457
 20
-24.448
 21
-24.59
  0
LINE
  8
0
 10
8.457
 11
8.889
 20
-24.59
 21
-24.821
  0
LINE
  8
0
 10
8.889
 11
9.268
 20
-24.821
 21
-25.132
  0
LINE
  8
0
 10
9.268
 11
9.579
 20
-25.132
 21
-25.511
  0
LINE
  8
0
 10
9.579
 11
9.81
 20
-25.511
 21
-25.943
  0
LINE
  8
0
 10
9.81
 11
9.952
 20
-25.943
 21
-26.412
  0
LINE
  8
0
 10
9.952
 11
10
 20
-26.412
 21
-26.9
  0
LINE
  8
0
 10
10
 11
9.952
 20
-26.9
 21
-27.388
  0
LINE
  8
0
 10
9.952
 11
9.81
 20
-27.388
 21
-27.857
  0
LINE
  8
0
 10
9.81
 11
9.579
 20
-27.857
 21
-28.289
  0
LINE
  8
0
 10
9.579
 11
9.268
 20
-28.289
 21
-28.668
  0
LINE
  8
0
 10
9.268
 11
8.889
 20
-28.668
 21
-28.979
  0
LINE
  8
0
 10
8.889
 11
8.457
 20
-28.979
 21
-29.21
  0
LINE
  8
0
 10
8.457
 11
7.988
 20
-29.21
 21
-29.352
  0
LINE
  8
0
 10
7.988
 11
7.5
 20
-29.352
 21
-29.4
  0
LINE
  8
0
 10
7.5
 11
7.012
 20
-29.4
 21
-29.352
  0
LINE
  8
0
 10
7.012
 11
6.543
 20
-29.352
 21
-29.21
  0
LINE
  8
0
 10
6.543
 11
6.111
 20
-29.21
 21
-28.979
  0
LINE
  8
0
 10
6.111
 11
5.732
 20
-28.979
 21
-28.668
  0
LINE
  8
0
 10
5.732
 11
5.421
 20
-28.668
 21
-28.289
  0
LINE
  8
0
 10
5.421
 11
5.19
 20
-28.289
 21
-27.857
  0
LINE
  8
0
 10
5.19
 11
5.048
 20
-27.857
 21
-27.388
  0
LINE
  8
0
 10
5.048
 11
5
 20
-27.388
 21
-26.9
  0
LINE
  8
0
 10
5.015
 11
5.015
 20
-270.141
 21
-269.659
  0
LINE
  8
0
 10
5.015
 11
5.13
 20
-269.659
 21
-269.191
  0
LINE
  8
0
 10
5.13
 11
5.354
 20
-269.191
 21
-268.764
  0
LINE
  8
0
 10
5.354
 11
5.674
 20
-268.764
 21
-268.403
  0
LINE
  8
0
 10
5.674
 11
6.071
 20
-268.403
 21
-268.129
  0
LINE
  8
0
 10
6.071
 11
6.521
 20
-268.129
 21
-267.958
  0
LINE
  8
0
 10
6.521
 11
7
 20
-267.958
 21
-267.9
  0
LINE
  8
0
 10
7
 11
7.479
 20
-267.9
 21
-267.958
  0
LINE
  8
0
 10
7.479
 11
7.929
 20
-267.958
 21
-268.129
  0
LINE
  8
0
 10
7.929
 11
8.326
 20
-268.129
 21
-268.403
  0
LINE
  8
0
 10
8.326
 11
8.646
 20
-268.403
 21
-268.764
  0
LINE
  8
0
 10
8.646
 11
8.87
 20
-268.764
 21
-269.191
  0
LINE
  8
0
 10
8.87
 11
8.985
 20
-269.191
 21
-269.659
  0
LINE
  8
0
 10
8.985
 11
8.985
 20
-269.659
 21
-270.141
  0
LINE
  8
0
 10
8.985
 11
8.87
 20
-270.141
 21
-270.609
  0
LINE
  8
0
 10
8.87
 11
8.646
 20
-270.609
 21
-271.036
  0
LINE
  8
0
 10
8.646
 11
8.326
 20
-271.036
 21
-271.397
  0
LINE
  8
0
 10
8.326
 11
7.929
 20
-271.397
 21
-271.671
  0
LINE
  8
0
 10
7.929
 11
7.479
 20
-271.671
 21
-271.842
  0
LINE
  8
0
 10
7.479
 11
7
 20
-271.842
 21
-271.9
  0
LINE
  8
0
 10
7
 11
6.521
 20
-271.9
 21
-271.842
  0
LINE
  8
0
 10
6.521
 11
6.071
 20
-271.842
 21
-271.671
  0
LINE
  8
0
 10
6.071
 11
5.674
 20
-271.671
 21
-271.397
  0
LINE
  8
0
 10
5.674
 11
5.354
 20
-271.397
 21
-271.036
  0
LINE
  8
0
 10
5.354
 11
5.13
 20
-271.036
 21
-270.609
  0
LINE
  8
0
 10
5.13
 11
5.015
 20
-270.609
 21
-270.141
  0
LINE
  8
0
 10
5.015
 11
5.015
 20
-36.641
 21
-36.159
  0
LINE
  8
0
 10
5.015
 11
5.13
 20
-36.159
 21
-35.691
  0
LINE
  8
0
 10
5.13
 11
5.354
 20
-35.691
 21
-35.264
  0
LINE
  8
0
 10
5.354
 11
5.674
 20
-35.264
 21
-34.903
  0
LINE
  8
0
 10
5.674
 11
6.071
 20
-34.903
 21
-34.629
  0
LINE
  8
0
 10
6.071
 11
6.521
 20
-34.629
 21
-34.458
  0
LINE
  8
0
 10
6.521
 11
7
 20
-34.458
 21
-34.4
  0
LINE
  8
0
 10
7
 11
7.479
 20
-34.4
 21
-34.458
  0
LINE
  8
0
 10
7.479
 11
7.929
 20
-34.458
 21
-34.629
  0
LINE
  8
0
 10
7.929
 11
8.326
 20
-34.629
 21
-34.903
  0
LINE
  8
0
 10
8.326
 11
8.646
 20
-34.903
 21
-35.264
  0
LINE
  8
0
 10
8.646
 11
8.87
 20
-35.264
 21
-35.691
  0
LINE
  8
0
 10
8.87
 11
8.985
 20
-35.691
 21
-36.159
  0
LINE
  8
0
 10
8.985
 11
8.985
 20
-36.159
 21
-36.641
  0
LINE
  8
0
 10
8.985
 11
8.87
 20
-36.641
 21
-37.109
  0
LINE
  8
0
 10
8.87
 11
8.646
 20
-37.109
 21
-37.536
  0
LINE
  8
0
 10
8.646
 11
8.326
 20
-37.536
 21
-37.897
  0
LINE
  8
0
 10
8.326
 11
7.929
 20
-37.897
 21
-38.171
  0
LINE
  8
0
 10
7.929
 11
7.479
 20
-38.171
 21
-38.342
  0
LINE
  8
0
 10
7.479
 11
7
 20
-38.342
 21
-38.4
  0
LINE
  8
0
 10
7
 11
6.521
 20
-38.4
 21
-38.342
  0
LINE
  8
0
 10
6.521
 11
6.071
 20
-38.342
 21
-38.171
  0
LINE
  8
0
 10
6.071
 11
5.674
 20
-38.171
 21
-37.897
  0
LINE
  8
0
 10
5.674
 11
5.354
 20
-37.897
 21
-37.536
  0
LINE
  8
0
 10
5.354
 11
5.13
 20
-37.536
 21
-37.109
  0
LINE
  8
0
 10
5.13
 11
5.015
 20
-37.109
 21
-36.641
  0
LINE
  8
0
 10
10
 11
10.055
 20
-517.8
 21
-517.31
  0
LINE
  8
0
 10
10.055
 11
10.218
 20
-517.31
 21
-516.845
  0
LINE
  8
0
 10
10.218
 11
10.48
 20
-516.845
 21
-516.428
  0
LINE
  8
0
 10
10.48
 11
10.828
 20
-516.428
 21
-516.08
  0
LINE
  8
0
 10
10.828
 11
11.245
 20
-516.08
 21
-515.818
  0
LINE
  8
0
 10
11.245
 11
11.71
 20
-515.818
 21
-515.655
  0
LINE
  8
0
 10
11.71
 11
12.2
 20
-515.655
 21
-515.6
  0
LINE
  8
0
 10
12.2
 11
12.69
 20
-515.6
 21
-515.655
  0
LINE
  8
0
 10
12.69
 11
13.155
 20
-515.655
 21
-515.818
  0
LINE
  8
0
 10
13.155
 11
13.572
 20
-515.818
 21
-516.08
  0
LINE
  8
0
 10
13.572
 11
13.92
 20
-516.08
 21
-516.428
  0
LINE
  8
0
 10
13.92
 11
14.182
 20
-516.428
 21
-516.845
  0
LINE
  8
0
 10
14.182
 11
14.345
 20
-516.845
 21
-517.31
  0
LINE
  8
0
 10
14.345
 11
14.4
 20
-517.31
 21
-517.8
  0
LINE
  8
0
 10
14.4
 11
14.345
 20
-517.8
 21
-518.29
  0
LINE
  8
0
 10
14.345
 11
14.182
 20
-518.29
 21
-518.755
  0
LINE
  8
0
 10
14.182
 11
13.92
 20
-518.755
 21
-519.172
  0
LINE
  8
0
 10
13.92
 11
13.572
 20
-519.172
 21
-519.52
  0
LINE
  8
0
 10
13.572
 11
13.155
 20
-519.52
 21
-519.782
  0
LINE
  8
0
 10
13.155
 11
12.69
 20
-519.782
 21
-519.945
  0
LINE
  8
0
 10
12.69
 11
12.2
 20
-519.945
 21
-520
  0
LINE
  8
0
 10
12.2
 11
11.71
 20
-520
 21
-519.945
  0
LINE
  8
0
 10
11.71
 11
11.245
 20
-519.945
 21
-519.782
  0
LINE
  8
0
 10
11.245
 11
10.828
 20
-519.782
 21
-519.52
  0
LINE
  8
0
 10
10.828
 11
10.48
 20
-519.52
 21
-519.172
  0
LINE
  8
0
 10
10.48
 11
10.218
 20
-519.172
 21
-518.755
  0
LINE
  8
0
 10
10.218
 11
10.055
 20
-518.755
 21
-518.29
  0
LINE
  8
0
 10
10.055
 11
10
 20
-518.29
 21
-517.8
  0
LINE
  8
0
 10
10
 11
10.055
 20
-480.58
 21
-480.09
  0
LINE
  8
0
 10
10.055
 11
10.218
 20
-480.09
 21
-479.625
  0
LINE
  8
0
 10
10.218
 11
10.48
 20
-479.625
 21
-479.208
  0
LINE
  8
0
 10
10.48
 11
10.828
 20
-479.208
 21
-478.86
  0
LINE
  8
0
 10
10.828
 11
11.245
 20
-478.86
 21
-478.598
  0
LINE
  8
0
 10
11.245
 11
11.71
 20
-478.598
 21
-478.435
  0
LINE
  8
0
 10
11.71
 11
12.2
 20
-478.435
 21
-478.38
  0
LINE
  8
0
 10
12.2
 11
12.69
 20
-478.38
 21
-478.435
  0
LINE
  8
0
 10
12.69
 11
13.155
 20
-478.435
 21
-478.598
  0
LINE
  8
0
 10
13.155
 11
13.572
 20
-478.598
 21
-478.86
  0
LINE
  8
0
 10
13.572
 11
13.92
 20
-478.86
 21
-479.208
  0
LINE
  8
0
 10
13.92
 11
14.182
 20
-479.208
 21
-479.625
  0
LINE
  8
0
 10
14.182
 11
14.345
 20
-479.625
 21
-480.09
  0
LINE
  8
0
 10
14.345
 11
14.4
 20
-480.09
 21
-480.58
  0
LINE
  8
0
 10
14.4
 11
14.345
 20
-480.58
 21
-481.07
  0
LINE
  8
0
 10
14.345
 11
14.182
 20
-481.07
 21
-481.535
  0
LINE
  8
0
 10
14.182
 11
13.92
 20
-481.535
 21
-481.952
  0
LINE
  8
0
 10
13.92
 11
13.572
 20
-481.952
 21
-482.3
  0
LINE
  8
0
 10
13.572
 11
13.155
 20
-482.3
 21
-482.562
  0
LINE
  8
0
 10
13.155
 11
12.69
 20
-482.562
 21
-482.725
  0
LINE
  8
0
 10
12.69
 11
12.2
 20
-482.725
 21
-482.78
  0
LINE
  8
0
 10
12.2
 11
11.71
 20
-482.78
 21
-482.725
  0
LINE
  8
0
 10
11.71
 11
11.245
 20
-482.725
 21
-482.562
  0
LINE
  8
0
 10
11.245
 11
10.828
 20
-482.562
 21
-482.3
  0
LINE
  8
0
 10
10.828
 11
10.48
 20
-482.3
 21
-481.952
  0
LINE
  8
0
 10
10.48
 11
10.218
 20
-481.952
 21
-481.535
  0
LINE
  8
0
 10
10.218
 11
10.055
 20
-481.535
 21
-481.07
  0
LINE
  8
0
 10
10.055
 11
10
 20
-481.07
 21
-480.58
  0
LINE
  8
0
 10
35.9
 11
35.955
 20
-12.2
 21
-11.71
  0
LINE
  8
0
 10
35.955
 11
36.118
 20
-11.71
 21
-11.245
  0
LINE
  8
0
 10
36.118
 11
36.38
 20
-11.245
 21
-10.828
  0
LINE
  8
0
 10
36.38
 11
36.728
 20
-10.828
 21
-10.48
  0
LINE
  8
0
 10
36.728
 11
37.145
 20
-10.48
 21
-10.218
  0
LINE
  8
0
 10
37.145
 11
37.61
 20
-10.218
 21
-10.055
  0
LINE
  8
0
 10
37.61
 11
38.1
 20
-10.055
 21
-10
  0
LINE
  8
0
 10
38.1
 11
38.59
 20
-10
 21
-10.055
  0
LINE
  8
0
 10
38.59
 11
39.055
 20
-10.055
 21
-10.218
  0
LINE
  8
0
 10
39.055
 11
39.472
 20
-10.218
 21
-10.48
  0
LINE
  8
0
 10
39.472
 11
39.82
 20
-10.48
 21
-10.828
  0
LINE
  8
0
 10
39.82
 11
40.082
 20
-10.828
 21
-11.245
  0
LINE
  8
0
 10
40.082
 11
40.245
 20
-11.245
 21
-11.71
  0
LINE
  8
0
 10
40.245
 11
40.3
 20
-11.71
 21
-12.2
  0
LINE
  8
0
 10
40.3
 11
40.245
 20
-12.2
 21
-12.69
  0
LINE
  8
0
 10
40.245
 11
40.082
 20
-12.69
 21
-13.155
  0
LINE
  8
0
 10
40.082
 11
39.82
 20
-13.155
 21
-13.572
  0
LINE
  8
0
 10
39.82
 11
39.472
 20
-13.572
 21
-13.92
  0
LINE
  8
0
 10
39.472
 11
39.055
 20
-13.92
 21
-14.182
  0
LINE
  8
0
 10
39.055
 11
38.59
 20
-14.182
 21
-14.345
  0
LINE
  8
0
 10
38.59
 11
38.1
 20
-14.345
 21
-14.4
  0
LINE
  8
0
 10
38.1
 11
37.61
 20
-14.4
 21
-14.345
  0
LINE
  8
0
 10
37.61
 11
37.145
 20
-14.345
 21
-14.182
  0
LINE
  8
0
 10
37.145
 11
36.728
 20
-14.182
 21
-13.92
  0
LINE
  8
0
 10
36.728
 11
36.38
 20
-13.92
 21
-13.572
  0
LINE
  8
0
 10
36.38
 11
36.118
 20
-13.572
 21
-13.155
  0
LINE
  8
0
 10
36.118
 11
35.955
 20
-13.155
 21
-12.69
  0
LINE
  8
0
 10
35.955
 11
35.9
 20
-12.69
 21
-12.2
  0
LINE
  8
0
 10
42.7
 11
42.755
 20
-520.5
 21
-520.01
  0
LINE
  8
0
 10
42.755
 11
42.918
 20
-520.01
 21
-519.545
  0
LINE
  8
0
 10
42.918
 11
43.18
 20
-519.545
 21
-519.128
  0
LINE
  8
0
 10
43.18
 11
43.528
 20
-519.128
 21
-518.78
  0
LINE
  8
0
 10
43.528
 11
43.945
 20
-518.78
 21
-518.518
  0
LINE
  8
0
 10
43.945
 11
44.41
 20
-518.518
 21
-518.355
  0
LINE
  8
0
 10
44.41
 11
44.9
 20
-518.355
 21
-518.3
  0
LINE
  8
0
 10
44.9
 11
45.39
 20
-518.3
 21
-518.355
  0
LINE
  8
0
 10
45.39
 11
45.855
 20
-518.355
 21
-518.518
  0
LINE
  8
0
 10
45.855
 11
46.272
 20
-518.518
 21
-518.78
  0
LINE
  8
0
 10
46.272
 11
46.62
 20
-518.78
 21
-519.128
  0
LINE
  8
0
 10
46.62
 11
46.882
 20
-519.128
 21
-519.545
  0
LINE
  8
0
 10
46.882
 11
47.045
 20
-519.545
 21
-520.01
  0
LINE
  8
0
 10
47.045
 11
47.1
 20
-520.01
 21
-520.5
  0
LINE
  8
0
 10
47.1
 11
47.045
 20
-520.5
 21
-520.99
  0
LINE
  8
0
 10
47.045
 11
46.882
 20
-520.99
 21
-521.455
  0
LINE
  8
0
 10
46.882
 11
46.62
 20
-521.455
 21
-521.872
  0
LINE
  8
0
 10
46.62
 11
46.272
 20
-521.872
 21
-522.22
  0
LINE
  8
0
 10
46.272
 11
45.855
 20
-522.22
 21
-522.482
  0
LINE
  8
0
 10
45.855
 11
45.39
 20
-522.482
 21
-522.645
  0
LINE
  8
0
 10
45.39
 11
44.9
 20
-522.645
 21
-522.7
  0
LINE
  8
0
 10
44.9
 11
44.41
 20
-522.7
 21
-522.645
  0
LINE
  8
0
 10
44.41
 11
43.945
 20
-522.645
 21
-522.482
  0
LINE
  8
0
 10
43.945
 11
43.528
 20
-522.482
 21
-522.22
  0
LINE
  8
0
 10
43.528
 11
43.18
 20
-522.22
 21
-521.872
  0
LINE
  8
0
 10
43.18
 11
42.918
 20
-521.872
 21
-521.455
  0
LINE
  8
0
 10
42.918
 11
42.755
 20
-521.455
 21
-520.99
  0
LINE
  8
0
 10
42.755
 11
42.7
 20
-520.99
 21
-520.5
  0
LINE
  8
0
 10
73.12
 11
73.175
 20
-12.2
 21
-11.71
  0
LINE
  8
0
 10
73.175
 11
73.338
 20
-11.71
 21
-11.245
  0
LINE
  8
0
 10
73.338
 11
73.6
 20
-11.245
 21
-10.828
  0
LINE
  8
0
 10
73.6
 11
73.948
 20
-10.828
 21
-10.48
  0
LINE
  8
0
 10
73.948
 11
74.365
 20
-10.48
 21
-10.218
  0
LINE
  8
0
 10
74.365
 11
74.83
 20
-10.218
 21
-10.055
  0
LINE
  8
0
 10
74.83
 11
75.32
 20
-10.055
 21
-10
  0
LINE
  8
0
 10
75.32
 11
75.81
 20
-10
 21
-10.055
  0
LINE
  8
0
 10
75.81
 11
76.275
 20
-10.055
 21
-10.218
  0
LINE
  8
0
 10
76.275
 11
76.692
 20
-10.218
 21
-10.48
  0
LINE
  8
0
 10
76.692
 11
77.04
 20
-10.48
 21
-10.828
  0
LINE
  8
0
 10
77.04
 11
77.302
 20
-10.828
 21
-11.245
  0
LINE
  8
0
 10
77.302
 11
77.465
 20
-11.245
 21
-11.71
  0
LINE
  8
0
 10
77.465
 11
77.52
 20
-11.71
 21
-12.2
  0
LINE
  8
0
 10
77.52
 11
77.465
 20
-12.2
 21
-12.69
  0
LINE
  8
0
 10
77.465
 11
77.302
 20
-12.69
 21
-13.155
  0
LINE
  8
0
 10
77.302
 11
77.04
 20
-13.155
 21
-13.572
  0
LINE
  8
0
 10
77.04
 11
76.692
 20
-13.572
 21
-13.92
  0
LINE
  8
0
 10
76.692
 11
76.275
 20
-13.92
 21
-14.182
  0
LINE
  8
0
 10
76.275
 11
75.81
 20
-14.182
 21
-14.345
  0
LINE
  8
0
 10
75.81
 11
75.32
 20
-14.345
 21
-14.4
  0
LINE
  8
0
 10
75.32
 11
74.83
 20
-14.4
 21
-14.345
  0
LINE
  8
0
 10
74.83
 11
74.365
 20
-14.345
 21
-14.182
  0
LINE
  8
0
 10
74.365
 11
73.948
 20
-14.182
 21
-13.92
  0
LINE
  8
0
 10
73.948
 11
73.6
 20
-13.92
 21
-13.572
  0
LINE
  8
0
 10
73.6
 11
73.338
 20
-13.572
 21
-13.155
  0
LINE
  8
0
 10
73.338
 11
73.175
 20
-13.155
 21
-12.69
  0
LINE
  8
0
 10
73.175
 11
73.12
 20
-12.69
 21
-12.2
  0
LINE
  8
0
 10
127.7
 11
127.755
 20
-520.5
 21
-520.01
  0
LINE
  8
0
 10
127.755
 11
127.918
 20
-520.01
 21
-519.545
  0
LINE
  8
0
 10
127.918
 11
128.18
 20
-519.545
 21
-519.128
  0
LINE
  8
0
 10
128.18
 11
128.528
 20
-519.128
 21
-518.78
  0
LINE
  8
0
 10
128.528
 11
128.945
 20
-518.78
 21
-518.518
  0
LINE
  8
0
 10
128.945
 11
129.41
 20
-518.518
 21
-518.355
  0
LINE
  8
0
 10
129.41
 11
129.9
 20
-518.355
 21
-518.3
  0
LINE
  8
0
 10
129.9
 11
130.39
 20
-518.3
 21
-518.355
  0
LINE
  8
0
 10
130.39
 11
130.855
 20
-518.355
 21
-518.518
  0
LINE
  8
0
 10
130.855
 11
131.272
 20
-518.518
 21
-518.78
  0
LINE
  8
0
 10
131.272
 11
131.62
 20
-518.78
 21
-519.128
  0
LINE
  8
0
 10
131.62
 11
131.882
 20
-519.128
 21
-519.545
  0
LINE
  8
0
 10
131.882
 11
132.045
 20
-519.545
 21
-520.01
  0
LINE
  8
0
 10
132.045
 11
132.1
 20
-520.01
 21
-520.5
  0
LINE
  8
0
 10
132.1
 11
132.045
 20
-520.5
 21
-520.99
  0
LINE
  8
0
 10
132.045
 11
131.882
 20
-520.99
 21
-521.455
  0
LINE
  8
0
 10
131.882
 11
131.62
 20
-521.455
 21
-521.872
  0
LINE
  8
0
 10
131.62
 11
131.272
 20
-521.872
 21
-522.22
  0
LINE
  8
0
 10
131.272
 11
130.855
 20
-522.22
 21
-522.482
  0
LINE
  8
0
 10
130.855
 11
130.39
 20
-522.482
 21
-522.645
  0
LINE
  8
0
 10
130.39
 11
129.9
 20
-522.645
 21
-522.7
  0
LINE
  8
0
 10
129.9
 11
129.41
 20
-522.7
 21
-522.645
  0
LINE
  8
0
 10
129.41
 11
128.945
 20
-522.645
 21
-522.482
  0
LINE
  8
0
 10
128.945
 11
128.528
 20
-522.482
 21
-522.22
  0
LINE
  8
0
 10
128.528
 11
128.18
 20
-522.22
 21
-521.872
  0
LINE
  8
0
 10
128.18
 11
127.918
 20
-521.872
 21
-521.455
  0
LINE
  8
0
 10
127.918
 11
127.755
 20
-521.455
 21
-520.99
  0
LINE
  8
0
 10
127.755
 11
127.7
 20
-520.99
 21
-520.5
  0
LINE
  8
0
 10
199.234
 11
199.234
 20
-509.189
 21
-508.711
  0
LINE
  8
0
 10
199.234
 11
199.493
 20
-508.711
 21
-508.308
  0
LINE
  8
0
 10
199.493
 11
199.929
 20
-508.308
 21
-508.109
  0
LINE
  8
0
 10
199.929
 11
200.403
 20
-508.109
 21
-508.177
  0
LINE
  8
0
 10
200.403
 11
200.765
 20
-508.177
 21
-508.49
  0
LINE
  8
0
 10
200.765
 11
200.9
 20
-508.49
 21
-508.95
  0
LINE
  8
0
 10
200.9
 11
200.765
 20
-508.95
 21
-509.41
  0
LINE
  8
0
 10
200.765
 11
200.403
 20
-509.41
 21
-509.723
  0
LINE
  8
0
 10
200.403
 11
199.929
 20
-509.723
 21
-509.791
  0
LINE
  8
0
 10
199.929
 11
199.493
 20
-509.791
 21
-509.592
  0
LINE
  8
0
 10
199.493
 11
199.234
 20
-509.592
 21
-509.189
  0
LINE
  8
0
 10
213.534
 11
213.534
 20
-493.289
 21
-492.811
  0
LINE
  8
0
 10
213.534
 11
213.793
 20
-492.811
 21
-492.408
  0
LINE
  8
0
 10
213.793
 11
214.229
 20
-492.408
 21
-492.209
  0
LINE
  8
0
 10
214.229
 11
214.703
 20
-492.209
 21
-492.277
  0
LINE
  8
0
 10
214.703
 11
215.065
 20
-492.277
 21
-492.59
  0
LINE
  8
0
 10
215.065
 11
215.2
 20
-492.59
 21
-493.05
  0
LINE
  8
0
 10
215.2
 11
215.065
 20
-493.05
 21
-493.51
  0
LINE
  8
0
 10
215.065
 11
214.703
 20
-493.51
 21
-493.823
  0
LINE
  8
0
 10
214.703
 11
214.229
 20
-493.823
 21
-493.891
  0
LINE
  8
0
 10
214.229
 11
213.793
 20
-493.891
 21
-493.692
  0
LINE
  8
0
 10
213.793
 11
213.534
 20
-493.692
 21
-493.289
  0
LINE
  8
0
 10
249.834
 11
249.834
 20
-509.189
 21
-508.711
  0
LINE
  8
0
 10
249.834
 11
250.093
 20
-508.711
 21
-508.308
  0
LINE
  8
0
 10
250.093
 11
250.529
 20
-508.308
 21
-508.109
  0
LINE
  8
0
 10
250.529
 11
251.003
 20
-508.109
 21
-508.177
  0
LINE
  8
0
 10
251.003
 11
251.365
 20
-508.177
 21
-508.49
  0
LINE
  8
0
 10
251.365
 11
251.5
 20
-508.49
 21
-508.95
  0
LINE
  8
0
 10
251.5
 11
251.365
 20
-508.95
 21
-509.41
  0
LINE
  8
0
 10
251.365
 11
251.003
 20
-509.41
 21
-509.723
  0
LINE
  8
0
 10
251.003
 11
250.529
 20
-509.723
 21
-509.791
  0
LINE
  8
0
 10
250.529
 11
250.093
 20
-509.791
 21
-509.592
  0
LINE
  8
0
 10
250.093
 11
249.834
 20
-509.592
 21
-509.189
  0
LINE
  8
0
 10
264.134
 11
264.134
 20
-493.289
 21
-492.811
  0
LINE
  8
0
 10
264.134
 11
264.393
 20
-492.811
 21
-492.408
  0
LINE
  8
0
 10
264.393
 11
264.829
 20
-492.408
 21
-492.209
  0
LINE
  8
0
 10
264.829
 11
265.303
 20
-492.209
 21
-492.277
  0
LINE
  8
0
 10
265.303
 11
265.665
 20
-492.277
 21
-492.59
  0
LINE
  8
0
 10
265.665
 11
265.8
 20
-492.59
 21
-493.05
  0
LINE
  8
0
 10
265.8
 11
265.665
 20
-493.05
 21
-493.51
  0
LINE
  8
0
 10
265.665
 11
265.303
 20
-493.51
 21
-493.823
  0
LINE
  8
0
 10
265.303
 11
264.829
 20
-493.823
 21
-493.891
  0
LINE
  8
0
 10
264.829
 11
264.393
 20
-493.891
 21
-493.692
  0
LINE
  8
0
 10
264.393
 11
264.134
 20
-493.692
 21
-493.289
  0
LINE
  8
0
 10
390.12
 11
390.215
 20
-286.705
 21
-286.227
  0
LINE
  8
0
 10
390.215
 11
390.486
 20
-286.227
 21
-285.821
  0
LINE
  8
0
 10
390.486
 11
390.892
 20
-285.821
 21
-285.55
  0
LINE
  8
0
 10
390.892
 11
391.37
 20
-285.55
 21
-285.455
  0
LINE
  8
0
 10
391.37
 11
391.848
 20
-285.455
 21
-285.55
  0
LINE
  8
0
 10
391.848
 11
392.254
 20
-285.55
 21
-285.821
  0
LINE
  8
0
 10
392.254
 11
392.525
 20
-285.821
 21
-286.227
  0
LINE
  8
0
 10
392.525
 11
392.62
 20
-286.227
 21
-286.705
  0
LINE
  8
0
 10
392.62
 11
392.525
 20
-286.705
 21
-287.183
  0
LINE
  8
0
 10
392.525
 11
392.254
 20
-287.183
 21
-287.589
  0
LINE
  8
0
 10
392.254
 11
391.848
 20
-287.589
 21
-287.86
  0
LINE
  8
0
 10
391.848
 11
391.37
 20
-287.86
 21
-287.955
  0
LINE
  8
0
 10
391.37
 11
390.892
 20
-287.955
 21
-287.86
  0
LINE
  8
0
 10
390.892
 11
390.486
 20
-287.86
 21
-287.589
  0
LINE
  8
0
 10
390.486
 11
390.215
 20
-287.589
 21
-287.183
  0
LINE
  8
0
 10
390.215
 11
390.12
 20
-287.183
 21
-286.705
  0
LINE
  8
0
 10
390.12
 11
390.215
 20
-244.795
 21
-244.317
  0
LINE
  8
0
 10
390.215
 11
390.486
 20
-244.317
 21
-243.911
  0
LINE
  8
0
 10
390.486
 11
390.892
 20
-243.911
 21
-243.64
  0
LINE
  8
0
 10
390.892
 11
391.37
 20
-243.64
 21
-243.545
  0
LINE
  8
0
 10
391.37
 11
391.848
 20
-243.545
 21
-243.64
  0
LINE
  8
0
 10
391.848
 11
392.254
 20
-243.64
 21
-243.911
  0
LINE
  8
0
 10
392.254
 11
392.525
 20
-243.911
 21
-244.317
  0
LINE
  8
0
 10
392.525
 11
392.62
 20
-244.317
 21
-244.795
  0
LINE
  8
0
 10
392.62
 11
392.525
 20
-244.795
 21
-245.273
  0
LINE
  8
0
 10
392.525
 11
392.254
 20
-245.273
 21
-245.679
  0
LINE
  8
0
 10
392.254
 11
391.848
 20
-245.679
 21
-245.95
  0
LINE
  8
0
 10
391.848
 11
391.37
 20
-245.95
 21
-246.045
  0
LINE
  8
0
 10
391.37
 11
390.892
 20
-246.045
 21
-245.95
  0
LINE
  8
0
 10
390.892
 11
390.486
 20
-245.95
 21
-245.679
  0
LINE
  8
0
 10
390.486
 11
390.215
 20
-245.679
 21
-245.273
  0
LINE
  8
0
 10
390.215
 11
390.12
 20
-245.273
 21
-244.795
  0
LINE
  8
0
 10
590.78
 11
590.875
 20
-286.705
 21
-286.227
  0
LINE
  8
0
 10
590.875
 11
591.146
 20
-286.227
 21
-285.821
  0
LINE
  8
0
 10
591.146
 11
591.552
 20
-285.821
 21
-285.55
  0
LINE
  8
0
 10
591.552
 11
592.03
 20
-285.55
 21
-285.455
  0
LINE
  8
0
 10
592.03
 11
592.508
 20
-285.455
 21
-285.55
  0
LINE
  8
0
 10
592.508
 11
592.914
 20
-285.55
 21
-285.821
  0
LINE
  8
0
 10
592.914
 11
593.185
 20
-285.821
 21
-286.227
  0
LINE
  8
0
 10
593.185
 11
593.28
 20
-286.227
 21
-286.705
  0
LINE
  8
0
 10
593.28
 11
593.185
 20
-286.705
 21
-287.183
  0
LINE
  8
0
 10
593.185
 11
592.914
 20
-287.183
 21
-287.589
  0
LINE
  8
0
 10
592.914
 11
592.508
 20
-287.589
 21
-287.86
  0
LINE
  8
0
 10
592.508
 11
592.03
 20
-287.86
 21
-287.955
  0
LINE
  8
0
 10
592.03
 11
591.552
 20
-287.955
 21
-287.86
  0
LINE
  8
0
 10
591.552
 11
591.146
 20
-287.86
 21
-287.589
  0
LINE
  8
0
 10
591.146
 11
590.875
 20
-287.589
 21
-287.183
  0
LINE
  8
0
 10
590.875
 11
590.78
 20
-287.183
 21
-286.705
  0
LINE
  8
0
 10
590.78
 11
590.875
 20
-244.795
 21
-244.317
  0
LINE
  8
0
 10
590.875
 11
591.146
 20
-244.317
 21
-243.911
  0
LINE
  8
0
 10
591.146
 11
591.552
 20
-243.911
 21
-243.64
  0
LINE
  8
0
 10
591.552
 11
592.03
 20
-243.64
 21
-243.545
  0
LINE
  8
0
 10
592.03
 11
592.508
 20
-243.545
 21
-243.64
  0
LINE
  8
0
 10
592.508
 11
592.914
 20
-243.64
 21
-243.911
  0
LINE
  8
0
 10
592.914
 11
593.185
 20
-243.911
 21
-244.317
  0
LINE
  8
0
 10
593.185
 11
593.28
 20
-244.317
 21
-244.795
  0
LINE
  8
0
 10
593.28
 11
593.185
 20
-244.795
 21
-245.273
  0
LINE
  8
0
 10
593.185
 11
592.914
 20
-245.273
 21
-245.679
  0
LINE
  8
0
 10
592.914
 11
592.508
 20
-245.679
 21
-245.95
  0
LINE
  8
0
 10
592.508
 11
592.03
 20
-245.95
 21
-246.045
  0
LINE
  8
0
 10
592.03
 11
591.552
 20
-246.045
 21
-245.95
  0
LINE
  8
0
 10
591.552
 11
591.146
 20
-245.95
 21
-245.679
  0
LINE
  8
0
 10
591.146
 11
590.875
 20
-245.679
 21
-245.273
  0
LINE
  8
0
 10
590.875
 11
590.78
 20
-245.273
 21
-244.795
  0
LINE
  8
0
 10
674.312
 11
674.367
 20
-36.1
 21
-35.61
  0
LINE
  8
0
 10
674.367
 11
674.529
 20
-35.61
 21
-35.145
  0
LINE
  8
0
 10
674.529
 11
674.792
 20
-35.145
 21
-34.728
  0
LINE
  8
0
 10
674.792
 11
675.14
 20
-34.728
 21
-34.38
  0
LINE
  8
0
 10
675.14
 11
675.557
 20
-34.38
 21
-34.118
  0
LINE
  8
0
 10
675.557
 11
676.022
 20
-34.118
 21
-33.955
  0
LINE
  8
0
 10
676.022
 11
676.512
 20
-33.955
 21
-33.9
  0
LINE
  8
0
 10
676.512
 11
677.001
 20
-33.9
 21
-33.955
  0
LINE
  8
0
 10
677.001
 11
677.466
 20
-33.955
 21
-34.118
  0
LINE
  8
0
 10
677.466
 11
677.883
 20
-34.118
 21
-34.38
  0
LINE
  8
0
 10
677.883
 11
678.232
 20
-34.38
 21
-34.728
  0
LINE
  8
0
 10
678.232
 11
678.494
 20
-34.728
 21
-35.145
  0
LINE
  8
0
 10
678.494
 11
678.656
 20
-35.145
 21
-35.61
  0
LINE
  8
0
 10
678.656
 11
678.712
 20
-35.61
 21
-36.1
  0
LINE
  8
0
 10
678.712
 11
678.656
 20
-36.1
 21
-36.59
  0
LINE
  8
0
 10
678.656
 11
678.494
 20
-36.59
 21
-37.055
  0
LINE
  8
0
 10
678.494
 11
678.232
 20
-37.055
 21
-37.472
  0
LINE
  8
0
 10
678.232
 11
677.883
 20
-37.472
 21
-37.82
  0
LINE
  8
0
 10
677.883
 11
677.466
 20
-37.82
 21
-38.082
  0
LINE
  8
0
 10
677.466
 11
677.001
 20
-38.082
 21
-38.245
  0
LINE
  8
0
 10
677.001
 11
676.512
 20
-38.245
 21
-38.3
  0
LINE
  8
0
 10
676.512
 11
676.022
 20
-38.3
 21
-38.245
  0
LINE
  8
0
 10
676.022
 11
675.557
 20
-38.245
 21
-38.082
  0
LINE
  8
0
 10
675.557
 11
675.14
 20
-38.082
 21
-37.82
  0
LINE
  8
0
 10
675.14
 11
674.792
 20
-37.82
 21
-37.472
  0
LINE
  8
0
 10
674.792
 11
674.529
 20
-37.472
 21
-37.055
  0
LINE
  8
0
 10
674.529
 11
674.367
 20
-37.055
 21
-36.59
  0
LINE
  8
0
 10
674.367
 11
674.312
 20
-36.59
 21
-36.1
  0
LINE
  8
0
 10
699.48
 11
699.521
 20
-8
 21
-7.506
  0
LINE
  8
0
 10
699.521
 11
699.643
 20
-7.506
 21
-7.026
  0
LINE
  8
0
 10
699.643
 11
699.842
 20
-7.026
 21
-6.572
  0
LINE
  8
0
 10
699.842
 11
700.113
 20
-6.572
 21
-6.157
  0
LINE
  8
0
 10
700.113
 11
700.448
 20
-6.157
 21
-5.793
  0
LINE
  8
0
 10
700.448
 11
700.839
 20
-5.793
 21
-5.489
  0
LINE
  8
0
 10
700.839
 11
701.275
 20
-5.489
 21
-5.253
  0
LINE
  8
0
 10
701.275
 11
701.744
 20
-5.253
 21
-5.092
  0
LINE
  8
0
 10
701.744
 11
702.232
 20
-5.092
 21
-5.01
  0
LINE
  8
0
 10
702.232
 11
702.728
 20
-5.01
 21
-5.01
  0
LINE
  8
0
 10
702.728
 11
703.216
 20
-5.01
 21
-5.092
  0
LINE
  8
0
 10
703.216
 11
703.685
 20
-5.092
 21
-5.253
  0
LINE
  8
0
 10
703.685
 11
704.121
 20
-5.253
 21
-5.489
  0
LINE
  8
0
 10
704.121
 11
704.512
 20
-5.489
 21
-5.793
  0
LINE
  8
0
 10
704.512
 11
704.847
 20
-5.793
 21
-6.157
  0
LINE
  8
0
 10
704.847
 11
705.118
 20
-6.157
 21
-6.572
  0
LINE
  8
0
 10
705.118
 11
705.317
 20
-6.572
 21
-7.026
  0
LINE
  8
0
 10
705.317
 11
705.439
 20
-7.026
 21
-7.506
  0
LINE
  8
0
 10
705.439
 11
705.48
 20
-7.506
 21
-8
  0
LINE
  8
0
 10
705.48
 11
705.439
 20
-8
 21
-8.494
  0
LINE
  8
0
 10
705.439
 11
705.317
 20
-8.494
 21
-8.974
  0
LINE
  8
0
 10
705.317
 11
705.118
 20
-8.974
 21
-9.428
  0
LINE
  8
0
 10
705.118
 11
704.847
 20
-9.428
 21
-9.843
  0
LINE
  8
0
 10
704.847
 11
704.512
 20
-9.843
 21
-10.207
  0
LINE
  8
0
 10
704.512
 11
704.121
 20
-10.207
 21
-10.511
  0
LINE
  8
0
 10
704.121
 11
703.685
 20
-10.511
 21
-10.747
  0
LINE
  8
0
 10
703.685
 11
703.216
 20
-10.747
 21
-10.908
  0
LINE
  8
0
 10
703.216
 11
702.728
 20
-10.908
 21
-10.99
  0
LINE
  8
0
 10
702.728
 11
702.232
 20
-10.99
 21
-10.99
  0
LINE
  8
0
 10
702.232
 11
701.744
 20
-10.99
 21
-10.908
  0
LINE
  8
0
 10
701.744
 11
701.275
 20
-10.908
 21
-10.747
  0
LINE
  8
0
 10
701.275
 11
700.839
 20
-10.747
 21
-10.511
  0
LINE
  8
0
 10
700.839
 11
700.448
 20
-10.511
 21
-10.207
  0
LINE
  8
0
 10
700.448
 11
700.113
 20
-10.207
 21
-9.843
  0
LINE
  8
0
 10
700.113
 11
699.842
 20
-9.843
 21
-9.428
  0
LINE
  8
0
 10
699.842
 11
699.643
 20
-9.428
 21
-8.974
  0
LINE
  8
0
 10
699.643
 11
699.521
 20
-8.974
 21
-8.494
  0
LINE
  8
0
 10
699.521
 11
699.48
 20
-8.494
 21
-8
  0
LINE
  8
0
 10
714.58
 11
714.638
 20
-7
 21
-6.521
  0
LINE
  8
0
 10
714.638
 11
714.809
 20
-6.521
 21
-6.071
  0
LINE
  8
0
 10
714.809
 11
715.083
 20
-6.071
 21
-5.674
  0
LINE
  8
0
 10
715.083
 11
715.444
 20
-5.674
 21
-5.354
  0
LINE
  8
0
 10
715.444
 11
715.871
 20
-5.354
 21
-5.13
  0
LINE
  8
0
 10
715.871
 11
716.339
 20
-5.13
 21
-5.015
  0
LINE
  8
0
 10
716.339
 11
716.821
 20
-5.015
 21
-5.015
  0
LINE
  8
0
 10
716.821
 11
717.289
 20
-5.015
 21
-5.13
  0
LINE
  8
0
 10
717.289
 11
717.716
 20
-5.13
 21
-5.354
  0
LINE
  8
0
 10
717.716
 11
718.077
 20
-5.354
 21
-5.674
  0
LINE
  8
0
 10
718.077
 11
718.351
 20
-5.674
 21
-6.071
  0
LINE
  8
0
 10
718.351
 11
718.522
 20
-6.071
 21
-6.521
  0
LINE
  8
0
 10
718.522
 11
718.58
 20
-6.521
 21
-7
  0
LINE
  8
0
 10
718.58
 11
718.522
 20
-7
 21
-7.479
  0
LINE
  8
0
 10
718.522
 11
718.351
 20
-7.479
 21
-7.929
  0
LINE
  8
0
 10
718.351
 11
718.077
 20
-7.929
 21
-8.326
  0
LINE
  8
0
 10
718.077
 11
717.716
 20
-8.326
 21
-8.646
  0
LINE
  8
0
 10
717.716
 11
717.289
 20
-8.646
 21
-8.87
  0
LINE
  8
0
 10
717.289
 11
716.821
 20
-8.87
 21
-8.985
  0
LINE
  8
0
 10
716.821
 11
716.339
 20
-8.985
 21
-8.985
  0
LINE
  8
0
 10
716.339
 11
715.871
 20
-8.985
 21
-8.87
  0
LINE
  8
0
 10
715.871
 11
715.444
 20
-8.87
 21
-8.646
  0
LINE
  8
0
 10
715.444
 11
715.083
 20
-8.646
 21
-8.326
  0
LINE
  8
0
 10
715.083
 11
714.809
 20
-8.326
 21
-7.929
  0
LINE
  8
0
 10
714.809
 11
714.638
 20
-7.929
 21
-7.479
  0
LINE
  8
0
 10
714.638
 11
714.58
 20
-7.479
 21
-7
  0
LINE
  8
0
 10
731.48
 11
731.535
 20
-12.2
 21
-11.71
  0
LINE
  8
0
 10
731.535
 11
731.698
 20
-11.71
 21
-11.245
  0
LINE
  8
0
 10
731.698
 11
731.96
 20
-11.245
 21
-10.828
  0
LINE
  8
0
 10
731.96
 11
732.308
 20
-10.828
 21
-10.48
  0
LINE
  8
0
 10
732.308
 11
732.725
 20
-10.48
 21
-10.218
  0
LINE
  8
0
 10
732.725
 11
733.19
 20
-10.218
 21
-10.055
  0
LINE
  8
0
 10
733.19
 11
733.68
 20
-10.055
 21
-10
  0
LINE
  8
0
 10
733.68
 11
734.17
 20
-10
 21
-10.055
  0
LINE
  8
0
 10
734.17
 11
734.635
 20
-10.055
 21
-10.218
  0
LINE
  8
0
 10
734.635
 11
735.052
 20
-10.218
 21
-10.48
  0
LINE
  8
0
 10
735.052
 11
735.4
 20
-10.48
 21
-10.828
  0
LINE
  8
0
 10
735.4
 11
735.662
 20
-10.828
 21
-11.245
  0
LINE
  8
0
 10
735.662
 11
735.825
 20
-11.245
 21
-11.71
  0
LINE
  8
0
 10
735.825
 11
735.88
 20
-11.71
 21
-12.2
  0
LINE
  8
0
 10
735.88
 11
735.825
 20
-12.2
 21
-12.69
  0
LINE
  8
0
 10
735.825
 11
735.662
 20
-12.69
 21
-13.155
  0
LINE
  8
0
 10
735.662
 11
735.4
 20
-13.155
 21
-13.572
  0
LINE
  8
0
 10
735.4
 11
735.052
 20
-13.572
 21
-13.92
  0
LINE
  8
0
 10
735.052
 11
734.635
 20
-13.92
 21
-14.182
  0
LINE
  8
0
 10
734.635
 11
734.17
 20
-14.182
 21
-14.345
  0
LINE
  8
0
 10
734.17
 11
733.68
 20
-14.345
 21
-14.4
  0
LINE
  8
0
 10
733.68
 11
733.19
 20
-14.4
 21
-14.345
  0
LINE
  8
0
 10
733.19
 11
732.725
 20
-14.345
 21
-14.182
  0
LINE
  8
0
 10
732.725
 11
732.308
 20
-14.182
 21
-13.92
  0
LINE
  8
0
 10
732.308
 11
731.96
 20
-13.92
 21
-13.572
  0
LINE
  8
0
 10
731.96
 11
731.698
 20
-13.572
 21
-13.155
  0
LINE
  8
0
 10
731.698
 11
731.535
 20
-13.155
 21
-12.69
  0
LINE
  8
0
 10
731.535
 11
731.48
 20
-12.69
 21
-12.2
  0
LINE
  8
0
 10
768.7
 11
768.755
 20
-12.2
 21
-11.71
  0
LINE
  8
0
 10
768.755
 11
768.918
 20
-11.71
 21
-11.245
  0
LINE
  8
0
 10
768.918
 11
769.18
 20
-11.245
 21
-10.828
  0
LINE
  8
0
 10
769.18
 11
769.528
 20
-10.828
 21
-10.48
  0
LINE
  8
0
 10
769.528
 11
769.945
 20
-10.48
 21
-10.218
  0
LINE
  8
0
 10
769.945
 11
770.41
 20
-10.218
 21
-10.055
  0
LINE
  8
0
 10
770.41
 11
770.9
 20
-10.055
 21
-10
  0
LINE
  8
0
 10
770.9
 11
771.39
 20
-10
 21
-10.055
  0
LINE
  8
0
 10
771.39
 11
771.855
 20
-10.055
 21
-10.218
  0
LINE
  8
0
 10
771.855
 11
772.272
 20
-10.218
 21
-10.48
  0
LINE
  8
0
 10
772.272
 11
772.62
 20
-10.48
 21
-10.828
  0
LINE
  8
0
 10
772.62
 11
772.882
 20
-10.828
 21
-11.245
  0
LINE
  8
0
 10
772.882
 11
773.045
 20
-11.245
 21
-11.71
  0
LINE
  8
0
 10
773.045
 11
773.1
 20
-11.71
 21
-12.2
  0
LINE
  8
0
 10
773.1
 11
773.045
 20
-12.2
 21
-12.69
  0
LINE
  8
0
 10
773.045
 11
772.882
 20
-12.69
 21
-13.155
  0
LINE
  8
0
 10
772.882
 11
772.62
 20
-13.155
 21
-13.572
  0
LINE
  8
0
 10
772.62
 11
772.272
 20
-13.572
 21
-13.92
  0
LINE
  8
0
 10
772.272
 11
771.855
 20
-13.92
 21
-14.182
  0
LINE
  8
0
 10
771.855
 11
771.39
 20
-14.182
 21
-14.345
  0
LINE
  8
0
 10
771.39
 11
770.9
 20
-14.345
 21
-14.4
  0
LINE
  8
0
 10
770.9
 11
770.41
 20
-14.4
 21
-14.345
  0
LINE
  8
0
 10
770.41
 11
769.945
 20
-14.345
 21
-14.182
  0
LINE
  8
0
 10
769.945
 11
769.528
 20
-14.182
 21
-13.92
  0
LINE
  8
0
 10
769.528
 11
769.18
 20
-13.92
 21
-13.572
  0
LINE
  8
0
 10
769.18
 11
768.918
 20
-13.572
 21
-13.155
  0
LINE
  8
0
 10
768.918
 11
768.755
 20
-13.155
 21
-12.69
  0
LINE
  8
0
 10
768.755
 11
768.7
 20
-12.69
 21
-12.2
  0
ENDSEC
  0
SECTION
  2
OBJECTS
  0
DICTIONARY
  0
ENDSEC
  0
EOF
