  0
SECTION
  2
BLOCKS
  0
ENDSEC
  0
SECTION
  2
ENTITIES
  0
LINE
  8
0
 10
-309
 11
-308.959
 20
306
 21
306.494
  0
LINE
  8
0
 10
-308.959
 11
-308.837
 20
306.494
 21
306.974
  0
LINE
  8
0
 10
-308.837
 11
-308.638
 20
306.974
 21
307.428
  0
LINE
  8
0
 10
-308.638
 11
-308.367
 20
307.428
 21
307.843
  0
LINE
  8
0
 10
-308.367
 11
-308.032
 20
307.843
 21
308.207
  0
LINE
  8
0
 10
-308.032
 11
-307.641
 20
308.207
 21
308.511
  0
LINE
  8
0
 10
-307.641
 11
-307.205
 20
308.511
 21
308.747
  0
LINE
  8
0
 10
-307.205
 11
-306.736
 20
308.747
 21
308.908
  0
LINE
  8
0
 10
-306.736
 11
-306.248
 20
308.908
 21
308.99
  0
LINE
  8
0
 10
-306.248
 11
-18.51
 20
308.99
 21
308.995
  0
LINE
  8
0
 10
-18.51
 11
-18.51
 20
308.995
 21
300
  0
LINE
  8
0
 10
-18.51
 11
18.51
 20
300
 21
300
  0
LINE
  8
0
 10
18.51
 11
18.51
 20
300
 21
308.995
  0
LINE
  8
0
 10
18.51
 11
306
 20
308.995
 21
309
  0
LINE
  8
0
 10
306
 11
306.494
 20
309
 21
308.959
  0
LINE
  8
0
 10
306.494
 11
306.974
 20
308.959
 21
308.837
  0
LINE
  8
0
 10
306.974
 11
307.428
 20
308.837
 21
308.638
  0
LINE
  8
0
 10
307.428
 11
307.843
 20
308.638
 21
308.367
  0
LINE
  8
0
 10
307.843
 11
308.207
 20
308.367
 21
308.032
  0
LINE
  8
0
 10
308.207
 11
308.511
 20
308.032
 21
307.641
  0
LINE
  8
0
 10
308.511
 11
308.747
 20
307.641
 21
307.205
  0
LINE
  8
0
 10
308.747
 11
308.908
 20
307.205
 21
306.736
  0
LINE
  8
0
 10
308.908
 11
308.99
 20
306.736
 21
306.248
  0
LINE
  8
0
 10
308.99
 11
309
 20
306.248
 21
-306
  0
LINE
  8
0
 10
309
 11
308.959
 20
-306
 21
-306.494
  0
LINE
  8
0
 10
308.959
 11
308.837
 20
-306.494
 21
-306.974
  0
LINE
  8
0
 10
308.837
 11
308.638
 20
-306.974
 21
-307.428
  0
LINE
  8
0
 10
308.638
 11
308.367
 20
-307.428
 21
-307.843
  0
LINE
  8
0
 10
308.367
 11
308.032
 20
-307.843
 21
-308.207
  0
LINE
  8
0
 10
308.032
 11
307.641
 20
-308.207
 21
-308.511
  0
LINE
  8
0
 10
307.641
 11
307.205
 20
-308.511
 21
-308.747
  0
LINE
  8
0
 10
307.205
 11
306.736
 20
-308.747
 21
-308.908
  0
LINE
  8
0
 10
306.736
 11
306.248
 20
-308.908
 21
-308.99
  0
LINE
  8
0
 10
306.248
 11
-306
 20
-308.99
 21
-309
  0
LINE
  8
0
 10
-306
 11
-306.494
 20
-309
 21
-308.959
  0
LINE
  8
0
 10
-306.494
 11
-306.974
 20
-308.959
 21
-308.837
  0
LINE
  8
0
 10
-306.974
 11
-307.428
 20
-308.837
 21
-308.638
  0
LINE
  8
0
 10
-307.428
 11
-307.843
 20
-308.638
 21
-308.367
  0
LINE
  8
0
 10
-307.843
 11
-308.207
 20
-308.367
 21
-308.032
  0
LINE
  8
0
 10
-308.207
 11
-308.511
 20
-308.032
 21
-307.641
  0
LINE
  8
0
 10
-308.511
 11
-308.747
 20
-307.641
 21
-307.205
  0
LINE
  8
0
 10
-308.747
 11
-308.908
 20
-307.205
 21
-306.736
  0
LINE
  8
0
 10
-308.908
 11
-308.99
 20
-306.736
 21
-306.248
  0
LINE
  8
0
 10
-308.99
 11
-309
 20
-306.248
 21
306
  0
LINE
  8
0
 10
-306.25
 11
-306.155
 20
-305
 21
-304.522
  0
LINE
  8
0
 10
-306.155
 11
-305.884
 20
-304.522
 21
-304.116
  0
LINE
  8
0
 10
-305.884
 11
-305.478
 20
-304.116
 21
-303.845
  0
LINE
  8
0
 10
-305.478
 11
-305
 20
-303.845
 21
-303.75
  0
LINE
  8
0
 10
-305
 11
-304.522
 20
-303.75
 21
-303.845
  0
LINE
  8
0
 10
-304.522
 11
-304.116
 20
-303.845
 21
-304.116
  0
LINE
  8
0
 10
-304.116
 11
-303.845
 20
-304.116
 21
-304.522
  0
LINE
  8
0
 10
-303.845
 11
-303.75
 20
-304.522
 21
-305
  0
LINE
  8
0
 10
-303.75
 11
-303.845
 20
-305
 21
-305.478
  0
LINE
  8
0
 10
-303.845
 11
-304.116
 20
-305.478
 21
-305.884
  0
LINE
  8
0
 10
-304.116
 11
-304.522
 20
-305.884
 21
-306.155
  0
LINE
  8
0
 10
-304.522
 11
-305
 20
-306.155
 21
-306.25
  0
LINE
  8
0
 10
-305
 11
-305.478
 20
-306.25
 21
-306.155
  0
LINE
  8
0
 10
-305.478
 11
-305.884
 20
-306.155
 21
-305.884
  0
LINE
  8
0
 10
-305.884
 11
-306.155
 20
-305.884
 21
-305.478
  0
LINE
  8
0
 10
-306.155
 11
-306.25
 20
-305.478
 21
-305
  0
LINE
  8
0
 10
-306.25
 11
-306.155
 20
305
 21
305.478
  0
LINE
  8
0
 10
-306.155
 11
-305.884
 20
305.478
 21
305.884
  0
LINE
  8
0
 10
-305.884
 11
-305.478
 20
305.884
 21
306.155
  0
LINE
  8
0
 10
-305.478
 11
-305
 20
306.155
 21
306.25
  0
LINE
  8
0
 10
-305
 11
-304.522
 20
306.25
 21
306.155
  0
LINE
  8
0
 10
-304.522
 11
-304.116
 20
306.155
 21
305.884
  0
LINE
  8
0
 10
-304.116
 11
-303.845
 20
305.884
 21
305.478
  0
LINE
  8
0
 10
-303.845
 11
-303.75
 20
305.478
 21
305
  0
LINE
  8
0
 10
-303.75
 11
-303.845
 20
305
 21
304.522
  0
LINE
  8
0
 10
-303.845
 11
-304.116
 20
304.522
 21
304.116
  0
LINE
  8
0
 10
-304.116
 11
-304.522
 20
304.116
 21
303.845
  0
LINE
  8
0
 10
-304.522
 11
-305
 20
303.845
 21
303.75
  0
LINE
  8
0
 10
-305
 11
-305.478
 20
303.75
 21
303.845
  0
LINE
  8
0
 10
-305.478
 11
-305.884
 20
303.845
 21
304.116
  0
LINE
  8
0
 10
-305.884
 11
-306.155
 20
304.116
 21
304.522
  0
LINE
  8
0
 10
-306.155
 11
-306.25
 20
304.522
 21
305
  0
LINE
  8
0
 10
-209.83
 11
-209.793
 20
-276.5
 21
-276.008
  0
LINE
  8
0
 10
-209.793
 11
-209.683
 20
-276.008
 21
-275.527
  0
LINE
  8
0
 10
-209.683
 11
-209.503
 20
-275.527
 21
-275.068
  0
LINE
  8
0
 10
-209.503
 11
-209.257
 20
-275.068
 21
-274.641
  0
LINE
  8
0
 10
-209.257
 11
-208.949
 20
-274.641
 21
-274.255
  0
LINE
  8
0
 10
-208.949
 11
-208.588
 20
-274.255
 21
-273.92
  0
LINE
  8
0
 10
-208.588
 11
-208.18
 20
-273.92
 21
-273.642
  0
LINE
  8
0
 10
-208.18
 11
-207.736
 20
-273.642
 21
-273.428
  0
LINE
  8
0
 10
-207.736
 11
-207.264
 20
-273.428
 21
-273.283
  0
LINE
  8
0
 10
-207.264
 11
-206.777
 20
-273.283
 21
-273.209
  0
LINE
  8
0
 10
-206.777
 11
-206.283
 20
-273.209
 21
-273.209
  0
LINE
  8
0
 10
-206.283
 11
-205.796
 20
-273.209
 21
-273.283
  0
LINE
  8
0
 10
-205.796
 11
-205.324
 20
-273.283
 21
-273.428
  0
LINE
  8
0
 10
-205.324
 11
-204.88
 20
-273.428
 21
-273.642
  0
LINE
  8
0
 10
-204.88
 11
-204.472
 20
-273.642
 21
-273.92
  0
LINE
  8
0
 10
-204.472
 11
-204.111
 20
-273.92
 21
-274.255
  0
LINE
  8
0
 10
-204.111
 11
-203.803
 20
-274.255
 21
-274.641
  0
LINE
  8
0
 10
-203.803
 11
-203.557
 20
-274.641
 21
-275.068
  0
LINE
  8
0
 10
-203.557
 11
-203.377
 20
-275.068
 21
-275.527
  0
LINE
  8
0
 10
-203.377
 11
-203.267
 20
-275.527
 21
-276.008
  0
LINE
  8
0
 10
-203.267
 11
-203.23
 20
-276.008
 21
-276.5
  0
LINE
  8
0
 10
-203.23
 11
-203.267
 20
-276.5
 21
-276.992
  0
LINE
  8
0
 10
-203.267
 11
-203.377
 20
-276.992
 21
-277.473
  0
LINE
  8
0
 10
-203.377
 11
-203.557
 20
-277.473
 21
-277.932
  0
LINE
  8
0
 10
-203.557
 11
-203.803
 20
-277.932
 21
-278.359
  0
LINE
  8
0
 10
-203.803
 11
-204.111
 20
-278.359
 21
-278.745
  0
LINE
  8
0
 10
-204.111
 11
-204.472
 20
-278.745
 21
-279.08
  0
LINE
  8
0
 10
-204.472
 11
-204.88
 20
-279.08
 21
-279.358
  0
LINE
  8
0
 10
-204.88
 11
-205.324
 20
-279.358
 21
-279.572
  0
LINE
  8
0
 10
-205.324
 11
-205.796
 20
-279.572
 21
-279.717
  0
LINE
  8
0
 10
-205.796
 11
-206.283
 20
-279.717
 21
-279.791
  0
LINE
  8
0
 10
-206.283
 11
-206.777
 20
-279.791
 21
-279.791
  0
LINE
  8
0
 10
-206.777
 11
-207.264
 20
-279.791
 21
-279.717
  0
LINE
  8
0
 10
-207.264
 11
-207.736
 20
-279.717
 21
-279.572
  0
LINE
  8
0
 10
-207.736
 11
-208.18
 20
-279.572
 21
-279.358
  0
LINE
  8
0
 10
-208.18
 11
-208.588
 20
-279.358
 21
-279.08
  0
LINE
  8
0
 10
-208.588
 11
-208.949
 20
-279.08
 21
-278.745
  0
LINE
  8
0
 10
-208.949
 11
-209.257
 20
-278.745
 21
-278.359
  0
LINE
  8
0
 10
-209.257
 11
-209.503
 20
-278.359
 21
-277.932
  0
LINE
  8
0
 10
-209.503
 11
-209.683
 20
-277.932
 21
-277.473
  0
LINE
  8
0
 10
-209.683
 11
-209.793
 20
-277.473
 21
-276.992
  0
LINE
  8
0
 10
-209.793
 11
-209.83
 20
-276.992
 21
-276.5
  0
LINE
  8
0
 10
-209.83
 11
-209.793
 20
250.5
 21
250.992
  0
LINE
  8
0
 10
-209.793
 11
-209.683
 20
250.992
 21
251.473
  0
LINE
  8
0
 10
-209.683
 11
-209.503
 20
251.473
 21
251.932
  0
LINE
  8
0
 10
-209.503
 11
-209.257
 20
251.932
 21
252.359
  0
LINE
  8
0
 10
-209.257
 11
-208.949
 20
252.359
 21
252.745
  0
LINE
  8
0
 10
-208.949
 11
-208.588
 20
252.745
 21
253.08
  0
LINE
  8
0
 10
-208.588
 11
-208.18
 20
253.08
 21
253.358
  0
LINE
  8
0
 10
-208.18
 11
-207.736
 20
253.358
 21
253.572
  0
LINE
  8
0
 10
-207.736
 11
-207.264
 20
253.572
 21
253.717
  0
LINE
  8
0
 10
-207.264
 11
-206.777
 20
253.717
 21
253.791
  0
LINE
  8
0
 10
-206.777
 11
-206.283
 20
253.791
 21
253.791
  0
LINE
  8
0
 10
-206.283
 11
-205.796
 20
253.791
 21
253.717
  0
LINE
  8
0
 10
-205.796
 11
-205.324
 20
253.717
 21
253.572
  0
LINE
  8
0
 10
-205.324
 11
-204.88
 20
253.572
 21
253.358
  0
LINE
  8
0
 10
-204.88
 11
-204.472
 20
253.358
 21
253.08
  0
LINE
  8
0
 10
-204.472
 11
-204.111
 20
253.08
 21
252.745
  0
LINE
  8
0
 10
-204.111
 11
-203.803
 20
252.745
 21
252.359
  0
LINE
  8
0
 10
-203.803
 11
-203.557
 20
252.359
 21
251.932
  0
LINE
  8
0
 10
-203.557
 11
-203.377
 20
251.932
 21
251.473
  0
LINE
  8
0
 10
-203.377
 11
-203.267
 20
251.473
 21
250.992
  0
LINE
  8
0
 10
-203.267
 11
-203.23
 20
250.992
 21
250.5
  0
LINE
  8
0
 10
-203.23
 11
-203.267
 20
250.5
 21
250.008
  0
LINE
  8
0
 10
-203.267
 11
-203.377
 20
250.008
 21
249.527
  0
LINE
  8
0
 10
-203.377
 11
-203.557
 20
249.527
 21
249.068
  0
LINE
  8
0
 10
-203.557
 11
-203.803
 20
249.068
 21
248.641
  0
LINE
  8
0
 10
-203.803
 11
-204.111
 20
248.641
 21
248.255
  0
LINE
  8
0
 10
-204.111
 11
-204.472
 20
248.255
 21
247.92
  0
LINE
  8
0
 10
-204.472
 11
-204.88
 20
247.92
 21
247.642
  0
LINE
  8
0
 10
-204.88
 11
-205.324
 20
247.642
 21
247.428
  0
LINE
  8
0
 10
-205.324
 11
-205.796
 20
247.428
 21
247.283
  0
LINE
  8
0
 10
-205.796
 11
-206.283
 20
247.283
 21
247.209
  0
LINE
  8
0
 10
-206.283
 11
-206.777
 20
247.209
 21
247.209
  0
LINE
  8
0
 10
-206.777
 11
-207.264
 20
247.209
 21
247.283
  0
LINE
  8
0
 10
-207.264
 11
-207.736
 20
247.283
 21
247.428
  0
LINE
  8
0
 10
-207.736
 11
-208.18
 20
247.428
 21
247.642
  0
LINE
  8
0
 10
-208.18
 11
-208.588
 20
247.642
 21
247.92
  0
LINE
  8
0
 10
-208.588
 11
-208.949
 20
247.92
 21
248.255
  0
LINE
  8
0
 10
-208.949
 11
-209.257
 20
248.255
 21
248.641
  0
LINE
  8
0
 10
-209.257
 11
-209.503
 20
248.641
 21
249.068
  0
LINE
  8
0
 10
-209.503
 11
-209.683
 20
249.068
 21
249.527
  0
LINE
  8
0
 10
-209.683
 11
-209.793
 20
249.527
 21
250.008
  0
LINE
  8
0
 10
-209.793
 11
-209.83
 20
250.008
 21
250.5
  0
LINE
  8
0
 10
-153.83
 11
-153.793
 20
-250.5
 21
-250.008
  0
LINE
  8
0
 10
-153.793
 11
-153.683
 20
-250.008
 21
-249.527
  0
LINE
  8
0
 10
-153.683
 11
-153.503
 20
-249.527
 21
-249.068
  0
LINE
  8
0
 10
-153.503
 11
-153.257
 20
-249.068
 21
-248.641
  0
LINE
  8
0
 10
-153.257
 11
-152.949
 20
-248.641
 21
-248.255
  0
LINE
  8
0
 10
-152.949
 11
-152.588
 20
-248.255
 21
-247.92
  0
LINE
  8
0
 10
-152.588
 11
-152.18
 20
-247.92
 21
-247.642
  0
LINE
  8
0
 10
-152.18
 11
-151.736
 20
-247.642
 21
-247.428
  0
LINE
  8
0
 10
-151.736
 11
-151.264
 20
-247.428
 21
-247.283
  0
LINE
  8
0
 10
-151.264
 11
-150.777
 20
-247.283
 21
-247.209
  0
LINE
  8
0
 10
-150.777
 11
-150.283
 20
-247.209
 21
-247.209
  0
LINE
  8
0
 10
-150.283
 11
-149.796
 20
-247.209
 21
-247.283
  0
LINE
  8
0
 10
-149.796
 11
-149.324
 20
-247.283
 21
-247.428
  0
LINE
  8
0
 10
-149.324
 11
-148.88
 20
-247.428
 21
-247.642
  0
LINE
  8
0
 10
-148.88
 11
-148.472
 20
-247.642
 21
-247.92
  0
LINE
  8
0
 10
-148.472
 11
-148.111
 20
-247.92
 21
-248.255
  0
LINE
  8
0
 10
-148.111
 11
-147.803
 20
-248.255
 21
-248.641
  0
LINE
  8
0
 10
-147.803
 11
-147.557
 20
-248.641
 21
-249.068
  0
LINE
  8
0
 10
-147.557
 11
-147.377
 20
-249.068
 21
-249.527
  0
LINE
  8
0
 10
-147.377
 11
-147.267
 20
-249.527
 21
-250.008
  0
LINE
  8
0
 10
-147.267
 11
-147.23
 20
-250.008
 21
-250.5
  0
LINE
  8
0
 10
-147.23
 11
-147.267
 20
-250.5
 21
-250.992
  0
LINE
  8
0
 10
-147.267
 11
-147.377
 20
-250.992
 21
-251.473
  0
LINE
  8
0
 10
-147.377
 11
-147.557
 20
-251.473
 21
-251.932
  0
LINE
  8
0
 10
-147.557
 11
-147.803
 20
-251.932
 21
-252.359
  0
LINE
  8
0
 10
-147.803
 11
-148.111
 20
-252.359
 21
-252.745
  0
LINE
  8
0
 10
-148.111
 11
-148.472
 20
-252.745
 21
-253.08
  0
LINE
  8
0
 10
-148.472
 11
-148.88
 20
-253.08
 21
-253.358
  0
LINE
  8
0
 10
-148.88
 11
-149.324
 20
-253.358
 21
-253.572
  0
LINE
  8
0
 10
-149.324
 11
-149.796
 20
-253.572
 21
-253.717
  0
LINE
  8
0
 10
-149.796
 11
-150.283
 20
-253.717
 21
-253.791
  0
LINE
  8
0
 10
-150.283
 11
-150.777
 20
-253.791
 21
-253.791
  0
LINE
  8
0
 10
-150.777
 11
-151.264
 20
-253.791
 21
-253.717
  0
LINE
  8
0
 10
-151.264
 11
-151.736
 20
-253.717
 21
-253.572
  0
LINE
  8
0
 10
-151.736
 11
-152.18
 20
-253.572
 21
-253.358
  0
LINE
  8
0
 10
-152.18
 11
-152.588
 20
-253.358
 21
-253.08
  0
LINE
  8
0
 10
-152.588
 11
-152.949
 20
-253.08
 21
-252.745
  0
LINE
  8
0
 10
-152.949
 11
-153.257
 20
-252.745
 21
-252.359
  0
LINE
  8
0
 10
-153.257
 11
-153.503
 20
-252.359
 21
-251.932
  0
LINE
  8
0
 10
-153.503
 11
-153.683
 20
-251.932
 21
-251.473
  0
LINE
  8
0
 10
-153.683
 11
-153.793
 20
-251.473
 21
-250.992
  0
LINE
  8
0
 10
-153.793
 11
-153.83
 20
-250.992
 21
-250.5
  0
LINE
  8
0
 10
-153.83
 11
-153.793
 20
276.5
 21
276.992
  0
LINE
  8
0
 10
-153.793
 11
-153.683
 20
276.992
 21
277.473
  0
LINE
  8
0
 10
-153.683
 11
-153.503
 20
277.473
 21
277.932
  0
LINE
  8
0
 10
-153.503
 11
-153.257
 20
277.932
 21
278.359
  0
LINE
  8
0
 10
-153.257
 11
-152.949
 20
278.359
 21
278.745
  0
LINE
  8
0
 10
-152.949
 11
-152.588
 20
278.745
 21
279.08
  0
LINE
  8
0
 10
-152.588
 11
-152.18
 20
279.08
 21
279.358
  0
LINE
  8
0
 10
-152.18
 11
-151.736
 20
279.358
 21
279.572
  0
LINE
  8
0
 10
-151.736
 11
-151.264
 20
279.572
 21
279.717
  0
LINE
  8
0
 10
-151.264
 11
-150.777
 20
279.717
 21
279.791
  0
LINE
  8
0
 10
-150.777
 11
-150.283
 20
279.791
 21
279.791
  0
LINE
  8
0
 10
-150.283
 11
-149.796
 20
279.791
 21
279.717
  0
LINE
  8
0
 10
-149.796
 11
-149.324
 20
279.717
 21
279.572
  0
LINE
  8
0
 10
-149.324
 11
-148.88
 20
279.572
 21
279.358
  0
LINE
  8
0
 10
-148.88
 11
-148.472
 20
279.358
 21
279.08
  0
LINE
  8
0
 10
-148.472
 11
-148.111
 20
279.08
 21
278.745
  0
LINE
  8
0
 10
-148.111
 11
-147.803
 20
278.745
 21
278.359
  0
LINE
  8
0
 10
-147.803
 11
-147.557
 20
278.359
 21
277.932
  0
LINE
  8
0
 10
-147.557
 11
-147.377
 20
277.932
 21
277.473
  0
LINE
  8
0
 10
-147.377
 11
-147.267
 20
277.473
 21
276.992
  0
LINE
  8
0
 10
-147.267
 11
-147.23
 20
276.992
 21
276.5
  0
LINE
  8
0
 10
-147.23
 11
-147.267
 20
276.5
 21
276.008
  0
LINE
  8
0
 10
-147.267
 11
-147.377
 20
276.008
 21
275.527
  0
LINE
  8
0
 10
-147.377
 11
-147.557
 20
275.527
 21
275.068
  0
LINE
  8
0
 10
-147.557
 11
-147.803
 20
275.068
 21
274.641
  0
LINE
  8
0
 10
-147.803
 11
-148.111
 20
274.641
 21
274.255
  0
LINE
  8
0
 10
-148.111
 11
-148.472
 20
274.255
 21
273.92
  0
LINE
  8
0
 10
-148.472
 11
-148.88
 20
273.92
 21
273.642
  0
LINE
  8
0
 10
-148.88
 11
-149.324
 20
273.642
 21
273.428
  0
LINE
  8
0
 10
-149.324
 11
-149.796
 20
273.428
 21
273.283
  0
LINE
  8
0
 10
-149.796
 11
-150.283
 20
273.283
 21
273.209
  0
LINE
  8
0
 10
-150.283
 11
-150.777
 20
273.209
 21
273.209
  0
LINE
  8
0
 10
-150.777
 11
-151.264
 20
273.209
 21
273.283
  0
LINE
  8
0
 10
-151.264
 11
-151.736
 20
273.283
 21
273.428
  0
LINE
  8
0
 10
-151.736
 11
-152.18
 20
273.428
 21
273.642
  0
LINE
  8
0
 10
-152.18
 11
-152.588
 20
273.642
 21
273.92
  0
LINE
  8
0
 10
-152.588
 11
-152.949
 20
273.92
 21
274.255
  0
LINE
  8
0
 10
-152.949
 11
-153.257
 20
274.255
 21
274.641
  0
LINE
  8
0
 10
-153.257
 11
-153.503
 20
274.641
 21
275.068
  0
LINE
  8
0
 10
-153.503
 11
-153.683
 20
275.068
 21
275.527
  0
LINE
  8
0
 10
-153.683
 11
-153.793
 20
275.527
 21
276.008
  0
LINE
  8
0
 10
-153.793
 11
-153.83
 20
276.008
 21
276.5
  0
LINE
  8
0
 10
-33.66
 11
-33.587
 20
-255.965
 21
-255.479
  0
LINE
  8
0
 10
-33.587
 11
-33.373
 20
-255.479
 21
-255.036
  0
LINE
  8
0
 10
-33.373
 11
-33.039
 20
-255.036
 21
-254.675
  0
LINE
  8
0
 10
-33.039
 11
-32.613
 20
-254.675
 21
-254.429
  0
LINE
  8
0
 10
-32.613
 11
-32.133
 20
-254.429
 21
-254.32
  0
LINE
  8
0
 10
-32.133
 11
-31.643
 20
-254.32
 21
-254.356
  0
LINE
  8
0
 10
-31.643
 11
-31.185
 20
-254.356
 21
-254.536
  0
LINE
  8
0
 10
-31.185
 11
-30.8
 20
-254.536
 21
-254.843
  0
LINE
  8
0
 10
-30.8
 11
-30.523
 20
-254.843
 21
-255.249
  0
LINE
  8
0
 10
-30.523
 11
-30.378
 20
-255.249
 21
-255.719
  0
LINE
  8
0
 10
-30.378
 11
-30.378
 20
-255.719
 21
-256.211
  0
LINE
  8
0
 10
-30.378
 11
-30.523
 20
-256.211
 21
-256.681
  0
LINE
  8
0
 10
-30.523
 11
-30.8
 20
-256.681
 21
-257.087
  0
LINE
  8
0
 10
-30.8
 11
-31.185
 20
-257.087
 21
-257.394
  0
LINE
  8
0
 10
-31.185
 11
-31.643
 20
-257.394
 21
-257.574
  0
LINE
  8
0
 10
-31.643
 11
-32.133
 20
-257.574
 21
-257.61
  0
LINE
  8
0
 10
-32.133
 11
-32.613
 20
-257.61
 21
-257.501
  0
LINE
  8
0
 10
-32.613
 11
-33.039
 20
-257.501
 21
-257.255
  0
LINE
  8
0
 10
-33.039
 11
-33.373
 20
-257.255
 21
-256.894
  0
LINE
  8
0
 10
-33.373
 11
-33.587
 20
-256.894
 21
-256.451
  0
LINE
  8
0
 10
-33.587
 11
-33.66
 20
-256.451
 21
-255.965
  0
LINE
  8
0
 10
-33.66
 11
-33.587
 20
-220.735
 21
-220.249
  0
LINE
  8
0
 10
-33.587
 11
-33.373
 20
-220.249
 21
-219.806
  0
LINE
  8
0
 10
-33.373
 11
-33.039
 20
-219.806
 21
-219.445
  0
LINE
  8
0
 10
-33.039
 11
-32.613
 20
-219.445
 21
-219.199
  0
LINE
  8
0
 10
-32.613
 11
-32.133
 20
-219.199
 21
-219.09
  0
LINE
  8
0
 10
-32.133
 11
-31.643
 20
-219.09
 21
-219.126
  0
LINE
  8
0
 10
-31.643
 11
-31.185
 20
-219.126
 21
-219.306
  0
LINE
  8
0
 10
-31.185
 11
-30.8
 20
-219.306
 21
-219.613
  0
LINE
  8
0
 10
-30.8
 11
-30.523
 20
-219.613
 21
-220.019
  0
LINE
  8
0
 10
-30.523
 11
-30.378
 20
-220.019
 21
-220.489
  0
LINE
  8
0
 10
-30.378
 11
-30.378
 20
-220.489
 21
-220.981
  0
LINE
  8
0
 10
-30.378
 11
-30.523
 20
-220.981
 21
-221.451
  0
LINE
  8
0
 10
-30.523
 11
-30.8
 20
-221.451
 21
-221.857
  0
LINE
  8
0
 10
-30.8
 11
-31.185
 20
-221.857
 21
-222.164
  0
LINE
  8
0
 10
-31.185
 11
-31.643
 20
-222.164
 21
-222.344
  0
LINE
  8
0
 10
-31.643
 11
-32.133
 20
-222.344
 21
-222.38
  0
LINE
  8
0
 10
-32.133
 11
-32.613
 20
-222.38
 21
-222.271
  0
LINE
  8
0
 10
-32.613
 11
-33.039
 20
-222.271
 21
-222.025
  0
LINE
  8
0
 10
-33.039
 11
-33.373
 20
-222.025
 21
-221.664
  0
LINE
  8
0
 10
-33.373
 11
-33.587
 20
-221.664
 21
-221.221
  0
LINE
  8
0
 10
-33.587
 11
-33.66
 20
-221.221
 21
-220.735
  0
LINE
  8
0
 10
-33.642
 11
-33.642
 20
216.639
 21
217.131
  0
LINE
  8
0
 10
-33.642
 11
-33.497
 20
217.131
 21
217.601
  0
LINE
  8
0
 10
-33.497
 11
-33.22
 20
217.601
 21
218.007
  0
LINE
  8
0
 10
-33.22
 11
-32.835
 20
218.007
 21
218.314
  0
LINE
  8
0
 10
-32.835
 11
-32.377
 20
218.314
 21
218.494
  0
LINE
  8
0
 10
-32.377
 11
-31.887
 20
218.494
 21
218.53
  0
LINE
  8
0
 10
-31.887
 11
-31.407
 20
218.53
 21
218.421
  0
LINE
  8
0
 10
-31.407
 11
-30.981
 20
218.421
 21
218.175
  0
LINE
  8
0
 10
-30.981
 11
-30.647
 20
218.175
 21
217.814
  0
LINE
  8
0
 10
-30.647
 11
-30.433
 20
217.814
 21
217.371
  0
LINE
  8
0
 10
-30.433
 11
-30.36
 20
217.371
 21
216.885
  0
LINE
  8
0
 10
-30.36
 11
-30.433
 20
216.885
 21
216.399
  0
LINE
  8
0
 10
-30.433
 11
-30.647
 20
216.399
 21
215.956
  0
LINE
  8
0
 10
-30.647
 11
-30.981
 20
215.956
 21
215.595
  0
LINE
  8
0
 10
-30.981
 11
-31.407
 20
215.595
 21
215.349
  0
LINE
  8
0
 10
-31.407
 11
-31.887
 20
215.349
 21
215.24
  0
LINE
  8
0
 10
-31.887
 11
-32.377
 20
215.24
 21
215.276
  0
LINE
  8
0
 10
-32.377
 11
-32.835
 20
215.276
 21
215.456
  0
LINE
  8
0
 10
-32.835
 11
-33.22
 20
215.456
 21
215.763
  0
LINE
  8
0
 10
-33.22
 11
-33.497
 20
215.763
 21
216.169
  0
LINE
  8
0
 10
-33.497
 11
-33.642
 20
216.169
 21
216.639
  0
LINE
  8
0
 10
-33.642
 11
-33.642
 20
251.869
 21
252.361
  0
LINE
  8
0
 10
-33.642
 11
-33.497
 20
252.361
 21
252.831
  0
LINE
  8
0
 10
-33.497
 11
-33.22
 20
252.831
 21
253.237
  0
LINE
  8
0
 10
-33.22
 11
-32.835
 20
253.237
 21
253.544
  0
LINE
  8
0
 10
-32.835
 11
-32.377
 20
253.544
 21
253.724
  0
LINE
  8
0
 10
-32.377
 11
-31.887
 20
253.724
 21
253.76
  0
LINE
  8
0
 10
-31.887
 11
-31.407
 20
253.76
 21
253.651
  0
LINE
  8
0
 10
-31.407
 11
-30.981
 20
253.651
 21
253.405
  0
LINE
  8
0
 10
-30.981
 11
-30.647
 20
253.405
 21
253.044
  0
LINE
  8
0
 10
-30.647
 11
-30.433
 20
253.044
 21
252.601
  0
LINE
  8
0
 10
-30.433
 11
-30.36
 20
252.601
 21
252.115
  0
LINE
  8
0
 10
-30.36
 11
-30.433
 20
252.115
 21
251.629
  0
LINE
  8
0
 10
-30.433
 11
-30.647
 20
251.629
 21
251.186
  0
LINE
  8
0
 10
-30.647
 11
-30.981
 20
251.186
 21
250.825
  0
LINE
  8
0
 10
-30.981
 11
-31.407
 20
250.825
 21
250.579
  0
LINE
  8
0
 10
-31.407
 11
-31.887
 20
250.579
 21
250.47
  0
LINE
  8
0
 10
-31.887
 11
-32.377
 20
250.47
 21
250.506
  0
LINE
  8
0
 10
-32.377
 11
-32.835
 20
250.506
 21
250.686
  0
LINE
  8
0
 10
-32.835
 11
-33.22
 20
250.686
 21
250.993
  0
LINE
  8
0
 10
-33.22
 11
-33.497
 20
250.993
 21
251.399
  0
LINE
  8
0
 10
-33.497
 11
-33.642
 20
251.399
 21
251.869
  0
LINE
  8
0
 10
-25.61
 11
-25.573
 20
291
 21
291.492
  0
LINE
  8
0
 10
-25.573
 11
-25.463
 20
291.492
 21
291.973
  0
LINE
  8
0
 10
-25.463
 11
-25.283
 20
291.973
 21
292.432
  0
LINE
  8
0
 10
-25.283
 11
-25.037
 20
292.432
 21
292.859
  0
LINE
  8
0
 10
-25.037
 11
-24.729
 20
292.859
 21
293.245
  0
LINE
  8
0
 10
-24.729
 11
-24.368
 20
293.245
 21
293.58
  0
LINE
  8
0
 10
-24.368
 11
-23.96
 20
293.58
 21
293.858
  0
LINE
  8
0
 10
-23.96
 11
-23.516
 20
293.858
 21
294.072
  0
LINE
  8
0
 10
-23.516
 11
-23.044
 20
294.072
 21
294.217
  0
LINE
  8
0
 10
-23.044
 11
-22.557
 20
294.217
 21
294.291
  0
LINE
  8
0
 10
-22.557
 11
-22.063
 20
294.291
 21
294.291
  0
LINE
  8
0
 10
-22.063
 11
-21.576
 20
294.291
 21
294.217
  0
LINE
  8
0
 10
-21.576
 11
-21.104
 20
294.217
 21
294.072
  0
LINE
  8
0
 10
-21.104
 11
-20.66
 20
294.072
 21
293.858
  0
LINE
  8
0
 10
-20.66
 11
-20.252
 20
293.858
 21
293.58
  0
LINE
  8
0
 10
-20.252
 11
-19.891
 20
293.58
 21
293.245
  0
LINE
  8
0
 10
-19.891
 11
-19.583
 20
293.245
 21
292.859
  0
LINE
  8
0
 10
-19.583
 11
-19.337
 20
292.859
 21
292.432
  0
LINE
  8
0
 10
-19.337
 11
-19.157
 20
292.432
 21
291.973
  0
LINE
  8
0
 10
-19.157
 11
-19.047
 20
291.973
 21
291.492
  0
LINE
  8
0
 10
-19.047
 11
-19.01
 20
291.492
 21
291
  0
LINE
  8
0
 10
-19.01
 11
-19.047
 20
291
 21
290.508
  0
LINE
  8
0
 10
-19.047
 11
-19.157
 20
290.508
 21
290.027
  0
LINE
  8
0
 10
-19.157
 11
-19.337
 20
290.027
 21
289.568
  0
LINE
  8
0
 10
-19.337
 11
-19.583
 20
289.568
 21
289.141
  0
LINE
  8
0
 10
-19.583
 11
-19.891
 20
289.141
 21
288.755
  0
LINE
  8
0
 10
-19.891
 11
-20.252
 20
288.755
 21
288.42
  0
LINE
  8
0
 10
-20.252
 11
-20.66
 20
288.42
 21
288.142
  0
LINE
  8
0
 10
-20.66
 11
-21.104
 20
288.142
 21
287.928
  0
LINE
  8
0
 10
-21.104
 11
-21.576
 20
287.928
 21
287.783
  0
LINE
  8
0
 10
-21.576
 11
-22.063
 20
287.783
 21
287.709
  0
LINE
  8
0
 10
-22.063
 11
-22.557
 20
287.709
 21
287.709
  0
LINE
  8
0
 10
-22.557
 11
-23.044
 20
287.709
 21
287.783
  0
LINE
  8
0
 10
-23.044
 11
-23.516
 20
287.783
 21
287.928
  0
LINE
  8
0
 10
-23.516
 11
-23.96
 20
287.928
 21
288.142
  0
LINE
  8
0
 10
-23.96
 11
-24.368
 20
288.142
 21
288.42
  0
LINE
  8
0
 10
-24.368
 11
-24.729
 20
288.42
 21
288.755
  0
LINE
  8
0
 10
-24.729
 11
-25.037
 20
288.755
 21
289.141
  0
LINE
  8
0
 10
-25.037
 11
-25.283
 20
289.141
 21
289.568
  0
LINE
  8
0
 10
-25.283
 11
-25.463
 20
289.568
 21
290.027
  0
LINE
  8
0
 10
-25.463
 11
-25.573
 20
290.027
 21
290.508
  0
LINE
  8
0
 10
-25.573
 11
-25.61
 20
290.508
 21
291
  0
LINE
  8
0
 10
19.01
 11
19.047
 20
291
 21
291.492
  0
LINE
  8
0
 10
19.047
 11
19.157
 20
291.492
 21
291.973
  0
LINE
  8
0
 10
19.157
 11
19.337
 20
291.973
 21
292.432
  0
LINE
  8
0
 10
19.337
 11
19.583
 20
292.432
 21
292.859
  0
LINE
  8
0
 10
19.583
 11
19.891
 20
292.859
 21
293.245
  0
LINE
  8
0
 10
19.891
 11
20.252
 20
293.245
 21
293.58
  0
LINE
  8
0
 10
20.252
 11
20.66
 20
293.58
 21
293.858
  0
LINE
  8
0
 10
20.66
 11
21.104
 20
293.858
 21
294.072
  0
LINE
  8
0
 10
21.104
 11
21.576
 20
294.072
 21
294.217
  0
LINE
  8
0
 10
21.576
 11
22.063
 20
294.217
 21
294.291
  0
LINE
  8
0
 10
22.063
 11
22.557
 20
294.291
 21
294.291
  0
LINE
  8
0
 10
22.557
 11
23.044
 20
294.291
 21
294.217
  0
LINE
  8
0
 10
23.044
 11
23.516
 20
294.217
 21
294.072
  0
LINE
  8
0
 10
23.516
 11
23.96
 20
294.072
 21
293.858
  0
LINE
  8
0
 10
23.96
 11
24.368
 20
293.858
 21
293.58
  0
LINE
  8
0
 10
24.368
 11
24.729
 20
293.58
 21
293.245
  0
LINE
  8
0
 10
24.729
 11
25.037
 20
293.245
 21
292.859
  0
LINE
  8
0
 10
25.037
 11
25.283
 20
292.859
 21
292.432
  0
LINE
  8
0
 10
25.283
 11
25.463
 20
292.432
 21
291.973
  0
LINE
  8
0
 10
25.463
 11
25.573
 20
291.973
 21
291.492
  0
LINE
  8
0
 10
25.573
 11
25.61
 20
291.492
 21
291
  0
LINE
  8
0
 10
25.61
 11
25.573
 20
291
 21
290.508
  0
LINE
  8
0
 10
25.573
 11
25.463
 20
290.508
 21
290.027
  0
LINE
  8
0
 10
25.463
 11
25.283
 20
290.027
 21
289.568
  0
LINE
  8
0
 10
25.283
 11
25.037
 20
289.568
 21
289.141
  0
LINE
  8
0
 10
25.037
 11
24.729
 20
289.141
 21
288.755
  0
LINE
  8
0
 10
24.729
 11
24.368
 20
288.755
 21
288.42
  0
LINE
  8
0
 10
24.368
 11
23.96
 20
288.42
 21
288.142
  0
LINE
  8
0
 10
23.96
 11
23.516
 20
288.142
 21
287.928
  0
LINE
  8
0
 10
23.516
 11
23.044
 20
287.928
 21
287.783
  0
LINE
  8
0
 10
23.044
 11
22.557
 20
287.783
 21
287.709
  0
LINE
  8
0
 10
22.557
 11
22.063
 20
287.709
 21
287.709
  0
LINE
  8
0
 10
22.063
 11
21.576
 20
287.709
 21
287.783
  0
LINE
  8
0
 10
21.576
 11
21.104
 20
287.783
 21
287.928
  0
LINE
  8
0
 10
21.104
 11
20.66
 20
287.928
 21
288.142
  0
LINE
  8
0
 10
20.66
 11
20.252
 20
288.142
 21
288.42
  0
LINE
  8
0
 10
20.252
 11
19.891
 20
288.42
 21
288.755
  0
LINE
  8
0
 10
19.891
 11
19.583
 20
288.755
 21
289.141
  0
LINE
  8
0
 10
19.583
 11
19.337
 20
289.141
 21
289.568
  0
LINE
  8
0
 10
19.337
 11
19.157
 20
289.568
 21
290.027
  0
LINE
  8
0
 10
19.157
 11
19.047
 20
290.027
 21
290.508
  0
LINE
  8
0
 10
19.047
 11
19.01
 20
290.508
 21
291
  0
LINE
  8
0
 10
147.23
 11
147.267
 20
-13
 21
-12.508
  0
LINE
  8
0
 10
147.267
 11
147.377
 20
-12.508
 21
-12.027
  0
LINE
  8
0
 10
147.377
 11
147.557
 20
-12.027
 21
-11.568
  0
LINE
  8
0
 10
147.557
 11
147.803
 20
-11.568
 21
-11.141
  0
LINE
  8
0
 10
147.803
 11
148.111
 20
-11.141
 21
-10.755
  0
LINE
  8
0
 10
148.111
 11
148.472
 20
-10.755
 21
-10.42
  0
LINE
  8
0
 10
148.472
 11
148.88
 20
-10.42
 21
-10.142
  0
LINE
  8
0
 10
148.88
 11
149.324
 20
-10.142
 21
-9.928
  0
LINE
  8
0
 10
149.324
 11
149.796
 20
-9.928
 21
-9.783
  0
LINE
  8
0
 10
149.796
 11
150.283
 20
-9.783
 21
-9.709
  0
LINE
  8
0
 10
150.283
 11
150.777
 20
-9.709
 21
-9.709
  0
LINE
  8
0
 10
150.777
 11
151.264
 20
-9.709
 21
-9.783
  0
LINE
  8
0
 10
151.264
 11
151.736
 20
-9.783
 21
-9.928
  0
LINE
  8
0
 10
151.736
 11
152.18
 20
-9.928
 21
-10.142
  0
LINE
  8
0
 10
152.18
 11
152.588
 20
-10.142
 21
-10.42
  0
LINE
  8
0
 10
152.588
 11
152.949
 20
-10.42
 21
-10.755
  0
LINE
  8
0
 10
152.949
 11
153.257
 20
-10.755
 21
-11.141
  0
LINE
  8
0
 10
153.257
 11
153.503
 20
-11.141
 21
-11.568
  0
LINE
  8
0
 10
153.503
 11
153.683
 20
-11.568
 21
-12.027
  0
LINE
  8
0
 10
153.683
 11
153.793
 20
-12.027
 21
-12.508
  0
LINE
  8
0
 10
153.793
 11
153.83
 20
-12.508
 21
-13
  0
LINE
  8
0
 10
153.83
 11
153.793
 20
-13
 21
-13.492
  0
LINE
  8
0
 10
153.793
 11
153.683
 20
-13.492
 21
-13.973
  0
LINE
  8
0
 10
153.683
 11
153.503
 20
-13.973
 21
-14.432
  0
LINE
  8
0
 10
153.503
 11
153.257
 20
-14.432
 21
-14.859
  0
LINE
  8
0
 10
153.257
 11
152.949
 20
-14.859
 21
-15.245
  0
LINE
  8
0
 10
152.949
 11
152.588
 20
-15.245
 21
-15.58
  0
LINE
  8
0
 10
152.588
 11
152.18
 20
-15.58
 21
-15.858
  0
LINE
  8
0
 10
152.18
 11
151.736
 20
-15.858
 21
-16.072
  0
LINE
  8
0
 10
151.736
 11
151.264
 20
-16.072
 21
-16.217
  0
LINE
  8
0
 10
151.264
 11
150.777
 20
-16.217
 21
-16.291
  0
LINE
  8
0
 10
150.777
 11
150.283
 20
-16.291
 21
-16.291
  0
LINE
  8
0
 10
150.283
 11
149.796
 20
-16.291
 21
-16.217
  0
LINE
  8
0
 10
149.796
 11
149.324
 20
-16.217
 21
-16.072
  0
LINE
  8
0
 10
149.324
 11
148.88
 20
-16.072
 21
-15.858
  0
LINE
  8
0
 10
148.88
 11
148.472
 20
-15.858
 21
-15.58
  0
LINE
  8
0
 10
148.472
 11
148.111
 20
-15.58
 21
-15.245
  0
LINE
  8
0
 10
148.111
 11
147.803
 20
-15.245
 21
-14.859
  0
LINE
  8
0
 10
147.803
 11
147.557
 20
-14.859
 21
-14.432
  0
LINE
  8
0
 10
147.557
 11
147.377
 20
-14.432
 21
-13.973
  0
LINE
  8
0
 10
147.377
 11
147.267
 20
-13.973
 21
-13.492
  0
LINE
  8
0
 10
147.267
 11
147.23
 20
-13.492
 21
-13
  0
LINE
  8
0
 10
203.23
 11
203.267
 20
13
 21
13.492
  0
LINE
  8
0
 10
203.267
 11
203.377
 20
13.492
 21
13.973
  0
LINE
  8
0
 10
203.377
 11
203.557
 20
13.973
 21
14.432
  0
LINE
  8
0
 10
203.557
 11
203.803
 20
14.432
 21
14.859
  0
LINE
  8
0
 10
203.803
 11
204.111
 20
14.859
 21
15.245
  0
LINE
  8
0
 10
204.111
 11
204.472
 20
15.245
 21
15.58
  0
LINE
  8
0
 10
204.472
 11
204.88
 20
15.58
 21
15.858
  0
LINE
  8
0
 10
204.88
 11
205.324
 20
15.858
 21
16.072
  0
LINE
  8
0
 10
205.324
 11
205.796
 20
16.072
 21
16.217
  0
LINE
  8
0
 10
205.796
 11
206.283
 20
16.217
 21
16.291
  0
LINE
  8
0
 10
206.283
 11
206.777
 20
16.291
 21
16.291
  0
LINE
  8
0
 10
206.777
 11
207.264
 20
16.291
 21
16.217
  0
LINE
  8
0
 10
207.264
 11
207.736
 20
16.217
 21
16.072
  0
LINE
  8
0
 10
207.736
 11
208.18
 20
16.072
 21
15.858
  0
LINE
  8
0
 10
208.18
 11
208.588
 20
15.858
 21
15.58
  0
LINE
  8
0
 10
208.588
 11
208.949
 20
15.58
 21
15.245
  0
LINE
  8
0
 10
208.949
 11
209.257
 20
15.245
 21
14.859
  0
LINE
  8
0
 10
209.257
 11
209.503
 20
14.859
 21
14.432
  0
LINE
  8
0
 10
209.503
 11
209.683
 20
14.432
 21
13.973
  0
LINE
  8
0
 10
209.683
 11
209.793
 20
13.973
 21
13.492
  0
LINE
  8
0
 10
209.793
 11
209.83
 20
13.492
 21
13
  0
LINE
  8
0
 10
209.83
 11
209.793
 20
13
 21
12.508
  0
LINE
  8
0
 10
209.793
 11
209.683
 20
12.508
 21
12.027
  0
LINE
  8
0
 10
209.683
 11
209.503
 20
12.027
 21
11.568
  0
LINE
  8
0
 10
209.503
 11
209.257
 20
11.568
 21
11.141
  0
LINE
  8
0
 10
209.257
 11
208.949
 20
11.141
 21
10.755
  0
LINE
  8
0
 10
208.949
 11
208.588
 20
10.755
 21
10.42
  0
LINE
  8
0
 10
208.588
 11
208.18
 20
10.42
 21
10.142
  0
LINE
  8
0
 10
208.18
 11
207.736
 20
10.142
 21
9.928
  0
LINE
  8
0
 10
207.736
 11
207.264
 20
9.928
 21
9.783
  0
LINE
  8
0
 10
207.264
 11
206.777
 20
9.783
 21
9.709
  0
LINE
  8
0
 10
206.777
 11
206.283
 20
9.709
 21
9.709
  0
LINE
  8
0
 10
206.283
 11
205.796
 20
9.709
 21
9.783
  0
LINE
  8
0
 10
205.796
 11
205.324
 20
9.783
 21
9.928
  0
LINE
  8
0
 10
205.324
 11
204.88
 20
9.928
 21
10.142
  0
LINE
  8
0
 10
204.88
 11
204.472
 20
10.142
 21
10.42
  0
LINE
  8
0
 10
204.472
 11
204.111
 20
10.42
 21
10.755
  0
LINE
  8
0
 10
204.111
 11
203.803
 20
10.755
 21
11.141
  0
LINE
  8
0
 10
203.803
 11
203.557
 20
11.141
 21
11.568
  0
LINE
  8
0
 10
203.557
 11
203.377
 20
11.568
 21
12.027
  0
LINE
  8
0
 10
203.377
 11
203.267
 20
12.027
 21
12.508
  0
LINE
  8
0
 10
203.267
 11
203.23
 20
12.508
 21
13
  0
LINE
  8
0
 10
303.75
 11
303.845
 20
-305
 21
-304.522
  0
LINE
  8
0
 10
303.845
 11
304.116
 20
-304.522
 21
-304.116
  0
LINE
  8
0
 10
304.116
 11
304.522
 20
-304.116
 21
-303.845
  0
LINE
  8
0
 10
304.522
 11
305
 20
-303.845
 21
-303.75
  0
LINE
  8
0
 10
305
 11
305.478
 20
-303.75
 21
-303.845
  0
LINE
  8
0
 10
305.478
 11
305.884
 20
-303.845
 21
-304.116
  0
LINE
  8
0
 10
305.884
 11
306.155
 20
-304.116
 21
-304.522
  0
LINE
  8
0
 10
306.155
 11
306.25
 20
-304.522
 21
-305
  0
LINE
  8
0
 10
306.25
 11
306.155
 20
-305
 21
-305.478
  0
LINE
  8
0
 10
306.155
 11
305.884
 20
-305.478
 21
-305.884
  0
LINE
  8
0
 10
305.884
 11
305.478
 20
-305.884
 21
-306.155
  0
LINE
  8
0
 10
305.478
 11
305
 20
-306.155
 21
-306.25
  0
LINE
  8
0
 10
305
 11
304.522
 20
-306.25
 21
-306.155
  0
LINE
  8
0
 10
304.522
 11
304.116
 20
-306.155
 21
-305.884
  0
LINE
  8
0
 10
304.116
 11
303.845
 20
-305.884
 21
-305.478
  0
LINE
  8
0
 10
303.845
 11
303.75
 20
-305.478
 21
-305
  0
LINE
  8
0
 10
303.75
 11
303.845
 20
305
 21
305.478
  0
LINE
  8
0
 10
303.845
 11
304.116
 20
305.478
 21
305.884
  0
LINE
  8
0
 10
304.116
 11
304.522
 20
305.884
 21
306.155
  0
LINE
  8
0
 10
304.522
 11
305
 20
306.155
 21
306.25
  0
LINE
  8
0
 10
305
 11
305.478
 20
306.25
 21
306.155
  0
LINE
  8
0
 10
305.478
 11
305.884
 20
306.155
 21
305.884
  0
LINE
  8
0
 10
305.884
 11
306.155
 20
305.884
 21
305.478
  0
LINE
  8
0
 10
306.155
 11
306.25
 20
305.478
 21
305
  0
LINE
  8
0
 10
306.25
 11
306.155
 20
305
 21
304.522
  0
LINE
  8
0
 10
306.155
 11
305.884
 20
304.522
 21
304.116
  0
LINE
  8
0
 10
305.884
 11
305.478
 20
304.116
 21
303.845
  0
LINE
  8
0
 10
305.478
 11
305
 20
303.845
 21
303.75
  0
LINE
  8
0
 10
305
 11
304.522
 20
303.75
 21
303.845
  0
LINE
  8
0
 10
304.522
 11
304.116
 20
303.845
 21
304.116
  0
LINE
  8
0
 10
304.116
 11
303.845
 20
304.116
 21
304.522
  0
LINE
  8
0
 10
303.845
 11
303.75
 20
304.522
 21
305
  0
ENDSEC
  0
SECTION
  2
OBJECTS
  0
DICTIONARY
  0
ENDSEC
  0
EOF
