<?xml version="1.0"?>
<svg xmlns="http://www.w3.org/2000/svg" version="1.1" height="628mm" width="628mm" >
 <g style="fill-opacity:1.0; stroke:black; stroke-width:1;">
  <line x1="0.010000mm" y1="615.248000mm" x2="0.010000mm" y2="615.248000mm" />
  <line x1="0.010000mm" y1="615.248000mm" x2="0.000000mm" y2="3.000000mm" />
  <line x1="0.000000mm" y1="3.000000mm" x2="0.041000mm" y2="2.506000mm" />
  <line x1="0.041000mm" y1="2.506000mm" x2="0.163000mm" y2="2.026000mm" />
  <line x1="0.163000mm" y1="2.026000mm" x2="0.362000mm" y2="1.572000mm" />
  <line x1="0.362000mm" y1="1.572000mm" x2="0.633000mm" y2="1.157000mm" />
  <line x1="0.633000mm" y1="1.157000mm" x2="0.968000mm" y2="0.793000mm" />
  <line x1="0.968000mm" y1="0.793000mm" x2="1.359000mm" y2="0.489000mm" />
  <line x1="1.359000mm" y1="0.489000mm" x2="1.795000mm" y2="0.253000mm" />
  <line x1="1.795000mm" y1="0.253000mm" x2="2.264000mm" y2="0.092000mm" />
  <line x1="2.264000mm" y1="0.092000mm" x2="2.752000mm" y2="0.010000mm" />
  <line x1="2.752000mm" y1="0.010000mm" x2="290.490000mm" y2="0.005000mm" />
  <line x1="290.490000mm" y1="0.005000mm" x2="290.490000mm" y2="9.000000mm" />
  <line x1="290.490000mm" y1="9.000000mm" x2="327.510000mm" y2="9.000000mm" />
  <line x1="327.510000mm" y1="9.000000mm" x2="327.510000mm" y2="0.005000mm" />
  <line x1="327.510000mm" y1="0.005000mm" x2="615.000000mm" y2="0.000000mm" />
  <line x1="615.000000mm" y1="0.000000mm" x2="615.494000mm" y2="0.041000mm" />
  <line x1="615.494000mm" y1="0.041000mm" x2="615.974000mm" y2="0.163000mm" />
  <line x1="615.974000mm" y1="0.163000mm" x2="616.428000mm" y2="0.362000mm" />
  <line x1="616.428000mm" y1="0.362000mm" x2="616.843000mm" y2="0.633000mm" />
  <line x1="616.843000mm" y1="0.633000mm" x2="617.207000mm" y2="0.968000mm" />
  <line x1="617.207000mm" y1="0.968000mm" x2="617.511000mm" y2="1.359000mm" />
  <line x1="617.511000mm" y1="1.359000mm" x2="617.747000mm" y2="1.795000mm" />
  <line x1="617.747000mm" y1="1.795000mm" x2="617.908000mm" y2="2.264000mm" />
  <line x1="617.908000mm" y1="2.264000mm" x2="617.990000mm" y2="2.752000mm" />
  <line x1="617.990000mm" y1="2.752000mm" x2="618.000000mm" y2="615.000000mm" />
  <line x1="618.000000mm" y1="615.000000mm" x2="617.959000mm" y2="615.494000mm" />
  <line x1="617.959000mm" y1="615.494000mm" x2="617.837000mm" y2="615.974000mm" />
  <line x1="617.837000mm" y1="615.974000mm" x2="617.638000mm" y2="616.428000mm" />
  <line x1="617.638000mm" y1="616.428000mm" x2="617.367000mm" y2="616.843000mm" />
  <line x1="617.367000mm" y1="616.843000mm" x2="617.032000mm" y2="617.207000mm" />
  <line x1="617.032000mm" y1="617.207000mm" x2="616.641000mm" y2="617.511000mm" />
  <line x1="616.641000mm" y1="617.511000mm" x2="616.205000mm" y2="617.747000mm" />
  <line x1="616.205000mm" y1="617.747000mm" x2="615.736000mm" y2="617.908000mm" />
  <line x1="615.736000mm" y1="617.908000mm" x2="615.248000mm" y2="617.990000mm" />
  <line x1="615.248000mm" y1="617.990000mm" x2="3.000000mm" y2="618.000000mm" />
  <line x1="3.000000mm" y1="618.000000mm" x2="2.506000mm" y2="617.959000mm" />
  <line x1="2.506000mm" y1="617.959000mm" x2="2.026000mm" y2="617.837000mm" />
  <line x1="2.026000mm" y1="617.837000mm" x2="1.572000mm" y2="617.638000mm" />
  <line x1="1.572000mm" y1="617.638000mm" x2="1.157000mm" y2="617.367000mm" />
  <line x1="1.157000mm" y1="617.367000mm" x2="0.793000mm" y2="617.032000mm" />
  <line x1="0.793000mm" y1="617.032000mm" x2="0.489000mm" y2="616.641000mm" />
  <line x1="0.489000mm" y1="616.641000mm" x2="0.253000mm" y2="616.205000mm" />
  <line x1="0.253000mm" y1="616.205000mm" x2="0.092000mm" y2="615.736000mm" />
  <line x1="0.092000mm" y1="615.736000mm" x2="0.010000mm" y2="615.248000mm" />
  <circle cx="4.000087mm" cy="614.000061mm" r="1.250061mm" fill="none"/>
  <line x1="6.500208mm" y1="614.000061mm" x2="1.499966mm" y2="614.000061mm" />
  <line x1="4.000087mm" y1="611.499939mm" x2="4.000087mm" y2="616.500182mm" />
  <text x="5mm" y="612mm" font-size="24">
   2.5
  </text>
  <circle cx="4.000087mm" cy="4.000061mm" r="1.250061mm" fill="none"/>
  <line x1="6.500208mm" y1="4.000061mm" x2="1.499966mm" y2="4.000061mm" />
  <line x1="4.000087mm" y1="1.499939mm" x2="4.000087mm" y2="6.500182mm" />
  <text x="5mm" y="2mm" font-size="24">
   2.5
  </text>
  <circle cx="102.470247mm" cy="585.499975mm" r="3.300132mm" fill="none"/>
  <line x1="109.070512mm" y1="585.499975mm" x2="95.869983mm" y2="585.499975mm" />
  <line x1="102.470247mm" y1="578.899711mm" x2="102.470247mm" y2="592.100240mm" />
  <text x="105mm" y="582mm" font-size="24">
   6.6
  </text>
  <circle cx="102.470247mm" cy="58.499975mm" r="3.300132mm" fill="none"/>
  <line x1="109.070512mm" y1="58.499975mm" x2="95.869983mm" y2="58.499975mm" />
  <line x1="102.470247mm" y1="51.899711mm" x2="102.470247mm" y2="65.100240mm" />
  <text x="105mm" y="55mm" font-size="24">
   6.6
  </text>
  <circle cx="158.470247mm" cy="559.499975mm" r="3.300132mm" fill="none"/>
  <line x1="165.070512mm" y1="559.499975mm" x2="151.869983mm" y2="559.499975mm" />
  <line x1="158.470247mm" y1="552.899711mm" x2="158.470247mm" y2="566.100240mm" />
  <text x="161mm" y="556mm" font-size="24">
   6.6
  </text>
  <circle cx="158.470247mm" cy="32.499975mm" r="3.300132mm" fill="none"/>
  <line x1="165.070512mm" y1="32.499975mm" x2="151.869983mm" y2="32.499975mm" />
  <line x1="158.470247mm" y1="25.899711mm" x2="158.470247mm" y2="39.100240mm" />
  <text x="161mm" y="29mm" font-size="24">
   6.6
  </text>
  <circle cx="276.989999mm" cy="564.964893mm" r="1.650220mm" fill="none"/>
  <line x1="280.290439mm" y1="564.964893mm" x2="273.689559mm" y2="564.964893mm" />
  <line x1="276.989999mm" y1="561.664453mm" x2="276.989999mm" y2="568.265333mm" />
  <text x="278mm" y="563mm" font-size="24">
   3.3
  </text>
  <circle cx="276.989999mm" cy="529.734893mm" r="1.650220mm" fill="none"/>
  <line x1="280.290439mm" y1="529.734893mm" x2="273.689559mm" y2="529.734893mm" />
  <line x1="276.989999mm" y1="526.434453mm" x2="276.989999mm" y2="533.035333mm" />
  <text x="278mm" y="528mm" font-size="24">
   3.3
  </text>
  <circle cx="276.989456mm" cy="92.115195mm" r="1.649827mm" fill="none"/>
  <line x1="280.289111mm" y1="92.115195mm" x2="273.689802mm" y2="92.115195mm" />
  <line x1="276.989456mm" y1="88.815541mm" x2="276.989456mm" y2="95.414849mm" />
  <text x="278mm" y="90mm" font-size="24">
   3.3
  </text>
  <circle cx="276.989456mm" cy="56.885195mm" r="1.649827mm" fill="none"/>
  <line x1="280.289111mm" y1="56.885195mm" x2="273.689802mm" y2="56.885195mm" />
  <line x1="276.989456mm" y1="53.585541mm" x2="276.989456mm" y2="60.184849mm" />
  <text x="278mm" y="55mm" font-size="24">
   3.3
  </text>
  <circle cx="286.690247mm" cy="17.999975mm" r="3.300132mm" fill="none"/>
  <line x1="293.290512mm" y1="17.999975mm" x2="280.089983mm" y2="17.999975mm" />
  <line x1="286.690247mm" y1="11.399711mm" x2="286.690247mm" y2="24.600240mm" />
  <text x="289mm" y="14mm" font-size="24">
   6.6
  </text>
  <circle cx="331.310247mm" cy="17.999975mm" r="3.300132mm" fill="none"/>
  <line x1="337.910512mm" y1="17.999975mm" x2="324.709983mm" y2="17.999975mm" />
  <line x1="331.310247mm" y1="11.399711mm" x2="331.310247mm" y2="24.600240mm" />
  <text x="334mm" y="14mm" font-size="24">
   6.6
  </text>
  <circle cx="459.530247mm" cy="321.999975mm" r="3.300132mm" fill="none"/>
  <line x1="466.130512mm" y1="321.999975mm" x2="452.929983mm" y2="321.999975mm" />
  <line x1="459.530247mm" y1="315.399711mm" x2="459.530247mm" y2="328.600240mm" />
  <text x="462mm" y="318mm" font-size="24">
   6.6
  </text>
  <circle cx="515.530247mm" cy="295.999975mm" r="3.300132mm" fill="none"/>
  <line x1="522.130512mm" y1="295.999975mm" x2="508.929983mm" y2="295.999975mm" />
  <line x1="515.530247mm" y1="289.399711mm" x2="515.530247mm" y2="302.600240mm" />
  <text x="518mm" y="292mm" font-size="24">
   6.6
  </text>
  <circle cx="614.000087mm" cy="614.000061mm" r="1.250061mm" fill="none"/>
  <line x1="616.500208mm" y1="614.000061mm" x2="611.499966mm" y2="614.000061mm" />
  <line x1="614.000087mm" y1="611.499939mm" x2="614.000087mm" y2="616.500182mm" />
  <text x="615mm" y="612mm" font-size="24">
   2.5
  </text>
  <circle cx="614.000087mm" cy="4.000061mm" r="1.250061mm" fill="none"/>
  <line x1="616.500208mm" y1="4.000061mm" x2="611.499966mm" y2="4.000061mm" />
  <line x1="614.000087mm" y1="1.499939mm" x2="614.000087mm" y2="6.500182mm" />
  <text x="615mm" y="2mm" font-size="24">
   2.5
  </text>
 </g>
</svg>
