<?xml version="1.0"?>
<svg xmlns="http://www.w3.org/2000/svg" version="1.1" height="628mm" width="588mm" >
 <g style="fill-opacity:1.0; stroke:black; stroke-width:1;">
  <line x1="578.000000mm" y1="618.000000mm" x2="578.000000mm" y2="618.000000mm" />
  <line x1="578.000000mm" y1="618.000000mm" x2="0.000000mm" y2="618.000000mm" />
  <line x1="0.000000mm" y1="618.000000mm" x2="0.000000mm" y2="0.000000mm" />
  <line x1="0.000000mm" y1="0.000000mm" x2="255.190000mm" y2="0.000000mm" />
  <line x1="255.190000mm" y1="0.000000mm" x2="255.190000mm" y2="35.000000mm" />
  <line x1="255.190000mm" y1="35.000000mm" x2="322.810000mm" y2="35.000000mm" />
  <line x1="322.810000mm" y1="35.000000mm" x2="322.810000mm" y2="0.000000mm" />
  <line x1="322.810000mm" y1="0.000000mm" x2="578.000000mm" y2="0.000000mm" />
  <line x1="578.000000mm" y1="0.000000mm" x2="578.000000mm" y2="618.000000mm" />
  <line x1="87.470000mm" y1="590.500000mm" x2="87.470000mm" y2="590.500000mm" />
  <line x1="87.470000mm" y1="590.500000mm" x2="77.470000mm" y2="590.500000mm" />
  <line x1="77.470000mm" y1="590.500000mm" x2="77.470000mm" y2="580.500000mm" />
  <line x1="77.470000mm" y1="580.500000mm" x2="87.470000mm" y2="580.500000mm" />
  <line x1="87.470000mm" y1="580.500000mm" x2="87.470000mm" y2="590.500000mm" />
  <line x1="87.470000mm" y1="63.500000mm" x2="87.470000mm" y2="63.500000mm" />
  <line x1="87.470000mm" y1="63.500000mm" x2="77.470000mm" y2="63.500000mm" />
  <line x1="77.470000mm" y1="63.500000mm" x2="77.470000mm" y2="53.500000mm" />
  <line x1="77.470000mm" y1="53.500000mm" x2="87.470000mm" y2="53.500000mm" />
  <line x1="87.470000mm" y1="53.500000mm" x2="87.470000mm" y2="63.500000mm" />
  <line x1="143.470000mm" y1="564.500000mm" x2="143.470000mm" y2="564.500000mm" />
  <line x1="143.470000mm" y1="564.500000mm" x2="133.470000mm" y2="564.500000mm" />
  <line x1="133.470000mm" y1="564.500000mm" x2="133.470000mm" y2="554.500000mm" />
  <line x1="133.470000mm" y1="554.500000mm" x2="143.470000mm" y2="554.500000mm" />
  <line x1="143.470000mm" y1="554.500000mm" x2="143.470000mm" y2="564.500000mm" />
  <line x1="143.470000mm" y1="37.500000mm" x2="143.470000mm" y2="37.500000mm" />
  <line x1="143.470000mm" y1="37.500000mm" x2="133.470000mm" y2="37.500000mm" />
  <line x1="133.470000mm" y1="37.500000mm" x2="133.470000mm" y2="27.500000mm" />
  <line x1="133.470000mm" y1="27.500000mm" x2="143.470000mm" y2="27.500000mm" />
  <line x1="143.470000mm" y1="27.500000mm" x2="143.470000mm" y2="37.500000mm" />
  <line x1="261.990000mm" y1="569.965000mm" x2="261.990000mm" y2="569.965000mm" />
  <line x1="261.990000mm" y1="569.965000mm" x2="251.990000mm" y2="569.965000mm" />
  <line x1="251.990000mm" y1="569.965000mm" x2="251.990000mm" y2="524.735000mm" />
  <line x1="251.990000mm" y1="524.735000mm" x2="261.990000mm" y2="524.735000mm" />
  <line x1="261.990000mm" y1="524.735000mm" x2="261.990000mm" y2="569.965000mm" />
  <line x1="261.990000mm" y1="97.115000mm" x2="261.990000mm" y2="97.115000mm" />
  <line x1="261.990000mm" y1="97.115000mm" x2="251.990000mm" y2="97.115000mm" />
  <line x1="251.990000mm" y1="97.115000mm" x2="251.990000mm" y2="51.885000mm" />
  <line x1="251.990000mm" y1="51.885000mm" x2="261.990000mm" y2="51.885000mm" />
  <line x1="261.990000mm" y1="51.885000mm" x2="261.990000mm" y2="97.115000mm" />
  <line x1="444.530000mm" y1="327.000000mm" x2="444.530000mm" y2="327.000000mm" />
  <line x1="444.530000mm" y1="327.000000mm" x2="434.530000mm" y2="327.000000mm" />
  <line x1="434.530000mm" y1="327.000000mm" x2="434.530000mm" y2="317.000000mm" />
  <line x1="434.530000mm" y1="317.000000mm" x2="444.530000mm" y2="317.000000mm" />
  <line x1="444.530000mm" y1="317.000000mm" x2="444.530000mm" y2="327.000000mm" />
  <line x1="500.530000mm" y1="301.000000mm" x2="500.530000mm" y2="301.000000mm" />
  <line x1="500.530000mm" y1="301.000000mm" x2="490.530000mm" y2="301.000000mm" />
  <line x1="490.530000mm" y1="301.000000mm" x2="490.530000mm" y2="291.000000mm" />
  <line x1="490.530000mm" y1="291.000000mm" x2="500.530000mm" y2="291.000000mm" />
  <line x1="500.530000mm" y1="291.000000mm" x2="500.530000mm" y2="301.000000mm" />
 </g>
</svg>
