  0
SECTION
  2
BLOCKS
  0
ENDSEC
  0
SECTION
  2
ENTITIES
  0
LINE
  8
0
 10
-289
 11
-289
 20
-309
 21
309
  0
LINE
  8
0
 10
-289
 11
-33.81
 20
309
 21
309
  0
LINE
  8
0
 10
-33.81
 11
-33.81
 20
309
 21
274
  0
LINE
  8
0
 10
-33.81
 11
33.81
 20
274
 21
274
  0
LINE
  8
0
 10
33.81
 11
33.81
 20
274
 21
309
  0
LINE
  8
0
 10
33.81
 11
289
 20
309
 21
309
  0
LINE
  8
0
 10
289
 11
289
 20
309
 21
-309
  0
LINE
  8
0
 10
289
 11
-289
 20
-309
 21
-309
  0
LINE
  8
0
 10
-211.53
 11
-211.53
 20
-281.5
 21
-271.5
  0
LINE
  8
0
 10
-211.53
 11
-201.53
 20
-271.5
 21
-271.5
  0
LINE
  8
0
 10
-201.53
 11
-201.53
 20
-271.5
 21
-281.5
  0
LINE
  8
0
 10
-201.53
 11
-211.53
 20
-281.5
 21
-281.5
  0
LINE
  8
0
 10
-211.53
 11
-211.53
 20
245.5
 21
255.5
  0
LINE
  8
0
 10
-211.53
 11
-201.53
 20
255.5
 21
255.5
  0
LINE
  8
0
 10
-201.53
 11
-201.53
 20
255.5
 21
245.5
  0
LINE
  8
0
 10
-201.53
 11
-211.53
 20
245.5
 21
245.5
  0
LINE
  8
0
 10
-155.53
 11
-155.53
 20
-255.5
 21
-245.5
  0
LINE
  8
0
 10
-155.53
 11
-145.53
 20
-245.5
 21
-245.5
  0
LINE
  8
0
 10
-145.53
 11
-145.53
 20
-245.5
 21
-255.5
  0
LINE
  8
0
 10
-145.53
 11
-155.53
 20
-255.5
 21
-255.5
  0
LINE
  8
0
 10
-155.53
 11
-155.53
 20
271.5
 21
281.5
  0
LINE
  8
0
 10
-155.53
 11
-145.53
 20
281.5
 21
281.5
  0
LINE
  8
0
 10
-145.53
 11
-145.53
 20
281.5
 21
271.5
  0
LINE
  8
0
 10
-145.53
 11
-155.53
 20
271.5
 21
271.5
  0
LINE
  8
0
 10
-37.01
 11
-37.01
 20
-260.965
 21
-215.735
  0
LINE
  8
0
 10
-37.01
 11
-27.01
 20
-215.735
 21
-215.735
  0
LINE
  8
0
 10
-27.01
 11
-27.01
 20
-215.735
 21
-260.965
  0
LINE
  8
0
 10
-27.01
 11
-37.01
 20
-260.965
 21
-260.965
  0
LINE
  8
0
 10
-37.01
 11
-37.01
 20
211.885
 21
257.115
  0
LINE
  8
0
 10
-37.01
 11
-27.01
 20
257.115
 21
257.115
  0
LINE
  8
0
 10
-27.01
 11
-27.01
 20
257.115
 21
211.885
  0
LINE
  8
0
 10
-27.01
 11
-37.01
 20
211.885
 21
211.885
  0
LINE
  8
0
 10
145.53
 11
145.53
 20
-18
 21
-8
  0
LINE
  8
0
 10
145.53
 11
155.53
 20
-8
 21
-8
  0
LINE
  8
0
 10
155.53
 11
155.53
 20
-8
 21
-18
  0
LINE
  8
0
 10
155.53
 11
145.53
 20
-18
 21
-18
  0
LINE
  8
0
 10
201.53
 11
201.53
 20
8
 21
18
  0
LINE
  8
0
 10
201.53
 11
211.53
 20
18
 21
18
  0
LINE
  8
0
 10
211.53
 11
211.53
 20
18
 21
8
  0
LINE
  8
0
 10
211.53
 11
201.53
 20
8
 21
8
  0
ENDSEC
  0
SECTION
  2
OBJECTS
  0
DICTIONARY
  0
ENDSEC
  0
EOF
